<!-- Generator: Adobe Illustrator 17.1.0, SVG Export Plug-In  -->
<svg version="1.1"
	 xmlns="http://www.w3.org/2000/svg" xmlns:xlink="http://www.w3.org/1999/xlink" xmlns:a="http://ns.adobe.com/AdobeSVGViewerExtensions/3.0/"
	 x="0px" y="0px" width="305.3px" height="281.1px" viewBox="0 0 305.3 281.1" enable-background="new 0 0 305.3 281.1"
	 xml:space="preserve">
<defs>
</defs>
<g>
	<path fill="#FFFFFF" d="M72.7,11h-0.1l-6.8,10.3h-4.1V4.5h4.3v10.3H66l6.8-10.3h4.1v16.8h-4.3V11z"/>
	<path fill="#FFFFFF" d="M79.4,12.9c0-5.5,3.1-8.8,8.1-8.8c4.1,0,7.2,2.6,7.6,6.4H91c-0.4-1.7-1.7-2.9-3.4-2.9c-2.3,0-3.8,2-3.8,5.2
		c0,3.3,1.5,5.3,3.8,5.3c1.7,0,3-1.1,3.4-2.8h4.1c-0.4,3.8-3.4,6.3-7.6,6.3C82.6,21.7,79.4,18.4,79.4,12.9z"/>
	<path fill="#FFFFFF" d="M108.4,21.3V7.9h-6.5v13.3h-4.3V4.5h15.1v16.8H108.4z"/>
	<path fill="#FFFFFF" d="M131.7,12.9c0,5.3-3.2,8.7-8.3,8.7c-5.1,0-8.3-3.3-8.3-8.7c0-5.3,3.2-8.7,8.3-8.7
		C128.5,4.2,131.7,7.6,131.7,12.9z M119.5,12.9c0,3.2,1.5,5.2,3.9,5.2c2.4,0,3.9-2,3.9-5.2c0-3.2-1.6-5.2-3.9-5.2
		S119.5,9.7,119.5,12.9z"/>
	<path fill="#FFFFFF" d="M144.6,21.3V7.9h-4.2l-0.3,6.5c-0.2,4.3-1.6,7-5.3,7c-0.7,0-1.3-0.1-1.5-0.2v-3.7c0.2,0,0.5,0.1,0.9,0.1
		c1.5,0,2-1.4,2.1-3.5l0.4-9.6h12.3v16.8H144.6z"/>
	<path fill="#FFFFFF" d="M152,4.5h4.3v5.3h2.8c3.7,0,6.3,2.3,6.3,5.7c0,3.5-2.4,5.7-6,5.7H152V4.5z M158.2,18c1.8,0,2.8-0.8,2.8-2.5
		c0-1.6-1.1-2.5-2.9-2.5h-1.9V18H158.2z"/>
	<path fill="#FFFFFF" d="M171.5,11.1h2.2c1.5,0,2.5-0.8,2.5-2s-0.9-1.9-2.5-1.9c-1.6,0-2.6,0.9-2.6,2.2h-3.9
		c0.1-3.3,2.6-5.4,6.6-5.4c3.8,0,6.4,1.8,6.4,4.6c0,1.9-1.3,3.4-3.2,3.8v0.1c2.3,0.2,3.7,1.8,3.7,4.1c0,3-2.9,5.1-7,5.1
		c-4,0-6.7-2.1-6.8-5.4h4.1c0.1,1.3,1.2,2.1,2.9,2.1c1.6,0,2.6-0.9,2.6-2.1c0-1.2-1-2-2.7-2h-2.2V11.1z"/>
	<path fill="#FFFFFF" d="M183.8,21.3v-3.4c0.1,0,0.3,0.1,1.1,0.1c0.9,0,1.6-0.2,2.2-0.9l-5.5-12.5h4.5l3.2,8.5h0.1l3-8.5h4.5
		l-5.1,12c-1.4,3.3-3,5-6.2,5C184.7,21.5,183.9,21.3,183.8,21.3z"/>
	<path fill="#FFFFFF" d="M210,11h-0.1L203,21.3h-4.1V4.5h4.3v10.3h0.1l6.8-10.3h4.1v16.8H210V11z M204.6,0c0,1.1,0.8,1.8,1.9,1.8
		s1.8-0.7,1.9-1.8h2.4c0,2.3-1.7,3.7-4.3,3.7c-2.5,0-4.3-1.4-4.3-3.7H204.6z"/>
	<path fill="#FFFFFF" d="M221.1,21.3V8h-4.6V4.5H230V8h-4.6v13.3H221.1z"/>
	<path fill="#FFFFFF" d="M243.8,21.3h-11.5V4.5h11.5V8h-7.2v3.3h6.8v3.1h-6.8v3.4h7.2V21.3z"/>
	<path fill="#FFFFFF" d="M34,49.8h-3.8V39.3h-0.1L26,49.6h-2.4l-4.1-10.3h-0.1v10.5h-3.8V33h4.9l4.2,10.8h0.1L29,33H34V49.8z"/>
	<path fill="#FFFFFF" d="M37.3,33h4.3v5.3h2.8c3.7,0,6.3,2.3,6.3,5.7c0,3.5-2.4,5.7-6,5.7h-7.3V33z M43.5,46.5
		c1.8,0,2.8-0.8,2.8-2.5c0-1.6-1.1-2.5-2.9-2.5h-1.9v4.9H43.5z M52.1,49.8V33h4.3v16.8H52.1z"/>
	<path fill="#FFFFFF" d="M59.7,33H64v13.3H68V33h4.3v13.3h4.1V33h4.3v16.8H59.7V33z"/>
	<path fill="#FFFFFF" d="M83.8,33H88v5.3h2.8c3.7,0,6.3,2.3,6.3,5.7c0,3.5-2.4,5.7-6,5.7h-7.3V33z M90,46.5c1.8,0,2.8-0.8,2.8-2.5
		c0-1.6-1.1-2.5-2.9-2.5H88v4.9H90z"/>
	<path fill="#FFFFFF" d="M115.3,39.5h-0.1l-6.8,10.3h-4.1V33h4.3v10.3h0.1l6.8-10.3h4.1v16.8h-4.3V39.5z"/>
	<path fill="#FFFFFF" d="M133,49.8V36.5h-4.2l-0.3,6.5c-0.2,4.3-1.6,7-5.3,7c-0.7,0-1.3-0.1-1.5-0.2v-3.7c0.2,0,0.5,0.1,0.9,0.1
		c1.5,0,2-1.4,2.1-3.5L125,33h12.3v16.8H133z"/>
	<path fill="#FFFFFF" d="M151.4,39.5h-0.1l-6.8,10.3h-4.1V33h4.3v10.3h0.1l6.8-10.3h4.1v16.8h-4.3V39.5z"/>
	<path fill="#FFFFFF" d="M178.7,49.8h-5.2l-5.6-7h-0.1v7h-4.3V33h4.3v6.8h0.1l5.7-6.8h4.7l-6.6,7.9L178.7,49.8z"/>
	<path fill="#FFFFFF" d="M190.8,49.8V36.5h-4.2l-0.3,6.5c-0.2,4.3-1.6,7-5.3,7c-0.7,0-1.3-0.1-1.5-0.2v-3.7c0.2,0,0.5,0.1,0.9,0.1
		c1.5,0,2-1.4,2.1-3.5l0.4-9.6h12.3v16.8H190.8z"/>
	<path fill="#FFFFFF" d="M208,46.1h-5.5l-1.1,3.7h-4.3l5.6-16.8h5.2l5.6,16.8H209L208,46.1z M203.3,43.1h3.8l-1.9-6.5h-0.1
		L203.3,43.1z"/>
	<path fill="#FFFFFF" d="M215.4,49.8V33h7.8c3.3,0,5.3,1.6,5.3,4.2c0,1.9-1.4,3.4-3.3,3.6V41c2.3,0.1,4.1,1.8,4.1,4
		c0,2.9-2.3,4.8-5.9,4.8H215.4z M219.7,39.9h2.2c1.6,0,2.5-0.7,2.5-1.9c0-1.2-0.8-1.9-2.3-1.9h-2.5V39.9z M222.2,46.8
		c1.8,0,2.7-0.8,2.7-2.2c0-1.4-1-2.1-2.8-2.1h-2.6v4.3H222.2z"/>
	<path fill="#FFFFFF" d="M242.8,39.5h-0.1l-6.8,10.3h-4.1V33h4.3v10.3h0.1l6.8-10.3h4.1v16.8h-4.3V39.5z"/>
	<path fill="#FFFFFF" d="M250.2,33h4.3v13.3h4.1V33h4.3v13.3h4.1V33h4.3v16.8h-20.9V33z"/>
	<path fill="#FFFFFF" d="M285.3,39.5h-0.1l-6.8,10.3h-4.1V33h4.3v10.3h0.1l6.8-10.3h4.1v16.8h-4.3V39.5z"/>
</g>
<g>
	<path fill="#FFFFFF" d="M59,236.3v5.1c0,2.2,1.1,3.4,3.4,3.4c1.1,0,2.3-0.4,3.2-0.9v-7.6h2.1v16h-2.1v-6.8h0c-1.1,0.6-2.4,1-3.9,1
		c-2.1,0-4.7-0.9-4.7-4.8v-5.4H59z"/>
	<path fill="#FFFFFF" d="M74.3,238h-4.9v-1.8h11.9v1.8h-4.9v14.3h-2.1V238z"/>
	<path fill="#FFFFFF" d="M95.9,244.1c0,5.5-3.4,8.4-7.4,8.4c-4.2,0-7.2-3.3-7.2-8.1c0-5.1,3.2-8.4,7.4-8.4
		C93.1,236,95.9,239.4,95.9,244.1z M83.5,244.4c0,3.4,1.9,6.5,5.1,6.5c3.3,0,5.1-3,5.1-6.7c0-3.2-1.7-6.5-5.1-6.5
		C85.2,237.7,83.5,240.9,83.5,244.4z"/>
	<path fill="#FFFFFF" d="M107.6,236.3v1.7h-6.9v4.3c0.5-0.1,1.5-0.1,2-0.1c1.5,0,3,0.3,4.1,1.1c1.2,0.8,2,2,2,3.9
		c0,1.5-0.5,2.6-1.3,3.5c-1.3,1.3-3.5,1.8-5.7,1.8c-1.5,0-2.5-0.1-3.2-0.2v-16H107.6z M100.7,250.7c0.5,0.1,1,0.1,1.7,0.1
		c1.3,0,2.6-0.4,3.4-1.2c0.5-0.6,0.9-1.4,0.9-2.4c0-1.2-0.5-2.1-1.3-2.6c-0.8-0.6-1.9-0.8-3-0.8c-0.5,0-1.1,0-1.6,0.1V250.7z"/>
	<path fill="#FFFFFF" d="M113.6,236.3v6c0.5-0.1,1.4-0.1,1.9-0.1c3.3,0,6.2,1.5,6.2,5c0,1.5-0.5,2.6-1.2,3.4
		c-1.3,1.4-3.5,1.9-5.7,1.9c-1.4,0-2.5-0.1-3.2-0.2v-16H113.6z M113.6,250.7c0.4,0.1,1,0.1,1.7,0.1c2.3,0,4.3-1.2,4.3-3.6
		c0-2.5-2.1-3.4-4.3-3.4c-0.8,0-1.4,0.1-1.6,0.1V250.7z M125.5,236.3v16h-2.1v-16H125.5z"/>
	<path fill="#FFFFFF" d="M134.9,236.3l3.2,6.8c0.4,1,0.8,1.9,1.2,2.8h0c0.3-0.8,0.6-1.8,1-2.9l2.5-6.8h2.2l-3.4,8.2
		c-0.9,2.1-1.9,4.6-3,6.1c-1,1.3-2.2,2-3.6,2c-0.5,0-0.9,0-1.2-0.1l0.2-1.7c0.2,0,0.4,0.1,0.8,0.1c1.7,0,2.6-1.6,3.1-2.8
		c0.2-0.4,0.1-0.6-0.1-1l-5.3-10.8H134.9z"/>
	<path fill="#FFFFFF" d="M158.3,236.3v16h-2.1V238h-7.4v14.3h-2.1v-16H158.3z"/>
	<path fill="#FFFFFF" d="M161.9,236.5c1-0.2,2.3-0.3,4-0.3c2,0,3.5,0.5,4.5,1.3c0.9,0.8,1.4,1.9,1.4,3.4c0,1.5-0.4,2.6-1.2,3.4
		c-1.1,1.2-2.9,1.8-4.9,1.8c-0.6,0-1.2,0-1.7-0.1v6.4h-2.1V236.5z M163.9,244.2c0.5,0.1,1,0.2,1.7,0.2c2.5,0,4-1.2,4-3.4
		c0-2.1-1.5-3.1-3.8-3.1c-0.9,0-1.6,0.1-1.9,0.2V244.2z"/>
	<path fill="#FFFFFF" d="M175.1,247.3l-1.7,5h-2.1l5.4-16h2.5l5.5,16h-2.2l-1.7-5H175.1z M180.4,245.6l-1.6-4.6
		c-0.4-1-0.6-2-0.8-2.9h0c-0.2,1-0.5,1.9-0.8,2.9l-1.6,4.6H180.4z"/>
	<path fill="#FFFFFF" d="M187.1,236.5c0.9-0.2,2.3-0.3,3.8-0.3c2.1,0,3.4,0.4,4.4,1.2c0.8,0.6,1.3,1.6,1.3,2.8c0,1.5-1,2.9-2.7,3.5
		v0c1.5,0.4,3.3,1.6,3.3,4c0,1.4-0.5,2.4-1.4,3.2c-1.1,1-2.9,1.5-5.5,1.5c-1.4,0-2.5-0.1-3.2-0.2V236.5z M189.1,243.1h1.9
		c2.2,0,3.5-1.1,3.5-2.7c0-1.9-1.4-2.6-3.5-2.6c-1,0-1.5,0.1-1.8,0.1V243.1z M189.1,250.7c0.4,0.1,1,0.1,1.7,0.1
		c2.1,0,4.1-0.8,4.1-3.1c0-2.2-1.9-3.1-4.1-3.1h-1.7V250.7z"/>
	<path fill="#FFFFFF" d="M210.6,236.3v16h-2.1V238h-5.3v4.9c0,3.5-0.1,7.3-2.4,8.9c-0.6,0.4-1.5,0.8-2.4,0.8l-0.3-1.7
		c0.6-0.1,1.3-0.5,1.7-0.9c1.3-1.3,1.4-4.4,1.4-6.9v-6.8H210.6z"/>
	<path fill="#FFFFFF" d="M212.7,252.3c0.2-0.4,0.5-0.9,0.6-1.5c0.7-1.8,1.1-4.1,2.4-5.4c0.4-0.4,0.9-0.7,1.3-0.8v-0.1
		c-2-0.3-3.5-1.8-3.5-3.9c0-1.4,0.6-2.5,1.5-3.3c1-0.8,2.6-1.2,4.6-1.2c1.4,0,2.8,0.1,3.8,0.3v15.8h-2.1v-6.9h-1.5
		c-1,0-1.7,0.2-2.3,0.8c-1.1,1.1-1.5,3.5-2.1,5c-0.2,0.4-0.3,0.7-0.5,1.2H212.7z M221.4,237.9c-0.4-0.1-1-0.2-1.9-0.2
		c-2,0-3.8,0.8-3.8,3c0,1.9,1.7,3,4,3c0.7,0,1.4,0,1.8,0V237.9z"/>
	<path fill="#FFFFFF" d="M230.1,238h-4.9v-1.8h11.9v1.8h-4.9v14.3h-2.1V238z"/>
	<path fill="#FFFFFF" d="M240.9,236.3v6c0.5-0.1,1.4-0.1,2-0.1c3.3,0,6.2,1.5,6.2,5c0,1.5-0.5,2.6-1.2,3.4c-1.3,1.4-3.5,1.9-5.8,1.9
		c-1.5,0-2.5-0.1-3.2-0.2v-16H240.9z M240.9,250.7c0.5,0.1,1,0.1,1.7,0.1c2.3,0,4.3-1.1,4.3-3.6c0-2.5-2-3.5-4.3-3.5
		c-0.5,0-1.2,0-1.7,0.1V250.7z"/>
	<path fill="#FFFFFF" d="M97,264.8v16H95v-14.3h-7.4v14.3h-2.1v-16H97z"/>
	<path fill="#FFFFFF" d="M103.2,275.8l-1.7,5h-2.1l5.4-16h2.5l5.5,16h-2.2l-1.7-5H103.2z M108.5,274.2l-1.6-4.6
		c-0.4-1-0.6-2-0.8-2.9h0c-0.2,1-0.5,1.9-0.8,2.9l-1.6,4.6H108.5z"/>
	<path fill="#FFFFFF" d="M117.3,264.8v6.7h7.8v-6.7h2.1v16H125v-7.5h-7.8v7.5h-2.1v-16H117.3z"/>
	<path fill="#FFFFFF" d="M144.4,272.7c0,5.5-3.4,8.4-7.4,8.4c-4.2,0-7.2-3.3-7.2-8.1c0-5.1,3.2-8.4,7.4-8.4
		C141.6,264.6,144.4,267.9,144.4,272.7z M132,272.9c0,3.4,1.9,6.5,5.1,6.5c3.3,0,5.1-3,5.1-6.7c0-3.2-1.7-6.5-5.1-6.5
		C133.7,266.2,132,269.4,132,272.9z"/>
	<path fill="#FFFFFF" d="M147.1,265c1-0.2,2.3-0.3,4-0.3c2,0,3.5,0.5,4.5,1.3c0.9,0.8,1.4,1.9,1.4,3.4c0,1.5-0.4,2.6-1.2,3.4
		c-1.1,1.2-2.9,1.8-4.9,1.8c-0.6,0-1.2,0-1.7-0.1v6.4h-2.1V265z M149.2,272.7c0.5,0.1,1,0.2,1.7,0.2c2.5,0,4-1.2,4-3.4
		c0-2.1-1.5-3.1-3.8-3.1c-0.9,0-1.6,0.1-1.9,0.2V272.7z"/>
	<path fill="#FFFFFF" d="M160.3,275.8l-1.7,5h-2.1l5.4-16h2.5l5.5,16h-2.2l-1.7-5H160.3z M165.6,274.2l-1.6-4.6
		c-0.4-1-0.6-2-0.8-2.9h0c-0.2,1-0.5,1.9-0.8,2.9l-1.6,4.6H165.6z"/>
	<path fill="#FFFFFF" d="M185.8,273.8c-0.1-2.2-0.3-4.9-0.2-6.9h-0.1c-0.5,1.9-1.2,3.9-2,6.1l-2.8,7.8h-1.6l-2.6-7.6
		c-0.8-2.3-1.4-4.3-1.9-6.2h0c0,2-0.2,4.7-0.3,7.1l-0.4,6.9h-2l1.1-16h2.6l2.7,7.8c0.7,2,1.2,3.7,1.6,5.4h0.1c0.4-1.6,1-3.4,1.7-5.4
		l2.9-7.8h2.6l1,16h-2L185.8,273.8z"/>
	<path fill="#FFFFFF" d="M205.1,272.7c0,5.5-3.4,8.4-7.4,8.4c-4.2,0-7.2-3.3-7.2-8.1c0-5.1,3.2-8.4,7.4-8.4
		C202.3,264.6,205.1,267.9,205.1,272.7z M192.7,272.9c0,3.4,1.9,6.5,5.1,6.5c3.3,0,5.1-3,5.1-6.7c0-3.2-1.7-6.5-5.1-6.5
		C194.4,266.2,192.7,269.4,192.7,272.9z"/>
	<path fill="#FFFFFF" d="M209.7,264.8v6.8c0,2.5,0,4.6-0.2,6.8l0,0c0.8-1.7,1.8-3.4,3-5.3l5.2-8.2h2.1v16h-1.9V274
		c0-2.6,0-4.5,0.2-6.5l-0.1,0c-0.8,1.8-1.9,3.6-3,5.4l-5,8h-2.2v-16H209.7z M212.3,261.5c0.1,0.7,0.3,1.5,1.5,1.5
		c1.1,0,1.4-0.7,1.5-1.5h1.6c-0.1,1.6-1.1,2.5-3.1,2.5c-1.9,0-2.9-1-3-2.5H212.3z"/>
</g>
<g>
	<g>
		<path fill="#FFFFFF" d="M30.5,192.8c-15.4,0-28.2-11.2-30.2-26.6c-1.2-9.2,1.4-17.2,7.6-24.1c2.2-2.5,4.8-4.8,7.1-7.3
			c0.7-0.8,1.2-0.7,2,0c13.7,13.7,27.5,27.5,41.2,41.2c0.5,0.5,1,0.9,0.2,1.6c-3.2,3.1-6.1,6.5-9.6,9.1
			C43.3,190.8,37.2,192.8,30.5,192.8z"/>
		<path fill="#FFFFFF" d="M112.6,119.9c0.1,6.2-2.8,11.1-6.2,15.8c-3.1,4.3-6.9,7.8-10.4,11.7c-2.2,2.5-4.2,5.1-5.4,8.2
			c-1.6,4.1,0.3,8.4,4.4,9.4c1.6,0.4,3.2-0.1,4.6-0.7c3.2-1.3,5.9-3.4,8.5-5.7c1.4-1.2,2.7-2.5,4.1-3.7c1.5-1.4,3.5-1.5,4.6-0.4
			c1.2,1.2,1,3-0.5,4.5c-4.5,4.3-9,8.4-14.9,10.8c-9.2,3.8-16.8-3.5-17.2-10.2c-0.2-3.4,1-6.4,2.7-9.3c2.2-3.9,5.3-7.2,8.4-10.4
			c3.2-3.3,6.3-6.7,8.6-10.7c1.3-2.2,2.4-4.5,2.9-7.2c0.8-4.9-1.4-8.5-5.1-11.4c-3.5-2.7-7.2-2.7-11.2-1.2c-4,1.6-7.2,4.2-10.3,7
			c-1.8,1.5-3.4,3.2-5.1,4.8c-1.1,1-2.3,1.2-3.6,0.4c-1.1-0.7-1.4-1.7-1.2-3c0.1-0.6,0.4-1,0.8-1.4c4.6-4.7,9.4-9.1,15.2-12.2
			c12.9-6.9,23.6,2.3,25.9,11.1C112.5,117.4,112.6,118.7,112.6,119.9z"/>
		<path fill="#FFFFFF" d="M77.2,145.9c-0.2,8.7-3.1,15.8-8.9,21.8c-1.4,1.4-2.8,2.8-4.2,4.2c-0.6,0.7-1.1,0.6-1.7,0
			c-5.8-5.8-11.5-11.6-17.3-17.3c-0.7-0.7-0.6-1.1,0-1.7c0.5-0.5,1-0.9,1.5-1.5c1.6-1.9,3.3-3.3,6.2-2.7c1.9,0.4,3.7-0.6,5.1-2
			c1.8-1.7,3.6-3.5,5.3-5.3c1.9-2,2.7-4.3,2-7c-0.2-0.9-0.1-1.6,0.6-2.3c1.4-1.2,2.6-2.6,3.9-3.9c0.6-0.7,1.1-0.7,1.6,0.1
			c3.1,4.4,5,9.3,5.6,14.6C77.1,144.1,77.2,145.2,77.2,145.9z"/>
		<path fill="#FFFFFF" d="M46,115.8c7.1-0.1,12.9,1.9,18.2,5.5c1,0.7,1.2,1.2,0.2,2c-1.3,1.1-2.4,2.4-3.6,3.6
			c-0.6,0.7-1.2,0.8-2.1,0.5c-3-0.9-5.7-0.3-8,2c-1.6,1.6-3.2,3.2-4.9,4.9c-2.2,2.3-2.9,4.9-1.9,8c0.3,0.8,0.2,1.4-0.5,2
			c-1.2,1.1-2.4,2.3-3.5,3.5c-0.6,0.7-1.1,0.8-1.8,0.1c-5.7-5.7-11.4-11.4-17.1-17.1c-0.5-0.5-1-0.9-0.3-1.6
			c3.8-3.8,7.3-7.7,12.3-10.1C37.4,116.8,41.9,115.6,46,115.8z"/>
		<path fill="#FFFFFF" d="M56.4,131.3c2.1,0.3,3.5,1.7,4.4,3.4c0.8,1.6,0.1,3-1,4.2c-1.5,1.5-2.9,3-4.4,4.4
			c-1.8,1.7-3.6,1.6-5.5-0.2c-2.3-2.2-2.6-3.9-0.8-5.9c1.5-1.7,3.2-3.3,4.8-4.9C54.5,131.7,55.3,131.2,56.4,131.3z"/>
	</g>
	<g>
		<path fill="#FFFFFF" d="M187.8,152.1c2.7,0,4.9,2.2,4.9,4.9v33.8c0,2.7-2.2,4.9-4.9,4.9h-33.8c-2.7,0-4.9-2.2-4.9-4.9V157
			c0-2.7,2.2-4.9,4.9-4.9H187.8 M187.8,148.5h-33.8c-4.7,0-8.5,3.8-8.5,8.5v33.8c0,4.7,3.8,8.5,8.5,8.5h33.8c4.7,0,8.5-3.8,8.5-8.5
			V157C196.2,152.4,192.4,148.5,187.8,148.5L187.8,148.5z"/>
		<path fill="#FFFFFF" d="M242.3,152.1c2.7,0,4.9,2.2,4.9,4.9v33.8c0,2.7-2.2,4.9-4.9,4.9h-33.8c-2.7,0-4.9-2.2-4.9-4.9V157
			c0-2.7,2.2-4.9,4.9-4.9H242.3 M242.3,148.5h-33.8c-4.7,0-8.5,3.8-8.5,8.5v33.8c0,4.7,3.8,8.5,8.5,8.5h33.8c4.7,0,8.5-3.8,8.5-8.5
			V157C250.8,152.4,246.9,148.5,242.3,148.5L242.3,148.5z"/>
		<path fill="#FFFFFF" d="M242.3,97.6c2.7,0,4.9,2.2,4.9,4.9v33.8c0,2.7-2.2,4.9-4.9,4.9h-33.8c-2.7,0-4.9-2.2-4.9-4.9v-33.8
			c0-2.7,2.2-4.9,4.9-4.9H242.3 M242.3,94h-33.8c-4.7,0-8.5,3.8-8.5,8.5v33.8c0,4.7,3.8,8.5,8.5,8.5h33.8c4.7,0,8.5-3.8,8.5-8.5
			v-33.8C250.8,97.8,246.9,94,242.3,94L242.3,94z"/>
		<path fill="#FFFFFF" d="M296.8,152.1c2.7,0,4.9,2.2,4.9,4.9v33.8c0,2.7-2.2,4.9-4.9,4.9H263c-2.7,0-4.9-2.2-4.9-4.9V157
			c0-2.7,2.2-4.9,4.9-4.9H296.8 M296.8,148.5H263c-4.7,0-8.5,3.8-8.5,8.5v33.8c0,4.7,3.8,8.5,8.5,8.5h33.8c4.7,0,8.5-3.8,8.5-8.5
			V157C305.3,152.4,301.5,148.5,296.8,148.5L296.8,148.5z"/>
		<polygon fill="#FFFFFF" points="231.3,118.1 225.4,108.2 219.5,118.1 224.2,118.1 224.2,130.6 226.5,130.6 226.5,118.1 		"/>
		<polygon fill="#FFFFFF" points="219.5,175.2 225.4,185.2 231.3,175.2 226.5,175.2 226.5,162.7 224.2,162.7 224.2,175.2 		"/>
		<polygon fill="#FFFFFF" points="169.5,168 159.6,173.9 169.5,179.9 169.5,175.1 182.1,175.1 182.1,172.8 169.5,172.8 		"/>
		<polygon fill="#FFFFFF" points="281.2,179.9 291.1,173.9 281.2,168 281.2,172.8 268.7,172.8 268.7,175.1 281.2,175.1 		"/>
	</g>
</g>
</svg>
