<!-- Generator: Adobe Illustrator 17.1.0, SVG Export Plug-In  -->
<svg version="1.1"
	 xmlns="http://www.w3.org/2000/svg" xmlns:xlink="http://www.w3.org/1999/xlink" xmlns:a="http://ns.adobe.com/AdobeSVGViewerExtensions/3.0/"
	 x="0px" y="0px" width="191.5px" height="88.7px" viewBox="0 0 191.5 88.7" enable-background="new 0 0 191.5 88.7"
	 xml:space="preserve">
<defs>
</defs>
<g>
	<linearGradient id="SVGID_1_" gradientUnits="userSpaceOnUse" x1="0" y1="44.3626" x2="191.4707" y2="44.3626">
		<stop  offset="0" style="stop-color:#26335D"/>
		<stop  offset="0.9286" style="stop-color:#1B294C"/>
	</linearGradient>
	<polygon fill="url(#SVGID_1_)" points="0,57.1 0,0 191.5,0 191.5,57.1 95.6,88.7 	"/>

		<polygon fill="none" stroke="#80CA28" stroke-width="3" stroke-linecap="round" stroke-linejoin="round" stroke-miterlimit="10" points="
		185.7,53.2 95.6,82.5 5.7,53.2 5.7,5.7 185.7,5.7 	"/>
	<g>
		<g>
			<path fill="#E5E6E7" d="M40.4,36.3h0.9c0.1,0.6,0.2,1.5,0.3,2.4c0.1,1,0.1,1.9,0.1,2.9c-0.3,0.3-0.8,0.5-1.3,0.7s-1,0.3-1.5,0.4
				c-0.5,0.1-1.1,0.2-1.7,0.2c-0.6,0-1.1,0.1-1.6,0.1c-1.9,0-3.7-0.2-5.2-0.7c-1.5-0.5-2.8-1.3-3.9-2.3c-1.1-1-1.9-2.3-2.4-3.9
				c-0.6-1.6-0.9-3.5-0.9-5.6c0-2.3,0.3-4.2,0.9-5.8s1.5-2.9,2.5-3.9s2.3-1.7,3.7-2.2c1.4-0.5,2.9-0.7,4.4-0.7
				c1.5,0,2.8,0.1,3.9,0.3c1,0.2,2,0.5,2.7,0.9c0,0.4,0,0.8,0,1.3c0,0.5-0.1,1-0.1,1.6c0,0.6-0.1,1.1-0.2,1.6
				c-0.1,0.5-0.1,1-0.2,1.5h-0.9l-1.8-5c-0.3-0.1-0.7-0.2-1.3-0.3c-0.6,0-1.2-0.1-1.7-0.1c-1.2,0-2.2,0.2-3.3,0.6
				c-1,0.4-1.9,1.1-2.7,2s-1.4,2-1.9,3.4c-0.5,1.4-0.7,2.9-0.7,4.8c0,1.6,0.2,3.1,0.6,4.5c0.4,1.3,1,2.5,1.8,3.4
				c0.8,0.9,1.7,1.7,2.9,2.2c1.1,0.5,2.4,0.7,3.8,0.7c0.8,0,1.4-0.1,1.9-0.2c0.5-0.1,0.8-0.3,1-0.5L40.4,36.3z"/>
			<path fill="#E5E6E7" d="M59.4,40.2c-0.2,0.4-0.5,0.8-0.9,1.1c-0.4,0.3-0.8,0.6-1.4,0.9s-1.1,0.5-1.7,0.6C54.9,43,54.2,43,53.6,43
				c-1.4,0-2.6-0.2-3.6-0.6c-1-0.4-1.9-1-2.6-1.8c-0.7-0.8-1.2-1.8-1.6-2.9c-0.4-1.1-0.5-2.4-0.5-3.8c0-3,0.7-5.2,2-6.8
				c1.4-1.6,3.3-2.3,5.8-2.3c0.8,0,1.6,0.1,2.4,0.3c0.8,0.2,1.5,0.6,2.1,1.1c0.6,0.5,1.1,1.2,1.5,2s0.6,1.9,0.6,3.1
				c0,0.4,0,0.8-0.1,1.2c0,0.4-0.1,0.8-0.2,1.3H48.6c0,1,0.1,1.9,0.4,2.7c0.2,0.8,0.6,1.6,1.1,2.2c0.5,0.6,1.1,1.1,1.8,1.5
				c0.7,0.4,1.6,0.5,2.6,0.5c0.8,0,1.6-0.1,2.5-0.3c0.8-0.2,1.5-0.5,1.9-0.9L59.4,40.2z M53,26.4c-1.3,0-2.3,0.4-3,1.3
				c-0.7,0.9-1.1,2.5-1.3,4.7h7.6c0-0.2,0-0.4,0.1-0.6c0-0.2,0-0.4,0-0.6c0-1.5-0.3-2.7-0.8-3.5C55,26.8,54.2,26.4,53,26.4z"/>
			<path fill="#E5E6E7" d="M73.5,25.2h6.7v0.9c-0.2,0.2-0.5,0.3-0.9,0.5c-0.4,0.1-0.9,0.3-1.4,0.5c-0.8,1-1.6,1.9-2.5,2.9
				c-0.9,1-1.8,1.9-2.8,2.9c0.5,0.6,1,1.2,1.6,1.8c0.6,0.7,1.1,1.4,1.7,2.1c0.6,0.7,1.2,1.4,1.7,2.1c0.6,0.7,1.1,1.3,1.7,1.9
				l1.6,0.8v0.9h-4.1l-1.1-0.8c-1-1.3-2-2.5-2.8-3.8c-0.9-1.3-1.7-2.5-2.6-3.7H69v6.5c0.5,0.1,0.9,0.2,1.3,0.4
				c0.4,0.1,0.7,0.3,1,0.5v0.9h-7.7v-0.9c0.6-0.4,1.4-0.6,2.3-0.8V27c-0.8-0.2-1.6-0.4-2.3-0.8v-0.9h7.1v0.9
				c-0.2,0.2-0.5,0.3-0.7,0.5c-0.3,0.1-0.6,0.3-1,0.4v6.5l1.6-0.3c0.9-1.1,1.8-2.1,2.6-3c0.8-0.9,1.6-1.9,2.3-3
				c-0.4-0.2-0.8-0.3-1.1-0.5c-0.3-0.2-0.7-0.3-1-0.5V25.2z"/>
			<path fill="#E5E6E7" d="M83.2,42.6v-0.9c0.6-0.4,1.4-0.6,2.3-0.8V27c-0.9-0.1-1.6-0.4-2.3-0.8v-0.9h7.5v0.9
				c-0.5,0.3-1.2,0.6-2,0.8v14.1H96V27c-0.6-0.1-1.3-0.4-2-0.8v-0.9h7.5v0.9c-0.3,0.2-0.6,0.3-1,0.5c-0.4,0.1-0.8,0.3-1.3,0.4v14.1
				h3.1c0,1.1-0.1,2.2-0.2,3.3s-0.1,2.2-0.2,3.3H101l-1.5-5.1H83.2z"/>
			<path fill="#E5E6E7" d="M105.4,25.2h7.4v0.9c-0.3,0.1-0.6,0.3-0.9,0.4c-0.3,0.1-0.7,0.3-1.2,0.4v9.5l-0.4,3.2h0.2l1.4-2.6
				l7.4-11.9h4.7v0.9c-0.7,0.4-1.5,0.7-2.3,0.8v13.9c0.4,0.1,0.9,0.2,1.3,0.4c0.4,0.1,0.7,0.3,1,0.5v0.9h-7.4v-0.9
				c0.6-0.4,1.3-0.6,2.1-0.8V31l0.3-2.7h-0.2l-1.3,2.6l-7.4,11.8h-4.8v-0.9c0.4-0.2,0.8-0.3,1.1-0.5c0.4-0.1,0.8-0.2,1.1-0.4V27
				c-0.9-0.1-1.7-0.4-2.3-0.8V25.2z"/>
			<path fill="#E5E6E7" d="M128.4,30.4c0-0.8,0.1-1.5,0.4-2.2s0.7-1.2,1.2-1.7c0.5-0.5,1.2-0.8,2.1-1.1c0.8-0.3,1.9-0.4,3.1-0.4
				c0.3,0,0.7,0,1.2,0c0.5,0,1,0,1.6,0.1c0.6,0,1.1,0,1.6,0.1c0.5,0,0.9,0,1.2,0h2.5v0.9c-0.2,0.2-0.4,0.3-0.8,0.5
				c-0.3,0.1-0.8,0.3-1.5,0.4v13.9c0.9,0.3,1.6,0.5,2.3,0.8v0.9h-7.5v-0.9c0.3-0.2,0.6-0.3,1-0.5c0.3-0.1,0.7-0.2,1.1-0.4V35
				l-2.5,0.3c-0.5,0.8-1,1.8-1.6,2.9c-0.6,1.1-1.4,2.3-2.5,3.5l-1.1,0.8h-3.9v-0.9l1.9-0.8c1-1.1,1.9-2.2,2.6-3.2s1.4-2,1.9-2.7
				c-0.5-0.1-1.1-0.2-1.6-0.5c-0.5-0.2-1-0.5-1.4-0.9s-0.7-0.8-1-1.4C128.5,31.7,128.4,31.1,128.4,30.4z M137.8,26.8
				c-0.3,0-0.7-0.1-1.2-0.1c-0.5,0-0.9-0.1-1.2-0.1c-1.4,0-2.4,0.3-3,1c-0.5,0.7-0.8,1.6-0.8,2.7c0,1.1,0.4,2.1,1.3,2.8
				c0.8,0.7,2.2,1.1,3.9,1.1h0.9V26.8z"/>
			<path fill="#E5E6E7" d="M159.4,25.1h-0.9c-0.3-0.7-0.5-1.5-0.8-2.4c-0.3-0.9-0.5-1.8-0.7-2.6c0.8-0.7,1.8-1.2,2.9-1.7
				s2.4-0.6,3.7-0.6c1.2,0,2.2,0.2,3,0.5s1.5,0.8,2.1,1.3c0.5,0.6,0.9,1.2,1.2,1.9s0.4,1.5,0.4,2.3c0,1.3-0.3,2.6-0.9,4
				c-0.6,1.4-1.3,2.7-2.2,4c-0.9,1.3-1.9,2.5-2.9,3.6c-1,1.1-2,2.1-2.9,3l-1.5,1.4V40l1.9-0.2h6l1.7-3.9h0.9c0,0.5,0.1,1.1,0.1,1.7
				c0,0.6,0.1,1.2,0.1,1.8c0,0.6,0.1,1.2,0.1,1.8s0,1.1,0,1.5h-14.3v-1.1c0.5-0.5,1.1-1.2,1.9-1.9c0.7-0.8,1.5-1.6,2.3-2.5
				c0.8-0.9,1.6-1.9,2.3-3c0.8-1,1.5-2.1,2.1-3.2s1.1-2.1,1.5-3.2c0.4-1.1,0.6-2.1,0.6-3.1c0-0.7-0.1-1.3-0.3-1.9s-0.4-1.1-0.8-1.6
				c-0.3-0.5-0.8-0.8-1.3-1.1c-0.5-0.3-1.1-0.4-1.7-0.4c-0.5,0-0.9,0-1.3,0.1s-0.8,0.2-1.2,0.3L159.4,25.1z"/>
		</g>
	</g>
</g>
</svg>
