<!-- Generator: Adobe Illustrator 17.1.0, SVG Export Plug-In  -->
<svg version="1.1"
	 xmlns="http://www.w3.org/2000/svg" xmlns:xlink="http://www.w3.org/1999/xlink" xmlns:a="http://ns.adobe.com/AdobeSVGViewerExtensions/3.0/"
	 x="0px" y="0px" width="47.1px" height="47.1px" viewBox="0 0 47.1 47.1" enable-background="new 0 0 47.1 47.1"
	 xml:space="preserve">
<defs>
</defs>
<g>
	<g>
		<path fill="#FFFFFF" d="M45.6,47.1H1.5c-0.8,0-1.5-0.7-1.5-1.5V1.5C0,0.7,0.7,0,1.5,0h44.1c0.8,0,1.5,0.7,1.5,1.5v44.1
			C47.1,46.4,46.4,47.1,45.6,47.1z M3,44.1h41.1V3H3V44.1z"/>
	</g>
	<g>

			<rect x="9" y="10.8" fill="none" stroke="#FFFFFF" stroke-width="3" stroke-linecap="round" stroke-linejoin="round" stroke-miterlimit="10" width="14.3" height="9.2"/>

			<line fill="none" stroke="#FFFFFF" stroke-width="3" stroke-linecap="round" stroke-linejoin="round" stroke-miterlimit="10" x1="9" y1="28.1" x2="38.1" y2="28.1"/>

			<line fill="none" stroke="#FFFFFF" stroke-width="3" stroke-linecap="round" stroke-linejoin="round" stroke-miterlimit="10" x1="9" y1="36.3" x2="38.1" y2="36.3"/>

			<line fill="none" stroke="#FFFFFF" stroke-width="3" stroke-linecap="round" stroke-linejoin="round" stroke-miterlimit="10" x1="30" y1="20" x2="38.1" y2="20"/>

			<line fill="none" stroke="#FFFFFF" stroke-width="3" stroke-linecap="round" stroke-linejoin="round" stroke-miterlimit="10" x1="30" y1="11.8" x2="38.1" y2="11.8"/>
	</g>
</g>
</svg>
