<!-- Generator: Adobe Illustrator 17.1.0, SVG Export Plug-In  -->
<svg version="1.1"
	 xmlns="http://www.w3.org/2000/svg" xmlns:xlink="http://www.w3.org/1999/xlink" xmlns:a="http://ns.adobe.com/AdobeSVGViewerExtensions/3.0/"
	 x="0px" y="0px" width="229.1px" height="95.9px" viewBox="0 0 229.1 95.9" enable-background="new 0 0 229.1 95.9"
	 xml:space="preserve">
<defs>
</defs>
<g>
	<linearGradient id="SVGID_1_" gradientUnits="userSpaceOnUse" x1="0" y1="47.966" x2="229.068" y2="47.966">
		<stop  offset="0" style="stop-color:#26335D"/>
		<stop  offset="0.9286" style="stop-color:#1B294C"/>
	</linearGradient>
	<rect x="0" y="0" fill="url(#SVGID_1_)" width="229.1" height="95.9"/>

		<rect x="9.3" y="7.4" fill="none" stroke="#80C328" stroke-width="3" stroke-linecap="round" stroke-linejoin="round" stroke-miterlimit="10" width="210.4" height="81.1"/>
	<g>
		<g>
			<path fill="#FFFFFF" d="M202.2,70.8h-44.1c-0.8,0-1.5-0.7-1.5-1.5V25.2c0-0.8,0.7-1.5,1.5-1.5h44.1c0.8,0,1.5,0.7,1.5,1.5v44.1
				C203.7,70.1,203.1,70.8,202.2,70.8z M159.7,67.8h41.1V26.7h-41.1V67.8z"/>
		</g>
		<g>

				<rect x="165.6" y="34.5" fill="none" stroke="#FFFFFF" stroke-width="3" stroke-linecap="round" stroke-linejoin="round" stroke-miterlimit="10" width="14.3" height="9.2"/>

				<line fill="none" stroke="#FFFFFF" stroke-width="3" stroke-linecap="round" stroke-linejoin="round" stroke-miterlimit="10" x1="165.6" y1="51.8" x2="194.8" y2="51.8"/>

				<line fill="none" stroke="#FFFFFF" stroke-width="3" stroke-linecap="round" stroke-linejoin="round" stroke-miterlimit="10" x1="165.6" y1="60" x2="194.8" y2="60"/>

				<line fill="none" stroke="#FFFFFF" stroke-width="3" stroke-linecap="round" stroke-linejoin="round" stroke-miterlimit="10" x1="186.6" y1="43.7" x2="194.8" y2="43.7"/>

				<line fill="none" stroke="#FFFFFF" stroke-width="3" stroke-linecap="round" stroke-linejoin="round" stroke-miterlimit="10" x1="186.6" y1="35.5" x2="194.8" y2="35.5"/>
		</g>
	</g>
	<g>
		<path fill="#E5E6E7" d="M36.5,40.6h-3.7v-0.4c0.2-0.1,0.4-0.2,0.6-0.3c0.2-0.1,0.4-0.1,0.5-0.1V33c-0.2-0.1-0.5-0.1-0.6-0.2
			c-0.2-0.1-0.4-0.1-0.5-0.2v-0.4h9.1v0.4c-0.1,0.1-0.3,0.2-0.5,0.3C41.2,32.9,41,33,40.8,33v6.8c0.4,0.1,0.8,0.2,1.1,0.4v0.4h-3.7
			v-0.4c0.1-0.1,0.2-0.2,0.4-0.2c0.2-0.1,0.4-0.1,0.6-0.2v-6.9h-3.8v6.9c0.2,0.1,0.4,0.1,0.6,0.2c0.2,0.1,0.3,0.1,0.4,0.2V40.6z"/>
		<path fill="#E5E6E7" d="M43.7,33c-0.2,0-0.3-0.1-0.5-0.2c-0.1-0.1-0.3-0.1-0.4-0.2v-0.4h3.6v0.4c-0.2,0.2-0.6,0.3-1,0.4l2.2,5
			l0.3,1.1h0l0.3-1.1l1.6-5c-0.3-0.1-0.7-0.2-0.9-0.4v-0.4h2.9v0.4c-0.2,0.2-0.6,0.3-1,0.4l-2.7,7.7c-0.3,0.7-0.5,1.3-0.8,1.8
			c-0.2,0.4-0.5,0.8-0.7,1.1c-0.2,0.3-0.5,0.5-0.7,0.6s-0.5,0.2-0.8,0.3c-0.1-0.2-0.2-0.5-0.3-0.7c-0.1-0.3-0.2-0.5-0.2-0.7l0.2-0.4
			h1.8c0.1-0.1,0.1-0.2,0.2-0.3c0.1-0.1,0.1-0.2,0.2-0.3s0.1-0.3,0.2-0.5c0.1-0.2,0.1-0.4,0.2-0.7L43.7,33z"/>
		<path fill="#E5E6E7" d="M52.7,36.2c0-1.5,0.1-2.7,0.4-3.6s0.6-1.8,1.1-2.4c0.5-0.6,1.1-1,1.8-1.3c0.7-0.2,1.6-0.4,2.6-0.4l1.1-0.9
			h0.4c0,0.2,0,0.4-0.1,0.7c0,0.2-0.1,0.5-0.1,0.7c-0.1,0.2-0.1,0.4-0.2,0.6c-0.1,0.2-0.1,0.3-0.1,0.3c-1,0-1.9,0.1-2.7,0.2
			c-0.7,0.1-1.3,0.3-1.8,0.6c-0.5,0.3-0.8,0.8-1.1,1.4c-0.2,0.6-0.4,1.4-0.5,2.4h0.1c0.1-0.3,0.3-0.6,0.6-0.8
			c0.2-0.3,0.5-0.5,0.8-0.7c0.3-0.2,0.6-0.4,1-0.5s0.7-0.2,1-0.2c2.3,0,3.5,1.4,3.5,4.2c0,0.7-0.1,1.3-0.3,1.8s-0.4,1-0.8,1.4
			c-0.4,0.4-0.8,0.7-1.3,0.9c-0.5,0.2-1.1,0.3-1.7,0.3c-0.6,0-1.1-0.1-1.6-0.3c-0.5-0.2-0.9-0.5-1.2-0.9s-0.6-0.9-0.8-1.5
			S52.7,36.9,52.7,36.2z M54.3,36.2c0,0.7,0.1,1.3,0.2,1.8c0.1,0.5,0.3,0.9,0.5,1.2c0.2,0.3,0.5,0.5,0.8,0.7
			c0.3,0.1,0.6,0.2,0.9,0.2c0.7,0,1.2-0.3,1.5-0.9s0.5-1.5,0.5-2.6c0-1.2-0.2-2-0.7-2.5c-0.4-0.5-1.1-0.8-1.8-0.8
			c-0.3,0-0.6,0.1-1,0.3c-0.3,0.2-0.6,0.4-0.9,0.7c-0.1,0.3-0.1,0.6-0.1,0.9S54.3,35.8,54.3,36.2z"/>
		<path fill="#E5E6E7" d="M63,39.2c0.2-0.3,0.3-0.6,0.4-1.1s0.2-1,0.3-1.5s0.2-1.1,0.2-1.7c0-0.6,0.1-1.2,0.1-1.7
			c-0.2-0.1-0.4-0.2-0.6-0.3c-0.2-0.1-0.4-0.2-0.5-0.3v-0.4h7v0.4c-0.4,0.2-0.7,0.3-1.1,0.4v6.8c0.2,0.1,0.4,0.1,0.6,0.2
			c0.2,0.1,0.3,0.1,0.5,0.2v0.4h-3.7v-0.4c0.3-0.2,0.6-0.3,1-0.4v-6.9h-2.2c0,0.6,0,1.2-0.1,1.9c-0.1,0.7-0.1,1.3-0.3,2
			c-0.1,0.7-0.3,1.3-0.4,1.8c-0.2,0.6-0.4,1.1-0.7,1.4c-0.2,0.3-0.4,0.6-0.7,0.7s-0.5,0.2-0.7,0.1c-0.2-0.2-0.3-0.4-0.5-0.8
			c-0.2-0.3-0.2-0.6-0.3-0.9l0.2-0.4L63,39.2z"/>
		<path fill="#E5E6E7" d="M71.5,32.1h3.6v0.4c-0.1,0.1-0.3,0.1-0.4,0.2c-0.2,0.1-0.4,0.1-0.6,0.2v4.7l-0.2,1.6H74l0.7-1.3l3.6-5.8
			h2.3v0.4c-0.4,0.2-0.7,0.3-1.1,0.4v6.8c0.2,0.1,0.4,0.1,0.6,0.2c0.2,0.1,0.4,0.1,0.5,0.2v0.4H77v-0.4c0.3-0.2,0.7-0.3,1-0.4v-4.9
			l0.2-1.3h-0.1l-0.6,1.3l-3.6,5.8h-2.3v-0.4c0.2-0.1,0.4-0.2,0.6-0.2c0.2-0.1,0.4-0.1,0.6-0.2V33c-0.4-0.1-0.8-0.2-1.1-0.4V32.1z"
			/>
		<path fill="#E5E6E7" d="M87.2,32.1h3.3v0.4c-0.1,0.1-0.3,0.2-0.5,0.2c-0.2,0.1-0.4,0.1-0.7,0.2c-0.4,0.5-0.8,0.9-1.2,1.4
			c-0.4,0.5-0.9,1-1.4,1.4c0.2,0.3,0.5,0.6,0.8,0.9c0.3,0.3,0.6,0.7,0.8,1c0.3,0.4,0.6,0.7,0.9,1c0.3,0.3,0.6,0.7,0.8,1l0.8,0.4v0.4
			h-2l-0.5-0.4c-0.5-0.6-1-1.2-1.4-1.8c-0.4-0.6-0.8-1.2-1.3-1.8H85v3.2c0.2,0.1,0.4,0.1,0.6,0.2c0.2,0.1,0.3,0.1,0.5,0.2v0.4h-3.8
			v-0.4c0.3-0.2,0.7-0.3,1.1-0.4V33c-0.4-0.1-0.8-0.2-1.1-0.4v-0.4h3.5v0.4c-0.1,0.1-0.2,0.2-0.4,0.2c-0.1,0.1-0.3,0.1-0.5,0.2v3.2
			l0.8-0.2c0.5-0.5,0.9-1,1.3-1.5c0.4-0.5,0.8-0.9,1.1-1.5c-0.2-0.1-0.4-0.2-0.5-0.2c-0.2-0.1-0.3-0.2-0.5-0.2V32.1z"/>
		<path fill="#E5E6E7" d="M98.3,38.4c0,0.2,0,0.5,0,0.6c0,0.2,0,0.4,0,0.6l1.2,0.2v0.4c-0.3,0.1-0.6,0.3-0.9,0.4
			c-0.3,0.1-0.7,0.2-1,0.3h-0.4c-0.1-0.3-0.2-0.5-0.2-0.9s0-0.7-0.1-1h-0.1c0,0.2-0.1,0.5-0.3,0.7c-0.1,0.2-0.3,0.4-0.5,0.6
			c-0.2,0.2-0.5,0.3-0.7,0.4s-0.6,0.2-1,0.2c-0.7,0-1.3-0.2-1.7-0.6s-0.7-1-0.7-1.6c0-0.5,0.1-0.9,0.3-1.3s0.5-0.6,0.9-0.8
			c0.4-0.2,0.9-0.3,1.5-0.4s1.3-0.2,2.1-0.2c0-0.5,0.1-0.9,0-1.3c0-0.4-0.1-0.7-0.2-1c-0.1-0.3-0.3-0.5-0.5-0.6
			c-0.2-0.2-0.5-0.2-0.8-0.2c-0.2,0-0.3,0-0.5,0c-0.2,0-0.4,0.1-0.6,0.1l-0.8,2H93c-0.1-0.3-0.2-0.7-0.3-1.1s-0.1-0.7-0.2-1.1
			c0.4-0.3,0.9-0.5,1.4-0.6c0.5-0.1,1.1-0.2,1.8-0.2c0.6,0,1,0.1,1.4,0.2c0.3,0.2,0.6,0.4,0.8,0.6c0.2,0.3,0.3,0.5,0.4,0.9
			s0.1,0.6,0.1,1c0,0.7,0,1.3,0,2S98.3,37.8,98.3,38.4z M95,39.8c0.3,0,0.5-0.1,0.7-0.2c0.2-0.1,0.4-0.3,0.5-0.4
			c0.1-0.2,0.3-0.3,0.4-0.5s0.2-0.3,0.2-0.4v-1.8c-0.7,0-1.2,0-1.6,0.1c-0.4,0.1-0.7,0.2-1,0.3c-0.2,0.1-0.4,0.3-0.5,0.6
			c-0.1,0.2-0.1,0.5-0.1,0.8c0,0.5,0.1,0.9,0.4,1.1C94.3,39.6,94.6,39.8,95,39.8z"/>
		<path fill="#E5E6E7" d="M101,40.6v-0.4c0.3-0.2,0.7-0.3,1.1-0.4V33c-0.4-0.1-0.8-0.2-1.1-0.4v-0.4h3.7v0.4c-0.3,0.2-0.6,0.3-1,0.4
			v6.9h3.6V33c-0.3-0.1-0.6-0.2-1-0.4v-0.4h3.7v0.4c-0.1,0.1-0.3,0.2-0.5,0.2c-0.2,0.1-0.4,0.1-0.6,0.2v6.9h1.5c0,0.5,0,1.1-0.1,1.6
			c0,0.5-0.1,1.1-0.1,1.6h-0.4l-0.8-2.5H101z"/>
		<path fill="#E5E6E7" d="M111.9,32.1h3.6v0.4c-0.1,0.1-0.3,0.1-0.4,0.2c-0.2,0.1-0.4,0.1-0.6,0.2v4.7l-0.2,1.6h0.1l0.7-1.3l3.6-5.8
			h2.3v0.4c-0.4,0.2-0.7,0.3-1.1,0.4v6.8c0.2,0.1,0.4,0.1,0.6,0.2c0.2,0.1,0.4,0.1,0.5,0.2v0.4h-3.6v-0.4c0.3-0.2,0.7-0.3,1-0.4
			v-4.9l0.2-1.3h-0.1l-0.6,1.3l-3.6,5.8h-2.3v-0.4c0.2-0.1,0.4-0.2,0.6-0.2c0.2-0.1,0.4-0.1,0.6-0.2V33c-0.4-0.1-0.8-0.2-1.1-0.4
			V32.1z"/>
		<path fill="#E5E6E7" d="M122.7,32.1h3.6v0.4c-0.1,0.1-0.3,0.1-0.4,0.2c-0.2,0.1-0.4,0.1-0.6,0.2v4.7l-0.2,1.6h0.1l0.7-1.3l3.6-5.8
			h2.3v0.4c-0.4,0.2-0.7,0.3-1.1,0.4v6.8c0.2,0.1,0.4,0.1,0.6,0.2c0.2,0.1,0.4,0.1,0.5,0.2v0.4h-3.6v-0.4c0.3-0.2,0.7-0.3,1-0.4
			v-4.9l0.2-1.3h-0.1l-0.6,1.3l-3.6,5.8h-2.3v-0.4c0.2-0.1,0.4-0.2,0.6-0.2c0.2-0.1,0.4-0.1,0.6-0.2V33c-0.4-0.1-0.8-0.2-1.1-0.4
			V32.1z"/>
		<path fill="#E5E6E7" d="M64,59.6c0,0.5-0.1,0.8-0.3,1.2s-0.5,0.6-0.8,0.8s-0.7,0.4-1.2,0.5c-0.5,0.1-0.9,0.1-1.4,0.1
			c-0.4,0-0.7,0-0.9,0c-0.2,0-0.4,0-0.5,0c-0.1,0-0.3,0-0.4,0c-0.1,0-0.2,0-0.3,0h-1.6v-0.4c0.4-0.2,0.7-0.3,1.1-0.4v-6.8
			c-0.4-0.1-0.8-0.2-1.1-0.4v-0.4H58c0.3,0,0.5,0,0.7,0c0.2,0,0.4,0,0.5,0c0.2,0,0.3,0,0.5,0c0.2,0,0.4,0,0.6,0c1,0,1.8,0.2,2.3,0.5
			c0.6,0.3,0.8,0.8,0.8,1.6c0,0.3-0.1,0.5-0.2,0.7c-0.1,0.2-0.3,0.4-0.4,0.6c-0.2,0.2-0.4,0.3-0.6,0.4s-0.5,0.2-0.7,0.2
			c0.3,0,0.6,0.1,0.9,0.2c0.3,0.1,0.5,0.2,0.8,0.4c0.2,0.2,0.4,0.4,0.5,0.6C63.9,58.9,64,59.2,64,59.6z M59.1,57.5l1.9-0.2
			c0.2-0.1,0.4-0.3,0.6-0.6c0.2-0.3,0.3-0.6,0.3-1.1c0-0.6-0.2-0.9-0.5-1.1c-0.3-0.2-0.8-0.3-1.5-0.3c-0.1,0-0.3,0-0.4,0
			c-0.2,0-0.3,0-0.4,0.1V57.5z M59.1,61.3c0.2,0,0.4,0.1,0.6,0.1c0.2,0,0.4,0,0.6,0c0.7,0,1.2-0.1,1.5-0.4c0.3-0.3,0.5-0.7,0.5-1.2
			c0-0.6-0.2-1-0.6-1.3c-0.4-0.3-0.9-0.4-1.5-0.4h-1.1V61.3z"/>
		<path fill="#E5E6E7" d="M79,59h0.4c0.1,0.3,0.1,0.7,0.2,1.2c0,0.5,0.1,0.9,0,1.4c-0.2,0.1-0.4,0.2-0.6,0.3
			c-0.2,0.1-0.5,0.2-0.8,0.2c-0.3,0.1-0.5,0.1-0.8,0.1c-0.3,0-0.5,0-0.8,0c-1,0-1.8-0.1-2.5-0.4c-0.7-0.2-1.4-0.6-1.9-1.1
			c-0.5-0.5-0.9-1.1-1.2-1.9s-0.4-1.7-0.4-2.8c0-1.1,0.2-2.1,0.5-2.8c0.3-0.8,0.7-1.4,1.2-1.9s1.1-0.9,1.8-1.1s1.4-0.3,2.2-0.3
			c0.7,0,1.4,0,1.9,0.1c0.5,0.1,1,0.2,1.3,0.4c0,0.2,0,0.4,0,0.6c0,0.2,0,0.5-0.1,0.8c0,0.3-0.1,0.5-0.1,0.8c0,0.3-0.1,0.5-0.1,0.7
			h-0.4L78,51c-0.1-0.1-0.3-0.1-0.6-0.1c-0.3,0-0.6,0-0.9,0c-0.6,0-1.1,0.1-1.6,0.3c-0.5,0.2-0.9,0.5-1.3,1c-0.4,0.4-0.7,1-0.9,1.6
			c-0.2,0.7-0.3,1.4-0.3,2.3c0,0.8,0.1,1.5,0.3,2.2c0.2,0.7,0.5,1.2,0.9,1.7c0.4,0.5,0.9,0.8,1.4,1.1c0.6,0.2,1.2,0.4,1.9,0.4
			c0.4,0,0.7,0,0.9-0.1c0.2-0.1,0.4-0.1,0.5-0.2L79,59z"/>
		<path fill="#E5E6E7" d="M95.3,62.1h-4.2v-0.5c0.2-0.1,0.5-0.2,0.7-0.2c0.2-0.1,0.5-0.1,0.7-0.2v-7.6l0.1-2h-0.1l-0.6,1.8l-3.5,8.7
			H88l-3.3-8.7l-0.6-2h-0.2l0,2.2v7.6c0.2,0,0.4,0.1,0.6,0.2c0.2,0.1,0.4,0.1,0.6,0.2v0.5h-3.6v-0.5c0.2-0.1,0.4-0.2,0.7-0.2
			c0.2-0.1,0.5-0.1,0.7-0.2V51.1c-0.2,0-0.5-0.1-0.7-0.2c-0.2-0.1-0.5-0.2-0.7-0.2v-0.5h3.5l3,7.8l0.6,1.8h0l0.6-1.8l3.1-7.7h3v0.5
			c-0.2,0.1-0.4,0.2-0.6,0.2C94.5,51,94.3,51,94,51.1v10.1c0.2,0,0.5,0.1,0.7,0.2c0.2,0.1,0.4,0.1,0.6,0.2V62.1z"/>
		<path fill="#E5E6E7" d="M101.1,62.1h-4.3v-0.5c0.5-0.2,0.9-0.3,1.4-0.4V51.1c-0.2-0.1-0.5-0.1-0.7-0.2c-0.2-0.1-0.5-0.1-0.7-0.2
			v-0.5h4.3v0.5c-0.2,0.1-0.4,0.2-0.6,0.2s-0.4,0.1-0.7,0.2v7.4l-0.2,1.3l0.8-1.3l5-6.9v-0.4c-0.3-0.1-0.5-0.1-0.7-0.2
			c-0.2-0.1-0.4-0.1-0.6-0.2v-0.5h4.3v0.5c-0.2,0.1-0.4,0.2-0.7,0.2c-0.2,0.1-0.5,0.1-0.7,0.2v10.1c0.5,0.1,1,0.2,1.4,0.4v0.5H104
			v-0.5c0.2-0.1,0.4-0.2,0.6-0.2c0.2-0.1,0.4-0.1,0.7-0.2v-7.4l0.2-1.3l-0.7,1.3l-5,7v0.4c0.3,0,0.5,0.1,0.7,0.2
			c0.2,0.1,0.4,0.1,0.6,0.2V62.1z"/>
	</g>
</g>
</svg>
