<!-- Generator: Adobe Illustrator 17.1.0, SVG Export Plug-In  -->
<svg version="1.1"
	 xmlns="http://www.w3.org/2000/svg" xmlns:xlink="http://www.w3.org/1999/xlink" xmlns:a="http://ns.adobe.com/AdobeSVGViewerExtensions/3.0/"
	 x="0px" y="0px" width="229.1px" height="95.9px" viewBox="0 0 229.1 95.9" enable-background="new 0 0 229.1 95.9"
	 xml:space="preserve">
<defs>
</defs>
<g>
	<linearGradient id="SVGID_1_" gradientUnits="userSpaceOnUse" x1="0" y1="47.966" x2="229.068" y2="47.966">
		<stop  offset="0" style="stop-color:#26335D"/>
		<stop  offset="0.9286" style="stop-color:#1B294C"/>
	</linearGradient>
	<rect x="0" y="0" fill="url(#SVGID_1_)" width="229.1" height="95.9"/>

		<rect x="9.3" y="7.4" fill="none" stroke="#80C328" stroke-width="3" stroke-linecap="round" stroke-linejoin="round" stroke-miterlimit="10" width="210.4" height="81.1"/>
	<g>
		<g>
			<path fill="#FFFFFF" d="M202,70.3H158c-0.8,0-1.5-0.7-1.5-1.5V24.8c0-0.8,0.7-1.5,1.5-1.5H202c0.8,0,1.5,0.7,1.5,1.5v44.1
				C203.5,69.7,202.9,70.3,202,70.3z M159.5,67.3h41.1V26.3h-41.1V67.3z"/>
		</g>

			<polygon fill="none" stroke="#FFFFFF" stroke-width="3" stroke-linecap="round" stroke-linejoin="round" stroke-miterlimit="10" points="
			171.8,34.7 192.3,46.6 171.8,58.4 		"/>
	</g>
	<g>
		<path fill="#E5E6E7" d="M52.7,36.4c0-0.7,0.1-1.3,0.3-1.9c0.2-0.5,0.5-1,0.8-1.4c0.4-0.4,0.8-0.7,1.3-0.9s1-0.3,1.6-0.3
			c0.7,0,1.3,0.1,1.8,0.3c0.5,0.2,0.9,0.5,1.3,0.9c0.3,0.4,0.6,0.9,0.7,1.4s0.2,1.2,0.2,1.8c0,1.4-0.4,2.5-1.1,3.3
			c-0.7,0.8-1.7,1.2-2.9,1.2c-0.7,0-1.3-0.1-1.8-0.3c-0.5-0.2-0.9-0.5-1.2-0.9c-0.3-0.4-0.6-0.9-0.7-1.4
			C52.8,37.7,52.7,37.1,52.7,36.4z M54.4,36.4c0,0.5,0,1,0.1,1.4c0.1,0.5,0.2,0.8,0.5,1.2c0.2,0.3,0.5,0.6,0.8,0.8s0.7,0.3,1.2,0.3
			c0.6,0,1.1-0.3,1.5-0.9c0.4-0.6,0.6-1.5,0.6-2.8c0-0.5,0-1-0.1-1.5c-0.1-0.4-0.2-0.8-0.5-1.2c-0.2-0.3-0.5-0.6-0.8-0.8
			c-0.3-0.2-0.7-0.3-1.1-0.3c-0.7,0-1.2,0.3-1.6,0.9C54.6,34.2,54.4,35.1,54.4,36.4z"/>
		<path fill="#E5E6E7" d="M66.2,40.6h-3.7v-0.4c0.2-0.1,0.3-0.2,0.5-0.2c0.2-0.1,0.4-0.1,0.6-0.2V33c-0.2-0.1-0.4-0.1-0.6-0.2
			c-0.2-0.1-0.4-0.1-0.5-0.2v-0.4h3.7v0.4c-0.3,0.2-0.6,0.3-1,0.4v3H69v-3c-0.4-0.1-0.7-0.2-1-0.4v-0.4h3.7v0.4
			c-0.3,0.2-0.7,0.3-1.1,0.4v6.8c0.2,0,0.4,0.1,0.6,0.2s0.4,0.1,0.5,0.3v0.4h-3.7v-0.4c0.3-0.2,0.6-0.3,1-0.4v-3.1h-3.8v3.1
			c0.2,0,0.4,0.1,0.6,0.2c0.2,0.1,0.3,0.1,0.4,0.2V40.6z"/>
		<path fill="#E5E6E7" d="M74.4,39.2c0.2-0.3,0.3-0.6,0.4-1.1s0.2-1,0.3-1.5s0.2-1.1,0.2-1.7c0-0.6,0.1-1.2,0.1-1.7
			c-0.2-0.1-0.4-0.2-0.6-0.3c-0.2-0.1-0.4-0.2-0.5-0.3v-0.4h7v0.4c-0.4,0.2-0.7,0.3-1.1,0.4v6.8c0.2,0.1,0.4,0.1,0.6,0.2
			c0.2,0.1,0.3,0.1,0.5,0.2v0.4h-3.7v-0.4c0.3-0.2,0.6-0.3,1-0.4v-6.9h-2.2c0,0.6,0,1.2-0.1,1.9c-0.1,0.7-0.1,1.3-0.3,2
			c-0.1,0.7-0.3,1.3-0.4,1.8c-0.2,0.6-0.4,1.1-0.7,1.4c-0.2,0.3-0.4,0.6-0.7,0.7s-0.5,0.2-0.7,0.1c-0.2-0.2-0.3-0.4-0.5-0.8
			c-0.2-0.3-0.2-0.6-0.3-0.9l0.2-0.4L74.4,39.2z"/>
		<path fill="#E5E6E7" d="M89.3,38.4c0,0.2,0,0.5,0,0.6c0,0.2,0,0.4,0,0.6l1.2,0.2v0.4c-0.3,0.1-0.6,0.3-0.9,0.4
			c-0.3,0.1-0.7,0.2-1,0.3h-0.4c-0.1-0.3-0.2-0.5-0.2-0.9s0-0.7-0.1-1h-0.1c0,0.2-0.1,0.5-0.3,0.7c-0.1,0.2-0.3,0.4-0.5,0.6
			c-0.2,0.2-0.5,0.3-0.7,0.4s-0.6,0.2-1,0.2c-0.7,0-1.3-0.2-1.7-0.6s-0.7-1-0.7-1.6c0-0.5,0.1-0.9,0.3-1.3s0.5-0.6,0.9-0.8
			c0.4-0.2,0.9-0.3,1.5-0.4s1.3-0.2,2.1-0.2c0-0.5,0.1-0.9,0-1.3c0-0.4-0.1-0.7-0.2-1c-0.1-0.3-0.3-0.5-0.5-0.6
			c-0.2-0.2-0.5-0.2-0.8-0.2c-0.2,0-0.3,0-0.5,0c-0.2,0-0.4,0.1-0.6,0.1l-0.8,2h-0.4c-0.1-0.3-0.2-0.7-0.3-1.1s-0.1-0.7-0.2-1.1
			c0.4-0.3,0.9-0.5,1.4-0.6c0.5-0.1,1.1-0.2,1.8-0.2c0.6,0,1,0.1,1.4,0.2c0.3,0.2,0.6,0.4,0.8,0.6c0.2,0.3,0.3,0.5,0.4,0.9
			s0.1,0.6,0.1,1c0,0.7,0,1.3,0,2S89.3,37.8,89.3,38.4z M86,39.8c0.3,0,0.5-0.1,0.7-0.2c0.2-0.1,0.4-0.3,0.5-0.4
			c0.1-0.2,0.3-0.3,0.4-0.5s0.2-0.3,0.2-0.4v-1.8c-0.7,0-1.2,0-1.6,0.1c-0.4,0.1-0.7,0.2-1,0.3c-0.2,0.1-0.4,0.3-0.5,0.6
			c-0.1,0.2-0.1,0.5-0.1,0.8c0,0.5,0.1,0.9,0.4,1.1C85.3,39.6,85.6,39.8,86,39.8z"/>
		<path fill="#E5E6E7" d="M92,32.1h3.6v0.4c-0.1,0.1-0.3,0.1-0.4,0.2c-0.2,0.1-0.4,0.1-0.6,0.2v4.7l-0.2,1.6h0.1l0.7-1.3l3.6-5.8
			h2.3v0.4c-0.4,0.2-0.7,0.3-1.1,0.4v6.8c0.2,0.1,0.4,0.1,0.6,0.2c0.2,0.1,0.4,0.1,0.5,0.2v0.4h-3.6v-0.4c0.3-0.2,0.7-0.3,1-0.4
			v-4.9l0.2-1.3h-0.1L98,34.9l-3.6,5.8H92v-0.4c0.2-0.1,0.4-0.2,0.6-0.2c0.2-0.1,0.4-0.1,0.6-0.2V33c-0.4-0.1-0.8-0.2-1.1-0.4V32.1z
			 M96.7,31.1c-0.6,0-1-0.1-1.4-0.2c-0.4-0.1-0.7-0.3-0.9-0.5c-0.2-0.2-0.4-0.4-0.5-0.7c-0.1-0.3-0.1-0.5-0.1-0.8
			c0.2-0.1,0.4-0.3,0.6-0.3c0.2-0.1,0.4-0.1,0.7-0.1l0.4,0.2v1.5c0.2,0.1,0.3,0.1,0.6,0.1c0.2,0,0.4,0,0.6,0c0.1,0,0.3,0,0.5,0
			c0.3,0,0.5-0.1,0.6-0.1v-1.6l0.4-0.2c0.2,0,0.5,0.1,0.7,0.2s0.4,0.2,0.5,0.3c0,0.3,0,0.5-0.1,0.8c-0.1,0.3-0.2,0.5-0.5,0.7
			s-0.5,0.3-0.8,0.5C97.7,31.1,97.3,31.1,96.7,31.1z"/>
		<path fill="#E5E6E7" d="M106.5,40.6h-3.7v-0.4c0.2-0.1,0.3-0.2,0.5-0.2c0.2-0.1,0.4-0.1,0.6-0.2V33c-0.2-0.1-0.4-0.1-0.6-0.2
			c-0.2-0.1-0.4-0.1-0.5-0.2v-0.4h3.7v0.4c-0.3,0.2-0.6,0.3-1,0.4v3h3.8v-3c-0.4-0.1-0.7-0.2-1-0.4v-0.4h3.7v0.4
			c-0.3,0.2-0.7,0.3-1.1,0.4v6.8c0.2,0,0.4,0.1,0.6,0.2s0.4,0.1,0.5,0.3v0.4h-3.7v-0.4c0.3-0.2,0.6-0.3,1-0.4v-3.1h-3.8v3.1
			c0.2,0,0.4,0.1,0.6,0.2c0.2,0.1,0.3,0.1,0.4,0.2V40.6z"/>
		<path fill="#E5E6E7" d="M40.2,62.1h-3.8v-0.4c0.4-0.2,0.7-0.3,1.1-0.4v-6.9h-1.6l-0.7,2h-0.4c-0.1-0.5-0.1-1-0.1-1.4
			s-0.1-0.9-0.1-1.4H42c0,0.4,0,0.9-0.1,1.3c0,0.5-0.1,1-0.1,1.5h-0.4l-0.7-2h-1.6v6.9c0.5,0.1,0.9,0.3,1.1,0.4V62.1z"/>
		<path fill="#E5E6E7" d="M47.2,65.5h-3.8V65c0.4-0.2,0.8-0.3,1.1-0.4V54.5l-1.1-0.1V54c0.4-0.2,0.7-0.3,1.1-0.4
			c0.4-0.1,0.8-0.2,1.1-0.2h0.4v1.9h0c0.2-0.6,0.5-1,1-1.4c0.4-0.3,0.9-0.5,1.6-0.5c1,0,1.8,0.3,2.3,1c0.6,0.7,0.8,1.8,0.8,3.3
			c0,0.7-0.1,1.4-0.3,1.9c-0.2,0.6-0.5,1.1-0.8,1.5s-0.8,0.7-1.3,0.9c-0.5,0.2-1,0.3-1.6,0.3c-0.4,0-0.7,0-1-0.1
			c-0.2-0.1-0.5-0.1-0.8-0.3v2.7c0.2,0,0.4,0.1,0.5,0.1c0.2,0.1,0.4,0.2,0.6,0.3V65.5z M48.1,54.4c-0.6,0-1,0.2-1.3,0.5
			c-0.3,0.4-0.6,0.8-0.7,1.4v4.8c0.2,0.1,0.4,0.2,0.7,0.3c0.3,0.1,0.6,0.1,1,0.1c0.4,0,0.7-0.1,1-0.3c0.3-0.2,0.6-0.5,0.8-0.8
			c0.2-0.4,0.4-0.8,0.5-1.2c0.1-0.5,0.2-1,0.2-1.6c0-0.5,0-0.9-0.1-1.3c-0.1-0.4-0.2-0.7-0.4-1s-0.4-0.5-0.6-0.7
			C48.9,54.5,48.5,54.4,48.1,54.4z"/>
		<path fill="#E5E6E7" d="M60,59.8c0,0.2,0,0.5,0,0.6c0,0.2,0,0.4,0,0.6l1.2,0.2v0.4c-0.3,0.1-0.6,0.3-0.9,0.4
			c-0.3,0.1-0.7,0.2-1,0.3h-0.4c-0.1-0.3-0.2-0.5-0.2-0.9s0-0.7-0.1-1h-0.1c0,0.2-0.1,0.5-0.3,0.7c-0.1,0.2-0.3,0.4-0.5,0.6
			c-0.2,0.2-0.5,0.3-0.7,0.4s-0.6,0.2-1,0.2c-0.7,0-1.3-0.2-1.7-0.6s-0.7-1-0.7-1.6c0-0.5,0.1-0.9,0.3-1.3s0.5-0.6,0.9-0.8
			c0.4-0.2,0.9-0.3,1.5-0.4s1.3-0.2,2.1-0.2c0-0.5,0.1-0.9,0-1.3c0-0.4-0.1-0.7-0.2-1c-0.1-0.3-0.3-0.5-0.5-0.6
			c-0.2-0.2-0.5-0.2-0.8-0.2c-0.2,0-0.3,0-0.5,0c-0.2,0-0.4,0.1-0.6,0.1l-0.8,2h-0.4c-0.1-0.3-0.2-0.7-0.3-1.1s-0.1-0.7-0.2-1.1
			c0.4-0.3,0.9-0.5,1.4-0.6c0.5-0.1,1.1-0.2,1.8-0.2c0.6,0,1,0.1,1.4,0.2c0.3,0.2,0.6,0.4,0.8,0.6c0.2,0.3,0.3,0.5,0.4,0.9
			s0.1,0.6,0.1,1c0,0.7,0,1.3,0,2S60,59.2,60,59.8z M56.7,61.2c0.3,0,0.5-0.1,0.7-0.2c0.2-0.1,0.4-0.3,0.5-0.4
			c0.1-0.2,0.3-0.3,0.4-0.5s0.2-0.3,0.2-0.4v-1.8c-0.7,0-1.2,0-1.6,0.1c-0.4,0.1-0.7,0.2-1,0.3c-0.2,0.1-0.4,0.3-0.5,0.6
			c-0.1,0.2-0.1,0.5-0.1,0.8c0,0.5,0.1,0.9,0.4,1.1C55.9,61.1,56.2,61.2,56.7,61.2z"/>
		<path fill="#E5E6E7" d="M66.3,62.1h-3.7v-0.4c0.2-0.1,0.3-0.2,0.5-0.2c0.2-0.1,0.4-0.1,0.6-0.2v-6.8c-0.2-0.1-0.4-0.1-0.6-0.2
			c-0.2-0.1-0.4-0.1-0.5-0.2v-0.4h3.7V54c-0.3,0.2-0.6,0.3-1,0.4v3h3.8v-3c-0.4-0.1-0.7-0.2-1-0.4v-0.4h3.7V54
			c-0.3,0.2-0.7,0.3-1.1,0.4v6.8c0.2,0,0.4,0.1,0.6,0.2s0.4,0.1,0.5,0.3v0.4h-3.7v-0.4c0.3-0.2,0.6-0.3,1-0.4v-3.1h-3.8v3.1
			c0.2,0,0.4,0.1,0.6,0.2c0.2,0.1,0.3,0.1,0.4,0.2V62.1z"/>
		<path fill="#E5E6E7" d="M80.1,60.9c-0.2,0.4-0.5,0.7-1,1c-0.5,0.3-1,0.4-1.6,0.4c-0.7,0-1.3-0.1-1.7-0.3c-0.5-0.2-0.9-0.5-1.2-0.9
			c-0.3-0.4-0.6-0.9-0.7-1.4c-0.2-0.5-0.2-1.2-0.2-1.8c0-1.4,0.4-2.5,1.1-3.3c0.7-0.8,1.7-1.1,2.9-1.1c0.6,0,1.1,0,1.5,0.1
			c0.4,0.1,0.8,0.2,1.1,0.4c0,0.4-0.1,0.8-0.2,1.3s-0.2,0.8-0.3,1.2h-0.5l-0.7-2c-0.1-0.1-0.2-0.1-0.3-0.1c-0.1,0-0.3,0-0.5,0
			c-0.8,0-1.4,0.3-1.8,0.8c-0.4,0.6-0.6,1.5-0.6,2.8c0,0.4,0.1,0.8,0.2,1.3s0.3,0.8,0.5,1.1c0.2,0.3,0.5,0.6,0.9,0.8
			c0.4,0.2,0.8,0.3,1.3,0.3c0.4,0,0.7-0.1,1-0.2s0.5-0.3,0.7-0.4L80.1,60.9z"/>
		<path fill="#E5E6E7" d="M82.5,60.6c0.2-0.3,0.3-0.6,0.4-1.1s0.2-1,0.3-1.5s0.2-1.1,0.2-1.7c0-0.6,0.1-1.2,0.1-1.7
			c-0.2-0.1-0.4-0.2-0.6-0.3c-0.2-0.1-0.4-0.2-0.5-0.3v-0.4h7V54c-0.4,0.2-0.7,0.3-1.1,0.4v6.8c0.2,0.1,0.4,0.1,0.6,0.2
			c0.2,0.1,0.3,0.1,0.5,0.2v0.4h-3.7v-0.4c0.3-0.2,0.6-0.3,1-0.4v-6.9h-2.2c0,0.6,0,1.2-0.1,1.9c-0.1,0.7-0.1,1.3-0.3,2
			c-0.1,0.7-0.3,1.3-0.4,1.8c-0.2,0.6-0.4,1.1-0.7,1.4c-0.2,0.3-0.4,0.6-0.7,0.7s-0.5,0.2-0.7,0.1c-0.2-0.2-0.3-0.4-0.5-0.8
			c-0.2-0.3-0.2-0.6-0.3-0.9l0.2-0.4L82.5,60.6z"/>
		<path fill="#E5E6E7" d="M91.5,56.1c0-0.4,0.1-0.7,0.2-1.1c0.1-0.3,0.3-0.6,0.6-0.8s0.6-0.4,1-0.5c0.4-0.1,0.9-0.2,1.5-0.2
			c0.1,0,0.3,0,0.6,0c0.2,0,0.5,0,0.8,0c0.3,0,0.5,0,0.8,0c0.3,0,0.5,0,0.6,0h1.2V54c-0.1,0.1-0.2,0.2-0.4,0.2
			c-0.2,0.1-0.4,0.1-0.7,0.2v6.8c0.4,0.1,0.8,0.3,1.1,0.4v0.4h-3.7v-0.4c0.1-0.1,0.3-0.2,0.5-0.2s0.3-0.1,0.5-0.2v-2.9l-1.2,0.2
			c-0.2,0.4-0.5,0.9-0.8,1.4c-0.3,0.6-0.7,1.1-1.2,1.7l-0.5,0.4h-1.9v-0.4l1-0.4c0.5-0.5,0.9-1.1,1.3-1.6c0.4-0.5,0.7-1,1-1.3
			c-0.3,0-0.5-0.1-0.8-0.2c-0.2-0.1-0.5-0.3-0.7-0.4c-0.2-0.2-0.4-0.4-0.5-0.7C91.6,56.7,91.5,56.4,91.5,56.1z M96.1,54.3
			c-0.1,0-0.3,0-0.6-0.1c-0.2,0-0.4,0-0.6,0c-0.7,0-1.2,0.1-1.5,0.5c-0.3,0.3-0.4,0.8-0.4,1.3c0,0.6,0.2,1,0.6,1.4
			c0.4,0.4,1.1,0.5,1.9,0.5h0.5V54.3z"/>
		<path fill="#E5E6E7" d="M100.5,62.1v-0.4c0.3-0.2,0.7-0.3,1.1-0.4v-6.8c-0.4-0.1-0.8-0.2-1.1-0.4v-0.4h3.7V54
			c-0.3,0.2-0.6,0.3-1,0.4v6.9h3.6v-6.9c-0.3-0.1-0.6-0.2-1-0.4v-0.4h3.7V54c-0.1,0.1-0.3,0.2-0.5,0.2c-0.2,0.1-0.4,0.1-0.6,0.2v6.9
			h1.5c0,0.5,0,1.1-0.1,1.6c0,0.5-0.1,1.1-0.1,1.6h-0.4l-0.8-2.5H100.5z"/>
		<path fill="#E5E6E7" d="M111.4,53.6h3.6V54c-0.1,0.1-0.3,0.1-0.4,0.2c-0.2,0.1-0.4,0.1-0.6,0.2v4.7l-0.2,1.6h0.1l0.7-1.3l3.6-5.8
			h2.3V54c-0.4,0.2-0.7,0.3-1.1,0.4v6.8c0.2,0.1,0.4,0.1,0.6,0.2c0.2,0.1,0.4,0.1,0.5,0.2v0.4h-3.6v-0.4c0.3-0.2,0.7-0.3,1-0.4v-4.9
			L118,55H118l-0.6,1.3l-3.6,5.8h-2.3v-0.4c0.2-0.1,0.4-0.2,0.6-0.2c0.2-0.1,0.4-0.1,0.6-0.2v-6.8c-0.4-0.1-0.8-0.2-1.1-0.4V53.6z"
			/>
		<path fill="#E5E6E7" d="M122.6,56.1c0-0.4,0.1-0.7,0.2-1.1c0.1-0.3,0.3-0.6,0.6-0.8s0.6-0.4,1-0.5c0.4-0.1,0.9-0.2,1.5-0.2
			c0.1,0,0.3,0,0.6,0c0.2,0,0.5,0,0.8,0c0.3,0,0.5,0,0.8,0c0.3,0,0.5,0,0.6,0h1.2V54c-0.1,0.1-0.2,0.2-0.4,0.2
			c-0.2,0.1-0.4,0.1-0.7,0.2v6.8c0.4,0.1,0.8,0.3,1.1,0.4v0.4h-3.7v-0.4c0.1-0.1,0.3-0.2,0.5-0.2s0.3-0.1,0.5-0.2v-2.9l-1.2,0.2
			c-0.2,0.4-0.5,0.9-0.8,1.4c-0.3,0.6-0.7,1.1-1.2,1.7l-0.5,0.4h-1.9v-0.4l1-0.4c0.5-0.5,0.9-1.1,1.3-1.6c0.4-0.5,0.7-1,1-1.3
			c-0.3,0-0.5-0.1-0.8-0.2c-0.2-0.1-0.5-0.3-0.7-0.4c-0.2-0.2-0.4-0.4-0.5-0.7C122.7,56.7,122.6,56.4,122.6,56.1z M127.2,54.3
			c-0.1,0-0.3,0-0.6-0.1c-0.2,0-0.4,0-0.6,0c-0.7,0-1.2,0.1-1.5,0.5c-0.3,0.3-0.4,0.8-0.4,1.3c0,0.6,0.2,1,0.6,1.4
			c0.4,0.4,1.1,0.5,1.9,0.5h0.5V54.3z"/>
	</g>
</g>
</svg>
