<?xml version="1.0" encoding="utf-8"?>
<!-- Generator: Adobe Illustrator 17.1.0, SVG Export Plug-In . SVG Version: 6.00 Build 0)  -->
<!DOCTYPE svg PUBLIC "-//W3C//DTD SVG 1.1//EN" "http://www.w3.org/Graphics/SVG/1.1/DTD/svg11.dtd">
<svg version="1.1" xmlns="http://www.w3.org/2000/svg" xmlns:xlink="http://www.w3.org/1999/xlink" x="0px" y="0px"
	 viewBox="0 0 1000 1000" enable-background="new 0 0 1000 1000" xml:space="preserve">
<g id="Layer_1">
	<rect display="none" fill="#333333" stroke="#000000" stroke-miterlimit="10" width="1000" height="1000"/>
	
		<image overflow="visible" width="1136" height="739" xlink:href="section__5.png"  transform="matrix(0.8376 0 0 0.8376 24.2209 188)">
	</image>
</g>
<g id="Layer_2">
	<polygon points="384.2,284.3 347.6,284.3 347.6,273.3 382.6,273.3 382.6,227.4 289.6,227.4 289.6,273.3 308,273.3 308,284.3 
		174.9,284.3 174.9,284.3 127.2,284.3 63,284.3 37,284.3 37,725.4 127.2,725.4 127.2,500.3 174.9,500.3 174.9,439.8 384.2,439.8 	
		"/>
	<polygon points="236.2,742.9 236.2,725.4 267.6,725.4 267.6,511.3 138.3,511.3 138.3,725.4 212.4,725.4 212.4,742.9 190.3,742.9 
		190.3,768 272.2,768 272.2,742.9 	"/>
	<polygon points="406,725.4 406,511.3 278.7,511.3 278.7,725.4 308.5,725.4 308.5,740.7 274.1,740.7 274.1,766.6 354.7,766.6 
		354.7,740.7 330.1,740.7 330.1,725.4 	"/>
	<polygon points="544.4,725.4 544.4,511.3 417,511.3 417,725.4 490.7,725.4 490.7,740.7 468.9,740.7 468.9,765.9 542.4,765.9 
		542.4,740.7 513.9,740.7 513.9,725.4 	"/>
	<polygon points="682.8,725.4 682.8,511.3 555.4,511.3 555.4,725.4 586.9,725.4 586.9,740.2 550.8,740.2 550.8,768.2 631.4,768.2 
		631.4,740.2 608.2,740.2 608.2,725.4 	"/>
	<polygon points="791.8,740 791.8,725.4 821.1,725.4 821.1,511.3 693.8,511.3 693.8,725.4 767.4,725.4 767.4,740 744.4,740 
		744.4,765.9 828.7,765.9 828.7,740 	"/>
	<polygon points="726.4,284.3 726.4,268.9 743.1,268.9 743.1,230.9 648.3,230.9 648.3,268.9 684.9,268.9 684.9,284.3 648.3,284.3 
		648.3,449 735.6,449 735.6,500.3 832.1,500.3 832.1,593.6 955.2,593.6 955.2,449 955.2,293.9 955.2,284.3 	"/>
</g>
</svg>
