<?xml version="1.0" encoding="utf-8"?>
<!-- Generator: Adobe Illustrator 17.1.0, SVG Export Plug-In . SVG Version: 6.00 Build 0)  -->
<!DOCTYPE svg PUBLIC "-//W3C//DTD SVG 1.1//EN" "http://www.w3.org/Graphics/SVG/1.1/DTD/svg11.dtd">
<svg version="1.1" xmlns="http://www.w3.org/2000/svg" xmlns:xlink="http://www.w3.org/1999/xlink" x="0px" y="0px"
	 viewBox="0 0 1000 1000" enable-background="new 0 0 1000 1000" xml:space="preserve">
<g id="Layer_1">
	<rect x="-64" y="130.5" fill="#424242" width="1132" height="739"/>
	
		<image overflow="visible" width="1136" height="739" xlink:href="section__4.png"  transform="matrix(0.8785 0 0 0.8785 1 175.3864)">
	</image>
	<line fill="#962D2A" x1="296" y1="147.8" x2="415.7" y2="147.8"/>
	<polygon fill="#0000D5" points="273.4,452 269.4,452 269.4,450.9 264.8,450.9 264.8,442.2 169.3,442.2 169.3,452 165.4,452 
		165.4,450.9 156.5,450.9 156.5,416.2 34.1,416.2 34.1,442.4 34.1,501.3 156.5,501.3 156.5,481.3 165.4,481.3 165.4,480.2 
		169.3,480.2 169.3,501.3 173.6,501.3 173.6,514 169.6,514 130.6,514 91.1,514 91.1,769.4 211.7,769.4 212.1,501.3 264.8,501.3 
		264.8,484.6 269.4,484.6 269.4,483.6 273.4,483.6 	"/>
	<polygon fill="#0000D5" points="278.8,501.3 278.8,505.2 277.7,505.2 277.7,514 248.2,514 224.9,514 224.9,601.7 224.9,760.7 
		310.3,760.7 310.3,769.5 311.5,769.5 311.5,773.4 312.1,773.4 312.1,777.7 282.8,777.7 282.8,811.4 378,811.4 378,777.7 336,777.7 
		336,773.4 336.6,773.4 336.6,769.5 337.6,769.5 337.6,760.7 372.7,760.7 372.7,514 311.7,514 311.7,505.2 310.7,505.2 310.7,501.3 
			"/>
	<polygon fill="#0000D5" points="447.5,501.3 447.5,505.2 446.5,505.2 446.5,514 442.4,514 385.5,514 385.5,600.8 385.5,760.7 
		420.5,760.7 420.5,769.5 421.6,769.5 421.6,773.4 422.2,773.4 422.2,777.7 380.2,777.7 380.1,777.7 380.1,811.4 475.4,811.4 
		475.4,777.7 446.1,777.7 446.1,773.4 446.7,773.4 446.7,769.5 447.8,769.5 447.8,760.7 533.3,760.7 533.3,533 485.2,533 485.2,514 
		480.4,514 480.4,505.2 479.4,505.2 479.4,501.3 	"/>
	<polygon fill="#0000D5" points="586.3,501.3 586.3,505.2 585.2,505.2 585.2,514 546.1,514 546.1,606.9 546.1,760.7 627.6,760.7 
		631.7,760.7 631.7,769.5 632.7,769.5 632.7,773.4 633.3,773.4 633.3,777.7 604.1,777.7 604.1,777.7 604.1,811.4 699.3,811.4 
		699.3,777.7 657.3,777.7 657.3,773.4 657.8,773.4 657.8,769.5 659,769.5 659,760.7 694,760.7 694,514 619.2,514 619.2,505.2 
		618.1,505.2 618.1,501.3 	"/>
	<polygon fill="#0000D5" points="768.8,501.3 768.8,505.2 767.7,505.2 767.7,514 763.6,514 706.7,514 706.7,611.3 706.7,760.7 
		741.8,760.7 741.8,769.5 742.8,769.5 742.8,773.4 743.5,773.4 743.5,777.7 701.5,777.7 701.5,777.7 701.5,811.4 796.7,811.4 
		796.7,777.7 767.4,777.7 767.4,773.4 768,773.4 768,769.5 769,769.5 769,760.7 854.6,760.7 854.6,514 801.7,514 801.7,505.2 
		800.7,505.2 800.7,501.3 	"/>
	<polygon fill="#0000D5" points="340.3,442.2 340.3,438.4 341.3,438.4 341.3,429.6 429.2,429.6 429.2,338.8 429.2,252.3 
		381.5,252.3 381.5,243.4 380.1,243.4 380.1,239.7 379.8,239.7 379.8,235.2 425.9,235.2 425.9,190.9 322.5,190.9 322.5,235.2 
		339,235.2 339,239.7 338.7,239.7 338.7,243.4 337.3,243.4 337.3,252.3 34.1,252.3 34.1,297 34.1,407.7 34.1,407.8 165.4,407.7 
		169.3,407.7 169.3,429.6 169.4,429.6 307.3,429.6 307.3,438.4 308.5,438.4 308.5,442.2 	"/>
	<polygon fill="#0000D5" points="804,483.6 808,483.6 808,484.6 812.6,484.6 812.6,501.3 867.5,501.3 867.5,760.7 974.5,760.7 
		974.5,252.3 835.4,252.3 835.4,292.3 818.3,292.3 818.3,243.7 736.1,243.7 736.1,324.4 736.1,442.6 812.6,442.6 812.6,450.9 
		808,450.9 808,452 804,452 	"/>
</g>
<g id="Layer_2">
</g>
</svg>
