<?xml version="1.0" encoding="utf-8"?>
<!DOCTYPE svg PUBLIC "-//W3C//DTD SVG 1.1//EN" "http://www.w3.org/Graphics/SVG/1.1/DTD/svg11.dtd">
<svg version="1.1" id="Layer_1" xmlns="http://www.w3.org/2000/svg" xmlns:xlink="http://www.w3.org/1999/xlink" x="0px" y="0px"
   viewBox="0 0 1136 739" style="enable-background:new 0 0 1136 739;" xml:space="preserve">
<style type="text/css">
  .st0{fill:#0000D5;}
</style>
<polygon class="st0" points="309.6,316 305.1,316 305.1,314.8 299.9,314.8 299.9,304.8 191.1,304.8 191.1,316 186.7,316
  186.7,314.8 176.5,314.8 176.5,274.9 37.2,274.9 37.2,305 37.2,372.7 176.5,372.7 176.5,349.7 186.7,349.7 186.7,348.4 191.1,348.4
  191.1,372.7 196,372.7 196,387.3 191.4,387.3 147,387.3 102.1,387.3 102.1,680.7 239.4,680.7 239.8,372.7 299.9,372.7 299.9,353.5
  305.1,353.5 305.1,352.3 309.6,352.3 "/>
<polygon class="st0" points="315.8,372.7 315.8,377.1 314.5,377.1 314.5,387.3 281,387.3 254.4,387.3 254.4,488 254.4,670.7
  351.7,670.7 351.7,680.8 353,680.8 353,685.3 353.7,685.3 353.7,690.2 320.3,690.2 320.3,728.9 428.7,728.9 428.7,690.2
  380.9,690.2 380.9,685.3 381.6,685.3 381.6,680.8 382.8,680.8 382.8,670.7 422.7,670.7 422.7,387.3 353.2,387.3 353.2,377.1
  352.1,377.1 352.1,372.7 "/>
<polygon class="st0" points="507.9,372.7 507.9,377.1 506.7,377.1 506.7,387.3 502.1,387.3 437.3,387.3 437.3,487 437.3,670.7
  477.2,670.7 477.2,680.8 478.4,680.8 478.4,685.3 479.1,685.3 479.1,690.2 431.3,690.2 431.1,690.2 431.1,728.9 539.7,728.9
  539.7,690.2 506.3,690.2 506.3,685.3 507,685.3 507,680.8 508.2,680.8 508.2,670.7 605.6,670.7 605.6,409.1 550.8,409.1
  550.8,387.3 545.4,387.3 545.4,377.1 544.2,377.1 544.2,372.7 "/>
<polygon class="st0" points="665.9,372.7 665.9,377.1 664.7,377.1 664.7,387.3 620.2,387.3 620.2,494 620.2,670.7 713,670.7
  717.6,670.7 717.6,680.8 718.8,680.8 718.8,685.3 719.5,685.3 719.5,690.2 686.2,690.2 686.2,690.2 686.2,728.9 794.6,728.9
  794.6,690.2 746.8,690.2 746.8,685.3 747.4,685.3 747.4,680.8 748.7,680.8 748.7,670.7 788.6,670.7 788.6,387.3 703.4,387.3
  703.4,377.1 702.2,377.1 702.2,372.7 "/>
<polygon class="st0" points="873.8,372.7 873.8,377.1 872.5,377.1 872.5,387.3 867.9,387.3 803.1,387.3 803.1,499 803.1,670.7
  843,670.7 843,680.8 844.2,680.8 844.2,685.3 845,685.3 845,690.2 797.1,690.2 797.1,690.2 797.1,728.9 905.5,728.9 905.5,690.2
  872.2,690.2 872.2,685.3 872.9,685.3 872.9,680.8 874,680.8 874,670.7 971.5,670.7 971.5,387.3 911.2,387.3 911.2,377.1
  910.1,377.1 910.1,372.7 "/>
<polygon class="st0" points="385.8,304.8 385.8,300.4 387,300.4 387,290.3 487.1,290.3 487.1,186 487.1,86.6 432.7,86.6 432.7,76.4
  431.1,76.4 431.1,72.1 430.8,72.1 430.8,67 483.3,67 483.3,16 365.6,16 365.6,67 384.3,67 384.3,72.1 384,72.1 384,76.4 382.4,76.4
  382.4,86.6 37.2,86.6 37.2,138 37.2,265.1 37.2,265.3 186.7,265.1 191.1,265.1 191.1,290.3 191.2,290.3 348.3,290.3 348.3,300.4
  349.6,300.4 349.6,304.8 "/>
<polygon class="st0" points="913.9,352.3 918.4,352.3 918.4,353.5 923.6,353.5 923.6,372.7 986.1,372.7 986.1,670.7 1108,670.7
  1108,86.6 949.6,86.6 949.6,132.6 930.1,132.6 930.1,76.7 836.5,76.7 836.5,169.4 836.5,305.2 923.6,305.2 923.6,314.8 918.4,314.8
  918.4,316 913.9,316 "/>
</svg>