<?xml version="1.0" encoding="utf-8"?>
<!DOCTYPE svg PUBLIC "-//W3C//DTD SVG 1.1//EN" "http://www.w3.org/Graphics/SVG/1.1/DTD/svg11.dtd">
<svg version="1.1" id="Layer_1" xmlns="http://www.w3.org/2000/svg" xmlns:xlink="http://www.w3.org/1999/xlink" x="0px" y="0px"
   viewBox="0 0 1136 739" style="enable-background:new 0 0 1136 739;" xml:space="preserve">
<polygon points="427.9,112.3 384.1,112.3 384.1,99.1 426,99.1 426,44.1 314.6,44.1 314.6,99.1 336.7,99.1 336.7,112.3 177.2,112.3
  177.2,112.3 120.1,112.3 43.1,112.3 12,112.3 12,641.6 120.1,641.6 120.1,371.5 177.2,371.5 177.2,298.9 427.9,298.9 "/>
<polygon points="250.6,662.6 250.6,641.6 288.3,641.6 288.3,384.7 133.3,384.7 133.3,641.6 222.1,641.6 222.1,662.6 195.6,662.6
  195.6,692.7 293.8,692.7 293.8,662.6 "/>
<polygon points="454.1,641.6 454.1,384.7 301.5,384.7 301.5,641.6 337.3,641.6 337.3,660 296.1,660 296.1,691 392.6,691 392.6,660
  363.1,660 363.1,641.6 "/>
<polygon points="619.9,641.6 619.9,384.7 467.3,384.7 467.3,641.6 555.6,641.6 555.6,660 529.4,660 529.4,690.2 617.5,690.2
  617.5,660 583.4,660 583.4,641.6 "/>
<polygon points="785.7,641.6 785.7,384.7 633.1,384.7 633.1,641.6 670.8,641.6 670.8,659.3 627.6,659.3 627.6,693 724.1,693
  724.1,659.3 696.3,659.3 696.3,641.6 "/>
<polygon points="916.3,659.1 916.3,641.6 951.4,641.6 951.4,384.7 798.9,384.7 798.9,641.6 887,641.6 887,659.1 859.5,659.1
  859.5,690.2 960.5,690.2 960.5,659.1 "/>
<polygon points="837.9,112.3 837.9,93.8 857.9,93.8 857.9,48.3 744.3,48.3 744.3,93.8 788.2,93.8 788.2,112.3 744.3,112.3
  744.3,309.9 848.9,309.9 848.9,371.5 964.6,371.5 964.6,483.4 1112,483.4 1112,309.9 1112,123.9 1112,112.3 "/>
</svg>