<?xml version="1.0" encoding="utf-8"?>
<!-- Generator: Adobe Illustrator 17.1.0, SVG Export Plug-In . SVG Version: 6.00 Build 0)  -->
<!DOCTYPE svg PUBLIC "-//W3C//DTD SVG 1.1//EN" "http://www.w3.org/Graphics/SVG/1.1/DTD/svg11.dtd">
<svg version="1.1" id="Layer_1" xmlns="http://www.w3.org/2000/svg" xmlns:xlink="http://www.w3.org/1999/xlink" x="0px" y="0px"
	 viewBox="0 0 600 1080" enable-background="new 0 0 600 1080" xml:space="preserve">
<image overflow="visible" width="1136" height="739" xlink:href="section__5.png"  transform="matrix(1 0 0 1 -1267.556 170.5)">
</image>
<path fill-rule="evenodd" clip-rule="evenodd" fill="#EC1C24" d="M-409.2,278.7h258.1c0,123.3,0,246.6,0,370h-148.3V536.5h-117.4
	v-59.9h-27.9h-74.7V216.7h110.2V278.7z"/>
<polygon fill-rule="evenodd" clip-rule="evenodd" fill="#EC1C24" points="-465.6,549.6 -313.2,549.6 -313.2,819.1 -303.5,819.1 
	-303.5,847.9 -313.2,847.9 -313.2,857.9 -404.7,857.9 -404.7,805.3 -465.6,805.3 -465.6,719.3 "/>
<path fill-rule="evenodd" clip-rule="evenodd" fill="#EC1C24" d="M-629.8,549.6h152.4v255.7h-61v52.3h-91.5v-9.4h-5.5v-29.4h5.5
	c0-36,0-72.1,0-108.1C-629.8,657-629.8,603.3-629.8,549.6z"/>
<path fill-rule="evenodd" clip-rule="evenodd" fill="#EC1C24" d="M-794.7,549.6h152.4c0,89.7,0,179.3,0,269h4.2v29.2h-4.2v10.8
	h-92.8v-53.3h-59.6V706V549.6z"/>
<path fill-rule="evenodd" clip-rule="evenodd" fill="#EC1C24" d="M-961,549.6h152.4v255.7h-61v52.3H-961v-9.4h-5.5v-29.4h5.5
	c0-42.7,0-85.4,0-128.1C-961,643.7-961,596.6-961,549.6z"/>
<path fill-rule="evenodd" clip-rule="evenodd" fill="#EC1C24" d="M-1250,549.9h178.7v-74.1h142v61H-975c0,94,0,188,0,282.1h6.2v29.4
	h-6.2v9.4h-91.1v-51.4H-1250v-92.9V549.9z"/>
</svg>
