<!-- Generator: Adobe Illustrator 17.1.0, SVG Export Plug-In  -->
<svg version="1.1"
	 xmlns="http://www.w3.org/2000/svg" xmlns:xlink="http://www.w3.org/1999/xlink" xmlns:a="http://ns.adobe.com/AdobeSVGViewerExtensions/3.0/"
	 x="0px" y="0px" width="19px" height="64.3px" viewBox="0 0 19 64.3" enable-background="new 0 0 19 64.3" xml:space="preserve">
<defs>
</defs>
<g>
	<path fill="#E2E3E4" d="M17.9,0C18.5,0,19,0.5,19,1.1c0,12.4-4.7,20.4-8.7,25c-2.6,3-5.3,5-7,6c1.7,1.1,4.3,3,7,6
		c4,4.6,8.7,12.6,8.7,25c0,0.6-0.5,1.1-1.1,1.1c-0.6,0-1.1-0.5-1.1-1.1c0-22.3-16-29.9-16.1-30C0.3,33,0,32.6,0,32.1
		c0-0.4,0.3-0.8,0.7-1c0,0,4.1-1.9,8.1-6.6c5.3-6.2,8-14.1,8-23.4C16.8,0.5,17.3,0,17.9,0z"/>
</g>
</svg>
