<!-- Generator: Adobe Illustrator 17.1.0, SVG Export Plug-In  -->
<svg version="1.1"
	 xmlns="http://www.w3.org/2000/svg" xmlns:xlink="http://www.w3.org/1999/xlink" xmlns:a="http://ns.adobe.com/AdobeSVGViewerExtensions/3.0/"
	 x="0px" y="0px" width="19px" height="64.3px" viewBox="0 0 19 64.3" enable-background="new 0 0 19 64.3" xml:space="preserve">
<defs>
</defs>
<g>
	<path fill="#E2E3E4" d="M1.1,64.3c-0.6,0-1.1-0.5-1.1-1.1c0-12.4,4.7-20.4,8.7-25c2.6-3,5.3-5,7-6c-1.7-1.1-4.3-3-7-6
		C4.7,21.5,0,13.5,0,1.1C0,0.5,0.5,0,1.1,0s1.1,0.5,1.1,1.1c0,22.3,16,29.9,16.1,30c0.4,0.2,0.7,0.6,0.7,1s-0.3,0.8-0.7,1
		c0,0-4.1,1.9-8.1,6.6c-5.3,6.2-8,14.1-8,23.4C2.2,63.8,1.7,64.3,1.1,64.3z"/>
</g>
</svg>
