<?xml version="1.0" encoding="utf-8"?>
<!-- Generator: Adobe Illustrator 17.1.0, SVG Export Plug-In . SVG Version: 6.00 Build 0)  -->
<!DOCTYPE svg PUBLIC "-//W3C//DTD SVG 1.1//EN" "http://www.w3.org/Graphics/SVG/1.1/DTD/svg11.dtd">
<svg version="1.1" id="Layer_1" xmlns="http://www.w3.org/2000/svg" xmlns:xlink="http://www.w3.org/1999/xlink" x="0px" y="0px"
	 viewBox="0 0 602 338" enable-background="new 0 0 602 338" xml:space="preserve">
<g>
	
		<linearGradient id="SVGID_1_" gradientUnits="userSpaceOnUse" x1="-697.1327" y1="125.8376" x2="-359.1327" y2="125.8376" gradientTransform="matrix(4.489700e-011 -1 -1 -4.489700e-011 426.8327 -359.1327)">
		<stop  offset="0" style="stop-color:#26335D"/>
		<stop  offset="0.9286" style="stop-color:#1B294C"/>
	</linearGradient>
	<path fill="url(#SVGID_1_)" d="M8.6,11.3c2.8,7.7,5,16,6.3,24.6c1.4,8.6,2.2,17,2.3,25c0.1,8,0.3,13.9,0.3,17.9v29.6l0,0v0.4
		c0,3.9,0.1,8.4,0.3,13.4c0.1,5,0.9,10,2.3,14.9c1.3,5,3.5,9.9,6.3,14.5c2.8,4.8,6.8,8.6,11.8,11.8v11.1c-5,3.2-9,7.1-11.8,11.8
		s-5,9.5-6.3,14.5c-1.4,5-2.2,9.9-2.3,14.9c-0.1,5-0.3,9.4-0.3,13.4v0.4l0,0v29.6c0,4-0.1,9.9-0.3,17.9c-0.1,8-0.9,16.3-2.3,25
		c-1.3,8.6-3.5,16.9-6.3,24.6c-1.3,3.5-3.9,7.7-8.6,11.3h602c-4.8-3.6-7.3-7.9-8.6-11.3c-2.8-7.7-5-16-6.3-24.6
		c-1.4-8.6-2.2-17-2.3-25c-0.1-8-0.3-13.9-0.3-17.9v-29.6l0,0v-0.5c0-3.9-0.1-8.4-0.3-13.4s-0.9-10-2.3-14.9
		c-1.3-5-3.5-9.9-6.3-14.5c-2.8-4.8-6.8-8.6-11.8-11.8v-10.9c5-3.2,9-7.1,11.8-11.8c2.8-4.8,5-9.5,6.3-14.5c1.4-5,2.2-9.9,2.3-14.9
		s0.3-9.4,0.3-13.4v-0.4l0,0V78.8c0-4,0.1-9.9,0.3-17.9c0.1-8,0.9-16.3,2.3-25c1.3-8.6,3.5-16.9,6.3-24.6c1.3-3.5,3.9-7.7,8.6-11.3
		L0,0C4.8,3.6,7.3,7.9,8.6,11.3z" opacity="0.7"/>
</g>
</svg>
