<svg version="1.1"
                                 xmlns="http://www.w3.org/2000/svg"
                                 x="0px" y="0px" width="272.3px" height="62.3px" viewBox="0 0 272.3 62.3" enable-background="new 0 0 272.3 62.3"
                                 xml:space="preserve">
<defs>
</defs>
                                <g>
                                    <g>
                                        <path fill="#D6D7D8" d="M9.4,11.9h0.3l3.4,0.4h11.1c-0.4-1.2-0.9-2.3-1.6-3.2c-0.7-0.9-1.6-1.7-2.6-2.3c-1-0.6-2.2-1.1-3.4-1.5
			c-1.3-0.3-2.6-0.5-4-0.5c-2,0-3.9,0.3-5.7,0.9C5.1,6.4,3.3,7.3,1.5,8.4H1.3l2-6.8c1-0.4,2.2-0.7,3.6-1.1C8.4,0.2,10.1,0,12.1,0
			c2.5,0,4.9,0.3,7.1,1c2.2,0.7,4.2,1.7,5.9,3c1.7,1.3,3,2.9,4,4.9c1,1.9,1.5,4.1,1.5,6.6c0,2.5-0.5,4.7-1.5,6.6
			c-1,1.9-2.3,3.4-4,4.7c-1.7,1.3-3.6,2.2-5.7,2.8c-2.2,0.6-4.4,0.9-6.7,0.9c-2,0-3.9-0.2-5.8-0.7c-1.8-0.4-3.5-1.1-4.9-2L0,20.3
			h0.3c1.7,1.7,3.5,2.9,5.6,3.8c2.1,0.9,4.3,1.3,6.7,1.3c1.4,0,2.8-0.2,4.1-0.5c1.3-0.3,2.5-0.8,3.6-1.5c1.1-0.7,2-1.5,2.8-2.5
			c0.7-1,1.2-2.2,1.5-3.6H15c-1.5,0-2.9,0.1-3.9,0.4C10,18,9,18.4,8.1,18.9H7.8L9.4,11.9z"/>
                                        <path fill="#D6D7D8" d="M50.4,12h0.3c0.4,0.2,0.8,0.3,1.3,0.4c0.5,0,1,0.1,1.4,0.1h3.8c1.4,0,2.4-0.3,3.2-0.9
			c0.8-0.6,1.2-1.5,1.2-2.8c0-1.3-0.4-2.3-1.3-2.8s-2.1-0.8-3.6-0.8H45v15.9c0,0.4,0,1,0,1.9c0,0.8,0.1,1.7,0.2,2.6
			c0.1,0.9,0.3,1.7,0.5,2.5s0.5,1.4,0.9,1.7v0.3h-8.9v-0.3c0.4-0.3,0.7-0.9,0.9-1.7s0.4-1.7,0.5-2.5c0.1-0.9,0.1-1.8,0.2-2.6
			c0-0.8,0-1.4,0-1.9V6.4c0-0.4,0-0.9,0-1.4c0-0.5-0.1-1-0.2-1.5c-0.1-0.5-0.3-1-0.5-1.5C38.3,1.4,38,1,37.6,0.7V0.4h19.2
			c1.6,0,3.1,0.2,4.4,0.6c1.3,0.4,2.4,1,3.3,1.7c0.9,0.7,1.6,1.6,2.1,2.7c0.5,1.1,0.8,2.3,0.8,3.6c0,1.3-0.2,2.4-0.7,3.4
			c-0.4,1-1.1,1.9-2,2.6c-0.9,0.7-2,1.3-3.3,1.7c-1.3,0.4-2.9,0.6-4.6,0.6h-9.5L50.4,12z"/>
                                        <path fill="#D6D7D8" d="M109.5,0.4v0.3c-0.4,0.3-0.7,0.7-0.9,1.2c-0.2,0.5-0.4,1-0.4,1.5c-0.1,0.5-0.1,1-0.2,1.5c0,0.5,0,1,0,1.4
			v14.8c0,0.4,0,1,0,1.9c0,0.8,0.1,1.7,0.2,2.6c0.1,0.9,0.2,1.7,0.4,2.5c0.2,0.8,0.5,1.4,0.9,1.7v0.3h-8.7v-0.3
			c0.4-0.3,0.6-0.9,0.8-1.7c0.2-0.8,0.3-1.7,0.4-2.5c0.1-0.9,0.1-1.8,0.1-2.6c0-0.8,0-1.4,0-1.9V10h-0.1l-8.4,16h-4.8L80.6,9.8h-0.1
			v11.3c0,0.4,0,1,0,1.9c0,0.8,0.1,1.7,0.2,2.6c0.1,0.9,0.3,1.7,0.5,2.5c0.2,0.8,0.5,1.4,0.9,1.7v0.3h-8.1v-0.3
			c0.4-0.3,0.6-0.9,0.8-1.7c0.2-0.8,0.4-1.7,0.4-2.5c0.1-0.9,0.1-1.8,0.2-2.6c0-0.8,0-1.4,0-1.9V6.4c0-0.4,0-0.9,0-1.4
			c0-0.5-0.1-1-0.2-1.5c-0.1-0.5-0.2-1-0.4-1.5c-0.2-0.5-0.5-0.9-0.8-1.2V0.4h9.5v0.3c-0.2,0.3-0.4,0.7-0.3,1.2c0,0.5,0.1,1,0.3,1.5
			c0.2,0.5,0.4,1,0.6,1.5c0.2,0.5,0.5,1,0.7,1.4l6.9,13.1l7.1-13.1C98.9,6,99.1,5.5,99.4,5c0.3-0.5,0.5-1,0.7-1.5
			c0.2-0.5,0.3-1,0.3-1.5c0-0.5-0.1-0.9-0.3-1.2V0.4H109.5z"/>
                                        <path fill="#D6D7D8" d="M119.1,6.4c0-0.4,0-0.9,0-1.4c0-0.5-0.1-1-0.2-1.5c-0.1-0.5-0.2-1-0.4-1.5c-0.2-0.5-0.5-0.9-0.9-1.2V0.4
			h8.6v0.3c-0.4,0.3-0.7,0.7-0.9,1.2c-0.2,0.5-0.3,1-0.4,1.5c-0.1,0.5-0.1,1-0.2,1.5c0,0.5,0,1,0,1.4v14.6l13.2-14.6
			c0.4-0.4,0.8-0.8,1.2-1.3c0.4-0.4,0.8-0.9,1.1-1.4c0.3-0.5,0.6-1,0.8-1.5c0.2-0.5,0.3-1,0.3-1.6V0.4h8.7v0.3
			c-0.4,0.3-0.6,0.7-0.8,1.2c-0.2,0.5-0.3,1-0.4,1.5c-0.1,0.5-0.1,1-0.1,1.5c0,0.5,0,1,0,1.4v14.8c0,0.4,0,1,0,1.9
			c0,0.8,0.1,1.7,0.1,2.6c0.1,0.9,0.2,1.7,0.4,2.5c0.2,0.8,0.5,1.4,0.8,1.7v0.3h-8.5v-0.3c0.4-0.3,0.7-0.9,0.9-1.7
			c0.2-0.8,0.4-1.7,0.4-2.5c0.1-0.9,0.1-1.8,0.2-2.6c0-0.8,0-1.4,0-1.9V8.4l-14.3,15.9c-0.4,0.4-0.8,0.8-1.1,1.2
			c-0.4,0.4-0.7,0.9-1,1.3c-0.3,0.4-0.5,0.9-0.7,1.4c-0.2,0.5-0.3,1-0.3,1.5v0.3h-8v-0.3c0.4-0.3,0.7-0.9,0.9-1.7
			c0.2-0.8,0.4-1.7,0.4-2.5c0.1-0.9,0.1-1.8,0.2-2.6c0-0.8,0-1.4,0-1.9V6.4z"/>
                                        <path fill="#D6D7D8" d="M158.8,0h0.3l3.4,0.4h19.9l3.3-0.4h0.3l-3.9,7h-0.3c-0.2-0.5-0.6-1-1.2-1.3c-0.6-0.3-1.4-0.5-2.4-0.5H173
			v15.9c0,0.4,0,1,0,1.9c0,0.8,0.1,1.7,0.2,2.6c0.1,0.9,0.3,1.7,0.5,2.5c0.2,0.8,0.6,1.4,1,1.7v0.3h-9.2v-0.3c0.4-0.3,0.8-0.9,1-1.7
			c0.2-0.8,0.4-1.7,0.5-2.5c0.1-0.9,0.2-1.8,0.2-2.6c0-0.8,0-1.4,0-1.9V5.2h-4.8c-1.2,0-2.4,0.2-3.5,0.5c-1.1,0.3-2.1,0.7-3,1.3
			h-0.3L158.8,0z"/>
                                        <path fill="#D6D7D8" d="M184.2,30.1v-0.3c0.4-0.3,0.9-0.9,1.4-1.7s1-1.7,1.5-2.5c0.5-0.9,0.9-1.8,1.3-2.6c0.4-0.8,0.7-1.4,0.9-1.9
			l6.6-14.8c0.2-0.4,0.4-0.9,0.6-1.4c0.2-0.5,0.4-1,0.5-1.6c0.1-0.5,0.2-1,0.1-1.5c0-0.5-0.2-0.9-0.5-1.2V0.4h8.9v0.3
			c-0.2,0.4-0.2,0.9,0,1.6c0.2,0.7,0.5,1.5,0.9,2.4l7.7,16.4c0.2,0.4,0.5,1,0.9,1.9c0.4,0.8,0.8,1.7,1.3,2.6c0.5,0.9,1,1.7,1.4,2.5
			c0.5,0.8,0.9,1.4,1.3,1.7v0.3h-8.6v-0.3c0.2-0.3,0.4-0.7,0.4-1.2c0-0.5-0.1-0.9-0.2-1.5c-0.1-0.5-0.3-1-0.5-1.5
			c-0.2-0.5-0.4-1-0.6-1.4l-1-2h-14l-0.9,2c-0.2,0.4-0.4,0.9-0.6,1.4c-0.2,0.5-0.4,1-0.5,1.5c-0.1,0.5-0.2,1-0.2,1.5
			c0,0.5,0.1,0.9,0.3,1.2v0.3H184.2z M205.8,17.6l-4.9-10.7l-4.8,10.7H205.8z"/>
                                        <path fill="#D6D7D8" d="M235.9,15l-6.2-8.6l-4.6-5.7V0.4h8.3v0.3C233,1.3,233,2,233.5,2.9c0.4,0.9,1.2,2.1,2.2,3.5l7.1,9.4
			l-8.2,9.8c-0.5,0.6-1.1,1.2-1.7,1.8c-0.6,0.6-1.3,1.1-2,1.5c-0.7,0.4-1.5,0.8-2.4,1.1c-0.9,0.3-1.9,0.4-2.9,0.4
			c-1,0-2-0.1-3.1-0.4v-0.3c0.4-0.4,1-0.9,1.8-1.7c0.8-0.8,1.5-1.6,2.4-2.4c0.8-0.9,1.6-1.7,2.3-2.5c0.7-0.8,1.3-1.4,1.6-1.8
			L235.9,15z M250.2,21.1c0,0.4,0,1,0,1.9c0,0.8,0.1,1.7,0.2,2.6c0.1,0.9,0.3,1.7,0.5,2.5c0.2,0.8,0.6,1.4,1,1.7v0.3H243v-0.3
			c0.4-0.3,0.6-0.9,0.8-1.7c0.2-0.8,0.4-1.7,0.4-2.5c0.1-0.9,0.1-1.8,0.2-2.6c0-0.8,0-1.4,0-1.9V6.4c0-0.4,0-0.9,0-1.4
			c0-0.5-0.1-1-0.2-1.5c-0.1-0.5-0.2-1-0.4-1.5c-0.2-0.5-0.5-0.9-0.8-1.2V0.4h8.9v0.3c-0.4,0.3-0.7,0.7-1,1.2
			c-0.2,0.5-0.4,1-0.5,1.5c-0.1,0.5-0.2,1-0.2,1.5c0,0.5,0,1,0,1.4V21.1z M264.2,21.4c0.4,0.4,0.9,1,1.6,1.8
			c0.7,0.8,1.5,1.6,2.3,2.5c0.8,0.9,1.6,1.7,2.4,2.4s1.4,1.3,1.8,1.7v0.3c-1.1,0.3-2.1,0.4-3.1,0.4c-1.1,0-2-0.1-2.9-0.4
			c-0.9-0.3-1.7-0.7-2.4-1.1s-1.4-1-2-1.5c-0.6-0.6-1.2-1.2-1.7-1.8l-8.2-9.8l7.1-9.4c1.1-1.4,1.8-2.6,2.2-3.5
			c0.4-0.9,0.5-1.6,0.1-2.2V0.4h8.3v0.3L265,6.4l-6.2,8.6L264.2,21.4z"/>
                                    </g>
                                    <g>
                                        <path fill="#80C328" d="M67.7,58.1c0,0.2,0,0.5,0,0.8c0,0.4,0,0.7,0.1,1.1s0.1,0.8,0.2,1.1c0.1,0.3,0.2,0.6,0.4,0.7v0.1h-3.9v-0.1
			c0.2-0.1,0.3-0.4,0.4-0.7c0.1-0.3,0.2-0.7,0.2-1.1s0.1-0.8,0.1-1.1c0-0.4,0-0.6,0-0.8v-6c0-0.2,0-0.4,0-0.7c0-0.3-0.1-0.5-0.1-0.8
			c-0.1-0.3-0.2-0.5-0.3-0.8c-0.1-0.2-0.2-0.4-0.4-0.6v-0.1h11l0.8,2.9H76c-0.4-0.3-1.1-0.5-1.9-0.6c-0.8-0.1-1.7-0.2-2.6-0.2h-3.8
			V58.1z"/>
                                        <path fill="#80C328" d="M87.9,49c1.2,0,2.2,0.2,3.2,0.5c1,0.3,1.8,0.8,2.5,1.4c0.7,0.6,1.3,1.3,1.6,2.1c0.4,0.8,0.6,1.7,0.6,2.6
			c0,0.9-0.2,1.8-0.6,2.6c-0.4,0.8-0.9,1.5-1.6,2.1s-1.5,1.1-2.5,1.4s-2,0.5-3.2,0.5c-1.2,0-2.2-0.2-3.2-0.5s-1.8-0.8-2.5-1.4
			s-1.3-1.3-1.6-2.1c-0.4-0.8-0.6-1.7-0.6-2.6c0-0.9,0.2-1.8,0.6-2.6c0.4-0.8,0.9-1.5,1.6-2.1c0.7-0.6,1.5-1.1,2.5-1.4
			C85.6,49.1,86.7,49,87.9,49z M87.9,51c-0.8,0-1.6,0.1-2.2,0.3c-0.7,0.2-1.2,0.5-1.7,0.9c-0.5,0.4-0.9,0.9-1.1,1.4
			c-0.3,0.6-0.4,1.2-0.4,1.9c0,0.7,0.1,1.3,0.4,1.9c0.3,0.6,0.6,1,1.1,1.4s1.1,0.7,1.7,0.9c0.7,0.2,1.4,0.3,2.2,0.3
			c0.8,0,1.6-0.1,2.2-0.3c0.7-0.2,1.2-0.5,1.7-0.9c0.5-0.4,0.9-0.9,1.1-1.4c0.3-0.6,0.4-1.2,0.4-1.9c0-0.7-0.1-1.3-0.4-1.9
			c-0.3-0.6-0.6-1-1.1-1.4c-0.5-0.4-1.1-0.7-1.7-0.9C89.4,51.1,88.7,51,87.9,51z"/>
                                        <path fill="#80C328" d="M103.4,58.1c0,0.2,0,0.5,0,0.8c0,0.4,0,0.7,0.1,1.1c0,0.4,0.1,0.8,0.2,1.1c0.1,0.3,0.2,0.6,0.4,0.7v0.1
			h-3.8v-0.1c0.2-0.1,0.3-0.4,0.4-0.7c0.1-0.3,0.1-0.7,0.2-1.1c0-0.4,0.1-0.8,0.1-1.1c0-0.4,0-0.6,0-0.8v-6.4c0-0.2,0-0.4,0-0.6
			c0-0.2,0-0.4-0.1-0.7c0-0.2-0.1-0.4-0.2-0.6c-0.1-0.2-0.2-0.4-0.4-0.5v-0.1h8.5c1.4,0,2.5,0.3,3.2,0.9c0.8,0.6,1.1,1.6,1.1,2.9
			c0,0.5-0.1,1-0.2,1.5c-0.1,0.5-0.4,0.8-0.7,1.2c-0.3,0.3-0.8,0.6-1.3,0.8c-0.5,0.2-1.2,0.3-1.9,0.3h-4.4l1.3-2.3h0.1
			c0.2,0.1,0.3,0.1,0.5,0.2c0.2,0,0.4,0,0.6,0h1.3c0.4,0,0.8,0,1-0.1c0.3-0.1,0.5-0.1,0.7-0.3c0.2-0.1,0.3-0.3,0.4-0.5
			c0.1-0.2,0.1-0.5,0.1-0.8c0-0.3,0-0.6-0.1-0.8c-0.1-0.2-0.2-0.4-0.4-0.5c-0.2-0.1-0.4-0.2-0.7-0.3c-0.3-0.1-0.6-0.1-1-0.1h-4.9
			V58.1z"/>
                                        <path fill="#80C328" d="M116.6,55.7c0-1.1,0.2-2,0.7-2.8c0.4-0.8,1-1.5,1.8-2.1c0.7-0.6,1.6-1,2.6-1.3c1-0.3,2.1-0.5,3.2-0.5
			c0.7,0,1.3,0.1,1.9,0.2c0.6,0.1,1.1,0.2,1.5,0.4c0.4,0.1,0.8,0.3,1.2,0.4c0.3,0.1,0.6,0.3,0.9,0.4l-0.8,2.9h-0.1
			c-0.5-0.7-1.3-1.2-2.1-1.6c-0.9-0.4-1.8-0.5-2.7-0.5c-0.7,0-1.3,0.1-2,0.3c-0.6,0.2-1.2,0.5-1.7,0.8c-0.5,0.4-0.9,0.8-1.2,1.4
			c-0.3,0.6-0.5,1.2-0.5,2c0,0.7,0.1,1.4,0.4,2c0.3,0.6,0.7,1,1.2,1.4c0.5,0.4,1.1,0.6,1.7,0.8c0.7,0.2,1.3,0.3,2,0.3
			c1.1,0,2.1-0.2,3-0.6c1-0.4,1.8-1,2.4-1.8h0.1l-1,3.5c-0.6,0.4-1.3,0.7-2.1,0.9c-0.8,0.2-1.6,0.3-2.4,0.3c-1.1,0-2.1-0.1-3.1-0.4
			c-1-0.3-1.8-0.7-2.6-1.2c-0.7-0.5-1.3-1.2-1.8-2C116.9,57.8,116.6,56.8,116.6,55.7z"/>
                                        <path fill="#80C328" d="M142.9,49c1.2,0,2.2,0.2,3.2,0.5c1,0.3,1.8,0.8,2.5,1.4c0.7,0.6,1.3,1.3,1.6,2.1c0.4,0.8,0.6,1.7,0.6,2.6
			c0,0.9-0.2,1.8-0.6,2.6s-0.9,1.5-1.6,2.1c-0.7,0.6-1.5,1.1-2.5,1.4c-1,0.3-2,0.5-3.2,0.5c-1.2,0-2.2-0.2-3.2-0.5s-1.8-0.8-2.5-1.4
			c-0.7-0.6-1.3-1.3-1.6-2.1c-0.4-0.8-0.6-1.7-0.6-2.6c0-0.9,0.2-1.8,0.6-2.6c0.4-0.8,0.9-1.5,1.6-2.1c0.7-0.6,1.5-1.1,2.5-1.4
			C140.7,49.1,141.7,49,142.9,49z M142.9,51c-0.8,0-1.6,0.1-2.2,0.3c-0.7,0.2-1.2,0.5-1.7,0.9c-0.5,0.4-0.9,0.9-1.1,1.4
			c-0.3,0.6-0.4,1.2-0.4,1.9c0,0.7,0.1,1.3,0.4,1.9c0.3,0.6,0.6,1,1.1,1.4s1.1,0.7,1.7,0.9c0.7,0.2,1.4,0.3,2.2,0.3s1.6-0.1,2.2-0.3
			c0.7-0.2,1.2-0.5,1.7-0.9s0.9-0.9,1.1-1.4c0.3-0.6,0.4-1.2,0.4-1.9c0-0.7-0.1-1.3-0.4-1.9c-0.3-0.6-0.6-1-1.1-1.4
			c-0.5-0.4-1.1-0.7-1.7-0.9S143.7,51,142.9,51z"/>
                                        <path fill="#80C328" d="M163.9,49.2c0.8,0,1.4,0.1,2,0.3c0.5,0.2,1,0.5,1.3,0.8c0.3,0.3,0.6,0.7,0.8,1.1c0.2,0.4,0.3,0.9,0.3,1.3
			c0,0.3,0,0.6-0.1,0.9s-0.2,0.5-0.4,0.8c-0.2,0.2-0.3,0.4-0.5,0.6c-0.2,0.2-0.4,0.3-0.6,0.4c0.3,0.1,0.5,0.3,0.8,0.5
			c0.2,0.2,0.5,0.4,0.6,0.6c0.2,0.2,0.3,0.5,0.5,0.9c0.1,0.3,0.2,0.8,0.2,1.3c0,0.6-0.1,1.1-0.3,1.6c-0.2,0.5-0.5,0.8-0.9,1.1
			c-0.4,0.3-0.9,0.5-1.4,0.7c-0.5,0.1-1.1,0.2-1.7,0.2h-9.2v-0.1c0.2-0.1,0.3-0.4,0.4-0.7c0.1-0.3,0.2-0.7,0.2-1.1
			c0-0.4,0.1-0.8,0.1-1.1c0-0.4,0-0.6,0-0.8v-6.4c0-0.2,0-0.4,0-0.6c0-0.2,0-0.5-0.1-0.7c0-0.2-0.1-0.4-0.2-0.6
			c-0.1-0.2-0.2-0.4-0.4-0.5v-0.1H163.9z M161,56.3c-0.7,0-1.2,0.1-1.6,0.3h-0.1l1.5-2.5h0.1c0.2,0.1,0.3,0.2,0.5,0.2
			c0.2,0,0.4,0,0.6,0h1.8c0.5,0,1-0.1,1.4-0.3c0.4-0.2,0.6-0.6,0.6-1.2s-0.2-1-0.6-1.2c-0.4-0.2-0.8-0.3-1.4-0.3h-5.5V60h5.3
			c0.8,0,1.4-0.1,1.8-0.4c0.5-0.3,0.7-0.7,0.7-1.4c0-0.7-0.2-1.1-0.7-1.4c-0.5-0.3-1.1-0.4-1.8-0.4H161z"/>
                                        <path fill="#80C328" d="M184.9,52.1h-0.1c-0.2-0.2-0.5-0.3-0.8-0.4s-0.7-0.2-1.1-0.3c-0.4-0.1-0.8-0.1-1.3-0.1c-0.4,0-0.9,0-1.3,0
			h-3.6v3.3h7.2l-1.5,2.6h-0.1c-0.1-0.1-0.3-0.2-0.5-0.2c-0.2-0.1-0.4-0.1-0.7-0.2c-0.2,0-0.5-0.1-0.8-0.1c-0.3,0-0.5,0-0.8,0h-2.9
			V60h2.9c0.4,0,0.8,0,1.4,0c0.6,0,1.1-0.1,1.7-0.1c0.6-0.1,1.2-0.1,1.8-0.2c0.6-0.1,1-0.2,1.4-0.4h0.1l-1.6,2.9h-10.9v-0.1
			c0.1-0.1,0.3-0.4,0.3-0.7c0.1-0.3,0.1-0.7,0.2-1.1c0-0.4,0.1-0.8,0.1-1.1c0-0.4,0-0.6,0-0.8v-6.4c0-0.2,0-0.4,0-0.6
			c0-0.2,0-0.5-0.1-0.7c0-0.2-0.1-0.4-0.2-0.6c-0.1-0.2-0.2-0.4-0.3-0.5v-0.1h10.6L184.9,52.1z"/>
                                        <path fill="#80C328" d="M191,49h0.1l1.5,0.2h8.5l1.9-0.2h0.1l-1.7,3.1h-0.1c-0.1-0.3-0.3-0.5-0.5-0.6c-0.3-0.1-0.7-0.2-1.1-0.2
			h-2.3v6.9c0,0.2,0,0.5,0,0.8c0,0.4,0,0.7,0.1,1.1c0,0.4,0.1,0.7,0.2,1.1c0.1,0.3,0.2,0.6,0.4,0.7v0.1h-3.9v-0.1
			c0.2-0.2,0.3-0.4,0.4-0.7c0.1-0.3,0.1-0.7,0.2-1.1c0-0.4,0.1-0.8,0.1-1.1c0-0.4,0-0.6,0-0.8v-6.9h-2.3c-0.5,0-1.1,0.1-1.6,0.2
			c-0.5,0.1-0.9,0.3-1.2,0.6h-0.1L191,49z"/>
                                    </g>
                                    <rect x="54.7" y="55" fill="#80C328" width="2.9" height="2.9"/>
                                    <rect x="208.9" y="55" fill="#80C328" width="2.9" height="2.9"/>
                                </g>
</svg>