<!-- Generator: Adobe Illustrator 17.1.0, SVG Export Plug-In  -->
<svg version="1.1"
	 xmlns="http://www.w3.org/2000/svg" xmlns:xlink="http://www.w3.org/1999/xlink" xmlns:a="http://ns.adobe.com/AdobeSVGViewerExtensions/3.0/"
	 x="0px" y="0px" width="101.5px" height="13.8px" viewBox="0 0 101.5 13.8" enable-background="new 0 0 101.5 13.8"
	 xml:space="preserve">
<defs>
</defs>
<g>
	<g opacity="0.5">
		<path fill="#FFFFFF" d="M96.2,0h-19c0,0,0,0,0,0v10.9c0,0,0,0,0,0h18.9c3,0,5.4-2.4,5.4-5.4C101.5,2.5,99.1,0.1,96.2,0z M82.6,8.9
			h-3.2c0,0,0,0,0,0V6.4c0,0,0,0,0,0h3.2c0.7,0,1.2,0.6,1.2,1.3C83.9,8.3,83.3,8.9,82.6,8.9z M82.6,4.5h-3.2c0,0,0,0,0,0V2
			c0,0,0,0,0,0h3.2c0.7,0,1.2,0.6,1.2,1.3C83.9,4,83.3,4.5,82.6,4.5z M89.4,8.9h-3.2c0,0,0,0,0,0V6.4c0,0,0,0,0,0h3.2
			c0.7,0,1.2,0.6,1.2,1.3C90.7,8.3,90.1,8.9,89.4,8.9z M89.4,4.5h-3.2c0,0,0,0,0,0V2c0,0,0,0,0,0h3.2c0.7,0,1.2,0.6,1.2,1.3
			C90.7,4,90.1,4.5,89.4,4.5z M96.2,8.9h-3.2c0,0,0,0,0,0V6.4c0,0,0,0,0,0h3.2c0.7,0,1.2,0.6,1.2,1.3C97.5,8.3,96.9,8.9,96.2,8.9z
			 M96.2,4.5h-3.2c0,0,0,0,0,0V2c0,0,0,0,0,0h3.2c0.7,0,1.2,0.6,1.2,1.3C97.5,4,96.9,4.5,96.2,4.5z"/>
		<path fill="#FFFFFF" d="M56.1,5c0.9-0.4,1.5-1.2,1.5-2.2C57.6,0.8,56,0,54.1,0H49v10.9h5.4c2,0,3.7-1.1,3.7-3.2
			C58.1,6.1,57.3,5.3,56.1,5z M51.3,1.8h2.2c0.9,0,1.8,0.2,1.8,1.3c0,1.1-0.9,1.3-1.8,1.3h-2.2V1.8z M53.7,9h-2.4V6h2.3
			c1.1,0,2.1,0.2,2.1,1.5C55.7,8.8,54.7,9,53.7,9z"/>
		<rect x="59.6" y="0" fill="#FFFFFF" width="2.2" height="1.8"/>
		<rect x="59.6" y="3" fill="#FFFFFF" width="2.2" height="7.9"/>
		<path fill="#FFFFFF" d="M69,4.1c-0.6-0.9-1.3-1.3-2.4-1.3c-2.1,0-3.5,1.6-3.5,4c0,2.4,1.3,3.9,3.4,3.9c1,0,1.8-0.4,2.4-1.2l0,0.9
			c0,1.3-0.3,2-1.7,2c-0.9,0-1.4-0.3-1.6-1h-2.2c0.2,1.7,1.4,2.5,3.7,2.5c2.6,0,3.9-1.1,3.9-3.8V3h-2V4.1z M67.2,9
			c-1.1,0-1.8-0.9-1.8-2.3c0-1.4,0.7-2.3,1.8-2.3c1.1,0,1.8,0.8,1.8,2.2C69,8.1,68.3,9,67.2,9z"/>
	</g>
	<path opacity="0.5" fill="#FFFFFF" d="M2.2,11.3c-1.4,0-2.2-1-2.2-2.4c0-1.5,0.9-2.5,2.2-2.5c1.1,0,1.8,0.6,2,1.6H3.4
		c-0.1-0.7-0.5-1-1.2-1c-0.9,0-1.4,0.7-1.4,1.8c0,1.1,0.5,1.8,1.4,1.8c0.7,0,1.2-0.4,1.3-1.2h0.8C4.1,10.6,3.4,11.3,2.2,11.3z"/>
	<path opacity="0.5" fill="#FFFFFF" d="M8.9,12.7v-1.5H5.4v1.5H4.6v-2.2h0.5c0.3-0.5,0.6-1.8,0.6-3v-1H9v4h0.6v2.2H8.9z M8.3,7.2
		H6.5v0.4c0,1.2-0.3,2.4-0.5,2.9h2.3V7.2z"/>
	<path opacity="0.5" fill="#FFFFFF" d="M12.5,11.3c-1.4,0-2.2-0.9-2.2-2.4c0-1.5,0.9-2.5,2.2-2.5c1.5,0,2.1,1.2,2.1,2.6v0.1h-3.5
		l0,0.1c0,1,0.5,1.6,1.4,1.6c0.7,0,1-0.3,1.3-1h0.7C14.3,10.8,13.6,11.3,12.5,11.3z M12.4,7c-0.7,0-1.3,0.5-1.4,1.4h2.7
		C13.7,7.6,13.2,7,12.4,7z"/>
	<path opacity="0.5" fill="#FFFFFF" d="M19.3,11.2h-0.8v-4h-1.7l-0.1,2.1c0,1.5-0.6,2-1.3,2c-0.2,0-0.5-0.1-0.5-0.1v-0.6
		c0.1,0.1,0.3,0.1,0.4,0.1c0.3,0,0.6-0.3,0.7-1.3l0.1-2.8h3.2V11.2z"/>
	<path opacity="0.5" fill="#FFFFFF" d="M24.8,11.2c-0.2,0.1-0.4,0.1-0.5,0.1c-0.4,0-0.7-0.2-0.7-0.7c-0.5,0.5-1,0.7-1.7,0.7
		c-0.9,0-1.5-0.5-1.5-1.3c0-0.8,0.5-1.3,1.6-1.4c1.1-0.1,1.5-0.1,1.5-0.7c0-0.5-0.4-0.8-1.1-0.8c-0.7,0-1.1,0.3-1.2,0.9h-0.7
		c0-1,0.7-1.6,1.9-1.6c0.6,0,1.2,0.2,1.5,0.5c0.3,0.3,0.3,0.8,0.3,1.2c0,0.7,0,1.4,0,2.1c0,0.3,0.1,0.5,0.3,0.5c0.1,0,0.1,0,0.2,0
		V11.2z M22.5,9.1c-0.6,0.1-1.3,0.1-1.3,0.9c0,0.5,0.4,0.8,0.9,0.8c0.7,0,1.4-0.5,1.4-1.1V8.8C23.2,9,22.8,9,22.5,9.1z"/>
	<path opacity="0.5" fill="#FFFFFF" d="M25.7,11.2V6.5h0.8v1.8h2.3V6.5h0.8v4.6h-0.8V9.1h-2.3v2.1H25.7z"/>
	<path opacity="0.5" fill="#FFFFFF" d="M35.2,8.8c0,1.6-0.8,2.5-2.2,2.5c-1.4,0-2.3-0.9-2.3-2.4s0.9-2.5,2.3-2.5
		C34.4,6.4,35.2,7.3,35.2,8.8z M31.5,8.9c0,1.1,0.5,1.8,1.5,1.8c0.9,0,1.4-0.7,1.4-1.8c0-1.1-0.6-1.8-1.5-1.8S31.5,7.8,31.5,8.9z"/>
	<path opacity="0.5" fill="#FFFFFF" d="M39,6.5h2.2c0.8,0,1.6,0.2,1.6,1.1c0,0.5-0.3,0.8-0.7,1v0C42.6,8.8,43,9.2,43,9.8
		c0,0.8-0.6,1.4-1.4,1.4H39V6.5z M42,7.8c0-0.4-0.2-0.6-0.9-0.6h-1.3v1.2h1.3C41.8,8.4,42,8.2,42,7.8z M39.8,10.5h1.6
		c0.5,0,0.8-0.3,0.8-0.8c0-0.4-0.3-0.7-0.9-0.7h-1.5V10.5z"/>
</g>
</svg>
