<!-- Generator: Adobe Illustrator 17.1.0, SVG Export Plug-In  -->
<svg version="1.1"
	 xmlns="http://www.w3.org/2000/svg" xmlns:xlink="http://www.w3.org/1999/xlink" xmlns:a="http://ns.adobe.com/AdobeSVGViewerExtensions/3.0/"
	 x="0px" y="0px" width="260.7px" height="112.5px" viewBox="0 0 260.7 112.5" enable-background="new 0 0 260.7 112.5"
	 xml:space="preserve">
<defs>
</defs>
<g>
	<path fill="#1B294C" d="M258.4,29.7h-15V17.8c-16.1-2.4-14.9-2.9-37.3-8c-21.1-4.7-47-7.4-75.7-7.4c-28.7,0-54.6,2.7-75.7,7.4
		c-22.5,5.1-21.3,5.6-37.3,8v11.9h-15v53.1h15v11.9c16.1,2.4,14.9,2.9,37.3,8c21.1,4.7,47,7.4,75.7,7.4c28.7,0,54.6-2.7,75.7-7.4
		c22.5-5.1,21.3-5.6,37.3-8V82.8h15V29.7z"/>
	<g>
		<g>
			<path fill="#80D128" d="M130.4,112.5c-28.1,0-54.5-2.6-76.2-7.5c-7.9-1.8-12.8-3-16.7-3.9c-7.2-1.8-10.1-2.5-20.5-4h0
				c-1.1-0.2-2-1.2-2-2.3v-7.2c0-1.3-1-2.3-2.3-2.3H2.3c-1.3,0-2.3-1-2.3-2.3V29.7c0-1.3,1-2.3,2.3-2.3h10.3c1.3,0,2.3-1,2.3-2.3
				v-7.2c0-1.2,0.8-2.1,2-2.3h0c10.3-1.5,13.5-2.3,20.5-4c3.9-1,8.8-2.2,16.7-3.9C75.9,2.6,102.2,0,130.4,0
				c28.1,0,54.5,2.6,76.2,7.5c7.9,1.8,12.8,3,16.7,3.9c7,1.7,10.1,2.5,20.5,4l0,0c1.1,0.2,2,1.2,2,2.3V25c0,1.3,1,2.3,2.3,2.3h10.3
				c1.3,0,2.3,1,2.3,2.3v53.1c0,1.3-1,2.3-2.3,2.3h-10.3c-1.3,0-2.3,1-2.3,2.3v7.2c0,1.2-0.8,2.1-2,2.3l0,0
				c-10.3,1.5-13.3,2.3-20.5,4c-3.9,1-8.8,2.2-16.7,3.9C184.9,109.9,158.5,112.5,130.4,112.5z M19.7,90.7c0,1.2,0.8,2.1,2,2.3
				c7.5,1.2,10.8,2,16.9,3.5c3.9,1,8.8,2.1,16.6,3.9c21.4,4.8,47.4,7.4,75.2,7.4c27.8,0,53.8-2.5,75.2-7.4c7.9-1.8,12.7-3,16.6-3.9
				c6.1-1.5,9.4-2.3,16.9-3.5c1.1-0.2,2-1.2,2-2.3v-7.9c0-1.3,1-2.3,2.3-2.3h10.3c1.3,0,2.3-1,2.3-2.3V34.4c0-1.3-1-2.3-2.3-2.3
				h-10.3c-1.3,0-2.3-1-2.3-2.3v-7.9c0-1.2-0.8-2.1-2-2.3c-7.5-1.2-10.8-2-16.9-3.5c-3.9-1-8.8-2.1-16.6-3.9
				c-21.4-4.8-47.4-7.4-75.2-7.4c-27.8,0-53.8,2.5-75.2,7.4c-7.8,1.8-12.7,3-16.6,3.9c-6.1,1.5-9.4,2.3-16.9,3.5
				c-1.1,0.2-2,1.2-2,2.3v7.9c0,1.3-1,2.3-2.3,2.3H7c-1.3,0-2.3,1-2.3,2.3v43.8c0,1.3,1,2.3,2.3,2.3h10.3c1.3,0,2.3,1,2.3,2.3V90.7z
				"/>
		</g>
	</g>
	<g>
		<g>
			<path fill="#E4E5E6" d="M44.1,49.3h0.2l2.3,0.3h7.6c-0.2-0.8-0.6-1.5-1.1-2.2c-0.5-0.6-1.1-1.2-1.8-1.6c-0.7-0.4-1.5-0.8-2.3-1
				c-0.9-0.2-1.8-0.3-2.7-0.3c-1.3,0-2.6,0.2-3.9,0.6c-1.2,0.4-2.5,1-3.6,1.8h-0.2l1.4-4.7c0.6-0.3,1.5-0.5,2.5-0.7
				c1-0.2,2.2-0.3,3.5-0.3c1.7,0,3.3,0.2,4.8,0.7c1.5,0.5,2.8,1.1,4,2c1.1,0.9,2,2,2.7,3.3c0.7,1.3,1,2.8,1,4.5c0,1.7-0.3,3.2-1,4.5
				c-0.7,1.3-1.6,2.3-2.7,3.2c-1.1,0.9-2.4,1.5-3.9,1.9c-1.5,0.4-3,0.6-4.6,0.6c-1.4,0-2.7-0.2-3.9-0.5c-1.2-0.3-2.4-0.8-3.3-1.3
				l-1.3-5.1h0.2c1.1,1.1,2.4,2,3.8,2.6c1.4,0.6,2.9,0.9,4.5,0.9c1,0,1.9-0.1,2.8-0.3c0.9-0.2,1.7-0.6,2.5-1c0.7-0.5,1.4-1,1.9-1.7
				c0.5-0.7,0.8-1.5,1-2.5h-6.5c-1.1,0-1.9,0.1-2.7,0.3c-0.7,0.2-1.4,0.5-2,0.8H43L44.1,49.3z"/>
			<path fill="#E4E5E6" d="M72,49.3h0.2c0.3,0.1,0.5,0.2,0.9,0.3c0.3,0,0.7,0,1,0h2.6c0.9,0,1.7-0.2,2.2-0.6s0.8-1,0.8-1.9
				c0-0.9-0.3-1.5-0.9-1.9s-1.4-0.6-2.5-0.6h-8v10.8c0,0.3,0,0.7,0,1.3c0,0.6,0,1.2,0.1,1.8c0.1,0.6,0.2,1.2,0.3,1.7
				c0.1,0.5,0.4,0.9,0.6,1.2v0.2h-6.1v-0.2c0.3-0.2,0.5-0.6,0.6-1.2c0.1-0.5,0.3-1.1,0.3-1.7c0.1-0.6,0.1-1.2,0.1-1.8
				c0-0.6,0-1,0-1.3v-10c0-0.3,0-0.6,0-0.9c0-0.4,0-0.7-0.1-1.1c-0.1-0.4-0.2-0.7-0.3-1c-0.1-0.3-0.4-0.6-0.6-0.8v-0.2h13
				c1.1,0,2.1,0.1,3,0.4c0.9,0.3,1.6,0.7,2.3,1.1c0.6,0.5,1.1,1.1,1.5,1.8c0.3,0.7,0.5,1.5,0.5,2.4c0,0.9-0.1,1.6-0.4,2.3
				c-0.3,0.7-0.7,1.3-1.3,1.8c-0.6,0.5-1.4,0.9-2.3,1.2c-0.9,0.3-2,0.4-3.2,0.4H70L72,49.3z"/>
			<path fill="#E4E5E6" d="M112.2,41.4v0.2c-0.3,0.2-0.5,0.5-0.6,0.8c-0.1,0.3-0.2,0.7-0.3,1c-0.1,0.4-0.1,0.7-0.1,1.1
				c0,0.4,0,0.7,0,0.9v10c0,0.3,0,0.7,0,1.3c0,0.6,0,1.2,0.1,1.8c0.1,0.6,0.2,1.2,0.3,1.7c0.1,0.5,0.3,0.9,0.6,1.2v0.2h-5.9v-0.2
				c0.2-0.2,0.4-0.6,0.6-1.2c0.1-0.5,0.2-1.1,0.3-1.7c0.1-0.6,0.1-1.2,0.1-1.8c0-0.6,0-1,0-1.3v-7.6h-0.1l-5.7,10.9h-3.2l-5.7-11
				h-0.1v7.7c0,0.3,0,0.7,0,1.3c0,0.6,0.1,1.2,0.1,1.8c0.1,0.6,0.2,1.2,0.3,1.7c0.1,0.5,0.4,0.9,0.6,1.2v0.2h-5.5v-0.2
				c0.2-0.2,0.4-0.6,0.6-1.2c0.1-0.5,0.2-1.1,0.3-1.7c0.1-0.6,0.1-1.2,0.1-1.8c0-0.6,0-1,0-1.3v-10c0-0.3,0-0.6,0-0.9
				c0-0.4,0-0.7-0.1-1.1c-0.1-0.4-0.2-0.7-0.3-1c-0.1-0.3-0.3-0.6-0.6-0.8v-0.2h6.4v0.2c-0.2,0.2-0.2,0.5-0.2,0.8
				c0,0.3,0.1,0.7,0.2,1c0.1,0.4,0.3,0.7,0.4,1.1c0.2,0.4,0.3,0.7,0.5,0.9l4.7,8.9l4.8-8.9c0.1-0.3,0.3-0.6,0.5-0.9
				c0.2-0.4,0.3-0.7,0.4-1.1c0.1-0.4,0.2-0.7,0.2-1c0-0.3,0-0.6-0.2-0.8v-0.2H112.2z"/>
			<path fill="#E4E5E6" d="M118.8,45.5c0-0.3,0-0.6,0-0.9c0-0.4,0-0.7-0.1-1.1c-0.1-0.4-0.2-0.7-0.3-1c-0.1-0.3-0.3-0.6-0.6-0.8
				v-0.2h5.8v0.2c-0.3,0.2-0.5,0.5-0.6,0.8c-0.1,0.3-0.2,0.7-0.3,1c-0.1,0.4-0.1,0.7-0.1,1.1c0,0.4,0,0.7,0,0.9v9.9l9-9.9
				c0.3-0.3,0.5-0.6,0.8-0.9c0.3-0.3,0.5-0.6,0.7-0.9c0.2-0.3,0.4-0.7,0.6-1c0.1-0.3,0.2-0.7,0.2-1.1v-0.2h5.9v0.2
				c-0.2,0.2-0.4,0.5-0.6,0.8c-0.1,0.3-0.2,0.7-0.3,1c-0.1,0.4-0.1,0.7-0.1,1.1c0,0.4,0,0.7,0,0.9v10c0,0.3,0,0.7,0,1.3
				c0,0.6,0,1.2,0.1,1.8c0.1,0.6,0.1,1.2,0.3,1.7c0.1,0.5,0.3,0.9,0.6,1.2v0.2H134v-0.2c0.3-0.2,0.5-0.6,0.6-1.2
				c0.1-0.5,0.2-1.1,0.3-1.7c0.1-0.6,0.1-1.2,0.1-1.8c0-0.6,0-1,0-1.3v-8.6l-9.7,10.8c-0.3,0.3-0.5,0.6-0.8,0.8
				c-0.2,0.3-0.5,0.6-0.7,0.9c-0.2,0.3-0.4,0.6-0.5,1c-0.1,0.3-0.2,0.7-0.2,1.1v0.2h-5.4v-0.2c0.3-0.2,0.5-0.6,0.6-1.2
				c0.1-0.5,0.2-1.1,0.3-1.7c0.1-0.6,0.1-1.2,0.1-1.8c0-0.6,0-1,0-1.3V45.5z"/>
			<path fill="#E4E5E6" d="M145.8,41.1h0.2l2.3,0.3h13.6l2.2-0.3h0.2l-2.6,4.7h-0.2c-0.1-0.4-0.4-0.7-0.8-0.9
				c-0.4-0.2-0.9-0.3-1.7-0.3h-3.5v10.8c0,0.3,0,0.7,0,1.3c0,0.6,0.1,1.2,0.1,1.8c0.1,0.6,0.2,1.2,0.3,1.7c0.2,0.5,0.4,0.9,0.7,1.2
				v0.2h-6.2v-0.2c0.3-0.2,0.5-0.6,0.7-1.2c0.2-0.5,0.3-1.1,0.3-1.7c0.1-0.6,0.1-1.2,0.1-1.8c0-0.6,0-1,0-1.3V44.7h-3.2
				c-0.8,0-1.6,0.1-2.4,0.3c-0.7,0.2-1.4,0.5-2,0.9h-0.2L145.8,41.1z"/>
			<path fill="#E4E5E6" d="M163.1,61.6v-0.2c0.3-0.2,0.6-0.6,1-1.2c0.4-0.5,0.7-1.1,1-1.7c0.3-0.6,0.6-1.2,0.9-1.8
				c0.3-0.6,0.5-1,0.6-1.3l4.5-10c0.1-0.3,0.3-0.6,0.4-0.9c0.1-0.4,0.2-0.7,0.3-1.1c0.1-0.4,0.1-0.7,0.1-1c0-0.3-0.1-0.6-0.3-0.8
				v-0.2h6.1v0.2c-0.1,0.2-0.2,0.6,0,1.1c0.1,0.5,0.3,1,0.6,1.6l5.2,11.2c0.1,0.3,0.3,0.7,0.6,1.3c0.3,0.6,0.6,1.2,0.9,1.8
				c0.3,0.6,0.6,1.2,1,1.7c0.3,0.5,0.6,0.9,0.9,1.2v0.2h-5.9v-0.2c0.2-0.2,0.2-0.5,0.2-0.8c0-0.3,0-0.6-0.1-1
				c-0.1-0.3-0.2-0.7-0.4-1c-0.1-0.3-0.3-0.7-0.4-0.9l-0.7-1.4h-9.5l-0.6,1.4c-0.1,0.3-0.3,0.6-0.4,0.9c-0.1,0.3-0.3,0.7-0.4,1
				c-0.1,0.3-0.1,0.7-0.2,1c0,0.3,0.1,0.6,0.2,0.8v0.2H163.1z M177.8,53.1l-3.3-7.3l-3.3,7.3H177.8z"/>
			<path fill="#E4E5E6" d="M198.3,51.4l-4.2-5.9l-3.1-3.9v-0.2h5.7v0.2c-0.3,0.4-0.2,0.9,0.1,1.5c0.3,0.6,0.8,1.4,1.5,2.4l4.8,6.4
				l-5.6,6.7c-0.4,0.4-0.7,0.8-1.2,1.2c-0.4,0.4-0.9,0.7-1.4,1.1c-0.5,0.3-1.1,0.6-1.7,0.7c-0.6,0.2-1.3,0.3-2,0.3
				c-0.7,0-1.4-0.1-2.1-0.3v-0.2c0.3-0.2,0.7-0.6,1.2-1.1c0.5-0.5,1.1-1.1,1.6-1.7c0.6-0.6,1.1-1.1,1.6-1.7c0.5-0.5,0.9-1,1.1-1.2
				L198.3,51.4z M208,55.5c0,0.3,0,0.7,0,1.3c0,0.6,0,1.2,0.1,1.8c0.1,0.6,0.2,1.2,0.3,1.7c0.2,0.5,0.4,0.9,0.7,1.2v0.2h-6.1v-0.2
				c0.2-0.2,0.4-0.6,0.6-1.2c0.1-0.5,0.2-1.1,0.3-1.7c0.1-0.6,0.1-1.2,0.1-1.8c0-0.6,0-1,0-1.3v-10c0-0.3,0-0.6,0-0.9
				c0-0.4,0-0.7-0.1-1.1c-0.1-0.4-0.2-0.7-0.3-1c-0.1-0.3-0.3-0.6-0.6-0.8v-0.2h6.1v0.2c-0.3,0.2-0.5,0.5-0.7,0.8
				c-0.2,0.3-0.3,0.7-0.3,1c-0.1,0.4-0.1,0.7-0.1,1.1c0,0.4,0,0.7,0,0.9V55.5z M217.5,55.7c0.2,0.3,0.6,0.7,1.1,1.2
				c0.5,0.5,1,1.1,1.6,1.7c0.6,0.6,1.1,1.1,1.6,1.7c0.5,0.5,0.9,0.9,1.2,1.1v0.2c-0.7,0.2-1.4,0.3-2.1,0.3c-0.7,0-1.4-0.1-2-0.3
				c-0.6-0.2-1.2-0.4-1.7-0.7c-0.5-0.3-1-0.7-1.4-1.1c-0.4-0.4-0.8-0.8-1.2-1.2l-5.6-6.7l4.8-6.4c0.7-1,1.2-1.7,1.5-2.4
				c0.3-0.6,0.3-1.1,0.1-1.5v-0.2h5.7v0.2l-3.1,3.9l-4.2,5.9L217.5,55.7z"/>
		</g>
		<g>
			<path fill="#80D128" d="M83.8,80.7c0,0.1,0,0.3,0,0.6c0,0.2,0,0.5,0.1,0.8s0.1,0.5,0.1,0.7c0.1,0.2,0.2,0.4,0.3,0.5v0.1h-2.7
				v-0.1c0.1-0.1,0.2-0.3,0.3-0.5S82,82.3,82,82s0-0.5,0.1-0.8c0-0.2,0-0.4,0-0.6v-4.1c0-0.1,0-0.3,0-0.5c0-0.2-0.1-0.4-0.1-0.6
				c0-0.2-0.1-0.4-0.2-0.5s-0.2-0.3-0.3-0.4v-0.1H89l0.6,2h-0.1c-0.3-0.2-0.7-0.3-1.3-0.4C87.6,76,87,76,86.4,76h-2.6V80.7z"/>
			<path fill="#80D128" d="M97.5,74.4c0.8,0,1.5,0.1,2.2,0.4c0.7,0.2,1.2,0.6,1.7,1c0.5,0.4,0.9,0.9,1.1,1.4
				c0.3,0.6,0.4,1.1,0.4,1.8c0,0.6-0.1,1.2-0.4,1.8c-0.3,0.6-0.6,1-1.1,1.4c-0.5,0.4-1.1,0.7-1.7,1c-0.7,0.2-1.4,0.4-2.2,0.4
				c-0.8,0-1.5-0.1-2.2-0.4c-0.7-0.2-1.2-0.6-1.7-1c-0.5-0.4-0.9-0.9-1.1-1.4c-0.3-0.6-0.4-1.1-0.4-1.8c0-0.6,0.1-1.2,0.4-1.8
				c0.3-0.6,0.6-1,1.1-1.4c0.5-0.4,1.1-0.7,1.7-1C96,74.6,96.7,74.4,97.5,74.4z M97.5,75.8c-0.6,0-1.1,0.1-1.5,0.2
				c-0.5,0.2-0.8,0.4-1.2,0.6s-0.6,0.6-0.8,1c-0.2,0.4-0.3,0.8-0.3,1.3c0,0.5,0.1,0.9,0.3,1.3c0.2,0.4,0.4,0.7,0.8,1
				s0.7,0.5,1.2,0.6c0.5,0.2,1,0.2,1.5,0.2s1.1-0.1,1.5-0.2s0.8-0.4,1.2-0.6s0.6-0.6,0.8-1s0.3-0.8,0.3-1.3c0-0.5-0.1-0.9-0.3-1.3
				s-0.4-0.7-0.8-1s-0.7-0.5-1.2-0.6C98.6,75.9,98.1,75.8,97.5,75.8z"/>
			<path fill="#80D128" d="M108.1,80.7c0,0.1,0,0.3,0,0.6c0,0.2,0,0.5,0,0.8s0.1,0.5,0.1,0.7c0.1,0.2,0.1,0.4,0.2,0.5v0.1h-2.6v-0.1
				c0.1-0.1,0.2-0.3,0.2-0.5c0.1-0.2,0.1-0.5,0.1-0.7s0-0.5,0.1-0.8c0-0.2,0-0.4,0-0.6v-4.3c0-0.1,0-0.3,0-0.4c0-0.1,0-0.3-0.1-0.4
				s-0.1-0.3-0.1-0.4c-0.1-0.1-0.1-0.3-0.2-0.4v-0.1h5.8c1,0,1.7,0.2,2.2,0.6c0.5,0.4,0.8,1.1,0.8,2c0,0.4-0.1,0.7-0.2,1
				c-0.1,0.3-0.3,0.6-0.5,0.8c-0.2,0.2-0.5,0.4-0.9,0.5c-0.4,0.1-0.8,0.2-1.3,0.2h-3l0.9-1.5h0.1c0.1,0.1,0.2,0.1,0.4,0.1
				c0.1,0,0.3,0,0.4,0h0.9c0.3,0,0.5,0,0.7-0.1s0.3-0.1,0.5-0.2c0.1-0.1,0.2-0.2,0.2-0.3c0-0.1,0.1-0.3,0.1-0.5s0-0.4-0.1-0.5
				c0-0.1-0.1-0.3-0.2-0.3c-0.1-0.1-0.3-0.1-0.5-0.2s-0.4-0.1-0.7-0.1h-3.4V80.7z"/>
			<path fill="#80D128" d="M117.1,79c0-0.7,0.1-1.4,0.4-1.9c0.3-0.6,0.7-1,1.2-1.4c0.5-0.4,1.1-0.7,1.8-0.9c0.7-0.2,1.4-0.3,2.2-0.3
				c0.5,0,0.9,0,1.3,0.1c0.4,0.1,0.7,0.2,1,0.3c0.3,0.1,0.6,0.2,0.8,0.3c0.2,0.1,0.4,0.2,0.6,0.3l-0.6,2h-0.1
				c-0.4-0.5-0.9-0.8-1.4-1.1c-0.6-0.2-1.2-0.4-1.8-0.4c-0.5,0-0.9,0.1-1.3,0.2c-0.4,0.1-0.8,0.3-1.2,0.6c-0.3,0.3-0.6,0.6-0.8,1
				c-0.2,0.4-0.3,0.8-0.3,1.4c0,0.5,0.1,1,0.3,1.3c0.2,0.4,0.5,0.7,0.8,1c0.3,0.2,0.7,0.4,1.2,0.6c0.4,0.1,0.9,0.2,1.4,0.2
				c0.7,0,1.4-0.1,2.1-0.4c0.7-0.3,1.2-0.7,1.6-1.2h0.1l-0.7,2.4c-0.4,0.3-0.9,0.5-1.4,0.6c-0.5,0.1-1.1,0.2-1.6,0.2
				c-0.7,0-1.4-0.1-2.1-0.3s-1.2-0.4-1.7-0.8s-0.9-0.8-1.2-1.4C117.2,80.5,117.1,79.8,117.1,79z"/>
			<path fill="#80D128" d="M135,74.4c0.8,0,1.5,0.1,2.2,0.4c0.7,0.2,1.2,0.6,1.7,1c0.5,0.4,0.9,0.9,1.1,1.4c0.3,0.6,0.4,1.1,0.4,1.8
				c0,0.6-0.1,1.2-0.4,1.8c-0.3,0.6-0.6,1-1.1,1.4c-0.5,0.4-1.1,0.7-1.7,1c-0.7,0.2-1.4,0.4-2.2,0.4c-0.8,0-1.5-0.1-2.2-0.4
				c-0.7-0.2-1.2-0.6-1.7-1c-0.5-0.4-0.9-0.9-1.1-1.4c-0.3-0.6-0.4-1.1-0.4-1.8c0-0.6,0.1-1.2,0.4-1.8c0.3-0.6,0.6-1,1.1-1.4
				c0.5-0.4,1.1-0.7,1.7-1C133.5,74.6,134.2,74.4,135,74.4z M135,75.8c-0.6,0-1.1,0.1-1.5,0.2c-0.5,0.2-0.8,0.4-1.2,0.6
				s-0.6,0.6-0.8,1c-0.2,0.4-0.3,0.8-0.3,1.3c0,0.5,0.1,0.9,0.3,1.3c0.2,0.4,0.4,0.7,0.8,1s0.7,0.5,1.2,0.6c0.5,0.2,1,0.2,1.5,0.2
				s1.1-0.1,1.5-0.2s0.8-0.4,1.2-0.6s0.6-0.6,0.8-1s0.3-0.8,0.3-1.3c0-0.5-0.1-0.9-0.3-1.3s-0.4-0.7-0.8-1s-0.7-0.5-1.2-0.6
				C136,75.9,135.5,75.8,135,75.8z"/>
			<path fill="#80D128" d="M149.3,74.6c0.5,0,1,0.1,1.3,0.2c0.4,0.1,0.7,0.3,0.9,0.5c0.2,0.2,0.4,0.5,0.5,0.8
				c0.1,0.3,0.2,0.6,0.2,0.9c0,0.2,0,0.4-0.1,0.6c-0.1,0.2-0.1,0.4-0.3,0.5c-0.1,0.2-0.2,0.3-0.4,0.4s-0.3,0.2-0.4,0.3
				c0.2,0.1,0.4,0.2,0.5,0.3s0.3,0.2,0.4,0.4c0.1,0.2,0.2,0.4,0.3,0.6c0.1,0.2,0.1,0.5,0.1,0.9c0,0.4-0.1,0.8-0.2,1.1
				s-0.4,0.6-0.6,0.8c-0.3,0.2-0.6,0.4-0.9,0.5c-0.4,0.1-0.7,0.2-1.2,0.2h-6.3v-0.1c0.1-0.1,0.2-0.3,0.3-0.5
				c0.1-0.2,0.1-0.5,0.1-0.7s0-0.5,0.1-0.8c0-0.2,0-0.4,0-0.6v-4.3c0-0.1,0-0.3,0-0.4s0-0.3-0.1-0.5s-0.1-0.3-0.1-0.4
				c-0.1-0.1-0.2-0.3-0.3-0.4v-0.1H149.3z M147.3,79.5c-0.5,0-0.8,0.1-1.1,0.2h-0.1l1-1.7h0.1c0.1,0.1,0.2,0.1,0.4,0.1
				c0.1,0,0.3,0,0.4,0h1.2c0.4,0,0.7-0.1,0.9-0.2c0.3-0.1,0.4-0.4,0.4-0.8c0-0.4-0.1-0.7-0.4-0.8c-0.3-0.1-0.6-0.2-0.9-0.2h-3.8v6
				h3.6c0.5,0,0.9-0.1,1.3-0.3c0.3-0.2,0.5-0.5,0.5-1s-0.2-0.8-0.5-1c-0.3-0.2-0.7-0.3-1.3-0.3H147.3z"/>
			<path fill="#80D128" d="M163.6,76.6h-0.1c-0.1-0.1-0.3-0.2-0.5-0.3c-0.2-0.1-0.5-0.1-0.7-0.2c-0.3,0-0.6-0.1-0.9-0.1
				c-0.3,0-0.6,0-0.9,0h-2.5v2.2h4.9l-1,1.8h-0.1c-0.1-0.1-0.2-0.1-0.3-0.2c-0.1,0-0.3-0.1-0.5-0.1c-0.2,0-0.3-0.1-0.5-0.1
				c-0.2,0-0.4,0-0.5,0h-1.9v2.3h2c0.2,0,0.6,0,0.9,0c0.4,0,0.8,0,1.2-0.1c0.4,0,0.8-0.1,1.2-0.2c0.4-0.1,0.7-0.2,1-0.3h0.1
				l-1.1,1.9h-7.4v-0.1c0.1-0.1,0.2-0.3,0.2-0.5c0.1-0.2,0.1-0.5,0.1-0.7s0-0.5,0-0.8c0-0.2,0-0.4,0-0.6v-4.3c0-0.1,0-0.3,0-0.4
				s0-0.3,0-0.5s-0.1-0.3-0.1-0.4c-0.1-0.1-0.1-0.3-0.2-0.4v-0.1h7.2L163.6,76.6z"/>
			<path fill="#80D128" d="M167.7,74.4h0.1l1,0.1h5.8l1.3-0.1h0.1l-1.2,2.1h-0.1c0-0.2-0.2-0.3-0.4-0.4c-0.2-0.1-0.5-0.1-0.7-0.1
				h-1.5v4.7c0,0.1,0,0.3,0,0.6c0,0.2,0,0.5,0.1,0.8c0,0.3,0.1,0.5,0.1,0.7c0.1,0.2,0.1,0.4,0.3,0.5v0.1h-2.6v-0.1
				c0.1-0.1,0.2-0.3,0.2-0.5c0.1-0.2,0.1-0.5,0.1-0.7c0-0.3,0-0.5,0.1-0.8c0-0.2,0-0.4,0-0.6V76h-1.5c-0.4,0-0.7,0-1.1,0.1
				c-0.4,0.1-0.6,0.2-0.8,0.4h-0.1L167.7,74.4z"/>
		</g>
		<rect x="75" y="78.6" fill="#80D128" width="2" height="2"/>
		<rect x="179.9" y="78.6" fill="#80D128" width="2" height="2"/>
	</g>
</g>
</svg>
