<!-- Generator: Adobe Illustrator 17.1.0, SVG Export Plug-In  -->
<svg version="1.1"
	 xmlns="http://www.w3.org/2000/svg" xmlns:xlink="http://www.w3.org/1999/xlink" xmlns:a="http://ns.adobe.com/AdobeSVGViewerExtensions/3.0/"
	 x="0px" y="0px" width="83.3px" height="17.3px" viewBox="0 0 83.3 17.3" enable-background="new 0 0 83.3 17.3"
	 xml:space="preserve">
<defs>
</defs>
<g opacity="1">
	<polygon fill="#FFFFFF" points="23.6,11.2 23.6,7.3 26.2,5 29.3,5 29.3,7 25.9,7 25.9,11.2 	"/>
	<path fill="#FFFFFF" d="M34.3,7H32v2.1h2.3V7z M29.7,7.3L32.3,5h4.3v3.9L34,11.2h-4.3V7.3z"/>
	<polygon fill="#FFFFFF" points="37.2,7.3 39.7,5 43.2,5 43.2,7 39.5,7 39.5,9.1 43.2,9.1 43.2,11.2 37.2,11.2 	"/>
	<polygon fill="#FFFFFF" points="43.8,7.3 46.3,5 49.8,5 49.8,7 46.1,7 46.1,9.1 49.8,9.1 49.8,11.2 43.8,11.2 	"/>
	<polygon fill="#FFFFFF" points="52.7,5 52.7,6.4 54.3,5 56.8,5 56.8,6.4 58.4,5 60.9,5 60.9,11.2 58.6,11.2 58.6,7 56.8,7
		56.8,11.2 54.5,11.2 54.5,7 52.7,7 52.7,11.2 50.4,11.2 50.4,5 	"/>
	<path fill="#FFFFFF" d="M66.1,7h-2.3v2.1h2.3V7z M63.8,13.2h-2.3V7.3L64.1,5h4.3v3.9l-2.5,2.3h-2V13.2z"/>
	<path fill="#FFFFFF" d="M73.6,7h-2.3v2.1h2.3V7z M69,7.3L71.6,5h4.3v3.9l-2.5,2.3H69V7.3z"/>
	<polygon fill="#FFFFFF" points="83.3,11.2 81,11.2 81,9.7 79.4,11.2 76.5,11.2 76.5,5 78.8,5 78.8,9.1 81,9.1 81,5 83.3,5 	"/>
	<rect x="78.8" y="2.9" fill="#00ADEE" width="2.3" height="2.1"/>
	<polygon fill="#FFFFFF" points="24,14.3 24,16.4 23.6,16.4 23.6,13.9 25.3,13.9 25.3,14.3 	"/>
	<path fill="#FFFFFF" d="M26,15.1c0,0.6,0.3,1,0.8,1c0.5,0,0.7-0.4,0.7-1c0-0.6-0.3-1-0.8-1C26.3,14.2,26,14.5,26,15.1 M26,14.2
		c0.2-0.3,0.5-0.4,0.8-0.4c0.7,0,1.1,0.5,1.1,1.3c0,0.8-0.4,1.3-1.1,1.3c-0.4,0-0.6-0.1-0.8-0.4v1.3h-0.4v-3.4H26V14.2z"/>
	<path fill="#FFFFFF" d="M29.3,16.7c-0.1,0.3-0.3,0.7-0.7,0.7c-0.1,0-0.2,0-0.3,0v-0.4c0.1,0,0.2,0.1,0.3,0.1c0.1,0,0.2-0.1,0.3-0.2
		l0.2-0.4l-1-2.4h0.5l0.7,2l0.7-2h0.4L29.3,16.7z"/>
	<polygon fill="#FFFFFF" points="30.7,16.4 30.7,13.9 32.8,13.9 32.8,16.4 32.4,16.4 32.4,14.3 31.1,14.3 31.1,16.4 	"/>
	<polygon fill="#FFFFFF" points="33.4,16.4 33.4,13.9 35.4,13.9 35.4,16.4 35,16.4 35,14.3 33.8,14.3 33.8,16.4 	"/>
	<path fill="#FFFFFF" d="M37,15.2c-0.3,0-0.7,0.1-0.7,0.5c0,0.3,0.2,0.4,0.5,0.4c0.4,0,0.7-0.3,0.7-0.6v-0.4
		C37.4,15.2,37.2,15.2,37,15.2 M38.2,16.3c-0.1,0-0.2,0-0.3,0c-0.2,0-0.4-0.1-0.4-0.4c-0.2,0.3-0.5,0.4-0.9,0.4
		c-0.5,0-0.8-0.3-0.8-0.7c0-0.4,0.3-0.7,0.9-0.8c0.6-0.1,0.8-0.1,0.8-0.4c0-0.3-0.2-0.4-0.6-0.4c-0.4,0-0.6,0.1-0.6,0.5H36
		c0-0.5,0.4-0.8,1-0.8c0.3,0,0.6,0.1,0.8,0.2c0.2,0.2,0.2,0.4,0.2,0.6c0,0.4,0,0.7,0,1.1c0,0.2,0,0.2,0.2,0.2c0,0,0.1,0,0.1,0V16.3z
		"/>
	<polygon fill="#FFFFFF" points="41.6,16.4 40.7,15.1 40.3,15.5 40.3,16.4 39.9,16.4 39.9,13.9 40.3,13.9 40.3,15.1 41.4,13.9
		42,13.9 41,14.9 42.1,16.4 	"/>
	<path fill="#FFFFFF" d="M42.7,15.1c0,0.6,0.3,1,0.8,1c0.5,0,0.8-0.4,0.8-1c0-0.6-0.3-1-0.8-1C43,14.2,42.7,14.5,42.7,15.1
		 M44.6,15.1c0,0.8-0.4,1.3-1.2,1.3c-0.8,0-1.2-0.5-1.2-1.3c0-0.8,0.5-1.3,1.2-1.3C44.2,13.8,44.6,14.3,44.6,15.1"/>
	<polygon fill="#FFFFFF" points="47.4,16.4 47.4,14.4 47.3,14.4 46.6,16.4 46.2,16.4 45.5,14.4 45.5,14.4 45.5,16.4 45.1,16.4
		45.1,13.9 45.7,13.9 46.4,15.9 46.4,15.9 47.2,13.9 47.8,13.9 47.8,16.4 	"/>
	<polygon fill="#FFFFFF" points="48.4,16.4 48.4,13.9 50.4,13.9 50.4,16.4 50,16.4 50,14.3 48.8,14.3 48.8,16.4 	"/>
	<path fill="#FFFFFF" d="M52,15.2c-0.3,0-0.7,0.1-0.7,0.5c0,0.3,0.2,0.4,0.5,0.4c0.4,0,0.7-0.3,0.7-0.6v-0.4
		C52.4,15.2,52.2,15.2,52,15.2 M53.2,16.3c-0.1,0-0.2,0-0.3,0c-0.2,0-0.4-0.1-0.4-0.4c-0.2,0.3-0.5,0.4-0.9,0.4
		c-0.5,0-0.8-0.3-0.8-0.7c0-0.4,0.3-0.7,0.9-0.8c0.6-0.1,0.8-0.1,0.8-0.4c0-0.3-0.2-0.4-0.6-0.4c-0.4,0-0.6,0.1-0.6,0.5H51
		c0-0.5,0.4-0.8,1-0.8c0.3,0,0.6,0.1,0.8,0.2c0.2,0.2,0.2,0.4,0.2,0.6c0,0.4,0,0.7,0,1.1c0,0.2,0,0.2,0.2,0.2c0,0,0.1,0,0.1,0V16.3z
		"/>
	<polygon fill="#FFFFFF" points="53.6,16.4 53.6,13.9 54,13.9 54,14.9 55.2,14.9 55.2,13.9 55.6,13.9 55.6,16.4 55.2,16.4
		55.2,15.2 54,15.2 54,16.4 	"/>
	<polygon fill="#FFFFFF" points="56.2,16.4 56.2,13.9 56.6,13.9 56.6,15.9 56.6,15.9 57.7,13.9 58.2,13.9 58.2,16.4 57.8,16.4
		57.8,14.3 57.8,14.3 56.7,16.4 	"/>
	<path fill="#FFFFFF" d="M59.9,13.6c-0.4,0-0.7-0.3-0.7-0.7h0.2c0.1,0.2,0.2,0.4,0.5,0.4c0.2,0,0.4-0.1,0.5-0.4h0.2
		C60.5,13.3,60.3,13.6,59.9,13.6 M58.9,16.4v-2.5h0.4v2h0l1.1-2h0.5v2.5h-0.4v-2h0l-1.1,2H58.9z"/>
	<polygon fill="#D81278" points="2.5,16.7 5.9,13.3 9.4,16.7 	"/>
	<polygon fill="#00ADEE" points="2.5,9.8 5.9,13.3 2.5,16.7 	"/>
	<polygon fill="#D81278" points="16.3,9.8 16.3,16.7 9.4,16.7 	"/>
	<polygon fill="#16254C" points="9.4,16.7 9.4,16.7 16.3,9.8 2.5,9.8 	"/>
	<polygon fill="#D81278" points="9.8,4.9 4.9,9.8 0,9.8 4.9,4.9 	"/>
	<polygon fill="#00ADEE" points="11.8,2.9 4.9,9.8 18.8,9.8 	"/>
	<rect x="4.9" y="0" fill="#00ADEE" width="4.9" height="4.9"/>
</g>
</svg>
