<!-- Generator: Adobe Illustrator 17.1.0, SVG Export Plug-In  -->
<svg version="1.1"
	 xmlns="http://www.w3.org/2000/svg" xmlns:xlink="http://www.w3.org/1999/xlink" xmlns:a="http://ns.adobe.com/AdobeSVGViewerExtensions/3.0/"
	 x="0px" y="0px" width="83.1px" height="14.4px" viewBox="0 0 83.1 14.4" enable-background="new 0 0 83.1 14.4"
	 xml:space="preserve">
<defs>
</defs>
<g opacity="0.5">
	<polygon fill="#FFFFFF" points="0,11.5 0,6.1 3.6,2.9 7.9,2.9 7.9,5.7 3.2,5.7 3.2,11.5 	"/>
	<path fill="#FFFFFF" d="M14.8,5.7h-3.1v2.9h3.1V5.7z M8.5,6.1l3.6-3.2H18v5.4l-3.5,3.2h-6V6.1z"/>
	<polygon fill="#FFFFFF" points="18.9,6.1 22.5,2.9 27.2,2.9 27.2,5.7 22.1,5.7 22.1,8.6 27.2,8.6 27.2,11.5 18.9,11.5 	"/>
	<polygon fill="#FFFFFF" points="28.1,6.1 31.7,2.9 36.4,2.9 36.4,5.7 31.3,5.7 31.3,8.6 36.4,8.6 36.4,11.5 28.1,11.5 	"/>
	<polygon fill="#FFFFFF" points="40.5,2.9 40.5,4.9 42.7,2.9 46.2,2.9 46.2,4.9 48.4,2.9 51.9,2.9 51.9,11.5 48.8,11.5 48.8,5.7
		46.2,5.7 46.2,11.5 43,11.5 43,5.7 40.5,5.7 40.5,11.5 37.3,11.5 37.3,2.9 	"/>
	<path fill="#FFFFFF" d="M59.1,5.7H56v2.9h3.1V5.7z M56,14.4h-3.2V6.1l3.6-3.2h5.9v5.4l-3.5,3.2H56V14.4z"/>
	<path fill="#FFFFFF" d="M69.5,5.7h-3.1v2.9h3.1V5.7z M63.2,6.1l3.6-3.2h5.9v5.4l-3.5,3.2h-6V6.1z"/>
	<polygon fill="#FFFFFF" points="83.1,11.5 79.9,11.5 79.9,9.5 77.7,11.5 73.6,11.5 73.6,2.9 76.8,2.9 76.8,8.6 79.9,8.6 79.9,2.9
		83.1,2.9 	"/>
	<rect x="76.8" y="0" fill="#00ADEE" width="3.2" height="2.9"/>
</g>
</svg>
