<!-- Generator: Adobe Illustrator 17.1.0, SVG Export Plug-In  -->
<svg version="1.1"
	 xmlns="http://www.w3.org/2000/svg" xmlns:xlink="http://www.w3.org/1999/xlink" xmlns:a="http://ns.adobe.com/AdobeSVGViewerExtensions/3.0/"
	 x="0px" y="0px" width="89.2px" height="95.9px" viewBox="0 0 89.2 95.9" enable-background="new 0 0 89.2 95.9"
	 xml:space="preserve">
<defs>
</defs>
<path fill="#212B4F" d="M6.2,52.9C5.5,54.2,5,55.6,4.7,57c-0.3,1.4-0.5,2.8-0.5,4.2c0,1.4-0.1,2.7-0.1,3.8v0.1h0v8.4
	c0,1.1,0,2.8-0.1,5.1c0,2.3-0.2,4.6-0.5,7.1c-0.3,2.5-0.8,4.8-1.5,7c-0.3,1-0.9,2.2-2,3.2h89.2V0H0c1.1,1,1.7,2.2,2,3.2
	c0.7,2.2,1.2,4.5,1.5,7C3.9,12.7,4,15,4.1,17.3c0,2.3,0.1,4,0.1,5.1v8.4h0v0.1c0,1.1,0,2.4,0.1,3.8c0,1.4,0.2,2.8,0.5,4.2
	c0.3,1.4,0.8,2.8,1.5,4.1c0.7,1.3,1.6,2.5,2.8,3.4v3.1C7.8,50.4,6.9,51.5,6.2,52.9z"/>
<g>

		<rect x="25.3" y="24.7" fill="none" stroke="#FFFFFF" stroke-width="3" stroke-linecap="round" stroke-linejoin="round" stroke-miterlimit="10" width="44.1" height="44.1"/>
	<g>

			<line fill="none" stroke="#FFFFFF" stroke-width="3" stroke-linecap="round" stroke-linejoin="round" stroke-miterlimit="10" x1="34.1" y1="38.8" x2="60.5" y2="38.8"/>

			<line fill="none" stroke="#FFFFFF" stroke-width="3" stroke-linecap="round" stroke-linejoin="round" stroke-miterlimit="10" x1="34.1" y1="46.7" x2="60.5" y2="46.7"/>

			<line fill="none" stroke="#FFFFFF" stroke-width="3" stroke-linecap="round" stroke-linejoin="round" stroke-miterlimit="10" x1="34.1" y1="54.6" x2="60.5" y2="54.6"/>
	</g>
</g>
</svg>
