<!-- Generator: Adobe Illustrator 17.1.0, SVG Export Plug-In  -->
<svg version="1.1"
	 xmlns="http://www.w3.org/2000/svg" xmlns:xlink="http://www.w3.org/1999/xlink" xmlns:a="http://ns.adobe.com/AdobeSVGViewerExtensions/3.0/"
	 x="0px" y="0px" width="110px" height="95.9px" viewBox="0 0 110 95.9" enable-background="new 0 0 110 95.9" xml:space="preserve"
	>
<defs>
</defs>
<path fill="#000000" opacity="0.7" d="M7.7,52.9c-0.8,1.3-1.5,2.7-1.8,4.1c-0.4,1.4-0.6,2.8-0.7,4.2c0,1.4-0.1,2.7-0.1,3.8v0.1h0v8.4
	c0,1.1,0,2.8-0.1,5.1c0,2.3-0.3,4.6-0.7,7.1c-0.4,2.5-1,4.8-1.8,7c-0.4,1-1.1,2.2-2.5,3.2h110V0H0c1.4,1,2.1,2.2,2.5,3.2
	c0.8,2.2,1.5,4.5,1.8,7C4.8,12.7,5,15,5,17.3c0,2.3,0.1,4,0.1,5.1v8.4h0v0.1c0,1.1,0,2.4,0.1,3.8c0,1.4,0.3,2.8,0.7,4.2
	c0.4,1.4,1,2.8,1.8,4.1c0.8,1.3,2,2.5,3.5,3.4v3.1C9.7,50.4,8.5,51.5,7.7,52.9z"/>
</svg>
