<!-- Generator: Adobe Illustrator 17.1.0, SVG Export Plug-In  -->
<svg version="1.1"
	 xmlns="http://www.w3.org/2000/svg" xmlns:xlink="http://www.w3.org/1999/xlink" xmlns:a="http://ns.adobe.com/AdobeSVGViewerExtensions/3.0/"
	 x="0px" y="0px" width="153.1px" height="226.9px" viewBox="0 0 153.1 226.9" enable-background="new 0 0 153.1 226.9"
	 xml:space="preserve">
<defs>
</defs>
<linearGradient id="SVGID_1_" gradientUnits="userSpaceOnUse" x1="0" y1="113.4481" x2="153.0629" y2="113.4481">
	<stop  offset="0" style="stop-color:#26335D"/>
	<stop  offset="0.9286" style="stop-color:#1B294C"/>
</linearGradient>
<rect x="0" y="0" fill="url(#SVGID_1_)" width="153.1" height="226.9"/>
<g>
	<path fill="#E3E4E5" d="M94.7,82.5c0-0.8,0.1-1.6,0.3-2.4c0.2-0.8,0.4-1.6,0.8-2.4c0.4-0.8,0.9-1.4,1.5-1.9v-0.4H90h-0.3h-7.3v0.4
		c0.6,0.5,1.1,1.1,1.5,1.9c0.4,0.8,0.6,1.5,0.8,2.4c0.2,0.8,0.3,1.6,0.3,2.4c0,0.8,0,1.5,0,2.2v58.6c0,0.6,0,1.6,0,2.9
		c0,1.3-0.1,2.6-0.3,4c-0.2,1.4-0.4,2.7-0.8,4c-0.4,1.3-0.9,2.1-1.5,2.6v0.4h7.3H90h7.3v-0.4c-0.6-0.5-1.1-1.4-1.5-2.6
		c-0.4-1.3-0.6-2.6-0.8-4c-0.2-1.4-0.3-2.7-0.3-4c0-1.3,0-2.3,0-2.9V84.7C94.7,84,94.7,83.3,94.7,82.5z M93.5,146.2
		c0,1.3,0.1,2.7,0.3,4.2c0.2,1.4,0.4,2.8,0.8,4.1c0.2,0.6,0.4,1.1,0.6,1.6h-3.1V76.6h2.9c-0.1,0.2-0.2,0.4-0.3,0.6
		c-0.4,0.9-0.7,1.7-0.9,2.6c-0.2,0.9-0.3,1.7-0.3,2.6c0,0.8,0,1.5,0,2.2v58.6C93.5,143.9,93.5,144.9,93.5,146.2z"/>
	<path fill="#E3E4E5" d="M66.8,82.5c0-0.8,0.1-1.6,0.3-2.4c0.2-0.8,0.4-1.6,0.8-2.4c0.4-0.8,0.9-1.4,1.5-1.9v-0.4h-7.3h-0.3h-7.3
		v0.4c0.6,0.5,1.1,1.1,1.5,1.9c0.4,0.8,0.6,1.5,0.8,2.4c0.2,0.8,0.3,1.6,0.3,2.4c0,0.8,0,1.5,0,2.2v58.6c0,0.6,0,1.6,0,2.9
		c0,1.3-0.1,2.6-0.3,4c-0.2,1.4-0.4,2.7-0.8,4c-0.4,1.3-0.9,2.1-1.5,2.6v0.4h7.3h0.3h7.3v-0.4c-0.6-0.5-1.1-1.4-1.5-2.6
		c-0.4-1.3-0.6-2.6-0.8-4c-0.2-1.4-0.3-2.7-0.3-4c0-1.3,0-2.3,0-2.9V84.7C66.8,84,66.8,83.3,66.8,82.5z M65.6,146.2
		c0,1.3,0.1,2.7,0.3,4.2c0.2,1.4,0.4,2.8,0.8,4.2c0.2,0.6,0.4,1.1,0.6,1.6h-3.2V76.6h3c-0.1,0.2-0.2,0.4-0.3,0.6
		c-0.4,0.9-0.7,1.7-0.9,2.6c-0.2,0.9-0.3,1.7-0.3,2.6c0,0.8,0,1.5,0,2.2v58.6C65.6,143.9,65.6,144.9,65.6,146.2z"/>
	<path fill="#E3E4E5" d="M81.8,176.3c-0.4-1.3-0.6-2.6-0.8-4c-0.2-1.4-0.3-2.7-0.3-4c0-1.3,0-2.3,0-2.9V130h-9.6v35.4
		c0,0.6,0,1.6,0,2.9c0,1.3-0.1,2.6-0.3,4c-0.2,1.4-0.4,2.7-0.8,4c-0.4,1.3-0.9,2.1-1.5,2.6v0.4h7.3h0.3h7.3v-0.4
		C82.7,178.4,82.2,177.5,81.8,176.3z M78.1,178.1v-47h1.5v34.2c0,0.6,0,1.6,0,2.9c0,1.3,0.1,2.7,0.3,4.2c0.2,1.4,0.4,2.8,0.8,4.1
		c0.2,0.6,0.4,1.1,0.6,1.6H78.1z"/>
	<path fill="#E3E4E5" d="M76.1,56.7h-0.3h-7.3v0.4c0.6,0.5,1.1,1.4,1.5,2.6c0.4,1.3,0.6,2.6,0.8,4c0.2,1.4,0.3,2.7,0.3,4
		c0,1.3,0,2.3,0,2.9v46.7h9.6V70.6c0-0.6,0-1.6,0-2.9c0-1.3,0.1-2.6,0.3-4c0.2-1.4,0.4-2.7,0.8-4c0.4-1.3,0.9-2.1,1.5-2.6v-0.4H76.1
		z M80.7,59.4c-0.4,1.3-0.7,2.7-0.8,4.2c-0.2,1.4-0.3,2.8-0.3,4.2c0,1.3,0,2.3,0,2.9v45.5h-1.5V57.9h3.2
		C81,58.3,80.8,58.8,80.7,59.4z"/>
	<path fill="#E3E4E5" d="M69,119.7v7.7l13.8,0v-7.7H69z M81.6,121.7H70.2v-0.7h11.4V121.7z"/>
	<path fill="#E3E4E5" d="M46.3,119.7l-5.4-0.7h-0.4L38,129.9h0.4c1.4-0.9,2.9-1.5,4.6-1.9c1.5-0.4,9.7-0.6,11.8-0.6v-7.7H46.3z
		 M53.7,121.7H41.1l0.3-1.3l4.7,0.6l7.5,0V121.7z"/>
	<path fill="#E3E4E5" d="M110.3,119h-0.5c-0.6,0.3-1.3,0.6-2,0.6c-0.8,0.1-1.5,0.1-2.3,0.1h-8.3v7.7l17.9,0L110.3,119z M98.4,120.9
		h7.1c0.8,0,1.6,0,2.4-0.1c0.6,0,1.2-0.2,1.8-0.4l0.7,1.2h-12V120.9z"/>
</g>
<g>
	<polygon fill="#80D128" points="146,220.1 7,220.1 7,0 10,0 10,217.1 143,217.1 143,0 146,0 	"/>
</g>
</svg>
