<?xml version="1.0" encoding="utf-8"?>
<!-- Generator: Adobe Illustrator 21.0.0, SVG Export Plug-In . SVG Version: 6.00 Build 0)  -->
<svg version="1.1" id="Слой_1" xmlns="http://www.w3.org/2000/svg" xmlns:xlink="http://www.w3.org/1999/xlink" x="0px" y="0px"
	 viewBox="0 0 118.8 120.6" style="enable-background:new 0 0 118.8 120.6;" xml:space="preserve">
<style type="text/css">
	.st0{fill:#FFFFFF;}
</style>
<g>
	<path class="st0" d="M97.6,102.8c0.3,0.3,0.7,0.5,1.1,0.6c0.4,0.1,0.9,0.2,1.4,0.2c0.3,0,0.7,0,1-0.1c0.3-0.1,0.6-0.2,0.8-0.3
		c0-0.1,0-0.3,0-0.4c0-0.2,0-0.3,0-0.5c0-0.2,0-0.3-0.1-0.4c0-0.1,0-0.3-0.1-0.4l-0.4,0l-0.4,1.3c0,0-0.1,0.1-0.2,0.1
		c-0.1,0-0.3,0-0.4,0c-0.6,0-1.1-0.2-1.4-0.7c-0.4-0.5-0.5-1.2-0.5-2.1c0-0.5,0-0.9,0.1-1.3c0.1-0.4,0.2-0.6,0.4-0.9
		c0.2-0.2,0.4-0.4,0.6-0.5c0.2-0.1,0.5-0.2,0.7-0.2c0.1,0,0.3,0,0.4,0c0.1,0,0.2,0,0.3,0.1l0.5,1.4l0.3,0c0,0.1,0,0,0.1-0.2
		c0-0.2,0.1-0.3,0.1-0.5c0-0.2,0-0.3,0-0.5c0-0.2,0-0.3,0-0.4c-0.2-0.1-0.5-0.2-0.8-0.2c-0.4-0.1-0.7-0.1-1.1-0.1S99,96.9,98.7,97
		c-0.4,0.1-0.7,0.3-1,0.6c-0.3,0.3-0.5,0.6-0.7,1c-0.3,0.5-0.4,1-0.4,1.6c0,0.6,0.1,1.1,0.2,1.5C97.1,102.1,97.3,102.5,97.6,102.8z"
		/>
	<path class="st0" d="M24.9,16.6c-0.2-0.3-0.6-0.5-0.9-0.7c-0.4-0.2-0.8-0.3-1.3-0.3c-0.4,0-0.8,0.1-1.2,0.2
		c-0.3,0.2-0.6,0.4-0.9,0.6c-0.2,0.3-0.4,0.6-0.6,0.9c-0.1,0.4-0.2,0.8-0.3,1.2l-1,0l0-2.3c0.2,0,0.3-0.1,0.4-0.1
		c0.1,0,0.2-0.1,0.3-0.1l0-0.4l-2.9,0.1l0,0.4c0.1,0.1,0.2,0.1,0.4,0.2c0.1,0,0.3,0.1,0.4,0.1l0.1,5.3c-0.1,0-0.3,0.1-0.4,0.1
		c-0.1,0-0.2,0.1-0.4,0.2l0,0.4l2.9-0.1l0-0.4c-0.1,0-0.2-0.1-0.3-0.1s-0.3-0.1-0.4-0.1l0-2.4l1,0c0,0.5,0.1,0.9,0.2,1.3
		c0.1,0.4,0.3,0.7,0.6,1c0.2,0.3,0.5,0.5,0.9,0.7s0.8,0.2,1.2,0.2c0.5,0,0.9-0.1,1.3-0.3c0.4-0.2,0.7-0.4,0.9-0.7
		c0.2-0.3,0.4-0.7,0.5-1.1s0.2-0.9,0.2-1.3c0-0.5-0.1-0.9-0.2-1.3C25.3,17.1,25.1,16.8,24.9,16.6z M24.1,20.1c0,0.3-0.1,0.6-0.2,0.9
		c-0.1,0.2-0.2,0.4-0.4,0.6c-0.2,0.1-0.4,0.2-0.6,0.2c-0.5,0-0.9-0.2-1.1-0.7s-0.3-1.2-0.3-2c0-0.4,0-0.8,0.1-1.1
		c0-0.3,0.1-0.6,0.2-0.9c0.1-0.2,0.2-0.4,0.4-0.6c0.2-0.1,0.4-0.2,0.7-0.2s0.5,0.1,0.7,0.2s0.3,0.3,0.4,0.6c0.1,0.2,0.2,0.5,0.2,0.9
		c0,0.3,0.1,0.7,0.1,1.1C24.1,19.4,24.1,19.8,24.1,20.1z"/>
	<path class="st0" d="M103.8,20.8c-0.1-0.1-0.3-0.2-0.5-0.3s-0.4-0.1-0.6-0.2l0,0c0.5-0.1,0.8-0.3,1-0.6c0.2-0.3,0.3-0.6,0.3-0.9
		c0-0.3-0.1-0.6-0.2-0.8s-0.3-0.4-0.6-0.5c-0.2-0.1-0.5-0.2-0.8-0.2c-0.3,0-0.6-0.1-0.9-0.1c-0.1,0-0.3,0-0.4,0
		c-0.2,0-0.3,0-0.5,0.1c-0.2,0-0.3,0.1-0.5,0.1c-0.2,0.1-0.3,0.1-0.4,0.2c0,0.1,0,0.3,0,0.4c0,0.1,0,0.3,0.1,0.4
		c0,0.1,0,0.3,0.1,0.4c0,0.1,0,0.2,0.1,0.3l0.4,0l0.5-1.2c0,0,0.1-0.1,0.2-0.1s0.3-0.1,0.4-0.1c0.3,0,0.6,0.1,0.8,0.3
		c0.2,0.3,0.2,0.6,0.2,0.9c0,0.3-0.1,0.5-0.2,0.7s-0.3,0.3-0.5,0.4c-0.1,0-0.2,0-0.4,0c-0.1,0-0.3,0-0.4,0l-0.2,0
		c0,0.1-0.1,0.2,0,0.4c0,0.1,0,0.3,0.1,0.4l0.6,0c0.4,0,0.7,0.1,0.9,0.3s0.3,0.5,0.3,0.9s-0.1,0.7-0.4,1c-0.2,0.2-0.6,0.4-1,0.4
		c-0.1,0-0.3,0-0.4,0c-0.2,0-0.3,0-0.3-0.1l-0.4-1.3l-0.4,0c0,0.1-0.1,0.3-0.1,0.4c0,0.2-0.1,0.3-0.1,0.5c0,0.2,0,0.1-0.1,0.3
		c0,0.1,0,0.3,0,0.4c0.1,0.1,0.2,0.1,0.4,0.1c0.2,0,0.3,0.1,0.5,0.1c0.2,0,0.4,0.1,0.6,0.1c0.2,0,0.4,0,0.5,0c0.4,0,0.8,0,1.1-0.1
		s0.6-0.2,0.9-0.4c0.2-0.2,0.4-0.4,0.6-0.6c0.1-0.2,0.2-0.5,0.2-0.9c0-0.2,0-0.5-0.1-0.6C104,21.1,103.9,20.9,103.8,20.8z"/>
	<path class="st0" d="M24.4,101.6c-0.1-0.2-0.2-0.4-0.4-0.5c-0.2-0.1-0.3-0.2-0.5-0.3c-0.2-0.1-0.4-0.1-0.6-0.1l0,0
		c0.2,0,0.4-0.1,0.6-0.2c0.2-0.1,0.3-0.2,0.4-0.3s0.2-0.3,0.3-0.5c0.1-0.2,0.1-0.4,0.1-0.6c0-0.3-0.1-0.6-0.2-0.8s-0.3-0.4-0.5-0.5
		c-0.2-0.1-0.5-0.2-0.7-0.2c-0.3,0-0.6-0.1-0.9-0.1s-0.5,0-0.7,0c-0.2,0-0.4,0-0.7,0l-1.5,0l0,0.4c0.1,0.1,0.2,0.1,0.4,0.2
		c0.1,0,0.3,0.1,0.4,0.1l0.1,5.3c-0.1,0-0.3,0-0.4,0.1c-0.1,0-0.3,0.1-0.4,0.2l0,0.4l1.1,0c0.1,0,0.2,0,0.4,0c0.1,0,0.3,0,0.5,0
		c0.2,0,0.3,0,0.5,0c0.2,0,0.3,0,0.4,0c0.3,0,0.7,0,1-0.1c0.3-0.1,0.6-0.2,0.9-0.3c0.3-0.2,0.5-0.4,0.6-0.6s0.2-0.5,0.2-0.9
		C24.6,102.1,24.5,101.8,24.4,101.6z M21.2,98.4c0.1,0,0.2,0,0.3,0c0.1,0,0.2,0,0.4,0c0.3,0,0.6,0.1,0.8,0.3
		c0.2,0.2,0.3,0.5,0.3,0.9c0,0.3-0.1,0.5-0.2,0.7s-0.3,0.4-0.6,0.5c-0.1,0-0.2,0-0.3,0c-0.1,0-0.2,0-0.3,0l-0.3,0L21.2,98.4
		L21.2,98.4z M22.9,103.4c-0.2,0.2-0.5,0.3-0.9,0.3c-0.2,0-0.3,0-0.4,0c-0.1,0-0.2,0-0.3,0l0-2.4l0.5,0c0.2,0,0.4,0,0.6,0.1
		c0.2,0,0.3,0.1,0.5,0.2c0.1,0.1,0.2,0.2,0.3,0.4c0.1,0.2,0.1,0.3,0.1,0.6C23.1,102.8,23.1,103.2,22.9,103.4z"/>
	<path class="st0" d="M95,95.9c0.2-0.2,0.4-0.4,0.7-0.7l0.3,0.1l-0.2-0.2c18.9-19.6,18.7-50.8-0.5-70.2l0.1-0.1l-0.1,0.1
		c-0.1-0.1-0.1-0.1-0.2-0.2C75.4,5,43.4,5,23.8,24.7S4.1,76.3,23.8,96C43.4,115.6,75.3,115.6,95,95.9z M96.2,27.6
		c0.1,0.1,0.1,0.1,0.2,0.2c0.6,0.7,1.2,1.3,1.8,2.1c0.1,0.1,0.1,0.1,0.2,0.2c0.6,0.7,1.1,1.4,1.6,2.1c0.1,0.1,0.1,0.1,0.2,0.2
		c0.5,0.8,1,1.6,1.4,2.3c0.1,0.1,0.1,0.1,0.1,0.2c0.5,0.8,0.8,1.6,1.3,2.3c0.1,0.1,0.1,0.1,0.1,0.2c0.4,0.8,0.8,1.6,1.1,2.4
		c0.1,0.1,0.1,0.2,0.1,0.2c0.4,0.8,0.7,1.7,1.1,2.5c0.1,0.1,0.1,0.2,0.1,0.2c0.3,0.8,0.6,1.7,0.8,2.5c0.1,0.1,0.1,0.2,0.1,0.2
		c0.3,0.8,0.5,1.8,0.7,2.5c0.1,0.1,0,0.1,0.1,0.2c0.2,0.9,0.4,1.7,0.6,2.6c0.1,0.1,0,0.1,0.1,0.2c0.1,0.8,0.4,1.8,0.4,2.7
		c0,0.1,0,0.1,0,0.3c0.1,0.8,0.2,1.8,0.3,2.7c0,0.1,0,0.1,0,0.3c0.1,0.9,0.1,1.8,0.1,2.7c0,0.1,0,0.1,0,0.3c0,0.8,0,1.8,0,2.7
		c0,0.1,0,0.1,0,0.3c-0.1,0.9-0.1,1.8-0.2,2.6c0,0.1,0,0.1,0,0.3c-0.1,0.9-0.2,1.8-0.4,2.6c-0.1,0.1,0,0.1-0.1,0.2
		c-0.1,0.8-0.4,1.8-0.5,2.6c-0.1,0.1,0,0.1-0.1,0.2c-0.2,0.9-0.4,1.7-0.7,2.5c-0.1,0.1-0.1,0.2-0.1,0.2c-0.3,0.8-0.6,1.7-0.8,2.5
		c-0.1,0.1-0.1,0.2-0.1,0.2c-0.3,0.8-0.6,1.6-1,2.5c-0.1,0.1-0.1,0.2-0.1,0.2c-0.4,0.8-0.8,1.6-1.1,2.4c-0.1,0.2-0.1,0.3-0.2,0.5
		c-0.4,0.8-0.8,1.6-1.3,2.3c-0.1,0.1-0.1,0.1-0.1,0.2c-0.5,0.8-0.9,1.5-1.4,2.3c-0.1,0.1-0.1,0.1-0.2,0.2c-0.5,0.8-1.1,1.5-1.6,2.1
		c-0.1,0.1-0.1,0.1-0.2,0.2c-0.6,0.7-1.1,1.4-1.7,2.1c-0.1,0.1-0.1,0.1-0.2,0.2c-0.4,0.6-1,1.1-1.6,1.7l-1.2-1.3
		c0.4-0.4,0.8-1,1.3-1.4c0.1-0.1,0.1-0.1,0.2-0.2c0.6-0.7,1.1-1.3,1.6-2.1c0.1-0.1,0.1-0.1,0.2-0.2c0.6-0.7,1-1.4,1.5-2.1
		c0.1-0.1,0.1-0.1,0.2-0.2c0.4-0.7,0.9-1.5,1.3-2.2c0.1-0.1,0.1-0.1,0.1-0.2c0.4-0.7,0.8-1.6,1.3-2.3c0.1-0.1,0.1-0.3,0.3-0.4
		c0.4-0.8,0.7-1.6,1.1-2.3c0.1-0.1,0.1-0.2,0.1-0.2c0.4-0.8,0.6-1.6,1-2.4c0.1-0.1,0.1-0.2,0.1-0.2c0.3-0.8,0.6-1.6,0.8-2.5
		c0.1-0.1,0.1-0.2,0.1-0.2c0.3-0.8,0.5-1.6,0.6-2.5c0.1-0.1,0-0.1,0.1-0.2c0.1-0.8,0.4-1.6,0.5-2.5c0.1-0.1,0-0.1,0.1-0.2
		c0.1-0.8,0.3-1.7,0.4-2.5c0-0.1,0-0.1,0-0.3c0.1-0.8,0.1-1.7,0.2-2.6c0-0.1,0-0.1,0-0.3c0-0.8,0.1-1.8,0.1-2.6c0-0.1,0-0.1,0-0.3
		c0-0.8,0-1.7-0.1-2.5c0-0.1,0-0.1,0-0.3c0-0.8-0.1-1.7-0.3-2.5c0-0.1,0-0.1,0-0.3c-0.1-0.8-0.3-1.7-0.4-2.5c-0.1-0.1,0-0.1-0.1-0.2
		c-0.1-0.8-0.4-1.6-0.6-2.5c-0.1-0.1,0-0.1-0.1-0.2c-0.2-0.8-0.4-1.7-0.6-2.5c-0.1-0.1-0.1-0.2-0.1-0.2c-0.3-0.8-0.5-1.6-0.8-2.4
		c-0.1-0.1-0.1-0.2-0.1-0.2c-0.4-0.8-0.6-1.6-1-2.4c-0.1-0.1-0.1-0.2-0.1-0.2c-0.4-0.8-0.7-1.6-1.1-2.3c-0.1-0.1-0.1-0.2-0.1-0.2
		c-0.4-0.8-0.8-1.5-1.3-2.3c-0.1-0.1-0.1-0.1-0.1-0.2c-0.4-0.7-0.9-1.5-1.4-2.1c-0.1-0.1-0.1-0.1-0.2-0.2c-0.4-0.7-1-1.4-1.5-2.1
		c-0.1-0.1-0.1-0.1-0.2-0.2c-0.5-0.6-1.1-1.3-1.7-2c-0.1-0.1-0.1-0.1-0.2-0.2c-0.5-0.5-0.8-1-1.3-1.5l1.1-1.6
		C95.1,26.5,95.7,27,96.2,27.6z M78.6,58c-3-1-5.6-1.8-5.9-1.8l3.7-5.1C77.4,53.2,78.3,55.6,78.6,58z M77.1,50l4.9-6.8
		c4,5.2,5.9,11.5,5.8,17.7c-1.2-0.4-4.7-1.5-8.1-2.5C79.4,55.5,78.6,52.6,77.1,50z M86.5,61.1c-4,0.6-14.1,2.8-14.6,2.9v0.1
		l-2.4-3.4L86.5,61.1z M78.5,62.9c-0.4,2.3-1.1,4.7-2.3,6.8L72,64.1C72.5,64.1,75.3,63.5,78.5,62.9z M79.7,62.7
		c3.5-0.6,7-1.3,8.1-1.5c-0.1,5.8-2,11.5-5.7,16.3L77,70.7C78.4,68.2,79.3,65.4,79.7,62.7z M82.3,42.8l11-15.1
		c17.3,18,17.5,46.5,0.4,64.6L82.5,77.7C90.2,67.4,90.2,53,82.3,42.8z M27.1,23.1c0.1-0.1,0.1-0.1,0.2-0.2c0.7-0.6,1.4-1.1,2.1-1.7
		c0.1-0.1,0.1-0.1,0.2-0.2c0.7-0.6,1.5-1.1,2.1-1.6c0.1-0.1,0.1-0.1,0.2-0.2c0.8-0.5,1.6-1,2.3-1.4c0.1-0.1,0.1-0.1,0.2-0.1
		c0.8-0.5,1.6-0.8,2.3-1.3c0.2-0.1,0.3-0.1,0.5-0.2c0.8-0.4,1.6-0.8,2.4-1.1c0.1-0.1,0.2-0.1,0.2-0.1c0.8-0.4,1.6-0.6,2.5-1
		c0.1-0.1,0.2-0.1,0.2-0.1c0.8-0.3,1.7-0.6,2.5-0.8c0.1-0.1,0.2-0.1,0.2-0.1c0.8-0.3,1.8-0.5,2.5-0.7c0.1-0.1,0.1,0,0.2-0.1
		c0.9-0.2,1.8-0.4,2.6-0.5c0.1-0.1,0.1,0,0.2-0.1c0.8-0.1,1.8-0.2,2.6-0.4c0.1,0,0.1,0,0.3,0c0.9-0.1,1.8-0.2,2.6-0.2
		c0.1,0,0.1,0,0.3,0c0.9-0.1,1.8-0.1,2.7,0c0.1,0,0.1,0,0.3,0c0.8,0,1.8,0.1,2.7,0.1c0.1,0,0.1,0,0.3,0c0.9,0.1,1.8,0.1,2.7,0.3
		c0.1,0,0.1,0,0.3,0c0.8,0.1,1.8,0.2,2.7,0.4c0.1,0.1,0.1,0,0.2,0.1c0.8,0.1,1.8,0.4,2.6,0.6c0.1,0.1,0.1,0,0.2,0.1
		c0.9,0.2,1.7,0.4,2.5,0.7c0.1,0.1,0.2,0.1,0.2,0.1c0.8,0.3,1.7,0.6,2.5,0.8c0.1,0.1,0.2,0.1,0.2,0.1c0.8,0.3,1.6,0.6,2.5,1.1
		c0.1,0.1,0.2,0.1,0.2,0.1c0.8,0.4,1.6,0.8,2.4,1.1c0.1,0.1,0.1,0.1,0.2,0.1c0.8,0.4,1.6,0.8,2.3,1.3c0.1,0.1,0.1,0.1,0.2,0.1
		c0.8,0.5,1.5,0.9,2.3,1.4c0.1,0.1,0.1,0.1,0.2,0.2c0.8,0.5,1.5,1.1,2.1,1.6c0.1,0.1,0.1,0.1,0.2,0.2c0.7,0.6,1.4,1.1,2.1,1.8
		c0.1,0.1,0.1,0.1,0.2,0.2c0.7,0.6,1.3,1.2,2,1.8c0.1,0.1,0.1,0.1,0.1,0.1l0.1,0.1l-1.5,1.1c0,0,0,0-0.1-0.1
		c-0.6-0.6-1.2-1.2-1.9-1.8c-0.1-0.1-0.1-0.1-0.2-0.2c-0.7-0.6-1.3-1.1-2-1.7c-0.1-0.1-0.1-0.1-0.2-0.2c-0.7-0.6-1.3-1.1-2.1-1.5
		c-0.1-0.1-0.1-0.1-0.2-0.2c-0.7-0.4-1.4-1-2.1-1.4c-0.1-0.1-0.1-0.1-0.2-0.1c-0.7-0.4-1.5-0.9-2.3-1.3c-0.1-0.1-0.1-0.1-0.2-0.1
		c-0.8-0.4-1.5-0.8-2.3-1.1c-0.1-0.1-0.2-0.1-0.2-0.1c-0.8-0.4-1.6-0.7-2.4-1c-0.1-0.1-0.2-0.1-0.2-0.1c-0.8-0.3-1.6-0.6-2.4-0.8
		c-0.1-0.1-0.2-0.1-0.2-0.1c-0.8-0.3-1.6-0.5-2.5-0.6c-0.1-0.1-0.1,0-0.2-0.1c-0.8-0.2-1.7-0.4-2.5-0.6c-0.1-0.1-0.1,0-0.2-0.1
		c-0.8-0.1-1.7-0.3-2.5-0.4c-0.1,0-0.1,0-0.3,0c-0.8-0.1-1.7-0.1-2.5-0.3c-0.1,0-0.1,0-0.3,0c-0.8,0-1.7-0.1-2.5-0.1
		c-0.1,0-0.1,0-0.3,0c-0.8,0-1.7,0-2.6,0.1c-0.1,0-0.1,0-0.3,0c-0.8,0-1.7,0.1-2.6,0.2c-0.1,0-0.1,0-0.3,0c-0.8,0.1-1.7,0.3-2.5,0.4
		c-0.1,0.1-0.1,0-0.2,0.1c-0.8,0.1-1.7,0.3-2.5,0.5c-0.1,0.1-0.1,0-0.2,0.1c-0.8,0.2-1.7,0.4-2.5,0.6c-0.1,0.1-0.2,0.1-0.2,0.1
		c-0.8,0.3-1.6,0.5-2.5,0.8c-0.1,0.1-0.2,0.1-0.2,0.1c-0.8,0.3-1.6,0.6-2.4,1c-0.1,0.1-0.2,0.1-0.2,0.1c-0.8,0.4-1.6,0.7-2.3,1.1
		c-0.2,0.1-0.3,0.1-0.4,0.3c-0.8,0.4-1.5,0.8-2.3,1.3c-0.1,0.1-0.1,0.1-0.2,0.1c-0.7,0.4-1.5,0.9-2.2,1.3c-0.1,0.1-0.1,0.1-0.2,0.2
		c-0.7,0.4-1.4,1-2.1,1.5c-0.1,0.1-0.1,0.1-0.2,0.2c-0.6,0.5-1.3,1.1-2.1,1.6c-0.1,0.1-0.1,0.1-0.2,0.2c-0.4,0.4-1,0.8-1.4,1.3
		l-1.5-1.2C26,24.1,26.5,23.6,27.1,23.1z M57.8,41l-2.3,6.6l-5.6-4.3C52.3,42.1,55.1,41.3,57.8,41z M48.9,42.7l-6.6-5
		c5.4-4.1,12-5.9,18.5-5.7l-2.7,7.8C55,40,51.8,41,48.9,42.7z M61,33.3L63.1,48l-3.6,2.6L61,33.3z M62.4,41.2
		c2.3,0.4,4.7,1.2,6.8,2.4l-5.9,4.2L62.4,41.2z M62.2,40L61,32c5.7,0.3,11.2,2.3,16,5.9l-6.8,4.9C67.8,41.4,65,40.5,62.2,40z
		 M42,37.4L27.2,26C45.5,8.9,74.4,9.1,92.4,26.9L77.3,37.8C67,29.6,52.5,29.5,42,37.4z M55.5,48l3.9,2.9v9.5l35.4-35L72.4,56.2
		l-3.3,4.5l-9.8-0.4l36,34.6l-32-22.4l-3.2-2.2l-0.9-10L25,24.8L55.5,48z M62.4,79.4l1.1-6.7l5.9,4.2C67.3,78.1,64.9,78.9,62.4,79.4
		z M70.4,77.5l7,4.9c-4.8,4-10.5,6-16.5,6.3l1.3-8.1C65.1,80.1,67.9,79.1,70.4,77.5z M60.7,87.6c-3.3-11.5-4-13.8-4.3-14.2l3.7-2.9
		L60.7,87.6z M58.1,79.5c-2.5-0.2-4.9-0.8-7.1-1.9l5.3-4C56.4,74,57.1,76.1,58.1,79.5z M58.4,80.7c0.6,2.2,1.4,4.8,2.3,7.8l0,0
		c0,0.1,0,0.1,0,0.1l0,0c-6.2,0.2-12.4-1.5-17.6-5.2l6.7-5.2C52.5,79.8,55.4,80.6,58.4,80.7z M60.8,89.1l0.1,0.2L60.8,89.1
		c6.1-0.3,12-2.4,17-6.5l15.1,10.6c-0.1,0.1-0.1,0.1-0.3,0.3c-17.7,17.7-46.2,18.2-64.6,1.7l14.8-11.4
		C48.1,87.6,54.5,89.4,60.8,89.1z M32.7,60l14.6-3.7l2.3,3.3L32.7,60z M47.3,63.2l-4.5,6.9c-1.6-2.5-2.5-5.4-2.7-8.3L47.3,63.2z
		 M40.2,57.9c0.3-2.7,1.2-5.3,2.7-7.6l4.2,6L40.2,57.9z M39,58.2l-7.8,2l0.5,0.1l7.1,1.3c0.2,3.3,1.3,6.6,3.2,9.7l-4.5,7.1
		C29,68,29,52.8,37.5,42.4l4.7,6.7C40.5,52,39.4,55,39,58.2z M37.3,78.8L27.1,94.5c-0.3-0.3-0.6-0.6-0.9-0.9
		c-18.3-18.3-18.3-48.2,0-66.5c0.1-0.1,0.2-0.2,0.4-0.4L37.3,42C28.4,52.7,28.5,68.2,37.3,78.8z M23.6,94.1
		c-0.1-0.1-0.1-0.1-0.2-0.2c-0.6-0.6-1.2-1.3-1.8-2.1c-0.1-0.1-0.1-0.1-0.2-0.2c-0.6-0.7-1.1-1.4-1.7-2.1c-0.1-0.1-0.1-0.1-0.2-0.2
		c-0.6-0.7-1.1-1.5-1.5-2.2c-0.1-0.1-0.1-0.1-0.1-0.3c-0.5-0.8-0.9-1.5-1.4-2.3c-0.1-0.1-0.1-0.1-0.1-0.2c-0.5-0.8-0.8-1.6-1.3-2.4
		c-0.1-0.1-0.1-0.2-0.1-0.2c-0.4-0.8-0.8-1.6-1.1-2.4c-0.1-0.1-0.1-0.2-0.1-0.2c-0.4-0.8-0.6-1.6-0.9-2.5c-0.1-0.1-0.1-0.2-0.1-0.2
		c-0.3-0.8-0.6-1.7-0.8-2.5c-0.1-0.1,0-0.1-0.1-0.2c-0.3-0.8-0.4-1.7-0.6-2.6c-0.1-0.1,0-0.1-0.1-0.2c-0.2-0.9-0.4-1.8-0.5-2.6
		c0-0.1-0.1-0.4-0.1-0.5c-0.1-0.8-0.2-1.8-0.4-2.6c0-0.1,0-0.1,0-0.3c-0.1-0.9-0.1-1.8-0.1-2.7c0-0.1,0-0.1,0-0.3
		c-0.1-0.9-0.1-1.8,0-2.7c0-0.1,0-0.1,0-0.3c0-0.8,0.1-1.8,0.1-2.7c0-0.1,0-0.1,0-0.3c0.1-0.9,0.2-1.8,0.3-2.7c0-0.1,0-0.1,0-0.3
		c0.1-0.8,0.3-1.7,0.5-2.6c0.1-0.1,0-0.1,0.1-0.2c0.1-0.8,0.4-1.8,0.6-2.6c0.1-0.1,0-0.1,0.1-0.2c0.3-0.8,0.5-1.8,0.8-2.6
		c0.1-0.1,0.1-0.2,0.1-0.2c0.3-0.8,0.6-1.7,0.9-2.5c0.1-0.1,0.1-0.2,0.1-0.2c0.4-0.8,0.7-1.7,1.1-2.5c0.1-0.1,0.1-0.2,0.1-0.2
		c0.4-0.8,0.8-1.6,1.2-2.3c0.1-0.1,0.1-0.1,0.1-0.2c0.5-0.8,0.8-1.6,1.3-2.3c0.1-0.1,0.1-0.1,0.1-0.3c0.5-0.8,0.9-1.5,1.5-2.2
		c0.1-0.1,0.1-0.1,0.2-0.2c0.6-0.7,1.1-1.5,1.6-2.2c0.1-0.1,0.1-0.1,0.2-0.2c0.6-0.7,1.1-1.4,1.8-2.1c0.1-0.1,0.1-0.1,0.2-0.2
		c0.5-0.5,1-1,1.5-1.5c0.1-0.1,0.3-0.3,0.4-0.4s0.1-0.1,0.2-0.2c0,0,0,0,0.1-0.1l0.2,0.4l0.8,1.3l0,0c-0.1,0.1-0.2,0.2-0.4,0.4
		c-0.5,0.5-1,1-1.4,1.4c-0.1,0.1-0.1,0.1-0.2,0.2c-0.6,0.6-1.1,1.3-1.7,2c-0.1,0.1-0.1,0.1-0.2,0.2c-0.6,0.7-1.1,1.3-1.6,2
		c-0.1,0.1-0.1,0.1-0.2,0.2c-0.5,0.6-1,1.4-1.4,2.1c-0.1,0.1-0.1,0.1-0.1,0.3c-0.4,0.7-0.9,1.5-1.3,2.2c-0.1,0.1-0.1,0.1-0.1,0.2
		c-0.4,0.7-0.8,1.5-1.1,2.3c-0.1,0.1-0.1,0.2-0.1,0.2c-0.4,0.8-0.7,1.6-1.1,2.3c-0.1,0.1-0.1,0.2-0.1,0.2c-0.4,0.8-0.6,1.6-0.8,2.4
		c-0.1,0.1-0.1,0.2-0.1,0.2c-0.3,0.8-0.5,1.6-0.8,2.5c-0.1,0.1,0,0.1-0.1,0.2c-0.2,0.8-0.4,1.7-0.6,2.5c-0.1,0.1,0,0.1-0.1,0.2
		c-0.1,0.8-0.3,1.7-0.4,2.5c0,0.1,0,0.1,0,0.3c-0.1,0.8-0.3,1.7-0.3,2.5c0,0.1,0,0.1,0,0.3c-0.1,0.9-0.1,1.7-0.1,2.5
		c0,0.1,0,0.1,0,0.3c0,0.8,0,1.7,0,2.5c0,0.1,0,0.1,0,0.3c0,0.8,0.1,1.7,0.1,2.5c0,0.1,0,0.1,0,0.3c0.1,0.8,0.1,1.7,0.3,2.5
		c0,0.1,0.1,0.4,0.1,0.5c0.1,0.8,0.3,1.7,0.5,2.5c0.1,0.1,0,0.1,0.1,0.2c0.1,0.8,0.4,1.7,0.6,2.5c0.1,0.1,0,0.1,0.1,0.2
		c0.2,0.8,0.5,1.6,0.8,2.5c0.1,0.1,0.1,0.2,0.1,0.2c0.3,0.8,0.6,1.6,0.9,2.3c0.1,0.1,0.1,0.2,0.1,0.2c0.4,0.8,0.7,1.6,1.1,2.3
		c0.1,0.1,0.1,0.2,0.1,0.2c0.4,0.8,0.8,1.5,1.2,2.3c0.1,0.1,0.1,0.1,0.1,0.2c0.4,0.7,0.9,1.5,1.3,2.2c0.1,0.1,0.1,0.1,0.1,0.3
		c0.4,0.7,1,1.4,1.4,2.1c0.1,0.1,0.1,0.1,0.2,0.2c0.5,0.6,1.1,1.3,1.6,2c0.1,0.1,0.1,0.1,0.2,0.2c0.5,0.6,1.1,1.3,1.7,2
		c0.1,0.1,0.1,0.1,0.2,0.2c0.3,0.3,0.6,0.6,0.9,0.9c0.3,0.3,0.6,0.6,0.9,0.9l0.1,0.1l-0.4,0.7l-0.6,0.9c-0.1-0.1-0.1-0.1-0.1-0.1
		c-0.1-0.1-0.1-0.1-0.2-0.2c-0.3-0.3-0.6-0.6-0.9-0.9C24.3,94.8,24,94.5,23.6,94.1z M47.5,63.2l2.3-3.4l9.6,0.7L25.8,96.7L47.5,63.2
		z M57.5,109.5c-0.9-0.1-1.8-0.1-2.7-0.1c-0.1,0-0.1,0-0.3,0c-0.9-0.1-1.8-0.2-2.6-0.4c-0.1,0-0.4-0.1-0.5-0.1
		c-0.8-0.1-1.8-0.4-2.6-0.5c-0.1-0.1-0.1,0-0.2-0.1c-0.9-0.2-1.7-0.4-2.6-0.6c-0.1-0.1-0.1,0-0.2-0.1c-0.8-0.3-1.7-0.6-2.5-0.8
		c-0.1-0.1-0.2-0.1-0.2-0.1c-0.8-0.3-1.6-0.6-2.5-0.9c-0.1-0.1-0.2-0.1-0.2-0.1c-0.8-0.4-1.7-0.7-2.4-1.1c-0.1-0.1-0.2-0.1-0.2-0.1
		c-0.8-0.4-1.6-0.8-2.4-1.3c-0.1-0.1-0.1-0.1-0.2-0.1c-0.8-0.5-1.5-0.9-2.3-1.4c-0.1-0.1-0.1-0.1-0.3-0.1c-0.8-0.5-1.4-1-2.2-1.5
		c-0.1-0.1-0.1-0.1-0.2-0.2c-0.7-0.6-1.4-1.1-2.1-1.7c-0.1-0.1-0.1-0.1-0.2-0.2c-0.6-0.4-1.1-0.9-1.6-1.4l1.5-1.2
		c0.4,0.4,0.8,0.7,1.3,1.1c0.1,0.1,0.1,0.1,0.2,0.2c0.7,0.6,1.3,1.1,2,1.6c0.1,0.1,0.1,0.1,0.2,0.2c0.6,0.5,1.4,1,2.1,1.4
		c0.1,0.1,0.1,0.1,0.3,0.1c0.7,0.4,1.5,0.9,2.2,1.3c0.1,0.1,0.1,0.1,0.2,0.1c0.7,0.4,1.5,0.8,2.3,1.2c0.1,0.1,0.2,0.1,0.2,0.1
		c0.8,0.4,1.6,0.7,2.3,1.1c0.1,0.1,0.2,0.1,0.2,0.1c0.8,0.4,1.6,0.6,2.3,0.9c0.1,0.1,0.2,0.1,0.2,0.1c0.8,0.3,1.6,0.5,2.5,0.8
		c0.1,0.1,0.1,0,0.2,0.1c0.8,0.2,1.7,0.4,2.5,0.6c0.1,0.1,0.1,0,0.2,0.1c0.8,0.1,1.6,0.4,2.5,0.5c0.1,0,0.4,0.1,0.5,0.1
		c0.8,0.1,1.7,0.3,2.5,0.3c0.1,0,0.1,0,0.3,0c0.8,0.1,1.7,0.1,2.5,0.1c0.1,0,0.1,0,0.3,0c0.8,0,1.7,0,2.5,0c0.1,0,0.1,0,0.3,0
		c0.8,0,1.8-0.1,2.5-0.1c0.1,0,0.1,0,0.3,0c0.9-0.1,1.7-0.1,2.5-0.3c0.1,0,0.1,0,0.3,0c0.8-0.1,1.7-0.3,2.5-0.4
		c0.1-0.1,0.1,0,0.2-0.1c0.8-0.1,1.6-0.4,2.5-0.6c0.1-0.1,0.1,0,0.2-0.1c0.8-0.2,1.6-0.5,2.5-0.8c0.1-0.1,0.2-0.1,0.2-0.1
		c0.8-0.3,1.6-0.6,2.4-0.8c0.1-0.1,0.2-0.1,0.2-0.1c0.8-0.4,1.6-0.7,2.3-1.1c0.1-0.1,0.2-0.1,0.2-0.1c0.8-0.4,1.6-0.7,2.3-1.1
		c0.1-0.1,0.1-0.1,0.2-0.1c0.7-0.4,1.5-0.8,2.2-1.3c0.1-0.1,0.1-0.1,0.3-0.1c0.7-0.4,1.5-0.9,2.1-1.4c0.1-0.1,0.1-0.1,0.2-0.2
		c0.6-0.5,1.4-1,2-1.6c0.1-0.1,0.1-0.1,0.2-0.2c0.6-0.5,1.3-1.1,2-1.7c0.1-0.1,0.1-0.1,0.2-0.2c0.5-0.5,1-1,1.4-1.4
		c0.1-0.1,0.2-0.2,0.3-0.3l0.4,0.3l1.3,1c-0.1,0.1-0.1,0.1-0.1,0.1c-0.1,0.1-0.3,0.3-0.4,0.4c-0.5,0.5-1,1-1.5,1.5
		c-0.1,0.1-0.1,0.1-0.2,0.2c-0.6,0.6-1.3,1.2-2.1,1.8c-0.1,0.1-0.1,0.1-0.2,0.2c-0.7,0.6-1.4,1.1-2.2,1.6c-0.1,0.1-0.1,0.1-0.2,0.2
		c-0.7,0.6-1.5,1.1-2.2,1.5c-0.1,0.1-0.1,0.1-0.3,0.1c-0.8,0.5-1.5,0.9-2.3,1.3c-0.1,0.1-0.1,0.1-0.2,0.1c-0.8,0.4-1.6,0.8-2.3,1.2
		c-0.1,0.1-0.2,0.1-0.2,0.1c-0.8,0.4-1.6,0.8-2.5,1.1c-0.1,0.1-0.2,0.1-0.2,0.1c-0.8,0.3-1.6,0.6-2.5,0.9C75.1,107,75,107,75,107
		c-0.8,0.3-1.7,0.6-2.6,0.8c-0.1,0.1-0.1,0-0.2,0.1c-0.8,0.3-1.7,0.4-2.6,0.6c-0.1,0.1-0.1,0-0.2,0.1c-0.8,0.1-1.8,0.4-2.6,0.5
		c-0.1,0-0.1,0-0.3,0c-0.8,0.1-1.8,0.2-2.7,0.3c-0.1,0-0.1,0-0.3,0c-0.9,0.1-1.8,0.1-2.7,0.1c-0.1,0-0.1,0-0.3,0c-0.8,0-1.8,0-2.7,0
		C57.6,109.5,57.6,109.5,57.5,109.5z"/>
</g>
</svg>
