<!-- Generator: Adobe Illustrator 17.1.0, SVG Export Plug-In  -->
<svg version="1.1"
	 xmlns="http://www.w3.org/2000/svg" xmlns:xlink="http://www.w3.org/1999/xlink" xmlns:a="http://ns.adobe.com/AdobeSVGViewerExtensions/3.0/"
	 x="0px" y="0px" width="118.8px" height="120.6px" viewBox="0 0 118.8 120.6" enable-background="new 0 0 118.8 120.6"
	 xml:space="preserve">
<defs>
</defs>
<g>
	<path fill="#FFFFFF" d="M56.9,6c0.3,0.3,0.7,0.5,1.1,0.6c0.4,0.1,0.9,0.2,1.4,0.2c0.3,0,0.7,0,1-0.1c0.3-0.1,0.6-0.2,0.8-0.3
		c0-0.1,0-0.3,0-0.4c0-0.2,0-0.3,0-0.5c0-0.2,0-0.3-0.1-0.4c0-0.1,0-0.3-0.1-0.4h-0.4L60.2,6c0,0-0.1,0.1-0.2,0.1
		c-0.1,0-0.3,0-0.4,0c-0.6,0-1.1-0.2-1.4-0.7c-0.4-0.5-0.5-1.2-0.5-2.1c0-0.5,0-0.9,0.1-1.3c0.1-0.4,0.2-0.6,0.4-0.9
		c0.2-0.2,0.4-0.4,0.6-0.5c0.2-0.1,0.5-0.2,0.7-0.2c0.1,0,0.3,0,0.4,0c0.1,0,0.2,0,0.3,0.1l0.5,1.4H61C61,2,61,1.9,61.1,1.7
		c0-0.2,0.1-0.3,0.1-0.5c0-0.2,0-0.3,0-0.5c0-0.2,0-0.3,0-0.4c-0.2-0.1-0.5-0.2-0.8-0.2C60,0,59.7,0,59.3,0c-0.4,0-0.9,0.1-1.2,0.2
		c-0.4,0.1-0.7,0.3-1,0.6c-0.3,0.3-0.5,0.6-0.7,1C56.1,2.3,56,2.8,56,3.4c0,0.6,0.1,1.1,0.2,1.5C56.4,5.3,56.6,5.7,56.9,6z"/>
	<path fill="#FFFFFF" d="M62.9,114.8c-0.2-0.3-0.6-0.5-0.9-0.7c-0.4-0.2-0.8-0.3-1.3-0.3c-0.4,0-0.8,0.1-1.2,0.2
		c-0.3,0.2-0.6,0.4-0.9,0.6c-0.2,0.3-0.4,0.6-0.6,0.9c-0.1,0.4-0.2,0.8-0.3,1.2h-1v-2.3c0.2,0,0.3-0.1,0.4-0.1
		c0.1,0,0.2-0.1,0.3-0.1v-0.4h-2.9v0.4c0.1,0.1,0.2,0.1,0.4,0.2c0.1,0,0.3,0.1,0.4,0.1v5.3c-0.1,0-0.3,0.1-0.4,0.1
		c-0.1,0-0.2,0.1-0.4,0.2v0.4h2.9v-0.4c-0.1,0-0.2-0.1-0.3-0.1c-0.1,0-0.3-0.1-0.4-0.1v-2.4h1c0,0.5,0.1,0.9,0.2,1.3
		c0.1,0.4,0.3,0.7,0.6,1c0.2,0.3,0.5,0.5,0.9,0.7c0.4,0.2,0.8,0.2,1.2,0.2c0.5,0,0.9-0.1,1.3-0.3c0.4-0.2,0.7-0.4,0.9-0.7
		c0.2-0.3,0.4-0.7,0.5-1.1c0.1-0.4,0.2-0.9,0.2-1.3c0-0.5-0.1-0.9-0.2-1.3C63.3,115.4,63.1,115.1,62.9,114.8z M62,118.3
		c0,0.3-0.1,0.6-0.2,0.9c-0.1,0.2-0.2,0.4-0.4,0.6c-0.2,0.1-0.4,0.2-0.6,0.2c-0.5,0-0.9-0.2-1.1-0.7s-0.3-1.2-0.3-2
		c0-0.4,0-0.8,0.1-1.1c0-0.3,0.1-0.6,0.2-0.9c0.1-0.2,0.2-0.4,0.4-0.6c0.2-0.1,0.4-0.2,0.7-0.2c0.3,0,0.5,0.1,0.7,0.2
		c0.2,0.1,0.3,0.3,0.4,0.6c0.1,0.2,0.2,0.5,0.2,0.9c0,0.3,0.1,0.7,0.1,1.1C62,117.6,62,118,62,118.3z"/>
	<path fill="#FFFFFF" d="M4.3,58.8c-0.1-0.1-0.3-0.2-0.5-0.3s-0.4-0.1-0.6-0.2v0C3.7,58.2,4,58,4.2,57.7c0.2-0.3,0.3-0.6,0.3-0.9
		c0-0.3-0.1-0.6-0.2-0.8c-0.1-0.2-0.3-0.4-0.6-0.5c-0.2-0.1-0.5-0.2-0.8-0.2c-0.3,0-0.6-0.1-0.9-0.1c-0.1,0-0.3,0-0.4,0
		c-0.2,0-0.3,0-0.5,0.1c-0.2,0-0.3,0.1-0.5,0.1c-0.2,0.1-0.3,0.1-0.4,0.2c0,0.1,0,0.3,0,0.4c0,0.1,0,0.3,0.1,0.4
		c0,0.1,0,0.3,0.1,0.4c0,0.1,0,0.2,0.1,0.3h0.4l0.5-1.2c0,0,0.1-0.1,0.2-0.1c0.1,0,0.3-0.1,0.4-0.1c0.3,0,0.6,0.1,0.8,0.3
		C3,56.3,3,56.6,3,56.9c0,0.3-0.1,0.5-0.2,0.7c-0.1,0.2-0.3,0.3-0.5,0.4c-0.1,0-0.2,0-0.4,0c-0.1,0-0.3,0-0.4,0H1.3
		c0,0.1-0.1,0.2,0,0.4c0,0.1,0,0.3,0.1,0.4L2,58.8c0.4,0,0.7,0.1,0.9,0.3c0.2,0.2,0.3,0.5,0.3,0.9c0,0.4-0.1,0.7-0.4,1
		c-0.2,0.2-0.6,0.4-1,0.4c-0.1,0-0.3,0-0.4,0c-0.2,0-0.3,0-0.3-0.1l-0.4-1.3H0.3c0,0.1-0.1,0.3-0.1,0.4c0,0.2-0.1,0.3-0.1,0.5
		S0.1,61,0,61.2c0,0.1,0,0.3,0,0.4c0.1,0.1,0.2,0.1,0.4,0.1c0.2,0,0.3,0.1,0.5,0.1c0.2,0,0.4,0.1,0.6,0.1c0.2,0,0.4,0,0.5,0
		c0.4,0,0.8,0,1.1-0.1s0.6-0.2,0.9-0.4c0.2-0.2,0.4-0.4,0.6-0.6c0.1-0.2,0.2-0.5,0.2-0.9c0-0.2,0-0.5-0.1-0.6
		C4.5,59.1,4.4,58.9,4.3,58.8z"/>
	<path fill="#FFFFFF" d="M118.6,59.2c-0.1-0.2-0.2-0.4-0.4-0.5c-0.2-0.1-0.3-0.2-0.5-0.3c-0.2-0.1-0.4-0.1-0.6-0.1v0
		c0.2,0,0.4-0.1,0.6-0.2c0.2-0.1,0.3-0.2,0.4-0.3c0.1-0.1,0.2-0.3,0.3-0.5c0.1-0.2,0.1-0.4,0.1-0.6c0-0.3-0.1-0.6-0.2-0.8
		c-0.1-0.2-0.3-0.4-0.5-0.5c-0.2-0.1-0.5-0.2-0.7-0.2c-0.3,0-0.6-0.1-0.9-0.1c-0.3,0-0.5,0-0.7,0c-0.2,0-0.4,0-0.7,0h-1.5v0.4
		c0.1,0.1,0.2,0.1,0.4,0.2c0.1,0,0.3,0.1,0.4,0.1v5.3c-0.1,0-0.3,0-0.4,0.1c-0.1,0-0.3,0.1-0.4,0.2v0.4h1.1c0.1,0,0.2,0,0.4,0
		c0.1,0,0.3,0,0.5,0c0.2,0,0.3,0,0.5,0c0.2,0,0.3,0,0.4,0c0.3,0,0.7,0,1-0.1c0.3-0.1,0.6-0.2,0.9-0.3c0.3-0.2,0.5-0.4,0.6-0.6
		c0.1-0.2,0.2-0.5,0.2-0.9C118.8,59.7,118.7,59.4,118.6,59.2z M115.4,55.9c0.1,0,0.2,0,0.3,0s0.2,0,0.4,0c0.3,0,0.6,0.1,0.8,0.3
		c0.2,0.2,0.3,0.5,0.3,0.9c0,0.3-0.1,0.5-0.2,0.7c-0.1,0.2-0.3,0.4-0.6,0.5c-0.1,0-0.2,0-0.3,0c-0.1,0-0.2,0-0.3,0h-0.3V55.9z
		 M117,60.9c-0.2,0.2-0.5,0.3-0.9,0.3c-0.2,0-0.3,0-0.4,0c-0.1,0-0.2,0-0.3,0v-2.4h0.5c0.2,0,0.4,0,0.6,0.1c0.2,0,0.3,0.1,0.5,0.2
		c0.1,0.1,0.2,0.2,0.3,0.4c0.1,0.2,0.1,0.3,0.1,0.6C117.3,60.4,117.2,60.7,117,60.9z"/>
	<path fill="#FFFFFF" d="M59.8,10c-0.3,0-0.6,0-1,0l-0.1-0.3l0,0.3C31.5,10.5,9.6,32.7,9.4,60l-0.2,0l0.2,0c0,0.1,0,0.2,0,0.3
		c0,27.8,22.6,50.4,50.4,50.4c27.8,0,50.4-22.6,50.4-50.4C110.2,32.6,87.6,10,59.8,10z M10.6,57.4c0-0.1,0-0.2,0-0.3
		c0.1-0.9,0.1-1.8,0.2-2.7c0-0.1,0-0.2,0-0.3c0.1-0.9,0.2-1.8,0.4-2.6c0-0.1,0-0.2,0-0.3c0.2-0.9,0.4-1.8,0.6-2.6
		c0-0.1,0-0.2,0.1-0.2c0.2-0.9,0.5-1.7,0.7-2.6c0-0.1,0-0.2,0.1-0.2c0.3-0.9,0.6-1.7,0.9-2.5c0-0.1,0.1-0.2,0.1-0.2
		c0.3-0.8,0.7-1.7,1-2.5c0-0.1,0.1-0.2,0.1-0.2c0.4-0.8,0.8-1.6,1.2-2.4c0-0.1,0.1-0.2,0.1-0.2c0.4-0.8,0.9-1.6,1.3-2.3
		c0-0.1,0.1-0.1,0.1-0.2c0.5-0.8,0.9-1.5,1.4-2.3c0-0.1,0.1-0.1,0.1-0.2c0.5-0.7,1-1.5,1.6-2.2c0.1-0.1,0.1-0.1,0.2-0.2
		c0.5-0.7,1.1-1.4,1.7-2.1c0.1-0.1,0.1-0.1,0.2-0.2c0.6-0.7,1.2-1.3,1.8-2c0.1-0.1,0.1-0.1,0.2-0.2c0.6-0.6,1.3-1.3,1.9-1.9
		c0.1-0.1,0.1-0.1,0.2-0.2c0.7-0.6,1.3-1.2,2-1.7c0.1-0.1,0.1-0.1,0.2-0.2c0.7-0.6,1.4-1.1,2.1-1.6c0.1,0,0.1-0.1,0.2-0.1
		c0.7-0.5,1.5-1,2.2-1.5c0.1,0,0.1-0.1,0.2-0.1c0.8-0.5,1.5-0.9,2.3-1.3c0.1,0,0.2-0.1,0.2-0.1c0.8-0.4,1.6-0.8,2.4-1.2
		c0.1,0,0.2-0.1,0.2-0.1c0.8-0.4,1.6-0.7,2.5-1.1c0.1,0,0.2-0.1,0.2-0.1c0.8-0.3,1.7-0.6,2.5-0.9c0.2-0.1,0.3-0.1,0.5-0.2
		c0.8-0.3,1.7-0.5,2.6-0.7c0.1,0,0.2,0,0.2-0.1c0.9-0.2,1.7-0.4,2.6-0.6c0.1,0,0.2,0,0.3,0c0.9-0.2,1.8-0.3,2.6-0.4
		c0.1,0,0.2,0,0.3,0c0.9-0.1,1.8-0.2,2.7-0.3c0.1,0,0.2,0,0.3,0c0.7-0.1,1.5-0.1,2.3-0.1L58.3,13c-0.6,0-1.3,0.1-1.9,0.1
		c-0.1,0-0.2,0-0.3,0c-0.9,0.1-1.7,0.2-2.6,0.3c-0.1,0-0.2,0-0.3,0c-0.9,0.1-1.7,0.3-2.5,0.4c-0.1,0-0.2,0-0.3,0
		c-0.8,0.2-1.7,0.4-2.5,0.6c-0.1,0-0.2,0-0.2,0.1c-0.8,0.2-1.7,0.5-2.5,0.7c-0.2,0-0.3,0.1-0.5,0.1c-0.8,0.3-1.6,0.6-2.4,0.9
		c-0.1,0-0.2,0.1-0.2,0.1c-0.8,0.3-1.6,0.7-2.4,1c-0.1,0-0.2,0.1-0.2,0.1c-0.8,0.4-1.5,0.7-2.3,1.2c-0.1,0-0.2,0.1-0.2,0.1
		c-0.8,0.4-1.5,0.8-2.2,1.3c-0.1,0-0.1,0.1-0.2,0.1c-0.7,0.5-1.4,0.9-2.1,1.4c-0.1,0-0.1,0.1-0.2,0.1c-0.7,0.5-1.4,1-2,1.5
		c-0.1,0.1-0.1,0.1-0.2,0.2c-0.7,0.5-1.3,1.1-2,1.7c-0.1,0.1-0.1,0.1-0.2,0.2c-0.6,0.6-1.3,1.2-1.9,1.8c-0.1,0.1-0.1,0.1-0.2,0.2
		c-0.6,0.6-1.2,1.2-1.7,1.9c-0.1,0.1-0.1,0.1-0.2,0.2c-0.6,0.6-1.1,1.3-1.6,2c-0.1,0.1-0.1,0.1-0.2,0.2c-0.5,0.7-1,1.4-1.5,2.1
		c0,0.1-0.1,0.1-0.1,0.2c-0.5,0.7-0.9,1.4-1.4,2.2c0,0.1-0.1,0.1-0.1,0.2c-0.4,0.7-0.9,1.5-1.3,2.2c0,0.1-0.1,0.2-0.1,0.2
		c-0.4,0.8-0.8,1.5-1.1,2.3c0,0.1-0.1,0.2-0.1,0.2c-0.3,0.8-0.7,1.6-1,2.4c0,0.1-0.1,0.2-0.1,0.2c-0.3,0.8-0.6,1.6-0.8,2.4
		c0,0.1-0.1,0.2-0.1,0.2c-0.3,0.8-0.5,1.6-0.7,2.5c0,0.1,0,0.2-0.1,0.2c-0.2,0.8-0.4,1.7-0.5,2.5c0,0.1,0,0.2,0,0.3
		c-0.2,0.8-0.3,1.7-0.4,2.5c0,0.1,0,0.2,0,0.3c-0.1,0.8-0.2,1.7-0.2,2.6c0,0.1,0,0.2,0,0.3c0,0.7-0.1,1.3-0.1,2l-1.9,0.3
		C10.6,59,10.6,58.2,10.6,57.4z M44.6,48.4c1.4,2.8,2.7,5.2,2.9,5.5l-6.2,1C42,52.6,43.1,50.3,44.6,48.4z M40,55.1l-8.3,1.3
		c0.9-6.5,3.9-12.3,8.4-16.6c0.6,1.1,2.3,4.4,4,7.5C42.2,49.6,40.8,52.2,40,55.1z M41.2,40.6c3.3,2.4,12,8,12.4,8.3l0.1-0.1L53,52.9
		L41.2,40.6z M48.1,45c1.9-1.4,4.1-2.5,6.4-3.2l-0.9,6.9C53.2,48.4,50.8,46.8,48.1,45z M47.1,44.3c-2.9-2-5.9-4-6.8-4.7
		c4.2-4,9.5-6.7,15.5-7.5l-1.1,8.4C51.9,41.3,49.3,42.6,47.1,44.3z M31.2,56.5l-18.4,2.9c0.5-25,20.5-45.2,45.4-46l-2.4,18.3
		C43,33.5,32.9,43.7,31.2,56.5z M56.3,109.5c-0.1,0-0.2,0-0.3,0c-0.9-0.1-1.8-0.2-2.7-0.3c-0.1,0-0.2,0-0.3,0
		c-0.9-0.1-1.8-0.3-2.6-0.4c-0.1,0-0.2,0-0.3,0c-0.9-0.2-1.8-0.4-2.6-0.6c-0.1,0-0.2,0-0.2-0.1c-0.9-0.2-1.7-0.5-2.6-0.7
		c-0.2-0.1-0.3-0.1-0.5-0.2c-0.8-0.3-1.7-0.6-2.5-0.9c-0.1,0-0.2-0.1-0.2-0.1c-0.8-0.3-1.6-0.7-2.5-1.1c-0.1,0-0.2-0.1-0.2-0.1
		c-0.8-0.4-1.6-0.8-2.4-1.2c-0.1,0-0.2-0.1-0.2-0.1c-0.8-0.4-1.6-0.9-2.3-1.3c-0.1,0-0.1-0.1-0.2-0.1c-0.8-0.5-1.5-1-2.2-1.5
		c-0.1,0-0.1-0.1-0.2-0.1c-0.7-0.5-1.4-1.1-2.1-1.6c-0.1-0.1-0.1-0.1-0.2-0.2c-0.7-0.6-1.4-1.1-2-1.7c-0.1-0.1-0.1-0.1-0.2-0.2
		c-0.7-0.6-1.3-1.2-1.9-1.9c-0.1-0.1-0.1-0.1-0.2-0.2c-0.6-0.6-1.2-1.3-1.8-2c-0.1-0.1-0.1-0.1-0.2-0.2c-0.6-0.7-1.2-1.4-1.7-2.1
		c-0.1-0.1-0.1-0.1-0.2-0.2c-0.5-0.7-1.1-1.4-1.6-2.2c0-0.1-0.1-0.1-0.1-0.2c-0.5-0.7-1-1.5-1.4-2.3c0-0.1-0.1-0.1-0.1-0.2
		c-0.5-0.8-0.9-1.5-1.3-2.3c0-0.1-0.1-0.2-0.1-0.2c-0.4-0.8-0.8-1.6-1.2-2.4c0-0.1-0.1-0.2-0.1-0.2c-0.4-0.8-0.7-1.6-1-2.5
		c0-0.1-0.1-0.2-0.1-0.2c-0.3-0.8-0.6-1.7-0.9-2.5c0-0.1,0-0.2-0.1-0.2c-0.3-0.9-0.5-1.7-0.7-2.6c0-0.1,0-0.2-0.1-0.2
		c-0.2-0.9-0.4-1.7-0.6-2.6c0-0.1,0-0.2,0-0.3c-0.2-0.9-0.3-1.8-0.4-2.6c0-0.1,0-0.2,0-0.3c-0.1-0.9-0.2-1.8-0.2-2.7
		c0-0.1,0-0.2,0-0.3c-0.1-0.9-0.1-1.8-0.1-2.7c0-0.1,0-0.2,0-0.2c0,0,0-0.1,0-0.1l1.8,0.3c0,0,0,0,0,0.1c0,0.9,0,1.7,0.1,2.6
		c0,0.1,0,0.2,0,0.3c0.1,0.9,0.1,1.7,0.2,2.6c0,0.1,0,0.2,0,0.3c0.1,0.9,0.2,1.7,0.4,2.5c0,0.1,0,0.2,0,0.3c0.2,0.8,0.3,1.7,0.5,2.5
		c0,0.1,0,0.2,0.1,0.2c0.2,0.8,0.4,1.7,0.7,2.5c0,0.1,0,0.2,0.1,0.2c0.3,0.8,0.5,1.6,0.8,2.4c0,0.1,0.1,0.2,0.1,0.2
		c0.3,0.8,0.6,1.6,1,2.4c0,0.1,0.1,0.2,0.1,0.2c0.4,0.8,0.7,1.6,1.1,2.3c0,0.1,0.1,0.2,0.1,0.2c0.4,0.8,0.8,1.5,1.3,2.2
		c0,0.1,0.1,0.1,0.1,0.2c0.4,0.7,0.9,1.5,1.4,2.2c0,0.1,0.1,0.1,0.1,0.2c0.5,0.7,1,1.4,1.5,2.1c0.1,0.1,0.1,0.1,0.2,0.2
		c0.5,0.7,1.1,1.3,1.6,2c0.1,0.1,0.1,0.1,0.2,0.2c0.6,0.6,1.1,1.3,1.7,1.9c0.1,0.1,0.1,0.1,0.2,0.2c0.6,0.6,1.2,1.2,1.9,1.8
		c0.1,0.1,0.1,0.1,0.2,0.2c0.6,0.6,1.3,1.1,2,1.7c0.1,0.1,0.1,0.1,0.2,0.2c0.7,0.5,1.4,1,2,1.5c0.1,0,0.1,0.1,0.2,0.1
		c0.7,0.5,1.4,1,2.1,1.4c0.1,0,0.1,0.1,0.2,0.1c0.7,0.4,1.5,0.9,2.2,1.3c0.1,0,0.2,0.1,0.2,0.1c0.8,0.4,1.5,0.8,2.3,1.2
		c0.1,0,0.2,0.1,0.2,0.1c0.8,0.4,1.6,0.7,2.4,1c0.1,0,0.2,0.1,0.2,0.1c0.8,0.3,1.6,0.6,2.4,0.9c0.2,0.1,0.3,0.1,0.5,0.1
		c0.8,0.3,1.6,0.5,2.5,0.7c0.1,0,0.2,0,0.2,0.1c0.8,0.2,1.7,0.4,2.5,0.6c0.1,0,0.2,0,0.3,0c0.8,0.2,1.7,0.3,2.5,0.4
		c0.1,0,0.2,0,0.3,0c0.8,0.1,1.7,0.2,2.6,0.3c0.1,0,0.2,0,0.3,0c0.6,0,1.3,0.1,1.9,0.1l0.2,1.9C57.8,109.6,57.1,109.5,56.3,109.5z
		 M47.3,75.1l6.3-3.1l0.9,7C51.9,78.2,49.4,76.8,47.3,75.1z M54.7,80.2l1.1,8.2c-6.7-0.9-12.7-4.3-17.1-9.1l7.4-3.6
		C48.6,77.8,51.5,79.3,54.7,80.2z M39.6,78.3l8.9-11.9l4.4,0.7L39.6,78.3z M44.2,71.7c-1.4-1.9-2.5-4.2-3.1-6.5l7.1,1.2L44.2,71.7z
		 M43.5,72.7l-4.8,6.5c-3.8-4.2-6.3-9.6-7.1-15.5l8.3,1.3C40.5,67.8,41.8,70.4,43.5,72.7z M55.9,88.8l2.4,18.5
		C33.2,106.5,13,85.9,12.8,60.6l18.4,3C32.7,76.6,42.9,87,55.9,88.8z M53.8,71.8L53.1,67l6.7-6.7L10,60l37.7-6l5.5-0.9l6.7,7.2
		l-1-49.9l6.8,38.5l0.7,3.8l-6.4,7.7l-1,49.4L53.8,71.8z M71.1,44.7l-5.5,4l-1.2-7.1C66.8,42.2,69.1,43.3,71.1,44.7z M64.2,40.4
		L62.7,32c6.2,0.6,11.7,3.2,16.1,7.2L72.1,44C69.8,42.3,67.1,41,64.2,40.4z M78.2,40.1c-5.8,10.4-6.9,12.6-7,13.1l-4.7-0.6
		L78.2,40.1z M74.3,47.7c1.6,1.9,2.9,4,3.7,6.4l-6.6-0.9C71.6,52.8,72.6,50.8,74.3,47.7z M74.9,46.6c1.1-2,2.4-4.4,3.9-7.1l0,0
		c0.1-0.1,0.1-0.1,0.1-0.1l0,0c4.5,4.2,7.7,9.8,8.8,16.1l-8.4-1.1C78.4,51.4,76.9,48.8,74.9,46.6z M79.2,39l0.1-0.2L79.2,39
		c-4.5-4.1-10.2-6.8-16.6-7.4l-3.2-18.2c0.1,0,0.2,0,0.4,0c25.1,0,45.6,19.8,46.9,44.5l-18.5-2.4C87.1,49,83.8,43.2,79.2,39z
		 M78.5,79.4l-12.9-7.7l0.7-3.9L78.5,79.4z M70.4,66.8l8.1-1.7c-0.7,2.9-2.1,5.6-4,7.8L70.4,66.8z M71.6,75.6
		c-2.1,1.7-4.6,2.9-7.3,3.5l1.3-7.2L71.6,75.6z M72.7,76.2l6.9,4.1l-0.3-0.4l-4.1-6c2.2-2.5,3.8-5.6,4.6-9.1L88,63
		c-1.3,13.4-12,24.1-25.4,25.5l1.4-8.1C67.3,79.6,70.2,78.2,72.7,76.2z M88.5,62.9l18.3-3.9c0,0.4,0,0.9,0,1.3c0,25.9-21.1,47-47,47
		c-0.2,0-0.3,0-0.5,0l3.2-18.4C76.3,87.6,87.2,76.6,88.5,62.9z M109,61.7c0,0.1,0,0.2,0,0.3c0,0.9-0.1,1.8-0.2,2.7
		c0,0.1,0,0.2,0,0.3c-0.1,0.9-0.2,1.8-0.3,2.7c0,0.1,0,0.2,0,0.3c-0.1,0.9-0.3,1.8-0.5,2.6c0,0.1,0,0.2-0.1,0.3
		c-0.2,0.9-0.4,1.7-0.6,2.6c0,0.1,0,0.2-0.1,0.2c-0.2,0.9-0.5,1.7-0.8,2.6c0,0.1-0.1,0.2-0.1,0.2c-0.3,0.8-0.6,1.7-0.9,2.5
		c0,0.1-0.1,0.2-0.1,0.2c-0.3,0.8-0.7,1.6-1.1,2.4c0,0.1-0.1,0.2-0.1,0.2c-0.4,0.8-0.8,1.6-1.2,2.4c0,0.1-0.1,0.1-0.1,0.2
		c-0.4,0.8-0.9,1.5-1.4,2.3c0,0.1-0.1,0.1-0.1,0.2c-0.5,0.8-1,1.5-1.5,2.2c-0.1,0.1-0.2,0.3-0.3,0.4c-0.5,0.7-1.1,1.4-1.6,2.1
		c-0.1,0.1-0.1,0.1-0.2,0.2c-0.6,0.7-1.2,1.4-1.8,2c-0.1,0.1-0.1,0.1-0.2,0.2c-0.6,0.7-1.2,1.3-1.9,1.9c-0.1,0.1-0.1,0.1-0.2,0.2
		c-0.6,0.6-1.3,1.2-2,1.8c-0.1,0.1-0.1,0.1-0.2,0.2c-0.7,0.6-1.4,1.1-2.1,1.7c-0.1,0.1-0.1,0.1-0.2,0.2c-0.7,0.5-1.4,1-2.2,1.5
		c-0.1,0-0.1,0.1-0.2,0.1c-0.7,0.5-1.5,1-2.3,1.4c-0.1,0-0.1,0.1-0.2,0.1c-0.8,0.4-1.6,0.9-2.4,1.3c-0.1,0-0.2,0.1-0.2,0.1
		c-0.8,0.4-1.6,0.8-2.4,1.1c-0.1,0-0.2,0.1-0.2,0.1c-0.8,0.3-1.7,0.7-2.5,1c-0.1,0-0.2,0.1-0.2,0.1c-0.8,0.3-1.7,0.6-2.5,0.8
		c-0.1,0-0.2,0-0.2,0.1c-0.9,0.2-1.7,0.5-2.6,0.7c-0.1,0-0.2,0-0.3,0.1c-0.9,0.2-1.7,0.4-2.6,0.5c-0.1,0-0.2,0-0.3,0
		c-0.9,0.1-1.8,0.3-2.7,0.4c-0.1,0-0.2,0-0.3,0c-0.9,0.1-1.8,0.2-2.7,0.2c-0.1,0-0.2,0-0.3,0c-0.7,0-1.4,0-2.1,0c-0.2,0-0.4,0-0.5,0
		c-0.1,0-0.2,0-0.3,0c0,0,0,0-0.1,0l0.1-0.4l0.3-1.5c0,0,0,0,0,0c0.2,0,0.3,0,0.5,0c0.7,0,1.4,0,2,0c0.1,0,0.2,0,0.3,0
		c0.9,0,1.7-0.1,2.6-0.2c0.1,0,0.2,0,0.3,0c0.9-0.1,1.7-0.2,2.5-0.3c0.1,0,0.2,0,0.3,0c0.8-0.1,1.7-0.3,2.5-0.5c0.1,0,0.2,0,0.3-0.1
		c0.8-0.2,1.7-0.4,2.5-0.6c0.1,0,0.2,0,0.2-0.1c0.8-0.2,1.6-0.5,2.4-0.8c0.1,0,0.2-0.1,0.2-0.1c0.8-0.3,1.6-0.6,2.4-0.9
		c0.1,0,0.2-0.1,0.2-0.1c0.8-0.3,1.6-0.7,2.3-1.1c0.1,0,0.2-0.1,0.2-0.1c0.8-0.4,1.5-0.8,2.3-1.2c0.1,0,0.1-0.1,0.2-0.1
		c0.7-0.4,1.5-0.9,2.2-1.4c0.1,0,0.1-0.1,0.2-0.1c0.7-0.5,1.4-1,2.1-1.5c0.1-0.1,0.1-0.1,0.2-0.2c0.7-0.5,1.4-1,2-1.6
		c0.1-0.1,0.1-0.1,0.2-0.2c0.7-0.6,1.3-1.1,1.9-1.7c0.1-0.1,0.1-0.1,0.2-0.2c0.6-0.6,1.2-1.2,1.8-1.8c0.1-0.1,0.1-0.1,0.2-0.2
		c0.6-0.6,1.1-1.3,1.7-1.9c0.1-0.1,0.1-0.1,0.2-0.2c0.5-0.7,1.1-1.3,1.6-2c0.1-0.1,0.2-0.3,0.3-0.4c0.5-0.7,1-1.4,1.4-2.1
		c0-0.1,0.1-0.1,0.1-0.2c0.5-0.7,0.9-1.5,1.3-2.2c0-0.1,0.1-0.1,0.1-0.2c0.4-0.7,0.8-1.5,1.2-2.3c0-0.1,0.1-0.2,0.1-0.2
		c0.4-0.8,0.7-1.6,1-2.3c0-0.1,0.1-0.2,0.1-0.2c0.3-0.8,0.6-1.6,0.9-2.4c0-0.1,0.1-0.2,0.1-0.2c0.3-0.8,0.5-1.6,0.8-2.5
		c0-0.1,0-0.2,0.1-0.2c0.2-0.8,0.4-1.7,0.6-2.5c0-0.1,0-0.2,0.1-0.3c0.2-0.8,0.3-1.7,0.5-2.5c0-0.1,0-0.2,0-0.3
		c0.1-0.8,0.2-1.7,0.3-2.5c0-0.1,0-0.2,0-0.3c0.1-0.8,0.1-1.7,0.2-2.6c0-0.1,0-0.2,0-0.3c0-0.4,0-0.9,0-1.3c0-0.4,0-0.9,0-1.3
		c0,0,0-0.1,0-0.1l0.8-0.2l1.1-0.2c0,0.1,0,0.1,0,0.2c0,0.1,0,0.2,0,0.3c0,0.4,0,0.9,0,1.3C109,60.8,109,61.2,109,61.7z M70.2,66.7
		l-4,0.8l-6.3-7.3l49.4-1.9L70.2,66.7z M95.9,26.9c0.6,0.7,1.2,1.3,1.8,2c0.1,0.1,0.1,0.1,0.2,0.2c0.6,0.7,1.1,1.4,1.6,2.1
		c0.1,0.1,0.2,0.3,0.3,0.4c0.5,0.7,1,1.5,1.5,2.2c0,0.1,0.1,0.1,0.1,0.2c0.5,0.8,0.9,1.5,1.4,2.3c0,0.1,0.1,0.1,0.1,0.2
		c0.4,0.8,0.8,1.6,1.2,2.4c0,0.1,0.1,0.2,0.1,0.2c0.4,0.8,0.7,1.6,1.1,2.4c0,0.1,0.1,0.2,0.1,0.2c0.3,0.8,0.7,1.7,0.9,2.5
		c0,0.1,0.1,0.2,0.1,0.2c0.3,0.8,0.5,1.7,0.8,2.6c0,0.1,0,0.2,0.1,0.2c0.2,0.9,0.4,1.7,0.6,2.6c0,0.1,0,0.2,0.1,0.3
		c0.2,0.9,0.3,1.7,0.5,2.6c0,0.1,0,0.2,0,0.3c0.1,0.9,0.2,1.8,0.3,2.7c0,0.1,0,0.2,0,0.3c0.1,0.7,0.1,1.4,0.1,2.1l-1.9-0.2
		c0-0.6-0.1-1.1-0.1-1.7c0-0.1,0-0.2,0-0.3c-0.1-0.9-0.2-1.7-0.3-2.5c0-0.1,0-0.2,0-0.3c-0.1-0.8-0.3-1.7-0.5-2.5
		c0-0.1,0-0.2-0.1-0.3c-0.2-0.8-0.4-1.7-0.6-2.5c0-0.1,0-0.2-0.1-0.2c-0.2-0.8-0.5-1.6-0.8-2.5c0-0.1-0.1-0.2-0.1-0.2
		c-0.3-0.8-0.6-1.6-0.9-2.4c0-0.1-0.1-0.2-0.1-0.2c-0.3-0.8-0.7-1.6-1-2.3c0-0.1-0.1-0.2-0.1-0.2c-0.4-0.8-0.8-1.5-1.2-2.3
		c0-0.1-0.1-0.1-0.1-0.2c-0.4-0.7-0.9-1.5-1.3-2.2c0-0.1-0.1-0.1-0.1-0.2c-0.5-0.7-0.9-1.4-1.4-2.1c-0.1-0.1-0.2-0.3-0.3-0.4
		c-0.5-0.7-1-1.4-1.6-2c-0.1-0.1-0.1-0.1-0.2-0.2c-0.5-0.7-1.1-1.3-1.7-1.9c-0.1-0.1-0.1-0.1-0.2-0.2c-0.6-0.6-1.2-1.2-1.8-1.8
		c-0.1-0.1-0.1-0.1-0.2-0.2c-0.6-0.6-1.3-1.2-1.9-1.7c-0.1-0.1-0.1-0.1-0.2-0.2c-0.7-0.6-1.3-1.1-2-1.6c-0.1-0.1-0.1-0.1-0.2-0.2
		c-0.7-0.5-1.4-1-2.1-1.5c-0.1,0-0.1-0.1-0.2-0.1c-0.7-0.5-1.4-0.9-2.2-1.4c-0.1,0-0.1-0.1-0.2-0.1c-0.7-0.4-1.5-0.8-2.3-1.2
		c-0.1,0-0.2-0.1-0.2-0.1c-0.8-0.4-1.5-0.7-2.3-1.1c-0.1,0-0.2-0.1-0.2-0.1c-0.8-0.3-1.6-0.6-2.4-0.9c-0.1,0-0.2-0.1-0.2-0.1
		c-0.8-0.3-1.6-0.6-2.4-0.8c-0.1,0-0.2,0-0.2-0.1c-0.8-0.2-1.6-0.5-2.5-0.6c-0.1,0-0.2,0-0.3-0.1c-0.8-0.2-1.7-0.4-2.5-0.5
		c-0.1,0-0.2,0-0.3,0c-0.8-0.1-1.7-0.3-2.5-0.3c-0.1,0-0.2,0-0.3,0c-0.8-0.1-1.7-0.1-2.6-0.2c-0.1,0-0.2,0-0.3,0c-0.7,0-1.4,0-2,0
		c-0.1,0-0.3,0-0.4,0l-0.1-0.5L59,11.1c0.1,0,0.1,0,0.2,0c0.2,0,0.4,0,0.5,0c0.7,0,1.4,0,2.1,0c0.1,0,0.2,0,0.3,0
		c0.9,0,1.8,0.1,2.7,0.2c0.1,0,0.2,0,0.3,0c0.9,0.1,1.8,0.2,2.7,0.4c0.1,0,0.2,0,0.3,0c0.9,0.1,1.8,0.3,2.6,0.5c0.1,0,0.2,0,0.3,0.1
		c0.9,0.2,1.7,0.4,2.6,0.7c0.1,0,0.2,0,0.2,0.1c0.9,0.3,1.7,0.5,2.5,0.8c0.1,0,0.2,0.1,0.2,0.1c0.8,0.3,1.7,0.6,2.5,1
		c0.1,0,0.2,0.1,0.2,0.1c0.8,0.4,1.6,0.7,2.4,1.1c0.1,0,0.2,0.1,0.2,0.1c0.8,0.4,1.6,0.8,2.4,1.3c0.1,0,0.1,0.1,0.2,0.1
		c0.8,0.4,1.5,0.9,2.3,1.4c0.1,0,0.1,0.1,0.2,0.1c0.7,0.5,1.5,1,2.2,1.5c0.1,0.1,0.1,0.1,0.2,0.2c0.7,0.5,1.4,1.1,2.1,1.7
		c0.1,0.1,0.1,0.1,0.2,0.2c0.7,0.6,1.3,1.2,2,1.8c0.1,0.1,0.1,0.1,0.2,0.2c0.6,0.6,1.3,1.3,1.9,1.9C95.8,26.8,95.8,26.8,95.9,26.9z"
		/>
</g>
</svg>
