<!-- Generator: Adobe Illustrator 17.1.0, SVG Export Plug-In  -->
<svg version="1.1"
	 xmlns="http://www.w3.org/2000/svg" xmlns:xlink="http://www.w3.org/1999/xlink" xmlns:a="http://ns.adobe.com/AdobeSVGViewerExtensions/3.0/"
	 x="0px" y="0px" width="212.2px" height="95.9px" viewBox="0 0 212.2 95.9" enable-background="new 0 0 212.2 95.9"
	 xml:space="preserve">
<defs>
</defs>
<path fill="#212B4F" d="M206.7,85.7c0.3-2.5,0.5-4.8,0.5-7.1c0-2.3,0.1-4,0.1-5.1v-8.4h0V65c0-1.1,0-2.4,0.1-3.8
	c0-1.4,0.2-2.8,0.5-4.2c0.3-1.4,0.8-2.8,1.5-4.1c0.7-1.3,1.6-2.5,2.8-3.4v-3.1c-1.2-0.9-2.1-2-2.8-3.4c-0.7-1.3-1.2-2.7-1.5-4.1
	c-0.3-1.4-0.5-2.8-0.5-4.2c0-1.4-0.1-2.7-0.1-3.8v-0.1h0v-8.4c0-1.1,0-2.8-0.1-5.1s-0.2-4.6-0.5-7.1c-0.3-2.5-0.8-4.8-1.5-7
	c-0.3-1-0.9-2.2-2-3.2H0.1C0,0,0,0,0,0.1l1,3.2c0.7,2.2,1.2,4.5,1.5,7C2.8,12.7,3,15,3,17.3c0,2.3,0.1,4,0.1,5.1v8.4h0v0.1
	c0,1.1,0,2.4,0.1,3.8c0,1.4,0.2,2.8,0.5,4.2c0.3,1.4,0.8,2.8,1.5,4.1c0.7,1.3,1.6,2.5,2.8,3.4v3.1c-1.2,0.9-2.1,2-2.8,3.4
	C4.5,54.2,4,55.6,3.7,57c-0.3,1.4-0.5,2.8-0.5,4.2c0,1.4-0.1,2.7-0.1,3.8v0.1h0v8.4c0,1.1,0,2.8-0.1,5.1c0,2.3-0.2,4.6-0.5,7.1
	c-0.3,2.5-0.8,4.8-1.5,7l-1,3.2c0,0,0,0.1,0.1,0.1h203.2c1.1-1,1.7-2.2,2-3.2C205.9,90.5,206.4,88.2,206.7,85.7z"/>
<g>
	<g>
		<path fill="#FFFFFF" d="M32.1,79.1v-0.5c0.5-0.2,0.9-0.4,1.4-0.4V68.1c-0.2,0-0.5-0.1-0.7-0.2c-0.2-0.1-0.5-0.2-0.7-0.2v-0.5h1.8
			c0.2,0,0.4,0,0.6,0c0.2,0,0.4,0,0.6,0c0.2,0,0.4,0,0.7,0c0.2,0,0.5,0,0.8,0c0.5,0,0.9,0,1.4,0.1c0.5,0.1,0.9,0.2,1.3,0.4
			c0.4,0.2,0.7,0.5,0.9,0.9s0.4,0.8,0.4,1.4c0,0.3,0,0.6-0.1,0.9s-0.2,0.6-0.4,0.8c-0.2,0.3-0.4,0.5-0.7,0.7s-0.6,0.3-1,0.4v0.1
			c0.3,0.1,0.7,0.2,1,0.3c0.3,0.1,0.6,0.3,0.9,0.6c0.3,0.2,0.5,0.5,0.6,0.9c0.2,0.3,0.2,0.7,0.2,1.2c0,0.6-0.1,1.1-0.4,1.6
			c-0.3,0.4-0.6,0.8-1.1,1.1c-0.4,0.3-0.9,0.5-1.5,0.6c-0.6,0.1-1.1,0.2-1.7,0.2c-0.4,0-0.8,0-1.3-0.1c-0.5,0-1-0.1-1.4-0.1H32.1z
			 M35.9,72.6c0.2,0,0.4,0,0.7,0c0.3,0,0.5,0,0.7-0.1c0.5-0.2,0.9-0.5,1.3-0.9c0.3-0.4,0.5-0.9,0.5-1.4c0-0.7-0.2-1.3-0.7-1.7
			c-0.4-0.4-1-0.6-1.8-0.6c-0.4,0-0.7,0-0.9,0c-0.3,0-0.5,0-0.6,0.1v4.6H35.9z M36.7,78.3c0.4,0,0.8-0.1,1.1-0.2
			c0.4-0.1,0.7-0.3,0.9-0.5c0.3-0.2,0.5-0.5,0.6-0.8s0.2-0.6,0.2-1c0-0.5-0.1-0.8-0.3-1.1c-0.2-0.3-0.4-0.5-0.7-0.7
			c-0.3-0.2-0.6-0.3-1-0.4c-0.4-0.1-0.8-0.1-1.2-0.1h-1.3v4.7c0.2,0,0.3,0.1,0.6,0.1C35.8,78.3,36.2,78.3,36.7,78.3z"/>
		<path fill="#FFFFFF" d="M45.8,74.1c0.2,0,0.4-0.1,0.6-0.1c0.2,0,0.6-0.1,1-0.1c0.9,0,1.5,0.2,2.1,0.6c0.5,0.4,0.8,1,0.8,1.9
			c0,0.5-0.1,0.9-0.2,1.2c-0.2,0.3-0.4,0.6-0.7,0.9c-0.3,0.2-0.6,0.4-1.1,0.5s-0.9,0.2-1.3,0.2c-0.3,0-0.7,0-1,0c-0.4,0-0.8,0-1.2,0
			h-1.6v-0.4c0.2-0.1,0.4-0.2,0.6-0.3c0.2-0.1,0.4-0.1,0.6-0.2v-6.8c-0.2,0-0.4-0.1-0.6-0.2c-0.2-0.1-0.4-0.2-0.5-0.2v-0.4h3.7v0.4
			c-0.3,0.2-0.6,0.3-1,0.4V74.1z M45.8,78.4c0.1,0,0.3,0,0.4,0c0.1,0,0.3,0,0.5,0c1.3,0,1.9-0.7,1.9-2c0-0.3,0-0.6-0.1-0.8
			c-0.1-0.2-0.2-0.4-0.4-0.5c-0.2-0.1-0.4-0.2-0.6-0.3c-0.2-0.1-0.4-0.1-0.7-0.1c-0.2,0-0.3,0-0.5,0s-0.4,0-0.5,0.1V78.4z
			 M54.5,79.1h-3.7v-0.4c0.2-0.1,0.3-0.2,0.5-0.2c0.2-0.1,0.3-0.1,0.5-0.2v-6.8c-0.4-0.1-0.8-0.2-1-0.4v-0.4h3.7v0.4
			c-0.1,0.1-0.3,0.2-0.5,0.2c-0.2,0.1-0.4,0.1-0.6,0.2v6.8c0.2,0.1,0.4,0.1,0.6,0.2c0.2,0.1,0.4,0.1,0.6,0.2V79.1z"/>
		<path fill="#FFFFFF" d="M56.3,74.7c0-1.5,0.1-2.7,0.4-3.6s0.6-1.8,1.1-2.4c0.5-0.6,1.1-1,1.8-1.3c0.7-0.2,1.6-0.4,2.6-0.4l1.1-0.9
			h0.4c0,0.2,0,0.4-0.1,0.7c0,0.2-0.1,0.5-0.1,0.7c-0.1,0.2-0.1,0.4-0.2,0.6c-0.1,0.2-0.1,0.3-0.1,0.3c-1,0-1.9,0.1-2.7,0.2
			c-0.7,0.1-1.3,0.3-1.8,0.6c-0.5,0.3-0.8,0.8-1.1,1.4c-0.2,0.6-0.4,1.4-0.5,2.4h0.1c0.1-0.3,0.3-0.6,0.6-0.8
			c0.2-0.3,0.5-0.5,0.8-0.7c0.3-0.2,0.6-0.4,1-0.5s0.7-0.2,1-0.2c2.3,0,3.5,1.4,3.5,4.2c0,0.7-0.1,1.3-0.3,1.8
			c-0.2,0.5-0.4,1-0.8,1.4c-0.4,0.4-0.8,0.7-1.3,0.9c-0.5,0.2-1.1,0.3-1.7,0.3c-0.6,0-1.1-0.1-1.6-0.3c-0.5-0.2-0.9-0.5-1.2-0.9
			s-0.6-0.9-0.8-1.5S56.3,75.4,56.3,74.7z M57.9,74.7c0,0.7,0.1,1.3,0.2,1.8c0.1,0.5,0.3,0.9,0.5,1.2c0.2,0.3,0.5,0.5,0.8,0.7
			c0.3,0.1,0.6,0.2,0.9,0.2c0.7,0,1.2-0.3,1.5-0.9s0.5-1.5,0.5-2.6c0-1.2-0.2-2-0.7-2.5c-0.4-0.5-1.1-0.8-1.8-0.8
			c-0.3,0-0.6,0.1-1,0.3c-0.3,0.2-0.6,0.4-0.9,0.7C58.1,73,58,73.3,58,73.6S57.9,74.3,57.9,74.7z"/>
		<path fill="#FFFFFF" d="M69.5,82.5h-3.8v-0.4c0.4-0.2,0.8-0.3,1.1-0.4V71.6l-1.1-0.1V71c0.4-0.2,0.7-0.3,1.1-0.4
			c0.4-0.1,0.8-0.2,1.1-0.2h0.4v1.9h0c0.2-0.6,0.5-1,1-1.4c0.4-0.3,0.9-0.5,1.6-0.5c1,0,1.8,0.3,2.3,1c0.6,0.7,0.8,1.8,0.8,3.3
			c0,0.7-0.1,1.4-0.3,1.9c-0.2,0.6-0.5,1.1-0.8,1.5s-0.8,0.7-1.3,0.9c-0.5,0.2-1,0.3-1.6,0.3c-0.4,0-0.7,0-1-0.1
			c-0.2-0.1-0.5-0.1-0.8-0.3v2.7c0.2,0,0.4,0.1,0.5,0.1c0.2,0.1,0.4,0.2,0.6,0.3V82.5z M70.5,71.5c-0.6,0-1,0.2-1.3,0.5
			c-0.3,0.4-0.6,0.8-0.7,1.4v4.8c0.2,0.1,0.4,0.2,0.7,0.3c0.3,0.1,0.6,0.1,1,0.1c0.4,0,0.7-0.1,1-0.3c0.3-0.2,0.6-0.5,0.8-0.8
			c0.2-0.4,0.4-0.8,0.5-1.2c0.1-0.5,0.2-1,0.2-1.6c0-0.5,0-0.9-0.1-1.3c-0.1-0.4-0.2-0.7-0.4-1s-0.4-0.5-0.6-0.7
			C71.2,71.6,70.8,71.5,70.5,71.5z"/>
		<path fill="#FFFFFF" d="M82.3,76.9c0,0.2,0,0.5,0,0.6c0,0.2,0,0.4,0,0.6l1.2,0.2v0.4c-0.3,0.1-0.6,0.3-0.9,0.4
			c-0.3,0.1-0.7,0.2-1,0.3h-0.4c-0.1-0.3-0.2-0.5-0.2-0.9s0-0.7-0.1-1h-0.1c0,0.2-0.1,0.5-0.3,0.7c-0.1,0.2-0.3,0.4-0.5,0.6
			c-0.2,0.2-0.5,0.3-0.7,0.4s-0.6,0.2-1,0.2c-0.7,0-1.3-0.2-1.7-0.6s-0.7-1-0.7-1.6c0-0.5,0.1-0.9,0.3-1.3s0.5-0.6,0.9-0.8
			c0.4-0.2,0.9-0.3,1.5-0.4s1.3-0.2,2.1-0.2c0-0.5,0.1-0.9,0-1.3c0-0.4-0.1-0.7-0.2-1c-0.1-0.3-0.3-0.5-0.5-0.6
			c-0.2-0.2-0.5-0.2-0.8-0.2c-0.2,0-0.3,0-0.5,0c-0.2,0-0.4,0.1-0.6,0.1l-0.8,2H77c-0.1-0.3-0.2-0.7-0.3-1.1s-0.1-0.7-0.2-1.1
			c0.4-0.3,0.9-0.5,1.4-0.6c0.5-0.1,1.1-0.2,1.8-0.2c0.6,0,1,0.1,1.4,0.2c0.3,0.2,0.6,0.4,0.8,0.6c0.2,0.3,0.3,0.5,0.4,0.9
			s0.1,0.6,0.1,1c0,0.7,0,1.3,0,2S82.3,76.3,82.3,76.9z M79,78.3c0.3,0,0.5-0.1,0.7-0.2c0.2-0.1,0.4-0.3,0.5-0.4
			c0.1-0.2,0.3-0.3,0.4-0.5s0.2-0.3,0.2-0.4V75c-0.7,0-1.2,0-1.6,0.1c-0.4,0.1-0.7,0.2-1,0.3c-0.2,0.1-0.4,0.3-0.5,0.6
			c-0.1,0.2-0.1,0.5-0.1,0.8c0,0.5,0.1,0.9,0.4,1.1C78.2,78.1,78.6,78.3,79,78.3z"/>
		<path fill="#FFFFFF" d="M90.4,79.1h-3.8v-0.4c0.4-0.2,0.7-0.3,1.1-0.4v-6.9h-1.6l-0.7,2H85c-0.1-0.5-0.1-1-0.1-1.4
			s-0.1-0.9-0.1-1.4h7.5c0,0.4,0,0.9-0.1,1.3c0,0.5-0.1,1-0.1,1.5h-0.4l-0.7-2h-1.6v6.9c0.5,0.1,0.9,0.3,1.1,0.4V79.1z"/>
		<path fill="#FFFFFF" d="M96.5,74.1c0.2,0,0.4-0.1,0.6-0.1c0.2,0,0.6-0.1,1-0.1c0.9,0,1.7,0.2,2.2,0.6c0.5,0.4,0.8,1,0.8,1.9
			c0,0.5-0.1,0.9-0.3,1.2c-0.2,0.3-0.4,0.6-0.7,0.9c-0.3,0.2-0.7,0.4-1.1,0.5s-0.9,0.2-1.4,0.2c-0.3,0-0.7,0-1,0c-0.4,0-0.8,0-1.2,0
			h-1.6v-0.4c0.2-0.1,0.4-0.2,0.5-0.2c0.2-0.1,0.4-0.1,0.6-0.2v-6.8c-0.2,0-0.4-0.1-0.6-0.2c-0.2-0.1-0.4-0.1-0.5-0.2v-0.4h3.7v0.4
			c-0.3,0.2-0.6,0.3-1,0.4V74.1z M96.5,78.4c0.1,0,0.3,0,0.4,0c0.1,0,0.3,0,0.5,0c0.7,0,1.2-0.2,1.5-0.5c0.4-0.3,0.6-0.8,0.6-1.5
			c0-0.3-0.1-0.6-0.2-0.8c-0.1-0.2-0.2-0.4-0.4-0.5c-0.2-0.1-0.4-0.2-0.6-0.3s-0.5-0.1-0.7-0.1c-0.2,0-0.4,0-0.6,0
			c-0.2,0-0.4,0-0.5,0.1V78.4z"/>
		<path fill="#FFFFFF" d="M112,70.6h3.3v0.4c-0.1,0.1-0.3,0.2-0.5,0.2c-0.2,0.1-0.4,0.1-0.7,0.2c-0.4,0.5-0.8,0.9-1.2,1.4
			c-0.4,0.5-0.9,1-1.4,1.4c0.2,0.3,0.5,0.6,0.8,0.9c0.3,0.3,0.6,0.7,0.8,1c0.3,0.4,0.6,0.7,0.9,1c0.3,0.3,0.6,0.7,0.8,1l0.8,0.4v0.4
			h-2l-0.5-0.4c-0.5-0.6-1-1.2-1.4-1.8c-0.4-0.6-0.8-1.2-1.3-1.8h-0.7v3.2c0.2,0.1,0.4,0.1,0.6,0.2c0.2,0.1,0.3,0.1,0.5,0.2v0.4
			h-3.8v-0.4c0.3-0.2,0.7-0.3,1.1-0.4v-6.8c-0.4-0.1-0.8-0.2-1.1-0.4v-0.4h3.5v0.4c-0.1,0.1-0.2,0.2-0.4,0.2
			c-0.1,0.1-0.3,0.1-0.5,0.2v3.2l0.8-0.2c0.5-0.5,0.9-1,1.3-1.5c0.4-0.5,0.8-0.9,1.1-1.5c-0.2-0.1-0.4-0.2-0.5-0.2
			c-0.2-0.1-0.3-0.2-0.5-0.2V70.6z"/>
		<path fill="#FFFFFF" d="M124.3,76.6c0,0.5-0.1,0.8-0.3,1.2s-0.5,0.6-0.8,0.8s-0.7,0.4-1.2,0.5c-0.5,0.1-0.9,0.1-1.4,0.1
			c-0.4,0-0.7,0-0.9,0c-0.2,0-0.4,0-0.5,0c-0.1,0-0.3,0-0.4,0c-0.1,0-0.2,0-0.3,0h-1.6v-0.4c0.4-0.2,0.7-0.3,1.1-0.4v-6.8
			c-0.4-0.1-0.8-0.2-1.1-0.4v-0.4h1.5c0.3,0,0.5,0,0.7,0c0.2,0,0.4,0,0.5,0c0.2,0,0.3,0,0.5,0c0.2,0,0.4,0,0.6,0
			c1,0,1.8,0.2,2.3,0.5c0.6,0.3,0.8,0.8,0.8,1.6c0,0.3-0.1,0.5-0.2,0.7c-0.1,0.2-0.3,0.4-0.4,0.6c-0.2,0.2-0.4,0.3-0.6,0.4
			s-0.5,0.2-0.7,0.2c0.3,0,0.6,0.1,0.9,0.2c0.3,0.1,0.5,0.2,0.8,0.4c0.2,0.2,0.4,0.4,0.5,0.6C124.3,76,124.3,76.3,124.3,76.6z
			 M119.4,74.6l1.9-0.2c0.2-0.1,0.4-0.3,0.6-0.6c0.2-0.3,0.3-0.6,0.3-1.1c0-0.6-0.2-0.9-0.5-1.1c-0.3-0.2-0.8-0.3-1.5-0.3
			c-0.1,0-0.3,0-0.4,0c-0.2,0-0.3,0-0.4,0.1V74.6z M119.4,78.4c0.2,0,0.4,0.1,0.6,0.1c0.2,0,0.4,0,0.6,0c0.7,0,1.2-0.1,1.5-0.4
			c0.3-0.3,0.5-0.7,0.5-1.2c0-0.6-0.2-1-0.6-1.3c-0.4-0.3-0.9-0.4-1.5-0.4h-1.1V78.4z"/>
		<path fill="#FFFFFF" d="M132.5,76.9c0,0.2,0,0.5,0,0.6c0,0.2,0,0.4,0,0.6l1.2,0.2v0.4c-0.3,0.1-0.6,0.3-0.9,0.4
			c-0.3,0.1-0.7,0.2-1,0.3h-0.4c-0.1-0.3-0.2-0.5-0.2-0.9s0-0.7-0.1-1H131c0,0.2-0.1,0.5-0.3,0.7c-0.1,0.2-0.3,0.4-0.5,0.6
			c-0.2,0.2-0.5,0.3-0.7,0.4s-0.6,0.2-1,0.2c-0.7,0-1.3-0.2-1.7-0.6s-0.7-1-0.7-1.6c0-0.5,0.1-0.9,0.3-1.3s0.5-0.6,0.9-0.8
			c0.4-0.2,0.9-0.3,1.5-0.4s1.3-0.2,2.1-0.2c0-0.5,0.1-0.9,0-1.3c0-0.4-0.1-0.7-0.2-1c-0.1-0.3-0.3-0.5-0.5-0.6
			c-0.2-0.2-0.5-0.2-0.8-0.2c-0.2,0-0.3,0-0.5,0c-0.2,0-0.4,0.1-0.6,0.1l-0.8,2h-0.4c-0.1-0.3-0.2-0.7-0.3-1.1s-0.1-0.7-0.2-1.1
			c0.4-0.3,0.9-0.5,1.4-0.6c0.5-0.1,1.1-0.2,1.8-0.2c0.6,0,1,0.1,1.4,0.2c0.3,0.2,0.6,0.4,0.8,0.6c0.2,0.3,0.3,0.5,0.4,0.9
			s0.1,0.6,0.1,1c0,0.7,0,1.3,0,2S132.5,76.3,132.5,76.9z M129.2,78.3c0.3,0,0.5-0.1,0.7-0.2c0.2-0.1,0.4-0.3,0.5-0.4
			c0.1-0.2,0.3-0.3,0.4-0.5s0.2-0.3,0.2-0.4V75c-0.7,0-1.2,0-1.6,0.1c-0.4,0.1-0.7,0.2-1,0.3c-0.2,0.1-0.4,0.3-0.5,0.6
			c-0.1,0.2-0.1,0.5-0.1,0.8c0,0.5,0.1,0.9,0.4,1.1C128.4,78.1,128.8,78.3,129.2,78.3z"/>
		<path fill="#FFFFFF" d="M138.8,82.5h-3.8v-0.4c0.4-0.2,0.8-0.3,1.1-0.4V71.6l-1.1-0.1V71c0.4-0.2,0.7-0.3,1.1-0.4
			c0.4-0.1,0.8-0.2,1.1-0.2h0.4v1.9h0c0.2-0.6,0.5-1,1-1.4c0.4-0.3,0.9-0.5,1.6-0.5c1,0,1.8,0.3,2.3,1c0.6,0.7,0.8,1.8,0.8,3.3
			c0,0.7-0.1,1.4-0.3,1.9c-0.2,0.6-0.5,1.1-0.8,1.5s-0.8,0.7-1.3,0.9c-0.5,0.2-1,0.3-1.6,0.3c-0.4,0-0.7,0-1-0.1
			c-0.2-0.1-0.5-0.1-0.8-0.3v2.7c0.2,0,0.4,0.1,0.5,0.1c0.2,0.1,0.4,0.2,0.6,0.3V82.5z M139.7,71.5c-0.6,0-1,0.2-1.3,0.5
			c-0.3,0.4-0.6,0.8-0.7,1.4v4.8c0.2,0.1,0.4,0.2,0.7,0.3c0.3,0.1,0.6,0.1,1,0.1c0.4,0,0.7-0.1,1-0.3c0.3-0.2,0.6-0.5,0.8-0.8
			c0.2-0.4,0.4-0.8,0.5-1.2c0.1-0.5,0.2-1,0.2-1.6c0-0.5,0-0.9-0.1-1.3c-0.1-0.4-0.2-0.7-0.4-1s-0.4-0.5-0.6-0.7
			C140.4,71.6,140.1,71.5,139.7,71.5z"/>
		<path fill="#FFFFFF" d="M150.4,79.1h-3.8v-0.4c0.4-0.2,0.7-0.3,1.1-0.4v-6.9h-1.6l-0.7,2H145c-0.1-0.5-0.1-1-0.1-1.4
			s-0.1-0.9-0.1-1.4h7.5c0,0.4,0,0.9-0.1,1.3c0,0.5-0.1,1-0.1,1.5h-0.4l-0.7-2h-1.6v6.9c0.5,0.1,0.9,0.3,1.1,0.4V79.1z"/>
		<path fill="#FFFFFF" d="M153.8,70.6h3.6v0.4c-0.1,0.1-0.3,0.1-0.4,0.2c-0.2,0.1-0.4,0.1-0.6,0.2v4.7l-0.2,1.6h0.1l0.7-1.3l3.6-5.8
			h2.3v0.4c-0.4,0.2-0.7,0.3-1.1,0.4v6.8c0.2,0.1,0.4,0.1,0.6,0.2c0.2,0.1,0.4,0.1,0.5,0.2v0.4h-3.6v-0.4c0.3-0.2,0.7-0.3,1-0.4
			v-4.9l0.2-1.3h-0.1l-0.6,1.3l-3.6,5.8h-2.3v-0.4c0.2-0.1,0.4-0.2,0.6-0.2c0.2-0.1,0.4-0.1,0.6-0.2v-6.8c-0.4-0.1-0.8-0.2-1.1-0.4
			V70.6z"/>
		<path fill="#FFFFFF" d="M168.3,82.5h-3.8v-0.4c0.4-0.2,0.8-0.3,1.1-0.4V71.6l-1.1-0.1V71c0.4-0.2,0.7-0.3,1.1-0.4
			c0.4-0.1,0.8-0.2,1.1-0.2h0.4v1.9h0c0.2-0.6,0.5-1,1-1.4c0.4-0.3,0.9-0.5,1.6-0.5c1,0,1.8,0.3,2.3,1c0.6,0.7,0.8,1.8,0.8,3.3
			c0,0.7-0.1,1.4-0.3,1.9c-0.2,0.6-0.5,1.1-0.8,1.5s-0.8,0.7-1.3,0.9c-0.5,0.2-1,0.3-1.6,0.3c-0.4,0-0.7,0-1-0.1
			c-0.2-0.1-0.5-0.1-0.8-0.3v2.7c0.2,0,0.4,0.1,0.5,0.1c0.2,0.1,0.4,0.2,0.6,0.3V82.5z M169.2,71.5c-0.6,0-1,0.2-1.3,0.5
			c-0.3,0.4-0.6,0.8-0.7,1.4v4.8c0.2,0.1,0.4,0.2,0.7,0.3c0.3,0.1,0.6,0.1,1,0.1c0.4,0,0.7-0.1,1-0.3c0.3-0.2,0.6-0.5,0.8-0.8
			c0.2-0.4,0.4-0.8,0.5-1.2c0.1-0.5,0.2-1,0.2-1.6c0-0.5,0-0.9-0.1-1.3c-0.1-0.4-0.2-0.7-0.4-1s-0.4-0.5-0.6-0.7
			C169.9,71.6,169.6,71.5,169.2,71.5z"/>
		<path fill="#FFFFFF" d="M174.5,71.5c-0.2,0-0.3-0.1-0.5-0.2c-0.1-0.1-0.3-0.1-0.4-0.2v-0.4h3.6v0.4c-0.2,0.2-0.6,0.3-1,0.4l2.2,5
			l0.3,1.1h0l0.3-1.1l1.6-5c-0.3-0.1-0.7-0.2-0.9-0.4v-0.4h2.9v0.4c-0.2,0.2-0.6,0.3-1,0.4l-2.7,7.7c-0.3,0.7-0.5,1.3-0.8,1.8
			c-0.2,0.4-0.5,0.8-0.7,1.1c-0.2,0.3-0.5,0.5-0.7,0.6s-0.5,0.2-0.8,0.3c-0.1-0.2-0.2-0.5-0.3-0.7c-0.1-0.3-0.2-0.5-0.2-0.7l0.2-0.4
			h1.8c0.1-0.1,0.1-0.2,0.2-0.3c0.1-0.1,0.1-0.2,0.2-0.3s0.1-0.3,0.2-0.5c0.1-0.2,0.1-0.4,0.2-0.7L174.5,71.5z"/>
	</g>
	<g>
		<g>
			<g>
				<path fill="#FFFFFF" d="M98.2,39.9v4.8h-4.9v-4.8H98.2 M98.9,37.4h-6.4c-1,0-1.8,0.8-1.8,1.8v6.3c0,1,0.8,1.8,1.8,1.8h6.4
					c1,0,1.8-0.8,1.8-1.8v-6.3C100.7,38.1,99.9,37.4,98.9,37.4L98.9,37.4z"/>
			</g>
			<g>
				<path fill="#FFFFFF" d="M121.2,29.1v15.6h-5.1h-0.5h-8.2v-4.8h6.5h2.5v-2.5v-8.2H121.2 M122,26.6h-6.3c-1,0-1.8,0.8-1.8,1.8v9
					h-7.2c-1,0-1.8,0.8-1.8,1.8v6.3c0,1,0.8,1.8,1.8,1.8h9h0.5h5.8c1,0,1.8-0.8,1.8-1.8v-17C123.7,27.4,123,26.6,122,26.6L122,26.6z
					"/>
			</g>
		</g>
		<g>
			<g>
				<path fill="#80C228" d="M107.5,26v4.8H93.2V26H107.5 M108.2,23.5H92.5c-1,0-1.8,0.8-1.8,1.8v6.3c0,1,0.8,1.8,1.8,1.8h15.7
					c1,0,1.8-0.8,1.8-1.8v-6.3C110,24.2,109.2,23.5,108.2,23.5L108.2,23.5z"/>
			</g>
		</g>
	</g>
</g>
</svg>
