<svg xmlns="http://www.w3.org/2000/svg" xmlns:xlink="http://www.w3.org/1999/xlink" preserveAspectRatio="xMidYMid" width="1000" height="1000" viewBox="0 0 1000 1000">
  <defs>
    <style>
      .cls-1, .cls-5 {
        fill: #fff;
      }

      .cls-1, .cls-2, .cls-3, .cls-4, .cls-6, .cls-7 {
        fill-rule: evenodd;
      }

      .cls-2 {
        fill: #e61457;
      }

      .cls-3 {
        fill: #ee2660;
      }

      .cls-4 {
        fill: #3a3a3a;
      }

      .cls-6 {
        fill: #242122;
      }

      .cls-7 {
        fill: #a28989;
      }
    </style>
  </defs>
  <g>
    <path d="M874.273,46.423 C874.600,46.850 875.009,46.990 875.501,46.839 L878.717,45.988 C879.227,47.701 880.035,49.268 881.141,50.688 C882.247,52.107 883.570,53.264 885.112,54.157 C886.748,55.105 888.494,55.690 890.353,55.911 C892.211,56.132 893.992,56.013 895.695,55.555 C897.399,55.096 899.000,54.305 900.499,53.181 C901.998,52.057 903.220,50.674 904.165,49.032 C905.109,47.391 905.691,45.637 905.911,43.771 C906.131,41.905 906.013,40.118 905.556,38.408 C905.100,36.698 904.312,35.090 903.192,33.585 C902.073,32.080 900.695,30.853 899.059,29.905 C897.256,28.860 895.322,28.248 893.258,28.069 C891.194,27.890 889.191,28.164 887.249,28.891 C887.104,28.948 886.997,29.043 886.927,29.178 C886.856,29.312 886.844,29.449 886.890,29.588 L887.791,33.016 C887.852,33.178 887.956,33.301 888.103,33.386 C888.283,33.462 888.440,33.468 888.574,33.406 C889.914,32.849 891.297,32.620 892.724,32.716 C894.150,32.813 895.487,33.223 896.734,33.947 C897.825,34.579 898.743,35.395 899.489,36.396 C900.234,37.396 900.760,38.469 901.066,39.615 C901.371,40.760 901.451,41.954 901.303,43.195 C901.156,44.435 900.768,45.603 900.138,46.698 C899.508,47.793 898.695,48.714 897.698,49.463 C896.702,50.211 895.633,50.739 894.492,51.046 C893.351,51.353 892.162,51.433 890.926,51.285 C889.690,51.137 888.526,50.747 887.436,50.115 C885.328,48.893 883.913,47.112 883.191,44.770 L886.615,43.850 C887.122,43.722 887.404,43.401 887.462,42.888 C887.525,42.363 887.337,41.974 886.896,41.718 L879.851,37.634 C879.578,37.476 879.285,37.440 878.970,37.524 C878.656,37.609 878.420,37.788 878.263,38.061 L874.195,45.135 C873.941,45.577 873.966,46.006 874.273,46.423 Z" class="cls-1"/>
    <path d="M638.132,108.840 L641.011,105.983 L638.132,103.126 L625.090,90.177 C624.809,89.898 624.353,89.898 624.072,90.177 L622.211,92.024 C622.076,92.158 622.000,92.340 622.000,92.530 C622.000,92.719 622.076,92.901 622.211,93.035 L635.254,105.983 L622.211,118.932 C622.076,119.066 622.000,119.248 622.000,119.437 C622.000,119.627 622.076,119.809 622.211,119.943 L624.072,121.790 C624.353,122.068 624.809,122.068 625.090,121.790 L638.132,108.840 Z" class="cls-1"/>
    <path d="M687.868,108.840 L684.989,105.983 L687.868,103.126 L700.910,90.177 C701.191,89.898 701.647,89.898 701.928,90.177 L703.789,92.024 C703.924,92.158 704.000,92.340 704.000,92.530 C704.000,92.719 703.924,92.901 703.789,93.035 L690.746,105.983 L703.789,118.932 C703.924,119.066 704.000,119.248 704.000,119.437 C704.000,119.627 703.924,119.809 703.789,119.943 L701.928,121.790 C701.647,122.068 701.191,122.068 700.910,121.790 L687.868,108.840 Z" class="cls-1"/>
    <path d="M461.037,114.991 C447.590,115.465 436.418,126.015 435.128,139.481 C434.864,142.174 435.017,144.784 435.488,147.282 L435.488,147.282 C435.488,147.282 435.530,147.575 435.669,148.133 C436.085,150.003 436.710,151.817 437.487,153.519 C440.193,159.966 446.451,170.753 460.495,182.489 C461.356,183.215 462.619,183.215 463.493,182.489 C477.537,170.767 483.796,159.980 486.516,153.505 C487.307,151.803 487.917,150.003 488.334,148.119 C488.458,147.575 488.514,147.268 488.514,147.268 L488.514,147.268 C488.833,145.593 489.000,143.877 489.000,142.119 C489.000,126.796 476.385,114.447 461.037,114.991 Z" class="cls-2"/>
    <path d="M92.745,10.000 L92.745,10.000 L92.745,133.150 L9.992,133.150 L92.745,10.000 Z" class="cls-3"/>
    <path d="M319.832,34.520 L310.573,25.091 L314.430,21.164 L319.832,26.665 L335.143,11.000 L339.000,14.927 L319.832,34.520 ZM308.454,13.700 L308.454,38.446 L332.756,38.446 L332.756,26.596 L336.210,23.042 L336.210,42.000 L305.000,42.000 L305.000,10.145 L330.876,10.145 L327.422,13.700 L308.454,13.700 Z" class="cls-1"/>
    <path d="M288.000,108.733 L277.456,108.733 C277.380,103.166 275.209,97.943 271.321,93.998 C267.514,90.136 262.502,87.943 257.145,87.780 L257.145,75.000 L249.934,88.828 C246.856,89.854 244.036,91.606 241.679,93.998 C237.791,97.943 235.620,103.166 235.544,108.733 L225.000,108.733 L225.000,109.340 L235.544,109.340 C235.620,114.908 237.791,120.130 241.679,124.075 C245.537,127.990 250.634,130.190 256.072,130.299 L256.072,141.000 L256.928,141.000 L256.928,130.299 C262.366,130.190 267.463,127.990 271.321,124.075 C275.209,120.130 277.380,114.908 277.456,109.340 L288.000,109.340 L288.000,108.733 ZM256.928,108.718 L257.145,108.718 L257.145,88.648 C267.834,88.992 276.443,97.842 276.600,108.733 M236.399,108.733 C236.523,100.175 241.865,92.878 249.335,89.977 L239.561,108.718 M236.399,109.340 L256.072,109.340 L256.072,129.431 C245.283,129.201 236.558,120.305 236.399,109.340 ZM256.928,129.431 L256.928,109.340 L276.600,109.340 C276.442,120.305 267.717,129.201 256.928,129.431 Z" class="cls-1"/>
    <path d="M373.970,10.003 L388.008,23.995 L373.970,37.987 L369.988,34.018 L380.044,23.995 L369.988,13.973 L373.970,10.003 Z" class="cls-4"/>
    <path d="M323.853,91.000 L336.790,78.065 C337.068,77.786 337.068,77.334 336.790,77.055 L334.945,75.209 C334.811,75.076 334.629,75.000 334.440,75.000 C334.250,75.000 334.068,75.076 333.935,75.209 L320.999,88.145 L308.063,75.209 C307.795,74.941 307.320,74.942 307.053,75.209 L305.208,77.055 C304.930,77.334 304.930,77.786 305.208,78.065 L318.144,91.000 L305.208,103.936 C304.930,104.215 304.930,104.666 305.208,104.945 L307.053,106.791 C307.187,106.924 307.369,107.000 307.558,107.000 C307.748,107.000 307.929,106.924 308.063,106.791 L320.999,93.855 L333.935,106.791 C334.069,106.924 334.251,107.000 334.440,107.000 C334.629,107.000 334.811,106.924 334.945,106.791 L336.790,104.945 C337.068,104.666 337.068,104.215 336.790,103.936 L323.853,91.000 Z" class="cls-1"/>
    <path d="M362.000,250.271 L357.018,250.271 L351.196,240.866 L345.404,250.271 L340.671,250.271 L348.519,238.631 L341.170,227.997 L346.119,227.997 L351.322,236.239 L356.458,227.997 L361.221,227.997 L353.997,238.631 L362.000,250.271 ZM331.798,245.175 L322.239,245.175 L320.247,250.273 L315.857,250.273 L325.447,227.997 L328.841,227.997 L338.337,250.273 L333.854,250.273 L331.798,245.175 ZM327.035,232.716 L323.578,241.778 L330.429,241.778 L327.035,232.716 ZM310.106,176.340 L317.254,183.559 C320.231,186.568 321.796,190.639 321.656,195.012 C321.522,199.357 319.722,203.493 316.596,206.651 C313.468,209.811 309.373,211.629 305.074,211.765 C304.902,211.772 304.728,211.776 304.560,211.776 C300.417,211.776 296.601,210.203 293.744,207.316 L269.915,183.241 C263.798,177.057 264.096,166.702 270.576,160.151 C277.052,153.599 287.304,153.300 293.425,159.482 L296.418,162.504 L294.352,164.592 L291.360,161.569 C286.379,156.538 277.986,156.839 272.641,162.236 C267.301,167.637 267.009,176.121 271.981,181.152 L295.812,205.226 C298.210,207.649 301.429,208.987 304.985,208.813 C308.539,208.701 311.927,207.187 314.531,204.561 C317.134,201.933 318.625,198.512 318.737,194.923 C318.848,191.368 317.589,188.070 315.189,185.647 L308.037,178.427 C305.074,175.426 303.574,175.381 300.757,178.227 L290.998,188.096 L288.932,186.001 L298.693,176.141 C302.681,172.116 305.982,172.174 310.106,176.340 ZM299.403,201.920 C302.482,205.041 307.705,204.383 311.029,201.024 C312.651,199.391 313.582,197.250 313.655,195.012 C313.723,192.808 313.144,190.568 311.667,189.066 L306.392,183.735 C304.602,181.927 303.932,181.958 302.095,183.814 L294.398,191.575 L292.332,189.487 L300.233,181.520 C303.607,178.112 304.895,178.046 308.460,181.649 L313.732,186.977 C315.793,189.057 316.672,192.081 316.578,195.107 C316.481,198.097 315.249,200.942 313.102,203.112 C310.781,205.447 307.770,207.085 304.814,207.085 C302.067,207.085 299.372,206.072 297.333,204.011 L273.614,180.041 C269.392,175.773 269.584,168.167 274.052,163.655 C278.514,159.148 285.757,158.773 289.981,163.045 L292.935,166.034 L290.869,168.125 L287.912,165.133 C284.819,162.012 279.436,162.385 276.117,165.744 C272.789,169.104 272.595,174.833 275.684,177.950 L299.403,201.920 ZM304.652,216.799 C299.546,216.799 294.539,214.913 290.766,211.094 L266.179,186.259 C258.322,178.312 258.715,165.007 267.047,156.587 C275.382,148.168 288.556,147.772 296.410,155.709 L299.745,159.078 L297.680,161.165 L294.344,157.796 C287.626,151.013 276.309,151.409 269.112,158.675 C261.918,165.940 261.534,177.381 268.248,184.170 L292.832,209.003 C299.546,215.791 310.856,215.404 318.057,208.139 C325.253,200.866 325.647,189.424 318.924,182.638 L309.537,173.151 C308.331,171.928 306.479,171.123 304.587,171.005 C302.498,170.871 300.672,171.539 299.335,172.887 L287.641,184.700 L285.574,182.613 L297.265,170.796 C299.208,168.842 301.885,167.860 304.773,168.056 C307.399,168.227 309.885,169.320 311.608,171.064 L320.993,180.544 C328.850,188.488 328.467,201.802 320.122,210.226 C315.797,214.596 310.166,216.799 304.652,216.799 ZM264.846,250.273 L251.551,250.273 L251.551,227.997 L255.474,227.997 L255.474,246.686 L264.846,246.686 L264.846,250.273 ZM246.953,268.808 L244.210,268.808 L244.210,261.375 L247.109,261.375 C249.043,261.375 250.850,262.571 250.850,265.093 C250.850,267.633 248.721,268.808 246.953,268.808 ZM246.714,262.571 L245.520,262.571 L245.520,267.612 L246.496,267.612 C248.138,267.612 249.480,266.898 249.480,265.093 C249.480,263.286 248.315,262.571 246.714,262.571 ZM225.000,239.228 C225.000,232.088 229.858,227.430 236.645,227.430 C240.008,227.430 243.028,228.154 245.333,230.231 L242.437,233.188 C241.036,231.804 238.887,231.017 236.677,231.017 C232.131,231.017 229.110,234.541 229.110,238.976 C229.110,243.727 232.131,247.252 236.677,247.252 C238.668,247.252 240.476,246.873 241.845,246.088 L241.845,240.833 L237.330,240.833 L237.330,237.246 L245.768,237.246 L245.768,248.636 C243.091,250.084 240.040,250.837 236.645,250.837 C229.858,250.837 225.000,246.183 225.000,239.228 ZM259.125,262.571 L255.561,262.571 L255.561,264.398 L258.937,264.398 L258.937,265.596 L255.561,265.596 L255.561,267.612 L259.310,267.612 L259.310,268.808 L254.251,268.808 L254.251,261.375 L259.125,261.375 L259.125,262.571 ZM265.543,266.992 L267.612,261.375 L269.026,261.375 L266.054,268.808 L264.922,268.808 L262.033,261.375 L263.540,261.375 L265.543,266.992 ZM281.124,205.021 L273.534,212.690 L271.469,210.602 L279.059,202.935 L281.124,205.021 ZM264.690,203.715 L272.278,196.047 L274.344,198.133 L266.758,205.802 L264.690,203.715 ZM277.702,201.522 L270.117,209.194 L268.051,207.108 L275.636,199.432 L277.702,201.522 ZM279.055,227.430 C285.937,227.306 290.794,231.961 290.794,239.103 C290.794,246.055 285.937,250.712 279.055,250.837 C272.269,250.837 267.409,246.183 267.409,239.228 C267.409,232.088 272.269,227.430 279.055,227.430 ZM279.087,247.252 C283.665,247.252 286.684,243.727 286.684,238.976 C286.684,234.541 283.665,231.017 279.087,231.017 C274.541,231.017 271.520,234.541 271.520,238.976 C271.520,243.727 274.541,247.252 279.087,247.252 ZM276.894,262.571 L273.329,262.571 L273.329,264.398 L276.706,264.398 L276.706,265.596 L273.329,265.596 L273.329,267.612 L277.079,267.612 L277.079,268.808 L272.019,268.808 L272.019,261.375 L276.894,261.375 L276.894,262.571 ZM281.846,267.612 L284.973,267.612 L284.973,268.808 L280.536,268.808 L280.536,261.375 L281.846,261.375 L281.846,267.612 ZM291.398,261.186 C293.694,261.143 295.316,262.697 295.316,265.081 C295.316,267.400 293.694,268.956 291.398,268.998 C289.133,268.998 287.511,267.442 287.511,265.123 C287.511,262.739 289.133,261.186 291.398,261.186 ZM291.410,267.801 C292.936,267.801 293.942,266.624 293.942,265.039 C293.942,263.558 292.936,262.382 291.410,262.382 C289.892,262.382 288.882,263.558 288.882,265.039 C288.882,266.624 289.892,267.801 291.410,267.801 ZM311.689,234.385 C311.689,237.593 309.853,239.953 306.583,240.425 L312.437,250.273 L307.703,250.273 L302.597,240.833 L299.733,240.833 L299.733,250.273 L295.810,250.273 L295.810,227.998 L303.469,227.998 C307.703,227.998 311.689,229.382 311.689,234.385 ZM299.733,231.396 L299.733,237.437 L302.784,237.437 C304.995,237.437 307.579,237.248 307.579,234.353 C307.579,231.711 305.151,231.396 303.126,231.396 L299.733,231.396 ZM303.919,263.526 C303.919,265.396 302.537,265.733 300.978,265.733 L300.043,265.733 L300.043,268.808 L298.734,268.808 L298.734,261.375 L301.208,261.375 C302.631,261.375 303.919,261.880 303.919,263.526 ZM300.043,262.509 L300.043,264.598 L300.832,264.598 C301.580,264.598 302.546,264.556 302.546,263.548 C302.546,262.635 301.684,262.509 300.978,262.509 L300.043,262.509 ZM311.083,266.582 L313.069,261.375 L315.042,261.375 L315.042,268.808 L313.796,268.808 L313.796,262.635 L313.776,262.635 L311.541,268.808 L310.627,268.808 L308.392,262.635 L308.372,262.635 L308.372,268.808 L307.125,268.808 L307.125,261.375 L309.120,261.375 L311.083,266.582 ZM323.738,262.571 L320.173,262.571 L320.173,264.398 L323.550,264.398 L323.550,265.596 L320.173,265.596 L320.173,267.612 L323.923,267.612 L323.923,268.808 L318.863,268.808 L318.863,261.375 L323.738,261.375 L323.738,262.571 ZM332.679,266.898 L332.700,266.898 L332.700,261.375 L334.009,261.375 L334.009,268.808 L332.346,268.808 L328.710,263.107 L328.689,263.107 L328.689,268.808 L327.379,268.808 L327.379,261.375 L329.115,261.375 L332.679,266.898 ZM342.881,262.571 L340.626,262.571 L340.626,268.808 L339.316,268.808 L339.316,262.571 L337.061,262.571 L337.061,261.375 L342.881,261.375 L342.881,262.571 Z" class="cls-1"/>
    <path d="M404.635,116.674 C403.124,120.246 400.962,123.453 398.207,126.207 C395.453,128.961 392.246,131.124 388.674,132.635 C384.976,134.199 381.049,134.992 377.000,134.992 C372.951,134.992 369.024,134.199 365.326,132.635 C361.754,131.124 358.547,128.961 355.793,126.207 C353.039,123.453 350.876,120.246 349.366,116.674 C347.801,112.976 347.008,109.049 347.008,105.000 C347.008,100.951 347.801,97.024 349.366,93.326 C350.876,89.754 353.039,86.547 355.793,83.793 C358.547,81.038 361.754,78.876 365.326,77.365 C369.024,75.801 372.951,75.008 377.000,75.008 C381.049,75.008 384.976,75.801 388.674,77.365 C392.246,78.876 395.453,81.038 398.207,83.793 C400.962,86.547 403.124,89.754 404.635,93.326 C406.199,97.024 406.992,100.951 406.992,105.000 C406.992,109.049 406.199,112.976 404.635,116.674 ZM403.247,93.912 C401.813,90.520 399.759,87.474 397.142,84.858 C394.526,82.241 391.480,80.187 388.088,78.753 C384.576,77.268 380.846,76.515 377.000,76.515 C373.154,76.515 369.424,77.268 365.913,78.753 C362.520,80.187 359.474,82.241 356.858,84.858 C354.242,87.474 352.188,90.520 350.753,93.912 C349.268,97.424 348.515,101.154 348.515,105.000 C348.515,108.846 349.268,112.576 350.753,116.088 C352.188,119.479 354.242,122.526 356.858,125.142 C359.474,127.758 362.520,129.813 365.913,131.247 C369.424,132.732 373.154,133.485 377.000,133.485 C380.846,133.485 384.576,132.732 388.088,131.247 C391.480,129.813 394.526,127.758 397.142,125.142 C399.759,122.526 401.813,119.479 403.247,116.088 C404.732,112.576 405.485,108.846 405.485,105.000 C405.485,101.154 404.732,97.424 403.247,93.912 ZM387.006,121.636 L367.669,121.636 C366.244,121.636 365.085,120.479 365.085,119.057 L365.085,113.252 L359.925,113.252 C358.858,113.252 357.991,112.385 357.991,111.319 L357.991,101.643 C357.991,100.577 358.858,99.710 359.925,99.710 L365.085,99.710 L365.085,90.685 C365.085,89.261 366.244,88.102 367.669,88.102 L380.402,88.102 C380.578,88.102 380.745,88.173 380.867,88.300 L389.410,97.177 C389.526,97.297 389.590,97.457 389.590,97.624 L389.590,119.059 C389.590,120.480 388.431,121.636 387.006,121.636 ZM359.925,101.000 C359.570,101.000 359.281,101.288 359.281,101.643 L359.281,111.319 C359.281,111.674 359.570,111.963 359.925,111.963 L377.339,111.963 C377.694,111.963 377.982,111.674 377.982,111.319 L377.982,101.643 C377.982,101.288 377.694,101.000 377.339,101.000 L359.925,101.000 ZM380.562,89.843 L380.562,97.130 L387.575,97.130 L380.562,89.843 ZM388.301,98.420 L379.917,98.420 C379.561,98.420 379.272,98.131 379.272,97.775 L379.272,89.392 L367.669,89.392 C366.955,89.392 366.375,89.972 366.375,90.685 L366.375,99.710 L377.339,99.710 C378.405,99.710 379.272,100.577 379.272,101.643 L379.272,111.319 C379.272,112.385 378.405,113.252 377.339,113.252 L366.375,113.252 L366.375,119.057 C366.375,119.768 366.955,120.346 367.669,120.346 L387.006,120.346 C387.720,120.346 388.301,119.769 388.301,119.059 L388.301,98.420 ZM373.655,106.092 L375.967,106.092 L375.967,107.029 L373.655,107.029 L373.655,109.383 L372.536,109.383 L372.536,103.844 L376.334,103.844 L376.334,104.781 L373.655,104.781 L373.655,106.092 ZM370.817,108.824 C370.623,109.013 370.361,109.160 370.031,109.266 C369.784,109.344 369.454,109.383 369.041,109.383 L366.936,109.383 L366.936,103.844 L368.981,103.844 C369.442,103.844 369.793,103.879 370.035,103.950 C370.360,104.045 370.638,104.215 370.870,104.460 C371.102,104.704 371.278,105.003 371.399,105.357 C371.520,105.711 371.580,106.147 371.580,106.666 C371.580,107.122 371.524,107.515 371.410,107.845 C371.272,108.248 371.074,108.574 370.817,108.824 ZM370.311,105.631 C370.235,105.402 370.129,105.223 369.993,105.094 C369.857,104.966 369.685,104.879 369.476,104.834 C369.319,104.798 369.013,104.781 368.557,104.781 L368.055,104.781 L368.055,108.450 L368.890,108.450 C369.202,108.450 369.428,108.432 369.566,108.397 C369.748,108.352 369.898,108.275 370.018,108.166 C370.138,108.058 370.235,107.880 370.311,107.632 C370.386,107.384 370.424,107.045 370.424,106.617 C370.424,106.189 370.386,105.860 370.311,105.631 ZM365.367,106.952 C365.176,107.084 364.983,107.171 364.786,107.214 C364.519,107.267 364.133,107.294 363.626,107.294 L362.897,107.294 L362.897,109.383 L361.779,109.383 L361.779,103.844 L363.573,103.844 C364.254,103.844 364.697,103.871 364.904,103.927 C365.221,104.010 365.487,104.191 365.701,104.469 C365.915,104.747 366.022,105.107 366.022,105.548 C366.022,105.888 365.960,106.174 365.837,106.406 C365.714,106.637 365.557,106.819 365.367,106.952 ZM364.692,105.064 C364.574,104.933 364.424,104.851 364.242,104.819 C364.109,104.793 363.841,104.781 363.437,104.781 L362.897,104.781 L362.897,106.353 L363.509,106.353 C363.950,106.353 364.245,106.324 364.393,106.266 C364.542,106.208 364.659,106.117 364.743,105.994 C364.827,105.870 364.870,105.727 364.870,105.563 C364.870,105.361 364.810,105.195 364.692,105.064 Z" class="cls-1"/>
    <path d="M467.305,10.020 C450.620,10.606 436.760,23.626 435.158,40.245 C434.831,43.569 435.020,46.790 435.606,49.873 L435.606,49.873 C435.606,49.873 435.658,50.235 435.830,50.923 C436.346,53.231 437.121,55.470 438.085,57.571 C441.443,65.528 449.208,78.841 466.633,93.325 C467.701,94.221 469.268,94.221 470.352,93.325 C487.777,78.858 495.543,65.545 498.918,57.554 C499.899,55.453 500.657,53.231 501.173,50.906 C501.328,50.235 501.397,49.856 501.397,49.856 L501.397,49.856 C501.793,47.789 502.000,45.671 502.000,43.500 C502.000,24.590 486.348,9.348 467.305,10.020 Z" class="cls-2"/>
    <path d="M408.983,9.995 C401.761,10.246 395.762,15.827 395.069,22.951 C394.927,24.376 395.009,25.756 395.262,27.078 L395.262,27.078 C395.262,27.078 395.285,27.233 395.359,27.528 C395.583,28.517 395.918,29.477 396.335,30.378 C397.789,33.788 401.150,39.495 408.692,45.703 C409.154,46.087 409.832,46.087 410.302,45.703 C417.844,39.502 421.205,33.796 422.666,30.370 C423.091,29.470 423.419,28.517 423.642,27.521 C423.709,27.233 423.739,27.070 423.739,27.070 L423.739,27.070 C423.910,26.185 424.000,25.277 424.000,24.346 C424.000,16.241 417.225,9.707 408.983,9.995 Z" class="cls-2"/>
    <circle cx="409.5" cy="24.5" r="5.5" class="cls-5"/>
    <path d="M474.893,25.985 L474.893,25.985 L474.893,56.971 L454.871,56.971 L474.893,25.985 Z" class="cls-1"/>
    <path d="M523.876,9.994 C515.160,10.308 507.919,17.284 507.083,26.189 C506.912,27.970 507.011,29.695 507.317,31.347 L507.317,31.347 C507.317,31.347 507.344,31.541 507.433,31.910 C507.703,33.147 508.108,34.346 508.612,35.472 C510.366,39.735 514.422,46.868 523.525,54.629 C524.083,55.109 524.901,55.109 525.468,54.629 C534.570,46.878 538.627,39.744 540.390,35.463 C540.903,34.337 541.298,33.147 541.568,31.901 C541.649,31.541 541.685,31.338 541.685,31.338 L541.685,31.338 C541.892,30.231 542.000,29.096 542.000,27.933 C542.000,17.801 533.824,9.634 523.876,9.994 Z" class="cls-6"/>
    <path d="M567.876,9.994 C559.160,10.308 551.919,17.284 551.083,26.189 C550.912,27.970 551.011,29.695 551.317,31.347 L551.317,31.347 C551.317,31.347 551.344,31.541 551.433,31.910 C551.703,33.147 552.108,34.346 552.612,35.472 C554.366,39.735 558.422,46.868 567.525,54.629 C568.082,55.109 568.901,55.109 569.468,54.629 C578.570,46.878 582.627,39.744 584.390,35.463 C584.902,34.337 585.298,33.147 585.568,31.901 C585.649,31.541 585.685,31.338 585.685,31.338 L585.685,31.338 C585.892,30.231 586.000,29.096 586.000,27.933 C586.000,17.801 577.824,9.634 567.876,9.994 Z" class="cls-7"/>
    <path d="M578.848,25.426 C566.792,30.224 571.675,17.310 562.325,24.108 L560.370,24.807 L564.243,39.946 L566.376,39.946 L564.479,32.531 C572.822,25.578 569.444,40.107 579.313,25.851 C579.542,25.521 579.235,25.272 578.848,25.426 Z" class="cls-1"/>
    <path d="M632.853,33.000 L629.999,30.145 L627.144,33.000 L614.208,45.936 C613.930,46.215 613.930,46.666 614.208,46.945 L616.053,48.791 C616.187,48.924 616.369,49.000 616.558,49.000 C616.748,49.000 616.929,48.924 617.063,48.791 L629.999,35.855 L642.935,48.791 C643.069,48.924 643.251,49.000 643.440,49.000 C643.629,49.000 643.811,48.924 643.945,48.791 L645.790,46.945 C646.068,46.666 646.068,46.215 645.790,45.936 L632.853,33.000 Z" class="cls-1"/>
    <path d="M836.547,50.931 L832.043,46.413 L842.528,35.886 L847.000,40.404 L836.547,50.931 ZM834.728,51.951 L829.358,53.625 L830.995,48.206 L834.728,51.951 ZM826.332,56.653 L835.752,54.613 L838.866,51.489 L838.866,60.000 L809.000,60.000 L809.000,21.000 L828.866,21.000 L828.866,29.949 C828.866,30.507 829.327,30.969 829.882,30.969 L838.826,30.969 L838.826,36.723 L829.541,46.038 L826.332,56.653 ZM825.990,26.762 L813.528,26.762 C812.979,26.762 812.511,27.224 812.511,27.782 C812.511,28.339 812.972,28.802 813.528,28.802 L825.990,28.802 C826.546,28.802 827.007,28.339 827.007,27.782 C827.007,27.224 826.546,26.762 825.990,26.762 ZM825.990,32.914 L813.528,32.914 C812.979,32.914 812.511,33.352 812.511,33.934 C812.511,34.491 812.972,34.954 813.528,34.954 L825.990,34.954 C826.546,34.954 827.007,34.491 827.007,33.934 C827.007,33.376 826.546,32.914 825.990,32.914 ZM825.990,39.018 L813.528,39.018 C812.972,39.018 812.511,39.480 812.511,40.038 C812.511,40.596 812.972,41.058 813.528,41.058 L825.990,41.058 C826.546,41.058 827.007,40.596 827.007,40.038 C827.007,39.480 826.546,39.018 825.990,39.018 ZM830.899,23.446 L836.388,28.953 L830.899,28.953 L830.899,23.446 Z" class="cls-1"/>
    <path d="M761.586,58.000 L761.586,41.586 L778.000,41.586 L778.000,58.000 L761.586,58.000 ZM773.310,46.862 L766.276,46.862 C765.629,46.862 765.103,47.387 765.103,48.034 C765.103,48.682 765.629,49.207 766.276,49.207 L773.310,49.207 C773.958,49.207 774.483,48.682 774.483,48.034 C774.483,47.387 773.958,46.862 773.310,46.862 ZM773.310,50.379 L766.276,50.379 C765.629,50.379 765.103,50.905 765.103,51.552 C765.103,52.199 765.629,52.724 766.276,52.724 L773.310,52.724 C773.958,52.724 774.483,52.199 774.483,51.552 C774.483,50.905 773.958,50.379 773.310,50.379 ZM761.586,24.000 L778.000,24.000 L778.000,40.414 L761.586,40.414 L761.586,24.000 ZM766.276,33.379 L773.310,33.379 C773.958,33.379 774.483,32.854 774.483,32.207 C774.483,31.560 773.958,31.034 773.310,31.034 L766.276,31.034 C765.629,31.034 765.103,31.560 765.103,32.207 C765.103,32.854 765.629,33.379 766.276,33.379 ZM744.000,41.586 L760.414,41.586 L760.414,58.000 L744.000,58.000 L744.000,41.586 ZM748.447,51.895 C747.989,52.353 747.989,53.095 748.447,53.553 C748.676,53.782 748.976,53.897 749.276,53.897 C749.576,53.897 749.876,53.782 750.105,53.553 L752.207,51.451 L754.309,53.553 C754.538,53.782 754.838,53.897 755.138,53.897 C755.438,53.897 755.738,53.782 755.967,53.553 C756.425,53.095 756.425,52.353 755.967,51.895 L753.865,49.793 L755.967,47.691 C756.425,47.233 756.425,46.491 755.967,46.033 C755.510,45.575 754.766,45.575 754.309,46.033 L752.207,48.135 L750.105,46.033 C749.648,45.575 748.904,45.575 748.447,46.033 C747.989,46.491 747.989,47.233 748.447,47.691 L750.549,49.793 L748.447,51.895 ZM744.000,24.000 L760.414,24.000 L760.414,40.414 L744.000,40.414 L744.000,24.000 ZM748.690,33.379 L751.034,33.379 L751.034,35.724 C751.034,36.371 751.560,36.897 752.207,36.897 C752.854,36.897 753.379,36.371 753.379,35.724 L753.379,33.379 L755.724,33.379 C756.371,33.379 756.897,32.854 756.897,32.207 C756.897,31.560 756.371,31.034 755.724,31.034 L753.379,31.034 L753.379,28.690 C753.379,28.042 752.854,27.517 752.207,27.517 C751.560,27.517 751.034,28.042 751.034,28.690 L751.034,31.034 L748.690,31.034 C748.042,31.034 747.517,31.560 747.517,32.207 C747.517,32.854 748.042,33.379 748.690,33.379 Z" class="cls-1"/>
    <path d="M698.840,46.132 L695.983,49.011 L693.126,46.132 L680.177,33.090 C679.898,32.809 679.898,32.353 680.177,32.072 L682.024,30.211 C682.158,30.076 682.340,30.000 682.530,30.000 C682.719,30.000 682.901,30.076 683.035,30.211 L695.983,43.254 L708.932,30.211 C709.066,30.076 709.248,30.000 709.437,30.000 C709.627,30.000 709.809,30.076 709.943,30.211 L711.790,32.072 C712.068,32.353 712.068,32.809 711.790,33.090 L698.840,46.132 Z" class="cls-1"/>
    <path d="M361.030,10.003 L346.992,23.995 L361.030,37.987 L365.012,34.018 L354.956,23.995 L365.012,13.973 L361.030,10.003 Z" class="cls-4"/>
    <path d="M292.756,38.446 L268.454,38.446 L268.454,13.700 L292.422,13.700 L295.876,10.145 L265.000,10.145 L265.000,42.000 L296.210,42.000 L296.210,10.042 L292.756,13.596 L292.756,38.446 Z" class="cls-1"/>
    <path d="M165.909,178.915 L165.707,181.890 L157.065,181.890 L157.065,179.116 L159.164,178.794 L159.164,167.376 L148.058,181.809 L148.018,181.890 L144.788,181.890 L144.788,165.124 L142.525,164.963 L142.727,161.787 L149.189,161.787 L149.189,175.337 L159.528,161.828 L159.528,161.787 L165.870,161.787 L165.870,164.963 L163.608,165.124 L163.608,178.754 L165.909,178.915 ZM154.480,158.974 C147.736,158.974 147.048,154.350 147.048,154.350 L150.926,153.827 L150.926,153.867 C150.926,153.867 151.249,156.199 154.480,156.199 C157.751,156.199 158.075,153.867 158.075,153.867 L158.075,153.827 L161.992,154.350 C161.992,154.350 161.305,158.974 154.480,158.974 ZM143.942,217.983 L138.207,217.983 L137.601,215.692 C137.359,216.174 135.743,218.627 131.341,218.627 C126.777,218.627 124.152,216.375 124.152,212.717 C124.152,206.805 132.269,206.364 137.439,205.881 L137.439,204.876 C137.439,201.620 136.308,200.373 133.401,200.373 C131.463,200.373 130.170,201.178 129.523,201.740 L129.321,204.273 L126.010,204.273 L126.171,197.640 L128.878,197.640 L129.282,198.966 C130.371,198.202 132.230,197.238 134.572,197.238 C139.054,197.238 141.802,199.488 141.802,204.796 L141.802,214.847 L144.144,215.008 L143.942,217.983 ZM137.439,208.615 C132.754,208.937 128.676,209.218 128.676,212.315 C128.676,214.565 130.008,215.611 132.714,215.611 C136.106,215.611 137.318,213.239 137.439,212.997 L137.439,208.615 ZM139.947,178.915 L139.745,181.890 L133.243,181.890 L133.243,164.521 L131.385,164.360 L131.587,161.787 L139.664,161.787 L139.664,164.963 L137.605,165.124 L137.605,178.754 L139.947,178.915 ZM119.956,181.890 L110.101,181.890 L109.899,178.714 L112.241,178.553 L112.241,165.124 L109.980,164.963 L110.182,161.787 L116.644,161.787 L116.644,168.824 L119.916,168.824 C125.367,168.824 129.488,170.191 129.488,174.774 C129.488,179.397 126.134,181.890 119.956,181.890 ZM119.794,171.677 L116.644,171.677 L116.644,178.955 L119.875,178.955 C123.025,178.955 124.963,177.668 124.963,174.854 C124.963,172.120 122.500,171.677 119.794,171.677 ZM107.158,175.698 C107.158,179.317 104.856,181.890 97.909,181.890 L87.772,181.890 L87.570,178.714 L89.912,178.553 L89.912,165.124 L87.651,164.963 L87.853,161.787 L97.990,161.787 C104.492,161.787 106.310,163.677 106.310,166.894 C106.310,169.145 104.654,170.512 102.958,171.316 C105.098,171.919 107.158,173.206 107.158,175.698 ZM97.950,164.722 L94.113,164.722 L94.113,170.552 L98.798,170.552 C98.798,170.552 102.109,170.191 102.109,167.496 C102.109,165.727 101.140,164.722 97.950,164.722 ZM98.434,172.723 L94.113,172.723 L94.113,178.955 L97.868,178.955 C101.989,178.955 102.836,177.226 102.836,175.377 C102.836,173.769 101.624,172.723 98.434,172.723 ZM100.495,207.007 C100.495,213.601 97.103,218.627 91.045,218.627 C86.845,218.627 85.027,216.897 85.027,216.897 L84.987,216.897 L84.987,224.898 L87.330,225.059 L87.128,228.034 L78.485,228.034 L78.242,224.858 L80.586,224.697 L80.586,201.218 L78.323,201.057 L78.525,197.881 L84.421,197.881 L84.785,199.770 C85.068,199.449 87.006,197.238 91.449,197.238 C96.982,197.238 100.495,200.776 100.495,207.007 ZM84.987,203.027 L84.987,213.722 C85.189,213.962 86.684,215.370 89.550,215.370 C94.075,215.370 95.931,212.193 95.931,207.128 C95.931,202.102 93.832,200.534 89.874,200.534 C86.684,200.534 85.189,202.665 84.987,203.027 ZM75.500,182.533 C71.299,182.533 69.482,180.804 69.482,180.804 L69.441,180.804 L69.441,188.805 L71.785,188.966 L71.583,191.941 L62.939,191.941 L62.697,188.765 L65.040,188.604 L65.040,165.124 L62.778,164.963 L62.980,161.787 L68.876,161.787 L69.239,163.677 C69.523,163.355 71.461,161.145 75.904,161.145 C81.437,161.145 84.950,164.683 84.950,170.914 C84.950,177.508 81.557,182.533 75.500,182.533 ZM74.329,164.441 C71.138,164.441 69.643,166.572 69.441,166.933 L69.441,177.628 C69.643,177.869 71.138,179.277 74.005,179.277 C78.529,179.277 80.386,176.100 80.386,171.035 C80.386,166.009 78.287,164.441 74.329,164.441 ZM74.006,204.796 L74.006,214.847 L76.348,215.008 L76.146,217.983 L70.412,217.983 L69.806,215.692 C69.563,216.174 67.948,218.627 63.545,218.627 C58.982,218.627 56.356,216.375 56.356,212.717 C56.356,206.805 64.474,206.364 69.643,205.881 L69.643,204.876 C69.643,201.620 68.513,200.373 65.605,200.373 C63.667,200.373 62.374,201.178 61.728,201.740 L61.526,204.273 L58.214,204.273 L58.376,197.640 L61.082,197.640 L61.485,198.966 C62.576,198.202 64.434,197.238 66.777,197.238 C71.259,197.238 74.006,199.488 74.006,204.796 ZM60.880,212.315 C60.880,214.565 62.213,215.611 64.918,215.611 C68.311,215.611 69.523,213.239 69.643,212.997 L69.643,208.615 C64.959,208.937 60.880,209.218 60.880,212.315 ZM46.182,172.924 C46.547,177.307 48.848,179.277 52.564,179.277 C56.199,179.277 58.178,176.824 58.178,176.824 L60.197,179.035 C60.197,179.035 57.894,182.533 52.362,182.533 C45.860,182.533 41.780,178.834 41.780,171.799 C41.780,164.884 45.860,161.145 51.716,161.145 C57.370,161.145 60.479,164.159 60.479,169.949 C60.479,171.677 59.875,172.924 59.875,172.924 L46.182,172.924 ZM51.756,164.281 C48.363,164.281 46.586,166.330 46.223,169.989 L56.401,169.989 C56.401,169.989 56.482,169.467 56.482,169.104 C56.482,166.009 54.987,164.281 51.756,164.281 ZM38.918,178.714 L38.717,181.890 L28.216,181.890 L28.014,178.714 L31.124,178.553 L31.124,159.214 L19.048,159.214 L19.048,178.553 L22.198,178.714 L21.996,181.890 L11.496,181.890 L11.294,178.714 L14.444,178.553 L14.444,158.893 L11.253,158.732 L11.455,155.757 L38.757,155.757 L38.757,158.732 L35.728,158.893 L35.728,178.553 L38.918,178.714 ZM17.836,206.444 L20.704,205.158 L23.693,200.856 L22.724,200.776 L22.926,197.881 L31.205,197.881 L31.205,201.057 L27.490,201.539 L23.491,206.645 L28.903,214.486 L32.698,214.606 L32.497,217.983 L26.721,217.983 L25.107,216.295 L19.775,208.655 L17.836,209.500 L17.836,215.089 L19.775,215.209 L19.573,217.983 L11.294,217.983 L11.092,214.807 L13.434,214.646 L13.434,201.218 L10.769,201.057 L10.971,197.881 L17.836,197.881 L17.836,206.444 ZM11.935,235.034 L16.124,239.306 L16.124,235.034 L17.634,235.034 L17.634,239.286 L21.824,235.034 L23.738,235.034 L19.408,239.426 L23.757,244.720 L21.824,244.720 L18.319,240.368 L17.634,241.050 L17.634,244.720 L16.124,244.720 L16.124,241.050 L15.439,240.368 L11.935,244.720 L10.001,244.720 L14.331,239.426 L10.020,235.034 L11.935,235.034 ZM12.740,256.230 L17.856,251.076 L19.769,251.076 L15.459,255.468 L19.790,260.761 L17.856,260.761 L14.352,256.410 L12.740,257.994 L12.740,260.761 L11.230,260.761 L11.230,251.076 L12.740,251.076 L12.740,256.230 ZM25.773,250.836 C28.734,250.836 30.587,253.102 30.587,255.909 C30.587,258.716 28.734,261.002 25.773,261.002 C22.812,261.002 20.959,258.716 20.959,255.909 C20.959,253.102 22.812,250.836 25.773,250.836 ZM25.773,259.658 C27.848,259.658 28.995,257.894 28.995,255.909 C28.995,253.944 27.848,252.179 25.773,252.179 C23.698,252.179 22.530,253.944 22.530,255.909 C22.530,257.894 23.698,259.658 25.773,259.658 ZM25.551,244.720 L25.551,235.034 L27.062,235.034 L27.062,242.434 L32.158,235.034 L33.648,235.034 L33.648,244.720 L32.137,244.720 L32.137,237.180 L27.002,244.720 L25.551,244.720 ZM38.020,258.255 L40.960,251.076 L42.975,251.076 L42.975,260.761 L41.464,260.761 L41.464,253.162 L38.302,260.761 L37.738,260.761 L34.555,253.162 L34.555,260.761 L33.045,260.761 L33.045,251.076 L35.039,251.076 L38.020,258.255 ZM38.886,239.987 C38.444,243.597 37.396,244.960 35.522,244.960 L35.522,243.717 C36.429,243.717 36.993,242.674 37.376,239.807 L38.001,235.034 L44.767,235.034 L44.767,244.720 L43.257,244.720 L43.257,236.358 L39.329,236.358 L38.886,239.987 ZM54.093,260.761 L52.582,260.761 L52.582,252.400 L47.507,252.400 L47.507,260.761 L45.996,260.761 L45.996,251.076 L54.093,251.076 L54.093,260.761 ZM53.656,211.791 C53.656,215.410 51.353,217.983 44.407,217.983 L34.270,217.983 L34.068,214.807 L36.410,214.646 L36.410,201.218 L34.149,201.057 L34.351,197.881 L44.488,197.881 C50.990,197.881 52.807,199.770 52.807,202.987 C52.807,205.238 51.151,206.604 49.455,207.409 C51.596,208.012 53.656,209.299 53.656,211.791 ZM44.447,200.816 L40.610,200.816 L40.610,206.645 L45.296,206.645 C45.296,206.645 48.607,206.283 48.607,203.590 C48.607,201.821 47.638,200.816 44.447,200.816 ZM44.931,208.816 L40.610,208.816 L40.610,215.048 L44.366,215.048 C48.486,215.048 49.334,213.320 49.334,211.470 C49.334,209.862 48.122,208.816 44.931,208.816 ZM47.226,239.867 C47.226,237.060 49.079,234.794 52.040,234.794 C55.001,234.794 56.854,237.060 56.854,239.867 C56.854,242.674 55.001,244.960 52.040,244.960 C49.079,244.960 47.226,242.674 47.226,239.867 ZM55.263,239.867 C55.263,237.902 54.115,236.137 52.040,236.137 C49.966,236.137 48.797,237.902 48.797,239.867 C48.797,241.853 49.966,243.616 52.040,243.616 C54.115,243.616 55.263,241.853 55.263,239.867 ZM57.821,255.849 L58.445,251.076 L65.212,251.076 L65.212,260.761 L63.701,260.761 L63.701,252.400 L59.774,252.400 L59.330,256.029 C58.888,259.639 57.841,261.002 55.967,261.002 L55.967,259.759 C56.874,259.759 57.438,258.716 57.821,255.849 ZM59.816,232.167 L60.561,231.526 C61.206,232.408 62.172,232.969 63.360,232.969 C64.529,232.969 65.516,232.428 66.140,231.526 L66.885,232.167 C66.080,233.250 64.811,233.932 63.360,233.932 C61.931,233.932 60.642,233.250 59.816,232.167 ZM59.312,244.720 L59.312,235.034 L60.823,235.034 L60.823,242.434 L65.919,235.034 L67.409,235.034 L67.409,244.720 L65.898,244.720 L65.898,237.180 L60.762,244.720 L59.312,244.720 ZM72.464,250.836 C75.406,250.836 77.138,253.122 77.138,256.029 L77.138,256.410 L69.262,256.410 C69.382,258.235 70.671,259.759 72.767,259.759 C73.875,259.759 75.003,259.318 75.767,258.536 L76.493,259.519 C75.526,260.481 74.217,261.002 72.625,261.002 C69.745,261.002 67.671,258.936 67.671,255.909 C67.671,253.102 69.685,250.836 72.464,250.836 ZM75.647,255.307 C75.627,253.863 74.661,252.078 72.444,252.078 C70.370,252.078 69.343,253.824 69.262,255.307 L75.647,255.307 ZM81.085,256.230 L86.201,251.076 L88.114,251.076 L83.804,255.468 L88.135,260.761 L86.201,260.761 L82.697,256.410 L81.085,257.994 L81.085,260.761 L79.574,260.761 L79.574,251.076 L81.085,251.076 L81.085,256.230 ZM94.157,250.836 C95.930,250.836 96.978,251.558 97.723,252.520 L96.716,253.443 C96.072,252.560 95.246,252.179 94.239,252.179 C92.164,252.179 90.875,253.764 90.875,255.909 C90.875,258.054 92.164,259.658 94.239,259.658 C95.246,259.658 96.072,259.257 96.716,258.396 L97.723,259.318 C96.978,260.280 95.930,261.002 94.157,261.002 C91.258,261.002 89.304,258.797 89.304,255.909 C89.304,253.042 91.258,250.836 94.157,250.836 ZM102.671,197.680 L105.539,197.881 L119.795,197.881 L122.704,197.680 L122.622,205.199 L119.513,205.199 L119.350,201.218 L114.787,201.218 L114.787,214.847 L117.130,215.008 L116.928,217.983 L108.244,217.983 L108.042,214.807 L110.386,214.646 L110.386,201.218 L105.902,201.218 L105.660,205.199 L102.550,205.199 L102.671,197.881 L102.671,197.680 ZM150.925,201.419 L147.612,201.218 L147.855,197.881 L164.657,197.881 L164.657,214.847 L166.999,215.008 L166.797,217.983 L158.114,217.983 L157.912,214.807 L160.214,214.646 L160.214,201.218 L154.761,201.218 C154.438,212.796 151.368,218.103 146.361,218.103 C145.917,218.103 145.432,218.064 144.948,217.983 C144.948,217.581 144.907,214.927 144.907,214.927 C145.109,214.967 145.270,214.967 145.472,214.967 C148.704,214.967 150.562,211.188 150.925,201.419 Z" class="cls-1"/>
    <path d="M215.998,42.788 L211.799,38.774 L198.000,51.962 L184.201,38.774 L180.002,42.788 L198.000,59.990 L215.998,42.788 Z" class="cls-1"/>
    <path d="M211.874,299.309 L206.445,299.309 L206.319,297.349 L207.758,297.250 L207.758,288.964 L204.348,288.964 C204.147,296.108 202.227,299.382 199.097,299.382 C198.819,299.382 198.516,299.358 198.213,299.309 C198.213,299.061 198.187,297.422 198.187,297.422 C198.314,297.447 198.415,297.447 198.541,297.447 C200.562,297.447 201.723,295.116 201.950,289.088 L199.879,288.964 L200.031,286.905 L210.536,286.905 L210.536,297.374 L212.000,297.473 L211.874,299.309 ZM193.998,299.309 L193.619,297.895 C193.469,298.192 192.457,299.704 189.705,299.704 C186.852,299.704 185.211,298.316 185.211,296.059 C185.211,292.412 190.285,292.140 193.518,291.842 L193.518,291.222 C193.518,289.213 192.811,288.444 190.993,288.444 C189.782,288.444 188.974,288.940 188.569,289.287 L188.443,290.850 L186.372,290.850 L186.473,286.757 L188.165,286.757 L188.418,287.575 C189.100,287.103 190.261,286.508 191.725,286.508 C194.528,286.508 196.246,287.897 196.246,291.173 L196.246,297.374 L197.711,297.472 L197.583,299.309 L193.998,299.309 ZM193.518,293.528 C190.589,293.727 188.039,293.900 188.039,295.810 C188.039,297.199 188.873,297.845 190.564,297.845 C192.685,297.845 193.442,296.381 193.518,296.232 L193.518,293.528 ZM182.310,291.421 L182.208,288.964 L179.356,288.964 L179.356,297.374 L180.820,297.473 L180.695,299.309 L175.264,299.309 L175.138,297.349 L176.603,297.250 L176.603,288.964 L173.800,288.964 L173.648,291.421 L171.705,291.421 L171.779,286.905 L171.779,286.781 L173.573,286.905 L182.486,286.905 L184.305,286.781 L184.254,291.421 L182.310,291.421 ZM164.511,299.705 C161.885,299.705 160.748,298.639 160.748,298.639 L160.722,298.639 L160.722,303.574 L162.188,303.674 L162.062,305.509 L156.658,305.509 L156.506,303.550 L157.971,303.450 L157.971,288.965 L156.557,288.865 L156.683,286.905 L160.370,286.905 L160.596,288.071 C160.773,287.873 161.985,286.508 164.764,286.508 C168.222,286.508 170.419,288.691 170.419,292.536 C170.419,296.605 168.298,299.705 164.511,299.705 ZM163.779,288.542 C161.784,288.542 160.849,289.857 160.722,290.081 L160.722,296.679 C160.849,296.828 161.784,297.696 163.576,297.696 C166.405,297.696 167.566,295.736 167.566,292.611 C167.566,289.510 166.254,288.542 163.779,288.542 ZM151.610,299.309 L151.231,297.895 C151.080,298.192 150.069,299.704 147.318,299.704 C144.463,299.704 142.823,298.316 142.823,296.059 C142.823,292.412 147.898,292.140 151.129,291.842 L151.129,291.222 C151.129,289.213 150.423,288.444 148.605,288.444 C147.393,288.444 146.586,288.940 146.181,289.287 L146.054,290.850 L143.984,290.850 L144.085,286.757 L145.777,286.757 L146.029,287.575 C146.712,287.103 147.873,286.508 149.337,286.508 C152.140,286.508 153.858,287.897 153.858,291.173 L153.858,297.374 L155.323,297.472 L155.196,299.309 L151.610,299.309 ZM151.129,293.528 C148.201,293.727 145.651,293.900 145.651,295.810 C145.651,297.199 146.484,297.845 148.176,297.845 C150.296,297.845 151.054,296.381 151.129,296.232 L151.129,293.528 ZM138.586,317.867 C139.449,317.867 140.156,317.527 140.708,316.799 L141.570,317.578 C140.932,318.391 140.034,319.001 138.517,319.001 C136.034,319.001 134.360,317.138 134.360,314.698 C134.360,312.274 136.034,310.410 138.517,310.410 C140.034,310.410 140.932,311.020 141.570,311.833 L140.708,312.614 C140.156,311.867 139.449,311.546 138.586,311.546 C136.809,311.546 135.705,312.885 135.705,314.698 C135.705,316.509 136.809,317.867 138.586,317.867 ZM135.352,299.308 L129.013,299.308 L128.887,297.349 L130.351,297.249 L130.351,288.965 L128.937,288.865 L129.064,286.905 L135.402,286.905 C139.467,286.905 140.603,288.071 140.603,290.056 C140.603,291.444 139.568,292.288 138.508,292.784 C139.846,293.156 141.134,293.950 141.134,295.487 C141.134,297.720 139.694,299.308 135.352,299.308 ZM135.376,288.717 L132.977,288.717 L132.977,292.314 L135.907,292.314 C135.907,292.314 137.977,292.090 137.977,290.428 C137.977,289.337 137.371,288.717 135.376,288.717 ZM135.679,293.652 L132.977,293.652 L132.977,297.497 L135.325,297.497 C137.902,297.497 138.431,296.431 138.431,295.290 C138.431,294.297 137.673,293.652 135.679,293.652 ZM128.030,297.225 L127.904,299.309 L124.293,299.309 L123.284,298.267 L119.950,293.553 L118.739,294.074 L118.739,297.523 L119.950,297.597 L119.824,299.309 L114.647,299.309 L114.521,297.349 L115.986,297.250 L115.986,288.964 L114.319,288.865 L114.445,286.905 L118.739,286.905 L118.739,292.189 L120.531,291.396 L122.400,288.741 L121.794,288.691 L121.920,286.905 L127.097,286.905 L127.097,288.865 L124.774,289.163 L122.274,292.313 L125.658,297.151 L128.030,297.225 ZM112.434,311.732 L109.070,311.732 L108.691,314.799 C108.313,317.849 107.415,319.001 105.810,319.001 L105.810,317.951 C106.588,317.951 107.070,317.069 107.398,314.646 L107.933,310.613 L113.728,310.613 L113.728,318.799 L112.434,318.799 L112.434,311.732 ZM106.991,297.472 L106.865,299.308 L101.462,299.308 L101.462,297.596 L102.775,297.397 L102.775,290.353 L95.830,299.258 L95.805,299.308 L93.786,299.308 L93.786,288.963 L92.371,288.864 L92.498,286.905 L96.537,286.905 L96.537,295.265 L103.002,286.930 L103.002,286.905 L106.966,286.905 L106.966,288.864 L105.553,288.963 L105.553,297.373 L106.991,297.472 ZM99.845,285.168 C95.629,285.168 95.199,282.315 95.199,282.315 L97.624,281.995 L97.624,282.018 C97.624,282.018 97.825,283.457 99.845,283.457 C101.890,283.457 102.093,282.018 102.093,282.018 L102.093,281.995 L104.542,282.315 C104.542,282.315 104.113,285.168 99.845,285.168 ZM90.760,297.472 L90.633,299.308 L86.568,299.308 L86.568,288.591 L85.406,288.491 L85.532,286.905 L90.582,286.905 L90.582,288.864 L89.294,288.963 L89.294,297.373 L90.760,297.472 ZM78.260,299.308 L72.099,299.308 L71.972,297.348 L73.437,297.249 L73.437,288.963 L72.023,288.864 L72.149,286.905 L76.189,286.905 L76.189,291.246 L78.234,291.246 C81.643,291.246 84.219,292.089 84.219,294.917 C84.219,297.769 82.122,299.308 78.260,299.308 ZM78.159,293.006 L76.189,293.006 L76.189,297.497 L78.209,297.497 C80.179,297.497 81.391,296.702 81.391,294.967 C81.391,293.279 79.851,293.006 78.159,293.006 ZM64.475,299.307 L58.137,299.307 L58.011,297.348 L59.475,297.248 L59.475,288.963 L58.062,288.864 L58.188,286.904 L64.526,286.904 C68.591,286.904 69.728,288.071 69.728,290.055 C69.728,291.444 68.692,292.288 67.632,292.784 C68.971,293.156 70.258,293.950 70.258,295.487 C70.258,297.720 68.819,299.307 64.475,299.307 ZM64.501,288.715 L62.102,288.715 L62.102,292.313 L65.031,292.313 C65.031,292.313 67.101,292.090 67.101,290.427 C67.101,289.335 66.495,288.715 64.501,288.715 ZM64.803,293.652 L62.102,293.652 L62.102,297.496 L64.449,297.496 C67.026,297.496 67.556,296.429 67.556,295.290 C67.556,294.297 66.798,293.652 64.803,293.652 ZM58.716,308.089 C58.027,309.003 56.940,309.581 55.697,309.581 C54.473,309.581 53.370,309.003 52.662,308.089 L53.299,307.548 C53.853,308.292 54.681,308.767 55.697,308.767 C56.698,308.767 57.544,308.310 58.079,307.548 L58.716,308.089 ZM50.464,299.704 C47.838,299.704 46.701,298.638 46.701,298.638 L46.676,298.638 L46.676,303.573 L48.141,303.673 L48.015,305.508 L42.611,305.508 L42.459,303.549 L43.925,303.450 L43.925,288.963 L42.510,288.864 L42.637,286.904 L46.322,286.904 L46.549,288.071 C46.726,287.872 47.938,286.508 50.717,286.508 C54.176,286.508 56.373,288.691 56.373,292.536 C56.373,296.604 54.251,299.704 50.464,299.704 ZM49.732,288.542 C47.737,288.542 46.802,289.856 46.676,290.079 L46.676,296.677 C46.802,296.827 47.737,297.695 49.529,297.695 C52.359,297.695 53.519,295.735 53.519,292.610 C53.519,289.509 52.207,288.542 49.732,288.542 ZM46.003,310.309 C48.539,310.309 50.126,312.224 50.126,314.596 C50.126,316.967 48.539,318.900 46.003,318.900 C43.467,318.900 41.880,316.967 41.880,314.596 C41.880,312.224 43.467,310.309 46.003,310.309 ZM46.003,317.765 C47.780,317.765 48.762,316.274 48.762,314.596 C48.762,312.935 47.780,311.445 46.003,311.445 C44.226,311.445 43.226,312.935 43.226,314.596 C43.226,316.274 44.226,317.765 46.003,317.765 ZM32.134,293.776 C32.362,296.480 33.801,297.695 36.124,297.695 C38.396,297.695 39.634,296.181 39.634,296.181 L40.897,297.546 C40.897,297.546 39.457,299.704 35.997,299.704 C31.932,299.704 29.381,297.422 29.381,293.081 C29.381,288.816 31.932,286.508 35.594,286.508 C39.129,286.508 41.072,288.368 41.072,291.941 C41.072,293.007 40.695,293.776 40.695,293.776 L32.134,293.776 ZM35.619,288.443 C33.498,288.443 32.387,289.707 32.159,291.966 L38.523,291.966 C38.523,291.966 38.574,291.643 38.574,291.419 C38.574,289.509 37.639,288.443 35.619,288.443 ZM30.252,318.697 L28.957,318.697 L28.957,312.325 L24.560,318.697 L23.317,318.697 L23.317,310.512 L24.611,310.512 L24.611,316.766 L28.976,310.512 L30.252,310.512 L30.252,318.697 ZM27.592,297.348 L27.466,299.308 L20.901,299.308 L20.774,297.348 L22.719,297.249 L22.719,285.317 L15.169,285.317 L15.169,297.249 L17.138,297.348 L17.011,299.308 L10.446,299.308 L10.320,297.348 L12.290,297.249 L12.290,285.119 L10.295,285.020 L10.421,283.184 L27.491,283.184 L27.491,285.020 L25.597,285.119 L25.597,297.249 L27.592,297.348 ZM11.657,310.512 L15.244,314.122 L15.244,310.512 L16.538,310.512 L16.538,314.105 L20.126,310.512 L21.764,310.512 L18.056,314.224 L21.781,318.697 L20.126,318.697 L17.124,315.019 L16.538,315.596 L16.538,318.697 L15.244,318.697 L15.244,315.596 L14.658,315.019 L11.657,318.697 L10.000,318.697 L13.709,314.224 L10.016,310.512 L11.657,310.512 ZM33.445,314.545 L33.978,310.512 L39.775,310.512 L39.775,318.697 L38.480,318.697 L38.480,311.631 L35.117,311.631 L34.738,314.698 C34.359,317.748 33.462,318.899 31.857,318.899 L31.857,317.850 C32.634,317.850 33.116,316.967 33.445,314.545 ZM53.524,316.766 L57.889,310.512 L59.164,310.512 L59.164,318.697 L57.871,318.697 L57.871,312.325 L53.473,318.697 L52.231,318.697 L52.231,310.512 L53.524,310.512 L53.524,316.766 ZM68.790,314.969 L73.171,310.613 L74.810,310.613 L71.119,314.325 L74.828,318.799 L73.171,318.799 L70.170,315.121 L68.790,316.459 L68.790,318.799 L67.497,318.799 L67.497,310.613 L68.790,310.613 L68.790,314.969 ZM79.952,310.410 C82.488,310.410 84.075,312.326 84.075,314.698 C84.075,317.069 82.488,319.001 79.952,319.001 C77.416,319.001 75.830,317.069 75.830,314.698 C75.830,312.326 77.416,310.410 79.952,310.410 ZM79.952,317.867 C81.729,317.867 82.711,316.375 82.711,314.698 C82.711,313.037 81.729,311.546 79.952,311.546 C78.175,311.546 77.175,313.037 77.175,314.698 C77.175,316.375 78.175,317.867 79.952,317.867 ZM90.441,316.680 L92.959,310.613 L94.683,310.613 L94.683,318.799 L93.389,318.799 L93.389,312.377 L90.682,318.799 L90.198,318.799 L87.474,312.377 L87.474,318.799 L86.179,318.799 L86.179,310.613 L87.888,310.613 L90.441,316.680 ZM104.205,318.799 L102.911,318.799 L102.911,311.732 L98.564,311.732 L98.564,318.799 L97.271,318.799 L97.271,310.613 L104.205,310.613 L104.205,318.799 ZM119.938,310.410 C122.457,310.410 123.941,312.342 123.941,314.798 L123.941,315.121 L117.195,315.121 C117.299,316.664 118.404,317.951 120.198,317.951 C121.147,317.951 122.112,317.578 122.767,316.917 L123.388,317.748 C122.560,318.561 121.440,319.001 120.077,319.001 C117.610,319.001 115.833,317.257 115.833,314.698 C115.833,312.325 117.558,310.410 119.938,310.410 ZM122.664,314.189 C122.648,312.969 121.819,311.461 119.921,311.461 C118.144,311.461 117.266,312.936 117.195,314.189 L122.664,314.189 ZM127.321,314.969 L131.703,310.613 L133.341,310.613 L129.649,314.325 L133.359,318.799 L131.703,318.799 L128.702,315.121 L127.321,316.459 L127.321,318.799 L126.028,318.799 L126.028,310.613 L127.321,310.613 L127.321,314.969 Z" class="cls-1"/>
    <rect x="242" y="16" width="13" height="1" class="cls-5"/>
    <path d="M238.000,17.000 L232.000,17.000 L232.000,23.000 L231.000,23.000 L231.000,17.000 L225.000,17.000 L225.000,16.000 L231.000,16.000 L231.000,10.000 L232.000,10.000 L232.000,16.000 L238.000,16.000 L238.000,17.000 Z" class="cls-1"/>
    <path d="M211.648,91.000 C211.648,82.172 204.566,75.015 195.832,75.015 C187.097,75.015 180.015,82.172 180.015,91.000 C180.015,99.828 187.097,106.984 195.832,106.984 C204.566,106.984 211.648,99.828 211.648,91.000 ZM191.584,91.000 L191.584,87.941 L193.439,87.941 L193.439,86.091 C193.439,83.596 194.177,81.799 196.880,81.799 L200.095,81.799 L200.095,84.850 L197.832,84.850 C196.697,84.850 196.440,85.612 196.440,86.409 L196.440,87.941 L199.928,87.941 L199.452,91.000 L196.440,91.000 L196.440,100.226 L193.439,100.226 L193.439,91.000 L191.584,91.000 Z" class="cls-1"/>
    <path d="M196.168,146.984 C187.447,146.984 180.352,139.813 180.352,131.000 C180.352,122.186 187.447,115.015 196.168,115.015 C204.890,115.015 211.984,122.186 211.984,131.000 C211.984,139.813 204.889,146.984 196.168,146.984 ZM201.541,127.923 C201.541,125.268 199.682,123.531 197.026,123.531 L190.713,123.531 L190.713,137.811 L197.598,137.811 C200.540,137.811 202.133,135.912 202.133,133.460 C202.133,132.152 201.521,130.988 200.356,130.395 C201.071,129.823 201.541,128.802 201.541,127.923 ZM197.332,134.563 L194.452,134.563 L194.452,132.193 L197.312,132.193 C198.048,132.193 198.477,132.806 198.436,133.460 C198.374,134.032 198.048,134.563 197.332,134.563 ZM196.760,129.170 L194.452,129.170 L194.452,126.779 L196.760,126.779 C197.516,126.779 197.884,127.413 197.864,128.046 C197.843,128.618 197.475,129.170 196.760,129.170 Z" class="cls-1"/>
    <path d="M105.377,346.227 L97.678,353.792 C96.873,354.585 95.566,354.571 94.760,353.778 C93.954,352.986 93.955,351.672 94.760,350.880 L98.888,346.763 L79.542,346.763 C78.403,346.763 77.479,345.855 77.479,344.734 C77.479,343.613 78.403,342.704 79.542,342.704 L98.985,342.704 L94.558,338.407 C94.155,338.010 93.953,337.547 93.953,337.028 C93.953,336.508 94.155,335.988 94.557,335.592 C95.363,334.799 96.670,334.799 97.475,335.591 L105.376,343.360 C106.183,344.153 106.182,345.435 105.377,346.227 ZM86.176,368.155 C86.615,368.819 87.358,369.220 88.158,369.265 C90.700,369.408 94.110,370.622 95.398,378.219 C96.634,385.513 91.503,397.685 84.058,408.849 C83.980,408.966 83.933,409.088 83.924,409.228 L83.174,416.302 C83.148,416.725 82.793,417.000 82.366,417.000 L57.373,417.000 C57.071,417.000 56.795,416.889 56.655,416.624 L35.301,376.216 C32.590,371.788 36.411,367.641 40.311,367.641 C42.037,367.641 43.781,368.453 44.980,370.411 L47.716,374.566 C48.281,375.426 49.150,375.811 50.002,375.811 C51.406,375.811 52.803,374.767 52.803,373.079 L52.803,344.349 C52.803,340.616 55.613,338.749 58.442,338.749 C61.270,338.749 64.081,340.616 64.081,344.349 L64.081,360.682 C64.081,361.137 64.459,361.486 64.889,361.486 C64.969,361.486 65.054,361.474 65.136,361.447 C65.926,361.196 67.093,360.918 68.400,360.918 C70.645,360.918 73.304,361.738 75.174,364.914 C75.332,365.181 75.616,365.341 75.913,365.341 C76.008,365.341 76.105,365.325 76.199,365.290 C76.951,365.016 78.265,364.636 79.770,364.636 C81.867,364.636 84.334,365.372 86.176,368.155 ZM36.435,346.660 L16.992,346.660 L21.419,350.957 C21.822,351.354 22.023,351.817 22.023,352.336 C22.023,352.856 21.822,353.376 21.419,353.772 C20.613,354.565 19.307,354.565 18.501,353.773 L10.600,346.004 C9.794,345.211 9.794,343.929 10.600,343.137 L18.298,335.572 C19.104,334.779 20.411,334.793 21.216,335.586 C22.022,336.378 22.022,337.692 21.217,338.484 L17.089,342.601 L36.435,342.601 C37.574,342.601 38.498,343.509 38.498,344.630 C38.498,345.751 37.574,346.660 36.435,346.660 Z" class="cls-1"/>
    <path d="M252.075,42.509 L243.170,33.214 C242.978,33.013 242.978,32.689 243.170,32.488 L244.440,31.162 C244.532,31.066 244.657,31.012 244.787,31.012 C244.918,31.012 245.043,31.066 245.135,31.162 L256.005,42.509 L245.135,53.856 C245.043,53.952 244.917,54.006 244.787,54.006 C244.657,54.006 244.532,53.952 244.440,53.856 L243.170,52.530 C242.978,52.329 242.978,52.005 243.170,51.804 L252.075,42.509 Z" class="cls-1"/>
    <path d="M228.935,42.509 L237.861,33.214 C238.053,33.013 238.053,32.689 237.861,32.488 L236.588,31.162 C236.496,31.066 236.370,31.012 236.240,31.012 C236.109,31.012 235.983,31.066 235.891,31.162 L224.995,42.509 L235.891,53.856 C235.984,53.952 236.109,54.006 236.240,54.006 C236.370,54.006 236.496,53.952 236.588,53.856 L237.861,52.530 C238.053,52.329 238.053,52.005 237.861,51.804 L228.935,42.509 Z" class="cls-1"/>
    <path d="M215.998,27.035 L211.799,31.007 L198.000,17.955 L184.201,31.007 L180.002,27.035 L198.000,10.010 L215.998,27.035 Z" class="cls-1"/>
  </g>
</svg>
