<!-- Generator: Adobe Illustrator 17.1.0, SVG Export Plug-In  -->
<svg version="1.1"
	 xmlns="http://www.w3.org/2000/svg" xmlns:xlink="http://www.w3.org/1999/xlink" xmlns:a="http://ns.adobe.com/AdobeSVGViewerExtensions/3.0/"
	 x="0px" y="0px" width="800.6px" height="584px" viewBox="0 0 800.6 584" enable-background="new 0 0 800.6 584"
	 xml:space="preserve">
<defs>
</defs>
<g>

		<linearGradient id="SVGID_1_" gradientUnits="userSpaceOnUse" x1="-5481.0332" y1="-5935.2813" x2="-4897.0239" y2="-5935.2813" gradientTransform="matrix(4.489700e-011 -1 1 4.489700e-011 6335.5781 -4897.0239)">
		<stop  offset="0" style="stop-color:#26335D"/>
		<stop  offset="0.9286" style="stop-color:#1B294C"/>
	</linearGradient>
	<path fill="url(#SVGID_1_)" d="M14.8,19.6c4.9,13.4,8.6,27.5,10.9,42.5c2.4,14.9,3.7,29.3,4,43.1c0.3,13.8,0.4,24.1,0.4,30.9v51.1
		h0v0.7c0,6.7,0.1,14.5,0.4,23.1c0.3,8.6,1.6,17.3,4,25.8c2.3,8.6,6,17,10.9,25.2c4.9,8.1,11.8,14.9,20.5,20.4v19
		c-8.7,5.5-15.6,12.3-20.5,20.4c-4.9,8.1-8.6,16.5-10.9,25.2c-2.4,8.6-3.7,17.2-4,25.8c-0.3,8.6-0.4,16.3-0.4,23.1v0.7h0v51.1
		c0,6.8-0.1,17.1-0.4,30.9c-0.3,13.8-1.6,28.2-4,43.1c-2.3,14.9-6,29.1-10.9,42.5C12.6,570.4,8.1,577.8,0,584h800.6
		c-8.1-6.2-12.6-13.6-14.8-19.6c-4.9-13.4-8.6-27.5-10.9-42.5c-2.4-14.9-3.7-29.3-4-43.1c-0.3-13.8-0.4-24.1-0.4-30.9v-51.1h0V396
		c0-6.7-0.1-14.5-0.4-23.1c-0.3-8.6-1.6-17.3-4-25.8c-2.3-8.6-6-17-10.9-25.2c-4.9-8.1-11.8-14.9-20.5-20.4v-19
		c8.7-5.5,15.6-12.3,20.5-20.4c4.9-8.1,8.6-16.5,10.9-25.2c2.4-8.6,3.7-17.2,4-25.8c0.3-8.6,0.4-16.3,0.4-23.1v-0.7h0v-51.1
		c0-6.8,0.1-17.1,0.4-30.9c0.3-13.8,1.6-28.2,4-43.1c2.3-14.9,6-29.1,10.9-42.5c2.2-6.1,6.7-13.4,14.8-19.6L0,0
		C8.1,6.2,12.6,13.6,14.8,19.6z"/>
</g>
</svg>
