<!-- Generator: Adobe Illustrator 17.1.0, SVG Export Plug-In  -->
<svg version="1.1"
	 xmlns="http://www.w3.org/2000/svg" xmlns:xlink="http://www.w3.org/1999/xlink" xmlns:a="http://ns.adobe.com/AdobeSVGViewerExtensions/3.0/"
	 x="0px" y="0px" width="43.4px" height="146.7px" viewBox="0 0 43.4 146.7" enable-background="new 0 0 43.4 146.7"
	 xml:space="preserve">
<defs>
</defs>
<g>
	<path fill="#E5E6E7" d="M40.8,0c1.4,0,2.5,1.1,2.5,2.5c0,28.3-10.7,46.6-19.8,57c-6,6.9-12,11.4-15.9,13.8
		c3.8,2.4,9.8,6.8,15.9,13.8c9,10.4,19.8,28.7,19.8,57c0,1.4-1.1,2.5-2.5,2.5s-2.5-1.1-2.5-2.5c0-51-36.4-68.3-36.8-68.5
		C0.6,75.2,0,74.3,0,73.3c0-1,0.6-1.9,1.5-2.3c0.1,0,9.3-4.4,18.4-15C32.1,41.9,38.3,23.9,38.3,2.5C38.3,1.1,39.4,0,40.8,0z"/>
</g>
</svg>
