<!-- Generator: Adobe Illustrator 17.1.0, SVG Export Plug-In  -->
<svg version="1.1"
	 xmlns="http://www.w3.org/2000/svg" xmlns:xlink="http://www.w3.org/1999/xlink" xmlns:a="http://ns.adobe.com/AdobeSVGViewerExtensions/3.0/"
	 x="0px" y="0px" width="43.4px" height="146.7px" viewBox="0 0 43.4 146.7" enable-background="new 0 0 43.4 146.7"
	 xml:space="preserve">
<defs>
</defs>
<g>
	<path fill="#E5E6E7" d="M2.5,146.7c-1.4,0-2.5-1.1-2.5-2.5c0-28.3,10.7-46.6,19.8-57c6-6.9,12-11.4,15.9-13.8
		c-3.8-2.4-9.8-6.8-15.9-13.8C10.7,49.2,0,30.8,0,2.5C0,1.1,1.1,0,2.5,0s2.5,1.1,2.5,2.5c0,51,36.4,68.3,36.8,68.5
		c0.9,0.4,1.5,1.3,1.5,2.3c0,1-0.6,1.9-1.5,2.3c-0.1,0-9.3,4.4-18.4,15c-12.2,14.2-18.4,32.2-18.4,53.5C5.1,145.5,4,146.7,2.5,146.7
		z"/>
</g>
</svg>
