<!-- Generator: Adobe Illustrator 17.1.0, SVG Export Plug-In  -->
<svg version="1.1"
	 xmlns="http://www.w3.org/2000/svg" xmlns:xlink="http://www.w3.org/1999/xlink" xmlns:a="http://ns.adobe.com/AdobeSVGViewerExtensions/3.0/"
	 x="0px" y="0px" width="710.6px" height="584px" viewBox="0 0 710.6 584" enable-background="new 0 0 710.6 584"
	 xml:space="preserve">
<defs>
</defs>
<g>

		<linearGradient id="SVGID_1_" gradientUnits="userSpaceOnUse" x1="-6796.7715" y1="-7296.0225" x2="-6212.7627" y2="-7296.0225" gradientTransform="matrix(4.489700e-011 -1 1 4.489700e-011 7651.3164 -6212.7627)">
		<stop  offset="0" style="stop-color:#26335D"/>
		<stop  offset="0.9286" style="stop-color:#1B294C"/>
	</linearGradient>
	<path fill="url(#SVGID_1_)" d="M14.8,19.6c4.9,13.4,8.6,27.5,10.9,42.5c2.4,14.9,3.7,29.3,4,43.1c0.3,13.8,0.4,24.1,0.4,30.9v51.1
		h0v0.7c0,6.7,0.1,14.5,0.4,23.1c0.3,8.6,1.6,17.3,4,25.8c2.3,8.6,6,17,10.9,25.2c4.9,8.1,11.8,14.9,20.5,20.4v19
		c-8.7,5.5-15.6,12.3-20.5,20.4c-4.9,8.1-8.6,16.5-10.9,25.2c-2.4,8.6-3.7,17.2-4,25.8c-0.3,8.6-0.4,16.3-0.4,23.1v0.7h0v51.1
		c0,6.8-0.1,17.1-0.4,30.9c-0.3,13.8-1.6,28.2-4,43.1c-2.3,14.9-6,29.1-10.9,42.5C12.6,570.4,8.1,577.8,0,584h710.6
		c-8.1-6.2-12.6-13.6-14.8-19.6c-4.9-13.4-8.6-27.5-10.9-42.5c-2.4-14.9-3.7-29.3-4-43.1c-0.3-13.8-0.4-24.1-0.4-30.9v-51.1h0V396
		c0-6.7-0.1-14.5-0.4-23.1c-0.3-8.6-1.6-17.3-4-25.8c-2.3-8.6-6-17-10.9-25.2c-4.9-8.1-11.8-14.9-20.5-20.4v-19
		c8.7-5.5,15.6-12.3,20.5-20.4c4.9-8.1,8.6-16.5,10.9-25.2c2.4-8.6,3.7-17.2,4-25.8c0.3-8.6,0.4-16.3,0.4-23.1v-0.7h0v-51.1
		c0-6.8,0.1-17.1,0.4-30.9c0.3-13.8,1.6-28.2,4-43.1c2.3-14.9,6-29.1,10.9-42.5c2.2-6.1,6.7-13.4,14.8-19.6L0,0
		C8.1,6.2,12.6,13.6,14.8,19.6z"/>
	<path fill="none" stroke="#80C328" stroke-width="3" stroke-linecap="round" stroke-linejoin="round" stroke-miterlimit="10" d="
		M21.4,574c1.2-2.2,2.1-4.3,2.8-6.2c5.2-14.3,9.1-29.2,11.4-44.4c2.4-14.9,3.8-29.9,4.1-44.4c0.3-13.6,0.4-24.1,0.4-31.1v-41.1
		l0-10.7c0-6.5,0.1-14.2,0.4-22.7c0.3-8,1.5-15.9,3.6-23.5l0-0.2c2-7.5,5.3-15.1,9.8-22.6c4-6.7,9.8-12.4,17.3-17.1l4.7-2.9V277
		l-4.7-2.9c-7.4-4.7-13.3-10.4-17.3-17.1c-4.5-7.5-7.8-15-9.8-22.6l0-0.2c-2.1-7.6-3.3-15.4-3.6-23.5c-0.3-8.6-0.4-16.2-0.4-22.7
		v-10.7h0v-41.1c0-7.1-0.1-17.6-0.4-31.1c-0.3-14.5-1.7-29.5-4.1-44.5c-2.3-15.1-6.1-30-11.4-44.3c-0.7-1.9-1.6-4-2.8-6.2h667.7
		c-1.2,2.2-2.1,4.3-2.8,6.2c-5.2,14.3-9.1,29.2-11.4,44.4c-2.4,14.9-3.8,29.9-4.1,44.4c-0.3,13.6-0.4,24.1-0.4,31.1v41.1l0,10.7
		c0,6.5-0.1,14.1-0.4,22.7c-0.3,8-1.5,15.9-3.6,23.5l0,0.2c-2,7.5-5.3,15.1-9.8,22.6c-4,6.7-9.8,12.4-17.3,17.1l-4.7,2.9v30.1
		l4.7,2.9c7.4,4.7,13.3,10.4,17.3,17.1c4.5,7.5,7.8,15,9.8,22.6l0,0.2c2.1,7.6,3.3,15.4,3.6,23.5c0.3,8.6,0.4,16.2,0.4,22.7v10.7h0
		v41.1c0,7.1,0.1,17.5,0.4,31.1c0.3,14.5,1.7,29.5,4.1,44.5c2.3,15.1,6.1,30,11.4,44.3c0.7,1.9,1.6,4,2.8,6.2H21.4z"/>
</g>
</svg>
