<!-- Generator: Adobe Illustrator 17.1.0, SVG Export Plug-In  -->
<svg version="1.1"
	 xmlns="http://www.w3.org/2000/svg" xmlns:xlink="http://www.w3.org/1999/xlink" xmlns:a="http://ns.adobe.com/AdobeSVGViewerExtensions/3.0/"
	 x="0px" y="0px" width="678.8px" height="344.2px" viewBox="0 0 678.8 344.2" enable-background="new 0 0 678.8 344.2"
	 xml:space="preserve">
<defs>
</defs>
<g>

		<linearGradient id="SVGID_1_" gradientUnits="userSpaceOnUse" x1="-3777.8042" y1="-4411.4917" x2="-3433.5938" y2="-4411.4917" gradientTransform="matrix(4.489700e-011 -1 1 4.489700e-011 4750.9092 -3433.5938)">
		<stop  offset="0" style="stop-color:#26335D"/>
		<stop  offset="0.9286" style="stop-color:#1B294C"/>
	</linearGradient>
	<path fill="url(#SVGID_1_)" d="M8.7,11.6c2.9,7.9,5.1,16.2,6.4,25c1.4,8.8,2.2,17.3,2.3,25.4c0.2,8.2,0.2,14.2,0.2,18.2v30.1h0v0.4
		c0,4,0.1,8.5,0.3,13.6c0.2,5.1,0.9,10.2,2.3,15.2c1.3,5.1,3.5,10,6.4,14.8c2.9,4.8,7,8.8,12.1,12v11.2c-5.1,3.2-9.2,7.2-12.1,12
		c-2.9,4.8-5.1,9.7-6.4,14.8c-1.4,5.1-2.2,10.1-2.3,15.2c-0.2,5.1-0.3,9.6-0.3,13.6v0.4h0v30.1c0,4-0.1,10.1-0.2,18.2
		c-0.2,8.2-0.9,16.6-2.3,25.4c-1.3,8.8-3.5,17.1-6.4,25c-1.3,3.6-3.9,7.9-8.7,11.6h678.8c-4.8-3.7-7.4-8-8.7-11.6
		c-2.9-7.9-5.1-16.2-6.4-25c-1.4-8.8-2.2-17.3-2.3-25.4c-0.2-8.2-0.2-14.2-0.2-18.2v-30.1h0v-0.4c0-4-0.1-8.5-0.3-13.6
		c-0.2-5.1-0.9-10.2-2.3-15.2c-1.3-5.1-3.5-10-6.4-14.8c-2.9-4.8-7-8.8-12.1-12v-11.2c5.1-3.2,9.2-7.2,12.1-12
		c2.9-4.8,5.1-9.7,6.4-14.8c1.4-5.1,2.2-10.1,2.3-15.2c0.2-5.1,0.3-9.6,0.3-13.6v-0.4h0V80.3c0-4,0.1-10.1,0.2-18.2
		c0.2-8.2,0.9-16.6,2.3-25.4c1.3-8.8,3.5-17.1,6.4-25C671.4,8,674,3.7,678.8,0L0,0C4.8,3.7,7.4,8,8.7,11.6z"/>
</g>
</svg>
