<!-- Generator: Adobe Illustrator 17.1.0, SVG Export Plug-In  -->
<svg version="1.1"
	 xmlns="http://www.w3.org/2000/svg" xmlns:xlink="http://www.w3.org/1999/xlink" xmlns:a="http://ns.adobe.com/AdobeSVGViewerExtensions/3.0/"
	 x="0px" y="0px" width="99.1px" height="25.4px" viewBox="0 0 99.1 25.4" enable-background="new 0 0 99.1 25.4"
	 xml:space="preserve">
<defs>
</defs>
<g>
	<path fill="#FFFFFF" d="M15.7,0c-3.5,0-6.2,3.3-6.5,6.7l0,0.4H9.1H9l0-0.4C8.7,3.3,5.9,0,2.5,0H0v25.4h8.4V11.2h1.4v14.2h8.4V0
		H15.7z"/>
	<path fill="#FFFFFF" d="M27.9,23.6c-0.3,0.5-1,0.5-1.3,0.5v-8.4c1.3,0,1.8,1.5,1.8,4.9C28.4,21.7,28.3,23,27.9,23.6 M26.6,14.5V8
		c0-0.1,0-0.1,0-0.2h2c1,0,1.2,0.3,1.2,0.3V6.6h-2.9h-1.3h-0.8c0,0,0.3,0.8,0.3,1.4v15.8c0,0-0.1,1.2-0.3,1.4c0.2,0,0.6,0,1,0
		c0,0,1.9,0.2,2.8-0.3c0.9-0.5,1.9-1.3,1.9-5.1C30.4,16,28.7,14.5,26.6,14.5"/>
	<path fill="#FFFFFF" d="M34.1,24.3c-0.6,0-0.9-0.7-0.9-2.6c0-3.4,1.6-4.6,1.7-4.6v6.6C34.8,24.1,34.6,24.3,34.1,24.3 M36.4,22.8
		v-8.8v-1.6v0c0-0.1-0.1-2.5-2.3-2.5c-2.3,0-2.6,3.1-2.6,4c0,0.9,0.3,1,0.3,1h1.5c0,0-0.2-0.7-0.2-1.8c0-1.1,0.1-2.2,1-2.2
		c0.8,0,0.9,0.8,0.9,1.6v1.6v1.7l0,0c-2.4,1.7-3.5,4.2-3.5,6.5c0,2.3,1.4,3.1,2.6,3.1c0.7,0,1.1-0.4,1.2-0.7
		c0.3,0.5,0.8,0.7,0.8,0.7l1.1-1.4C36.6,23.7,36.4,23.2,36.4,22.8"/>
	<path fill="#FFFFFF" d="M43,23.8V10.1h-1.5h-0.3c0,0,0.3,0.6,0.3,1.2v0.1v5.5h-1.8v-6.8h-1.5h-0.3c0,0,0.3,0.6,0.3,1.2v0.1v12.4
		v0.1c0,0.5-0.3,1.2-0.3,1.2h0.3h1.5H40c0,0-0.3-0.6-0.3-1.2v-0.1v-6h1.8v6v0.1c0,0.5-0.3,1.2-0.3,1.2h0.3H43h0.3
		c0,0-0.3-0.6-0.3-1.2V23.8z"/>
	<path fill="#FFFFFF" d="M49.9,10.1l-1.2,0h-0.4c0,0,0.1,0.6,0,1.1l-1.9,4.8v-6h-1.5h-0.3c0,0,0.3,0.6,0.3,1.2v0.1v12.4v0.1
		c0,0.5-0.3,1.2-0.3,1.2h0.3h1.5h0.3c0,0-0.3-0.6-0.3-1.2v-0.1v-5.1l0.8-1.9l1.6,7.1l0,0c0.1,0.6-0.1,1.2-0.1,1.2H49H49h1.4
		l-2.3-10.7L49.9,10.1z"/>
	<path fill="#FFFFFF" d="M63.5,6.6h-1.9h-0.2l-1.9,7.5l-1.9-7.5h-0.2h-1.9c0.2,0.2,0.3,1.3,0.3,1.3v15.8c0,0.6-0.3,1.4-0.3,1.4h2.2
		c0,0-0.3-0.8-0.3-1.4V11.8l2,9.7l2.1-9.9v12.1c0,0.6-0.3,1.4-0.3,1.4h2.2c0,0-0.3-0.8-0.3-1.4V7.9C63.2,7.9,63.3,6.8,63.5,6.6"/>
	<path fill="#FFFFFF" d="M68.3,16.7c0,1.9,0,6.8-0.4,7.5c-0.1,0.2-0.4,0.3-0.5,0.3c-0.1,0-0.4-0.1-0.5-0.3c-0.4-0.7-0.4-5.6-0.4-7.5
		c0-1.7,0-4.5,0.2-5.3c0.1-0.4,0.4-0.6,0.6-0.6h0h0.1c0.2,0,0.5,0.2,0.6,0.6C68.3,12.2,68.3,15,68.3,16.7 M67.5,9.9c0,0-0.1,0-0.1,0
		c0,0-0.1,0-0.1,0c-2.2,0-2.7,3.7-2.7,6.9c0,3.3,0,8.5,2.8,8.5c2.8,0,2.8-5.3,2.8-8.5C70.2,13.5,69.7,9.9,67.5,9.9"/>
	<path fill="#FFFFFF" d="M76.6,18H75c0,0,0.1,0.4,0.3,0.8c0.1,0.4,0.1,2.4,0,3.2c-0.1,0.8-0.1,2.4-1,2.4c-0.1,0-0.4-0.1-0.5-0.3
		c-0.4-0.7-0.4-5.6-0.4-7.5c0-1.7,0-4.5,0.2-5.3c0.1-0.4,0.4-0.6,0.6-0.6c1.1,0,0.9,2.8,0.9,3.2c-0.1,0.3-0.2,0.9-0.2,0.9h1.6
		c0,0,0.1-0.1,0.2-0.4c0.2-1.1-0.2-4.6-2.5-4.6c-2.2,0-2.7,3.7-2.7,6.9c0,3.3,0,8.5,2.8,8.5c2.8,0,2.6-6.2,2.6-6.8
		C76.8,18.1,76.6,18,76.6,18"/>
	<path fill="#FFFFFF" d="M98.8,23.9v-0.1V10.1h-1.5H97c0,0,0.3,0.6,0.3,1.2v0.1v12.4v0.1c0,0.5-0.3,1.2-0.3,1.2h0.3h1.5h0.3
		C99.1,25.1,98.8,24.5,98.8,23.9"/>
	<path fill="#FFFFFF" d="M94,23.6C93.8,24,93.1,24,92.8,24v-7.7c1.2,0,1.7,1.4,1.7,4.5C94.5,21.9,94.4,23,94,23.6 M92.8,15.3v-5.1
		h-1.5H91c0,0,0.3,0.6,0.3,1.2v0.1v12.4v0.1c0,0.5-0.3,1.2-0.3,1.2h0.3h1.3c0.6,0,1.5,0,2-0.3c0.8-0.5,1.8-1.2,1.8-4.7
		C96.3,16.6,94.8,15.3,92.8,15.3"/>
	<path fill="#FFFFFF" d="M87.8,23.6C87.5,24,86.9,24,86.6,24v-7.1c1.2,0,1.6,0.8,1.6,3.9C88.2,21.9,88.1,23,87.8,23.6 M86.6,14.6
		v-2.1c0-0.8,0.1-1.6,0.9-1.6c0.9,0,0.8,0.8,0.9,1.8c0,1.1-0.2,1.8-0.2,1.8l0,0c-0.2,0.7-0.6,1.4-1.5,1.4c0,0,0,0,0,0h0v-1.1V14.6z
		 M88.3,16.2c0.6-0.4,1.2-1.1,1.3-2.5c0-0.1,0-0.2,0-0.3c0-0.9,0-3.5-2.3-3.5c-2.3,0-2.3,2.5-2.3,2.5v2.1v0.2v9.1v0.1
		c0,0.5-0.3,1.2-0.3,1.2h0.3h1.4h0.1h0c0.6,0,1.3-0.1,1.7-0.3c0.8-0.5,1.8-1.2,1.8-4.7C90.1,17.8,89.3,16.6,88.3,16.2"/>
	<path fill="#FFFFFF" d="M83.4,10.1l-1.2,0h-0.4c0,0,0.1,0.6,0,1.1l0,0l-1.9,4.8v-6h-1.5H78c0,0,0.3,0.6,0.3,1.2v0.1v12.4v0.1
		c0,0.5-0.3,1.2-0.3,1.2h0.3h1.5h0.3c0,0-0.3-0.6-0.3-1.2v-0.1v-5.1l0.8-1.9l1.6,7.1c0.1,0.6-0.1,1.2-0.1,1.2h0.3h0.1H84l-2.3-10.7
		L83.4,10.1z"/>
</g>
</svg>
