<!-- Generator: Adobe Illustrator 17.1.0, SVG Export Plug-In  -->
<svg version="1.1"
	 xmlns="http://www.w3.org/2000/svg" xmlns:xlink="http://www.w3.org/1999/xlink" xmlns:a="http://ns.adobe.com/AdobeSVGViewerExtensions/3.0/"
	 x="0px" y="0px" width="114.2px" height="25.2px" viewBox="0 0 114.2 25.2" enable-background="new 0 0 114.2 25.2"
	 xml:space="preserve">
<defs>
</defs>
<g>
	<path fill="#FFFFFF" d="M24.4,12.4c0,3.9,0,7.8,0,11.6c0,0.4-0.1,0.6-0.5,0.6c-7.7,0-15.4,0-23.1,0c-0.8,0-0.8,0-0.8-0.8
		c0-7.7,0-15.4,0-23c0-0.5,0.1-0.6,0.6-0.6c7.7,0,15.5,0,23.2,0c0.5,0,0.6,0.2,0.6,0.7C24.4,4.7,24.4,8.5,24.4,12.4z M23.7,12.4
		C23.7,12.4,23.7,12.4,23.7,12.4c0-3.6,0-7.3,0-10.9c0-0.5-0.1-0.7-0.7-0.7c-7.3,0-14.5,0-21.8,0C0.7,0.8,0.6,1,0.6,1.4
		c0,7.3,0,14.5,0,21.8c0,0.5,0.1,0.6,0.6,0.6c7.3,0,14.5,0,21.8,0c0.5,0,0.6-0.1,0.6-0.6C23.7,19.7,23.7,16,23.7,12.4z"/>
	<path fill="#FFFFFF" d="M54.6,18.4c0.5-0.1,1.2,0.2,1.5-0.1c0.3-0.3,0.3-1,0.4-1.5c0.1-0.6,0.2-1.1,0.3-1.7c0-0.3,0.1-0.4,0.5-0.4
		c0.7,0,1.4,0,2.1,0c0.3,0,0.3,0.1,0.3,0.4c-0.7,3.3-1.3,6.6-2,9.8c-0.1,0.3-0.2,0.3-0.4,0.3c-0.7,0-1.4,0-2,0
		c-0.4,0-0.4-0.2-0.3-0.5c0.2-1.1,0.4-2.2,0.7-3.3c0.1-0.4,0-0.4-0.4-0.4c-0.8,0-1.6,0-2.4,0c-0.4,0-0.5,0.1-0.6,0.5
		c-0.2,1.1-0.5,2.2-0.7,3.4c0,0.3-0.1,0.4-0.4,0.4c-0.7,0-1.4,0-2.1,0c-0.3,0-0.4-0.1-0.3-0.4c0.7-3.2,1.3-6.5,2-9.7
		c0.1-0.3,0.2-0.4,0.5-0.4c0.6,0,1.3,0,1.9,0c0.4,0,0.4,0.2,0.4,0.5c-0.2,1-0.4,2-0.6,2.9c-0.1,0.3,0,0.4,0.3,0.4
		C53.7,18.4,54.1,18.4,54.6,18.4z"/>
	<path fill="#FFFFFF" d="M70.7,1.6c0,0.5-0.1,1,0,1.3c0.2,0.4,0.8,0.2,1.2,0.3c1.7,0.5,2.6,1.8,2.5,3.6c-0.1,2.1-1.2,3.3-3.3,3.5
		c-0.4,0-0.4,0.2-0.4,0.5c0,0.7,0,1.4,0,2.1c0,0.3,0,0.4-0.4,0.4c-0.5,0-1.1,0-1.6,0c-0.4,0-0.4-0.1-0.4-0.5c0-0.7,0-1.4,0-2.1
		c0-0.3,0-0.4-0.4-0.4c-2.9-0.3-4.4-3.3-2.8-5.8c0.6-0.9,1.5-1.4,2.5-1.4c0.6,0,0.8-0.3,0.7-0.8c-0.1-0.6,0-1.2,0-1.9
		c0-0.3,0.1-0.5,0.4-0.5c0.5,0,1.1,0,1.6,0c0.2,0,0.3,0.1,0.3,0.3C70.6,0.7,70.7,1.2,70.7,1.6C70.7,1.6,70.7,1.6,70.7,1.6z
		 M68.4,6.8c0-0.5,0-1,0-1.5c0-0.5-0.2-0.5-0.6-0.4c-0.7,0.3-1,0.9-1,1.8c0,0.8,0.2,1.5,1,1.9c0.1,0,0.1,0.1,0.2,0.1
		c0.2,0.1,0.4,0,0.4-0.3C68.4,7.9,68.4,7.4,68.4,6.8z M70.5,6.8c0,0.5,0,0.9,0,1.4c0,0.6,0.2,0.7,0.7,0.4c0.6-0.4,0.9-0.9,0.9-1.6
		c0-0.7-0.1-1.4-0.8-1.9C71.2,5,71.1,5,71,4.9c-0.3-0.1-0.5-0.1-0.5,0.3C70.5,5.8,70.5,6.3,70.5,6.8z"/>
	<path fill="#FFFFFF" d="M31.2,25.1c-0.9,0-1.7,0-2.5,0c-0.3,0-0.4-0.1-0.3-0.4c0.7-3.2,1.3-6.5,2-9.7c0.1-0.3,0.2-0.4,0.5-0.4
		c2.2,0,4.4,0,6.5,0c0.4,0,0.5,0.1,0.4,0.4c-0.1,0.5-0.3,1-0.3,1.5c0,0.5-0.3,0.6-0.7,0.6c-1.1,0-2.3,0-3.4,0
		c-0.4,0-0.6,0.1-0.6,0.5c-0.2,1.1-0.2,1.1,0.9,1.1c0.6,0,1.3,0,1.9,0.1c1,0.3,1.6,0.9,1.7,1.9c0.3,2.2-1.2,4.1-3.5,4.3
		C32.7,25.2,31.9,25.1,31.2,25.1z M32.3,23c0.5,0,0.9,0,1.4-0.2c0.4-0.3,0.6-0.7,0.6-1.2c0-0.3-0.2-0.6-0.5-0.7
		c-0.6-0.1-1.2-0.2-1.7,0c-0.4,0.1-0.2,0.8-0.4,1.2c0,0,0,0,0,0.1C31.5,23,31.5,23,32.3,23z"/>
	<path fill="#FFFFFF" d="M60,1.6c0,0.5-0.1,1,0,1.3c0.2,0.4,0.8,0.2,1.2,0.3c1.5,0.4,2.4,1.5,2.4,3c0,0.6,0,1.2-0.1,1.8
		c-0.4,1.4-1.5,2.2-3.1,2.3c-0.4,0-0.5,0.1-0.5,0.5c0,0.7,0,1.4,0,2.1c0,0.3-0.1,0.4-0.3,0.4c-0.6,0-1.1,0-1.7,0
		c-0.3,0-0.4-0.1-0.4-0.4c0-0.7,0-1.5,0-2.2c0-0.3-0.1-0.4-0.4-0.4c-2.9-0.3-4.4-3.3-2.8-5.8c0.6-1,1.6-1.4,2.7-1.4
		c0.4,0,0.5-0.2,0.5-0.6c0-0.7,0-1.4,0-2.1C57.6,0.1,57.7,0,58,0c0.5,0,1.1,0,1.6,0C60,0,60.1,0.1,60,0.5C60,0.8,60,1.2,60,1.6
		C60,1.6,60,1.6,60,1.6z M57.8,6.7L57.8,6.7c0-0.5,0-0.9,0-1.4c0-0.5-0.1-0.6-0.6-0.4c-0.8,0.4-1,1.1-1,1.8c0,0.8,0.2,1.5,1,1.8
		c0,0,0.1,0,0.1,0c0.3,0.1,0.5,0.1,0.5-0.3C57.8,7.8,57.8,7.3,57.8,6.7z M59.9,6.8c0,0.5,0,1,0,1.5c0,0.5,0.1,0.6,0.6,0.4
		c0.8-0.4,1-1.1,1-1.9c0-0.8-0.2-1.4-1-1.8c-0.1,0-0.1-0.1-0.2-0.1c-0.2-0.1-0.4,0-0.4,0.3C59.9,5.7,59.9,6.3,59.9,6.8z"/>
	<path fill="#FFFFFF" d="M63.5,20.7c-0.3,1.5-0.6,2.7-0.8,4c-0.1,0.3-0.2,0.5-0.5,0.5c-0.6,0-1.2,0-1.9,0c-0.5,0-0.5-0.2-0.4-0.6
		c0.6-2.8,1.2-5.6,1.7-8.4c0.1-0.5,0-1.2,0.4-1.5c0.4-0.2,1-0.1,1.5-0.1c1.2,0,1.2,0,1,1.2c-0.2,1-0.4,1.9-0.6,2.9
		c0.3,0,0.3-0.2,0.4-0.3c1-1.2,2.1-2.3,3.1-3.5c0.2-0.3,0.5-0.4,0.8-0.4c0.9,0,1.8,0,2.8,0c-0.8,0.8-1.4,1.5-2.1,2.3
		c-0.8,0.9-1.6,1.7-2.4,2.6c-0.2,0.2-0.3,0.4-0.1,0.7c0.8,1.5,1.6,3,2.4,4.5c0.2,0.4,0.2,0.5-0.3,0.5c-0.8,0-1.6,0-2.4,0
		c-0.3,0-0.5-0.1-0.6-0.4C64.8,23.4,64.2,22.1,63.5,20.7z"/>
	<path fill="#FFFFFF" d="M37,25.1c1.6-3,3.2-5.9,4.8-8.8c0.3-0.6,0.5-1.3,1-1.6c0.5-0.3,1.2-0.1,1.9-0.1c0.1,0,0.3,0,0.4,0
		c1.1,0,1.1,0,1.2,1c0.4,3,0.8,6,1.2,9.1c0.1,0.4-0.1,0.5-0.4,0.5c-0.7,0-1.4,0-2,0c-0.3,0-0.5-0.1-0.5-0.4c0-0.5,0.1-1.1-0.2-1.3
		c-0.3-0.2-0.9-0.1-1.4-0.1c0,0,0,0-0.1,0c-1.3-0.2-2.3,0.1-2.6,1.5c0,0.2-0.2,0.3-0.4,0.3C38.9,25.1,38,25.1,37,25.1z M43.9,17.4
		c0,0-0.1,0-0.1,0c-0.5,1.1-1.1,2.2-1.6,3.4c-0.1,0.2,0,0.3,0.2,0.3c0.5,0,1,0,1.5,0c0.4,0,0.4-0.1,0.4-0.4
		C44.1,19.5,44,18.5,43.9,17.4z"/>
	<path fill="#FFFFFF" d="M28.7,5.1c0-1.6,0-3.1,0-4.7c0-0.4,0.1-0.5,0.5-0.5c1.2,0,2.4,0,3.6,0c1.3,0,2.5,0.5,3,1.7
		c0.6,1.3,0.6,2.7-0.3,3.9c-0.6,0.9-1.5,1.2-2.6,1.2c-0.5,0-1.2-0.2-1.4,0.1c-0.2,0.3-0.1,0.9-0.1,1.4c0,0.4,0,0.8,0,1.2
		c0,0.5-0.1,0.6-0.6,0.6c-0.6,0-1.1,0-1.7,0c-0.3,0-0.4-0.1-0.4-0.4C28.7,8.3,28.7,6.7,28.7,5.1C28.7,5.1,28.7,5.1,28.7,5.1z
		 M31.3,3.5c0,0.3,0,0.6,0,0.8c0,0.1,0,0.3,0.1,0.3c0.5,0,1,0.1,1.5-0.2c0.4-0.3,0.5-0.7,0.4-1.2c-0.1-0.7-0.6-1-1.7-0.9
		c-0.7,0-0.2,0.6-0.4,0.9C31.3,3.3,31.3,3.4,31.3,3.5z"/>
	<path fill="#FFFFFF" d="M80.4,9.5c-1.5,1.7-4.1,1.3-4.9-1c-0.4-1-0.4-2.1-0.1-3.1c0.6-2.5,3.3-3.3,5-1.5c-0.1-0.8,0.3-0.8,0.8-0.7
		c0.5,0,1.1-0.2,1.4,0.1c0.3,0.3,0.1,0.9,0.1,1.4c0,1.7,0,3.4,0,5.1c0,0.4-0.1,0.5-0.5,0.5c-0.4,0-0.8,0-1.1,0
		C80.6,10.3,80.2,10.3,80.4,9.5z M80.5,6.8c0-0.2,0-0.4-0.1-0.6c-0.2-0.7-0.7-1.1-1.4-1.1c-0.7,0-1.2,0.4-1.3,1.2
		c-0.1,0.5-0.1,1,0.2,1.5c0.4,0.9,1.6,1,2.2,0.2C80.4,7.6,80.5,7.2,80.5,6.8z"/>
	<path fill="#FFFFFF" d="M42,3.9c-0.1-0.7,0.3-0.7,0.8-0.7c0.3,0,0.6,0,0.9,0c0.5-0.1,0.7,0.1,0.7,0.6c0,2,0,4,0,6
		c0,0.4-0.1,0.6-0.5,0.5c-0.4,0-0.8,0-1.1,0c-0.5,0-0.8-0.1-0.6-0.8c-0.5,0.5-1,0.9-1.6,1c-1.4,0.2-2.7-0.5-3.2-1.9
		c-0.5-1.2-0.5-2.5,0-3.7c0.8-2.1,3-2.5,4.7-1C41.9,3.8,41.9,3.8,42,3.9z M42.1,6.7c0-0.3,0-0.5-0.2-0.8c-0.2-0.5-0.6-0.8-1.2-0.8
		c-0.6,0-1,0.2-1.3,0.8c-0.3,0.6-0.3,1.2,0,1.8c0.5,0.9,1.7,1,2.3,0.1C42.1,7.5,42.1,7.1,42.1,6.7z"/>
	<path fill="#FFFFFF" d="M48.3,6.8c0.7-1.1,1.4-2.1,2-3.2c0.2-0.3,0.3-0.4,0.7-0.4c0.5,0,1,0,1.5,0c0.2,0,0.3,0.1,0.3,0.3
		c0,2.2,0,4.3,0,6.5c0,0.3-0.1,0.3-0.4,0.3c-0.5,0-1.1,0-1.6,0c-0.3,0-0.4-0.1-0.4-0.4c0-1.1,0-2.1-0.1-3.2c-0.6,1-1.3,2.1-1.8,3.1
		c-0.2,0.4-0.5,0.6-1,0.5c-0.4,0-0.9,0-1.3,0c-0.3,0-0.4-0.1-0.4-0.4c0-2.1,0-4.3,0-6.4c0-0.3,0.1-0.4,0.4-0.4c0.5,0,1.1,0,1.6,0
		c0.3,0,0.5,0.1,0.4,0.4c0,0.8,0,1.7,0,2.5C48.2,6.3,48.1,6.5,48.3,6.8z"/>
	<path fill="#FFFFFF" d="M86.6,6.8c0.7-1.1,1.3-2.1,2-3.2c0.2-0.3,0.3-0.4,0.7-0.4c0.5,0,1,0,1.5,0c0.3,0,0.4,0,0.4,0.4
		c0,2.1,0,4.3,0,6.4c0,0.3-0.1,0.4-0.3,0.4c-0.7,0-1.5,0.2-1.9-0.1c-0.4-0.3-0.1-1.2-0.1-1.8c0-0.6,0-1.2,0-1.8
		c-0.3,0-0.3,0.2-0.4,0.4C87.8,8,87.2,9,86.6,10c-0.1,0.2-0.3,0.4-0.6,0.3c-0.5,0-1,0-1.5,0c-0.4,0-0.4-0.1-0.4-0.5
		c0-2.1,0-4.1,0-6.2c0-0.3,0.1-0.5,0.4-0.5c0.5,0,1,0,1.5,0c0.4,0,0.4,0.1,0.4,0.4c0,1,0,2.1,0,3.1C86.5,6.7,86.6,6.7,86.6,6.8z"/>
	<path fill="#FFFFFF" d="M114.2,6.7c0,1.1,0,2.1,0,3.2c0,0.3-0.1,0.4-0.4,0.4c-0.5,0-1.1,0-1.6,0c-0.3,0-0.4-0.1-0.3-0.4
		c0-0.7,0-1.4,0-2c0-0.3-0.1-0.5-0.4-0.4c-0.4,0-0.9,0-1.4,0c-0.3,0-0.4,0.1-0.4,0.4c0,0.7,0,1.4,0,2c0,0.3,0,0.4-0.4,0.4
		c-0.5,0-1.1,0-1.6,0c-0.3,0-0.4-0.1-0.4-0.4c0-2.1,0-4.2,0-6.3c0-0.3,0.1-0.4,0.4-0.4c0.5,0,1.1,0,1.6,0c0.3,0,0.4,0.1,0.4,0.4
		c0,0.6,0,1.1,0,1.7c0,0.3,0.1,0.4,0.4,0.4c0.6,0,1.3,0.2,1.7-0.1c0.3-0.2,0.1-1,0.1-1.6c0-0.1,0-0.2,0-0.3
		c-0.1-0.4,0.1-0.6,0.5-0.6c0.5,0,1,0,1.5,0c0.3,0,0.4,0.1,0.4,0.4C114.2,4.6,114.2,5.7,114.2,6.7z"/>
	<path fill="#FFFFFF" d="M106.1,8.1c-0.1,0.6-0.4,1-0.7,1.4c-1.1,1.2-2.6,1.3-4,0.9c-1.5-0.4-2.2-1.6-2.3-3.1c0-0.4,0-0.9,0-1.3
		c0.4-2.5,2.9-3.8,5.2-2.7c1.1,0.6,1.6,1.6,1.8,2.7c0.2,1.3,0.2,1.3-1.1,1.3c-1.1,0-2.2,0-3.3,0c-0.4,0-0.5,0.2-0.4,0.5
		c0.1,0.6,0.5,1.1,1.1,1.1c0.6,0.1,1.1,0,1.4-0.6c0.1-0.1,0.1-0.2,0.3-0.2C104.7,8.1,105.4,8.1,106.1,8.1z M102.5,5.9
		C102.5,5.9,102.5,5.9,102.5,5.9c0.3,0,0.7,0,1,0c0.3,0,0.4-0.1,0.3-0.4c-0.2-0.5-0.5-0.9-1-1c-0.6-0.1-1.1,0.2-1.3,0.7
		c-0.3,0.6-0.3,0.7,0.4,0.7C102,5.9,102.3,5.9,102.5,5.9z"/>
	<path fill="#FFFFFF" d="M96.9,6.6c0.8,0.3,1.3,0.9,1.2,1.8c0,0.9-0.5,1.5-1.3,1.9c-1.6,0.6-3.1,0.3-4.5-0.4
		c-0.2-0.1-0.2-0.2-0.2-0.4c0-0.1,0.1-0.2,0.1-0.3c0.1-0.4,0.2-0.9,0.4-1.1c0.3-0.2,0.6,0.3,1,0.4c0.5,0.1,0.9,0.2,1.4,0.1
		c0.3-0.1,0.6-0.3,0.6-0.7c0-0.4-0.3-0.5-0.6-0.5c-0.1,0-0.2,0-0.3,0c-0.3,0-0.8,0.2-0.9-0.1c-0.2-0.4-0.1-0.8-0.1-1.3
		c0-0.2,0.2-0.2,0.3-0.2c0.3,0,0.7,0,1,0c0.3,0,0.6-0.2,0.6-0.5c0-0.4-0.2-0.6-0.6-0.6c-0.7-0.1-1.3,0.1-1.8,0.4
		C93,5.2,92.9,5.2,92.8,5c0-0.1-0.1-0.2-0.1-0.3c-0.5-1.1-0.5-1.1,0.7-1.5C94.3,2.9,95.1,2.9,96,3c0.8,0.2,1.5,0.5,1.7,1.3
		c0.2,0.9,0,1.6-0.7,2.2C97,6.5,97,6.6,96.9,6.6z"/>
	<path fill="#FFFFFF" d="M49.5,2.3c-1,0-1.9-0.3-2.4-1.2c-0.2-0.3-0.2-0.5,0.2-0.6c0.2,0,0.3-0.1,0.5-0.2c0.4-0.2,0.7-0.3,1,0.2
		C49,1.1,50.1,1,50.4,0.4c0.2-0.4,0.4-0.3,0.6-0.2c0.1,0.1,0.3,0.1,0.4,0.2c0.7,0.3,0.8,0.4,0.2,1.1C51.1,2.1,50.3,2.3,49.5,2.3z"/>
	<path fill="#FFFFFF" d="M87.5,2.3c-0.8,0-1.6-0.4-2.2-1.3c-0.2-0.3-0.1-0.4,0.2-0.5c0.2,0,0.3-0.1,0.5-0.2c0.4-0.2,0.7-0.4,1,0.2
		c0.3,0.6,1.5,0.5,1.8-0.2c0.2-0.3,0.3-0.3,0.5-0.2c0.2,0.1,0.3,0.1,0.5,0.2c0.7,0.3,0.7,0.4,0.2,0.9C89.5,2,88.7,2.3,87.5,2.3z"/>
	<path fill="#FFFFFF" d="M22.9,7.7c-0.1,0-0.1-0.1-0.2-0.2c-0.7-0.6-0.7-0.6-1.3,0c-0.9,0.9-1.7,1.7-2.6,2.6c-0.2,0.3-0.4,0.2-0.7,0
		c-0.6-0.4-0.7-1-0.7-1.6c0-0.4,0-0.8,0-1.3c-0.8,0.4-1,0.8-1,1.6c0,0.1,0,0.2,0,0.3c0.2,1.2-0.1,2.3-1.2,3c-0.4,0.3,0,0.4,0.1,0.6
		c2.1,2.1,4.2,4.2,6.3,6.3c0.7,0.7,0.7,0.7,0,1.3c-0.6,0.6-1.2,1.2-1.8,1.8c-0.3,0.3-0.5,0.4-0.8,0c-2.2-2.2-4.3-4.3-6.5-6.5
		c-0.3-0.3-0.5-0.4-0.8,0c-2.1,2.2-4.3,4.3-6.5,6.5c-0.3,0.3-0.5,0.3-0.8,0c-0.7-0.7-1.4-1.5-2.2-2.1c-0.3-0.3-0.3-0.4,0-0.7
		c2.2-2.2,4.3-4.3,6.5-6.5c0.3-0.3,0.4-0.5,0-0.8c-0.9-0.6-1.2-1.5-1-2.5c0-0.2,0-0.4,0-0.6c0.2-0.8-0.4-1.2-1-1.7
		c0,0.7,0,1.2,0,1.8c0,0.4-0.6,1.2-0.9,1.3c-0.2,0.1-0.3-0.1-0.4-0.2C4.5,9.2,3.6,8.3,2.7,7.3c-0.4-0.4-0.6-0.4-0.9,0
		C1.7,7.5,1.6,7.6,1.4,7.7C1.3,7,1.5,6.4,1.7,5.8c0.4-1.1,1-2,1.9-2.7c1.2-0.9,2.7-0.9,3.8,0.1c1.2,1.1,2.3,2.3,3.5,3.4
		c0.3,0.3,0,0.5-0.2,0.6c-0.5,0.4-0.5,0.6,0,1c0.4,0.3,0.8,0.7,1.1,1.1c0.2,0.2,0.3,0.2,0.5,0c0.4-0.5,0.9-0.9,1.3-1.3
		c0.3-0.2,0.3-0.4,0-0.6c-0.6-0.5-0.6-0.6,0-1.1c0.9-0.9,1.9-1.9,2.8-2.8c1.3-1.3,3.1-1.3,4.4-0.1c1.2,1.1,1.8,2.5,2,4.1
		C23,7.4,23,7.6,22.9,7.7z"/>
</g>
</svg>
