<!-- Generator: Adobe Illustrator 17.1.0, SVG Export Plug-In  -->
<svg version="1.1"
	 xmlns="http://www.w3.org/2000/svg" xmlns:xlink="http://www.w3.org/1999/xlink" xmlns:a="http://ns.adobe.com/AdobeSVGViewerExtensions/3.0/"
	 x="0px" y="0px" width="158.9px" height="30.6px" viewBox="0 0 158.9 30.6" enable-background="new 0 0 158.9 30.6"
	 xml:space="preserve">
<defs>
</defs>
<g id="Page_1_2_">
	<g id="Layer_1_1_">
		<g>
			<path fill="#FFFFFF" d="M34,23.6h-2.1V10.9h4.9c1.4,0,2.4,0.4,3.1,1.1c0.7,0.7,1,1.6,1,2.6c0,1.2-0.4,2.1-1.1,2.8
				c-0.7,0.7-1.7,1.1-2.8,1.1h-3V23.6L34,23.6z M34,16.6h2.5c0.7,0,1.2-0.2,1.5-0.5c0.4-0.3,0.5-0.8,0.5-1.4c0-0.5-0.2-1-0.5-1.3
				c-0.3-0.4-0.9-0.6-1.8-0.6H34L34,16.6L34,16.6z M45.7,23.8c-1.3,0-2.3-0.5-3-1.5c-0.7-1-1-2.1-1-3.4c0-1.4,0.4-2.5,1.1-3.5
				c0.8-0.9,1.8-1.4,3-1.4c1.2,0,2.2,0.5,2.9,1.3c0.8,0.9,1.1,2.1,1.1,3.5c0,1.5-0.4,2.7-1.2,3.6C47.9,23.3,46.9,23.8,45.7,23.8
				L45.7,23.8z M45.8,22c1.3,0,2-1.1,2-3.2c0-1-0.2-1.7-0.5-2.3c-0.3-0.6-0.8-0.8-1.5-0.8c-0.7,0-1.2,0.3-1.5,0.9
				c-0.3,0.6-0.5,1.3-0.5,2.3c0,1,0.2,1.8,0.5,2.3C44.7,21.7,45.1,22,45.8,22L45.8,22z M56.8,20.1l1.7,0.2c-0.2,1.2-0.7,2-1.3,2.6
				c-0.6,0.6-1.4,0.8-2.3,0.8c-1.2,0-2.2-0.5-2.8-1.4c-0.7-0.9-1-2.1-1-3.5c0-1.4,0.4-2.6,1.1-3.5c0.7-0.9,1.7-1.4,2.9-1.4
				c1.9,0,3.1,1.1,3.4,3.2l-1.7,0.2c-0.1-1.2-0.7-1.7-1.6-1.7c-0.7,0-1.2,0.3-1.5,0.9c-0.3,0.6-0.5,1.4-0.5,2.3
				c0,0.9,0.2,1.7,0.5,2.2c0.3,0.5,0.8,0.8,1.3,0.8C55.9,21.9,56.5,21.3,56.8,20.1L56.8,20.1z M65.1,20.1l1.7,0.2
				c-0.2,1.2-0.7,2-1.3,2.6c-0.6,0.6-1.4,0.8-2.3,0.8c-1.2,0-2.2-0.5-2.8-1.4c-0.7-0.9-1-2.1-1-3.5c0-1.4,0.4-2.6,1.1-3.5
				c0.7-0.9,1.7-1.4,2.9-1.4c1.9,0,3.1,1.1,3.4,3.2l-1.7,0.2c-0.1-1.2-0.7-1.7-1.6-1.7c-0.7,0-1.2,0.3-1.5,0.9
				c-0.3,0.6-0.5,1.4-0.5,2.3c0,0.9,0.2,1.7,0.5,2.2c0.3,0.5,0.8,0.8,1.3,0.8C64.2,21.9,64.8,21.3,65.1,20.1L65.1,20.1z M74,20.6
				l1.8,0.3c-0.2,0.8-0.7,1.5-1.4,2.1c-0.7,0.6-1.5,0.8-2.5,0.8c-1.2,0-2.2-0.4-3-1.3c-0.7-0.9-1.1-2.1-1.1-3.5
				c0-1.4,0.4-2.6,1.1-3.5c0.8-0.9,1.8-1.4,3.1-1.4c1.3,0,2.2,0.5,2.9,1.4c0.7,0.9,1,2.1,1,3.5l0,0.2h-6.1c0,0.6,0.1,1.1,0.2,1.5
				c0.1,0.4,0.3,0.7,0.7,1c0.3,0.3,0.8,0.4,1.3,0.4C72.9,22.1,73.6,21.6,74,20.6L74,20.6z M73.8,17.8c0-0.7-0.2-1.2-0.6-1.7
				c-0.4-0.4-0.8-0.6-1.4-0.6c-0.5,0-1,0.2-1.4,0.6c-0.4,0.4-0.6,1-0.6,1.7L73.8,17.8L73.8,17.8z M76.4,23.6l2.8-9.4h2.3l2.7,9.4
				h-2.1l-2-7.7L78,23.6H76.4L76.4,23.6z M85.4,23.6v-9.4h2v3.4h2.3c1,0,1.7,0.3,2.2,0.9c0.5,0.6,0.7,1.3,0.7,2.1
				c0,0.9-0.3,1.7-0.8,2.2c-0.5,0.5-1.2,0.8-2.2,0.8H85.4L85.4,23.6z M87.4,21.9h1.9c0.5,0,0.8-0.1,1.1-0.3c0.2-0.2,0.3-0.5,0.3-1
				c0-1-0.5-1.4-1.4-1.4h-1.9L87.4,21.9L87.4,21.9z M100.9,23.6h-2.3l-1.9-3.4l-2,3.4H93l2.9-4.8l-2.5-4.6h2.3l1.4,2.8l1.7-2.8h1.7
				l-2.5,4.1L100.9,23.6L100.9,23.6z M105.3,23.8c-1.3,0-2.3-0.5-3-1.5c-0.7-1-1-2.1-1-3.4c0-1.4,0.4-2.5,1.1-3.5
				c0.8-0.9,1.8-1.4,3-1.4c1.2,0,2.2,0.5,2.9,1.3c0.8,0.9,1.1,2.1,1.1,3.5c0,1.5-0.4,2.7-1.2,3.6C107.5,23.3,106.5,23.8,105.3,23.8
				L105.3,23.8z M105.3,22c1.3,0,2-1.1,2-3.2c0-1-0.2-1.7-0.5-2.3c-0.3-0.6-0.8-0.8-1.5-0.8c-0.7,0-1.2,0.3-1.5,0.9
				c-0.3,0.6-0.5,1.3-0.5,2.3c0,1,0.2,1.8,0.5,2.3C104.2,21.7,104.7,22,105.3,22L105.3,22z M113.2,19.5V18c1,0,1.6-0.1,1.8-0.4
				c0.2-0.3,0.4-0.5,0.4-0.9c0-0.4-0.1-0.6-0.4-0.9c-0.2-0.2-0.6-0.3-1-0.3c-0.9,0-1.5,0.5-1.6,1.4l-1.8-0.3
				c0.4-1.7,1.6-2.6,3.6-2.6c1.1,0,1.9,0.2,2.5,0.7c0.6,0.5,0.8,1.1,0.8,1.8c0,0.9-0.5,1.6-1.6,2c1.3,0.4,1.9,1.1,1.9,2.3
				c0,0.8-0.3,1.5-0.9,2.1c-0.6,0.6-1.5,0.8-2.6,0.8c-2.1,0-3.4-1-3.8-2.9l1.8-0.3c0.2,1.1,0.8,1.7,1.8,1.7c0.5,0,0.9-0.1,1.2-0.4
				c0.3-0.3,0.4-0.6,0.4-1.1c0-0.3-0.1-0.6-0.3-0.8c-0.2-0.2-0.4-0.4-0.7-0.4C114.3,19.5,113.8,19.5,113.2,19.5L113.2,19.5z
				 M119.5,23.6V10.9h8v2.3h-5.2v2.8h2c1,0,1.9,0.1,2.5,0.3c0.6,0.2,1.1,0.6,1.5,1.2c0.4,0.6,0.6,1.3,0.6,2.2c0,1.2-0.4,2.2-1.1,2.9
				c-0.7,0.7-1.7,1-2.9,1H119.5L119.5,23.6z M122.3,21.2h2.1c0.5,0,0.9-0.1,1.2-0.4c0.3-0.3,0.4-0.7,0.4-1.1c0-1-0.6-1.5-1.8-1.5
				h-1.9V21.2L122.3,21.2z M138.2,23.6h-2.5c-0.1-0.4-0.1-0.9-0.1-1.5c-0.4,0.7-0.9,1.1-1.3,1.3c-0.4,0.2-0.9,0.3-1.5,0.3
				c-0.8,0-1.5-0.2-2-0.7c-0.5-0.5-0.8-1.1-0.8-1.9c0-0.6,0.1-1.1,0.4-1.6c0.3-0.5,0.8-0.9,1.4-1.2c0.7-0.3,1.9-0.5,3.6-0.6v-0.5
				c0-0.9-0.4-1.4-1.3-1.4c-0.9,0-1.4,0.5-1.5,1.4l-2.4-0.2c0.2-1.1,0.6-1.8,1.4-2.3c0.8-0.4,1.7-0.7,2.7-0.7c0.6,0,1.2,0.1,1.7,0.2
				c0.5,0.1,0.9,0.4,1.2,0.7c0.3,0.3,0.5,0.6,0.6,0.9c0.1,0.3,0.2,0.9,0.2,1.7v4.3C138,22.6,138.1,23.2,138.2,23.6L138.2,23.6z
				 M135.4,19.1c-1.8,0.2-2.7,0.8-2.7,1.8c0,0.3,0.1,0.6,0.3,0.8c0.2,0.2,0.5,0.4,0.8,0.4c0.5,0,0.8-0.2,1.2-0.6
				c0.3-0.4,0.5-0.9,0.5-1.5V19.1L135.4,19.1z M140.2,23.6v-9.4h2.6v3.4h2.7v-3.4h2.6v9.4h-2.6v-4h-2.7v4H140.2L140.2,23.6z
				 M155.9,17.4l3,6.2h-2.7l-2.1-4.2l-1.3,1.5v2.7h-2.6v-9.4h2.6v2.3c0,0.4,0,0.9,0,1.7c0.2-0.3,0.5-0.6,0.7-1l2.7-3h2.4L155.9,17.4
				L155.9,17.4z"/>
			<g>
				<path fill="#FFFFFF" d="M12.8,4.5C5.8,4.5,0,10.3,0,17.5c0,7.2,5.8,13,12.8,13c7.1,0,12.8-5.9,12.8-13
					C25.7,10.3,19.9,4.5,12.8,4.5L12.8,4.5z M10.5,26.2V30c-0.4-0.1-0.9-0.2-1.3-0.3V18.3H11c0.5,0,0.8,0.1,1,0.3
					c0.2,0.2,0.3,0.5,0.3,1v5.3c0,0.5-0.1,0.8-0.3,1c-0.3,0.3-0.8,0.3-1.3,0.3C10.7,26.2,10.6,26.2,10.5,26.2L10.5,26.2z M12.8,30.2
					c-0.6,0-1.2,0-1.8-0.1v-3.3c0.9,0,1.4-0.3,1.7-0.9v3.3C12.7,29.6,12.8,29.9,12.8,30.2C12.9,30.2,12.9,30.2,12.8,30.2L12.8,30.2z
					 M16.4,22.4h-1.3v-2.9h-0.6v9.9h0.6V23h1.3v6.2c0,0.2,0,0.4,0,0.5c-0.9,0.3-1.8,0.4-2.8,0.5c-0.2-0.3-0.3-0.7-0.3-1v-9.5
					c0-0.5,0.1-0.8,0.3-1s0.5-0.3,1-0.3c0.5,0,1.2-0.1,1.6,0.3c0.2,0.2,0.3,0.5,0.3,1V22.4L16.4,22.4z M20.5,27.5
					c-0.4,0.3-0.9,0.7-1.4,0.9V23h-0.6v5.8c-0.4,0.2-0.9,0.4-1.4,0.6v-6.2c0-0.6,0.1-1,0.7-1.2l-0.6-3.5h1.3l0.2,3.8h0.2l0.2-3.8
					h1.4L19.7,22c0.6,0.2,0.7,0.6,0.7,1.2L20.5,27.5L20.5,27.5z M16.9,22v-2.2l0.4,2C17.2,21.8,17,21.9,16.9,22L16.9,22z M20.9,22.3
					c-0.1-0.3-0.3-0.5-0.6-0.6l0.6-3.2V22.3L20.9,22.3z M25.2,19.3c0,0.1,0,0.1,0,0.2H23V20h0.3c0.6,0,1.3,0,1.6,0.4
					c-0.3,1.2-0.7,2.3-1.3,3.4V21H23v3.8c-0.4,0.6-0.9,1.2-1.4,1.7c0,0,0,0-0.1,0.1v-8.1h3.6L25.2,19.3L25.2,19.3z M16.6,17.9
					l0.1,0.6c-0.3-0.5-0.8-0.8-1.6-0.8h-0.6c-0.9,0-1.5,0.4-1.7,1.1c-0.2-0.8-0.8-1.2-1.8-1.2H8.6v11.7c-1.7-0.6-3.3-1.7-4.6-3
					c-2.3-2.3-3.7-5.5-3.7-8.9c0-3.5,1.4-6.7,3.7-8.9c2.3-2.3,5.4-3.7,8.8-3.7c3.4,0,6.5,1.4,8.8,3.7c2.3,2.3,3.7,5.5,3.7,8.9
					c0,0.1,0,0.3,0,0.4H16.6L16.6,17.9z M10.5,25.1H11v-5.7h-0.6V25.1L10.5,25.1z"/>
				<polygon fill="#FFFFFF" points="2.1,10.6 2.1,11.1 2.2,11.5 2.3,11.8 2.4,12.2 2.5,12.5 2.7,12.9 2.9,13.2 3.1,13.5 3.3,13.8
					3.6,14.1 4.1,14.7 4.6,15.2 5.2,15.7 5.7,16.3 6.3,16.8 6.8,17.4 7,17.7 7.3,18 7.5,18.3 7.6,18.6 7.8,18.9 8,19.3 8.1,19.6
					8.2,20 8.2,20.4 8.2,20.8 8.2,24.3 8.2,23.9 8.1,23.5 8,23.1 7.9,22.7 7.8,22.4 7.6,22 7.4,21.7 7.2,21.4 7,21.1 6.8,20.8
					6.3,20.3 5.7,19.7 5.2,19.2 4.6,18.7 4.1,18.1 3.6,17.5 3.3,17.3 3.1,16.9 2.9,16.6 2.7,16.3 2.5,16 2.4,15.6 2.3,15.3
					2.2,14.9 2.1,14.5 2.1,14.1 				"/>
				<polygon fill="#FFFFFF" points="1.5,15 1.6,15.5 1.6,15.9 1.7,16.3 1.9,16.7 2,17 2.2,17.4 2.4,17.7 2.6,18.1 2.9,18.4
					3.1,18.7 3.7,19.3 4.3,19.8 4.9,20.4 5.5,21 6.1,21.6 6.7,22.1 6.9,22.5 7.2,22.8 7.4,23.1 7.6,23.4 7.8,23.8 7.9,24.2 8,24.6
					8.2,25 8.2,25.4 8.2,25.8 8.2,29.5 8.2,29 8.1,28.6 8,28.2 7.9,27.8 7.8,27.5 7.6,27.1 7.4,26.8 7.1,26.4 6.9,26.1 6.6,25.8
					6.1,25.2 5.5,24.6 4.9,24.1 4.3,23.5 3.7,22.9 3.1,22.3 2.8,22 2.6,21.7 2.4,21.4 2.2,21 2,20.7 1.8,20.3 1.7,19.9 1.6,19.5
					1.6,19.1 1.5,18.7 				"/>
				<path fill="#FFFFFF" d="M25.1,13H17c-0.1-0.2-0.2-0.3-0.3-0.3c-0.1,0-0.3,0.1-0.3,0.3h-0.3c-0.1-0.2-0.2-0.3-0.3-0.3
					c-0.1,0-0.3,0.1-0.3,0.3h-0.2c0.2-0.2,0.3-0.5,0.3-0.8c0-0.8-0.6-1.5-1.5-1.5c-0.9,0-1.6,0.7-1.6,1.5c0,0.4,0.3,0.7,0.4,1
					c-0.1,0-0.3,0.2-0.3,0.3c0,0.2,0.1,0.3,0.3,0.3c-0.1,0.3-0.4,0.5-0.4,1c0,0.8,0.7,1.5,1.6,1.5c0.9,0,1.5-0.7,1.5-1.5
					c0-0.3-0.1-0.6-0.3-0.8h0.2c0.1,0.2,0.2,0.3,0.3,0.3c0.1,0,0.3-0.1,0.3-0.3h0.3c0.1,0.2,0.2,0.3,0.3,0.3c0.1,0,0.3-0.1,0.3-0.3
					H23v0.3h-0.3V15H23l0.3,0.4l-0.5-0.1v0.9h0.5v-0.4H24v0.4h0.5v-0.9L24,15.4l0.3-0.4h0.3v-0.7h-0.3V14h0.8c0.2,0,0.4-0.2,0.4-0.4
					v-0.2C25.5,13.2,25.3,13,25.1,13L25.1,13z M14.2,12.9c0.3,0,0.5,0.3,0.5,0.6c0,0.3-0.2,0.6-0.5,0.6l-0.1,0.3
					c0.4,0,0.8,0,0.8,0.5c0,0.5-0.3,0.9-0.9,0.9c-0.6,0-1-0.4-1-0.9c0-0.4,0.1-0.4,0.5-0.6l-0.1-0.2l0.2-0.2
					c-0.1-0.1-0.2-0.2-0.2-0.4c0-0.2,0.1-0.3,0.2-0.4L13.4,13l0.1-0.2c-0.4-0.1-0.5-0.2-0.5-0.6c0-0.5,0.5-0.9,1-0.9
					c0.6,0,0.9,0.4,0.9,0.9c0,0.4-0.3,0.5-0.8,0.5L14.2,12.9L14.2,12.9z"/>
				<polygon fill="#FFFFFF" points="8.4,15.4 8.4,17.4 11.5,14.5 11.5,12.4 				"/>
				<polygon fill="#FFFFFF" points="8.4,8 8.4,10 11.5,7.1 11.5,5 				"/>
				<polygon fill="#FFFFFF" points="8.4,10.5 8.4,12.5 11.5,9.5 11.5,7.5 				"/>
				<polygon fill="#FFFFFF" points="6.4,0 6.2,0 6.2,4 6.4,4 				"/>
				<polygon fill="#FFFFFF" points="7.4,0 7.2,0 7.2,4.8 7.4,4.8 				"/>
				<polygon fill="#FFFFFF" points="8.4,12.9 8.4,14.9 11.5,12 11.5,10 				"/>
				<polygon fill="#FFFFFF" points="8.4,0 8.2,0 8.2,5.4 8.4,5.4 				"/>
				<polygon fill="#FFFFFF" points="8.1,15.4 8.1,17.4 5.1,14.5 5.1,12.4 				"/>
				<polygon fill="#FFFFFF" points="9.4,0 9.2,0 9.2,4.9 9.4,4.9 				"/>
				<polygon fill="#FFFFFF" points="10.4,0 10.2,0 10.2,4.1 10.4,4.1 				"/>
				<polygon fill="#FFFFFF" points="11.4,0 11.2,0 11.2,3.4 11.4,3.4 				"/>
				<polygon fill="#FFFFFF" points="8.1,8 8.1,10 5.1,7.1 5.1,5 				"/>
				<polygon fill="#FFFFFF" points="8.1,10.5 8.1,12.5 5.1,9.5 5.1,7.5 				"/>
				<polygon fill="#FFFFFF" points="8.1,12.9 8.1,14.9 5.1,12 5.1,10 				"/>
				<polygon fill="#FFFFFF" points="5.4,0 5.2,0 5.2,3.4 5.4,3.4 				"/>
				<polygon fill="#FFFFFF" points="8.4,5.5 8.4,7.5 11.5,4.6 11.5,2.6 				"/>
				<polygon fill="#FFFFFF" points="8.1,5.5 8.1,7.5 5.1,4.6 5.1,2.6 				"/>
			</g>
		</g>
	</g>
</g>
</svg>
