<!-- Generator: Adobe Illustrator 17.1.0, SVG Export Plug-In  -->
<svg version="1.1"
	 xmlns="http://www.w3.org/2000/svg" xmlns:xlink="http://www.w3.org/1999/xlink" xmlns:a="http://ns.adobe.com/AdobeSVGViewerExtensions/3.0/"
	 x="0px" y="0px" width="92.4px" height="38.6px" viewBox="0 0 92.4 38.6" enable-background="new 0 0 92.4 38.6"
	 xml:space="preserve">
<defs>
</defs>
<g>
	<g>
		<g>
			<path fill="#FFFFFF" d="M10.3,38c-0.5,0.3-1.8,0.6-3.4,0.6c-4.6,0-6.9-2.9-6.9-6.6c0-4.5,3.2-7,7.2-7c1.6,0,2.7,0.3,3.3,0.6
				l-0.6,2.4c-0.6-0.3-1.5-0.5-2.5-0.5c-2.4,0-4.2,1.4-4.2,4.4c0,2.7,1.6,4.3,4.2,4.3c0.9,0,1.9-0.2,2.5-0.4L10.3,38z"/>
			<path fill="#FFFFFF" d="M11.6,28.8c0.7-0.1,2.4-0.2,3.9-0.2c1.6,0,4.8,0.2,4.8,2.5c0,1.2-1,1.9-2,2.1v0c1.4,0.2,2.4,1,2.4,2.3
				c0,2.7-3.7,3-5.7,3c-1.3,0-2.7-0.1-3.4-0.2V28.8z M14.5,36.6c0.3,0,0.5,0,1,0c1,0,2-0.3,2-1.2c0-0.8-0.8-1.2-2.2-1.2h-0.9V36.6z
				 M14.6,32.5h0.8c1.2,0,2-0.3,2-1c0-0.6-0.5-1-1.7-1c-0.4,0-0.7,0-1,0.1V32.5z"/>
			<path fill="#FFFFFF" d="M30.2,38.3h-2.9v-3.6h-0.6c-0.6,0-1.1,0.3-1.4,0.7c-0.5,0.5-0.7,1.4-1,2.1c-0.1,0.3-0.2,0.5-0.4,0.8h-3.2
				c0.2-0.3,0.4-0.7,0.6-1.1c0.3-0.8,0.7-2,1.4-2.7c0.3-0.3,0.7-0.6,1.2-0.7v-0.1c-1.1-0.1-2.5-0.8-2.5-2.4c0-1.2,0.7-1.9,1.6-2.3
				c0.9-0.4,2.2-0.6,3.5-0.6c1.5,0,2.8,0.1,3.7,0.2V38.3z M27.3,30.5c-0.3,0-0.5-0.1-1-0.1c-1,0-1.8,0.4-1.8,1.2
				c0,0.8,0.9,1.3,1.8,1.3c0.5,0,0.7,0,1,0V30.5z"/>
			<path fill="#FFFFFF" d="M32.8,32.5h1.4c1.2,0,1.8-0.4,1.8-0.9c0-0.5-0.6-1-1.6-1c-0.8,0-1.7,0.3-2.4,0.7l-0.6-1.7
				c1.1-0.7,2.6-1,3.9-1c1.7,0,3.9,0.6,3.9,2.6c0,1.3-1.1,1.9-2.1,2.1v0.1c1.2,0.1,2.5,0.8,2.5,2.3c0,2.3-2.8,2.9-4.8,2.9
				c-1.3,0-2.7-0.3-3.7-0.9l0.6-1.8c0.6,0.4,1.7,0.6,2.7,0.7c1.3,0,1.8-0.5,1.8-1c0-0.8-0.8-1.1-2.1-1.1h-1.4V32.5z"/>
			<path fill="#FFFFFF" d="M43.5,28.7v2.8c0.4-0.1,1-0.1,1.5-0.1c2.2,0,4.6,0.8,4.6,3.3c0,1.2-0.5,2-1.3,2.6
				c-1.2,0.9-3.1,1.1-4.6,1.1c-1.1,0-2.2-0.1-3.2-0.2v-9.5H43.5z M43.5,36.4c0.3,0,0.5,0.1,1,0.1c1,0,2.2-0.3,2.2-1.5
				c0-1.2-1.3-1.5-2.2-1.5c-0.4,0-0.7,0.1-1,0.1V36.4z"/>
			<path fill="#FFFFFF" d="M61.2,25.1v2.5h-5.8v2.3c0.5-0.1,1.1-0.1,1.6-0.1c1.3,0,2.7,0.3,3.7,1.1c0.9,0.7,1.5,1.7,1.5,3.2
				c0,1.3-0.5,2.3-1.3,3c-1.3,1.1-3.4,1.5-5.4,1.5c-1.5,0-2.6-0.1-3.2-0.2V25.1H61.2z M55.4,36.2c0.3,0.1,0.7,0.1,1.2,0.1
				c0.7,0,1.5-0.2,1.9-0.7c0.4-0.4,0.6-0.9,0.6-1.5c0-0.7-0.3-1.2-0.7-1.5c-0.5-0.4-1.3-0.6-2-0.6c-0.3,0-0.7,0-1.1,0.1V36.2z"/>
			<path fill="#FFFFFF" d="M71.5,36c0,0.9,0,1.8,0.1,2.3H69l-0.2-1h-0.1c-0.6,0.8-1.6,1.2-2.7,1.2c-1.9,0-3.1-1.4-3.1-2.9
				c0-2.5,2.2-3.7,5.6-3.7v-0.1c0-0.5-0.3-1.2-1.7-1.2c-1,0-2,0.3-2.6,0.7l-0.5-1.9c0.7-0.4,2-0.8,3.7-0.8c3.2,0,4.2,1.9,4.2,4.1V36
				z M68.6,33.8c-1.6,0-2.8,0.4-2.8,1.5c0,0.8,0.5,1.1,1.2,1.1c0.7,0,1.4-0.5,1.6-1.1c0-0.2,0.1-0.3,0.1-0.5V33.8z"/>
			<path fill="#FFFFFF" d="M75.7,28.7v3.5h3v-3.5h3v9.6h-3v-3.8h-3v3.8h-3v-9.6H75.7z"/>
			<path fill="#FFFFFF" d="M86.2,28.7v3.8h0.3l2.4-3.8h3.5l-3.5,4.1c1.1,0.2,1.8,1.3,2.4,2.7c0.3,0.8,0.7,1.9,1.2,2.8h-3.1
				c-0.3-0.4-0.5-1.1-0.9-2.1c-0.4-1.1-1-1.7-2-1.7h-0.3v3.8h-3v-9.6H86.2z"/>
		</g>
		<g>
			<path fill="#FFFFFF" d="M56.3,0.3c0,0,0.1,0,0.1,0V0H42.3C38.8,0,36,2.8,36,6.2c0,0,0,0,0,0.1h14.2C50.2,3,52.9,0.3,56.3,0.3z"/>
			<path fill="#FFFFFF" d="M36.2,18.6c0,0-0.1,0-0.1,0v0.3h14.2c3.4,0,6.2-2.8,6.2-6.2c0,0,0,0,0-0.1H42.3
				C42.2,15.9,39.5,18.6,36.2,18.6z"/>
			<path fill="#FFFFFF" d="M56.3,12.3c0,0,0.1,0,0.1,0c-0.2-3.2-2.8-5.8-6.1-5.9C50.3,9.7,53,12.3,56.3,12.3z"/>
			<path fill="#FFFFFF" d="M36,6.5c0.2,3.2,2.8,5.8,6.1,5.9c0-3.3-2.7-5.9-6-5.9C36.1,6.5,36.1,6.5,36,6.5z"/>
		</g>
	</g>
</g>
</svg>
