<!-- Generator: Adobe Illustrator 17.1.0, SVG Export Plug-In  -->
<svg version="1.1"
	 xmlns="http://www.w3.org/2000/svg" xmlns:xlink="http://www.w3.org/1999/xlink" xmlns:a="http://ns.adobe.com/AdobeSVGViewerExtensions/3.0/"
	 x="0px" y="0px" width="100.9px" height="26.9px" viewBox="0 0 100.9 26.9" enable-background="new 0 0 100.9 26.9"
	 xml:space="preserve">
<defs>
</defs>
<g>
	<polygon fill="#FFFFFF" points="6.9,15.3 11.1,15.3 11.1,13.9 5.5,13.9 5.5,20.7 6.9,20.7 	"/>
	<polygon fill="#FFFFFF" points="14.4,4.5 18.7,4.5 18.7,3 13,3 13,20.8 14.4,20.8 	"/>
	<polygon fill="#FFFFFF" points="17.2,7.7 21.6,7.7 21.6,21.1 23,21.1 23,6.2 17.2,6.2 	"/>
	<polygon fill="#FFFFFF" points="29.1,21.3 30.6,21.3 30.6,10.2 24.7,10.2 24.7,11.7 29.1,11.7 	"/>
	<rect x="15.9" y="10.5" fill="#FFFFFF" width="1.4" height="1.4"/>
	<rect x="18.8" y="10.5" fill="#FFFFFF" width="1.4" height="1.4"/>
	<rect x="15.9" y="13.6" fill="#FFFFFF" width="1.4" height="1.4"/>
	<rect x="18.8" y="13.6" fill="#FFFFFF" width="1.4" height="1.4"/>
	<rect x="24.9" y="13.6" fill="#FFFFFF" width="1.4" height="1.4"/>
	<rect x="24.9" y="16.6" fill="#FFFFFF" width="1.4" height="1.4"/>
	<rect x="24.9" y="19.6" fill="#FFFFFF" width="1.4" height="1.4"/>
	<rect x="9.9" y="16.6" fill="#FFFFFF" width="1.4" height="1.4"/>
	<rect x="9.9" y="19.6" fill="#FFFFFF" width="1.4" height="1.4"/>
	<path fill="#FFFFFF" d="M42.2,17.7c-0.2,0-0.4,0-0.6,0c-0.2,0-0.4-0.1-0.6-0.2l-0.6,2c0.3,0.2,0.6,0.3,0.8,0.4
		c0.3,0.1,0.6,0.1,1,0.1c0.5,0,0.9-0.1,1.3-0.2c0.4-0.2,0.7-0.4,1-0.8c0.3-0.3,0.6-0.8,0.8-1.3c0.3-0.5,0.5-1.1,0.8-1.8l3.4-8.9
		h-2.6L45,12.5l-0.3,1.7h-0.1l-0.4-1.7l-2.6-5.7h-3l4.8,9.4C43.2,17.2,42.8,17.7,42.2,17.7z"/>
	<polygon fill="#FFFFFF" points="54.5,9.1 59.5,9.1 59.5,6.9 52,6.9 52,19.8 54.5,19.8 	"/>
	<path fill="#FFFFFF" d="M62,19.8l1-2.9h4l1,2.9h2.6l-4.6-13h-1.9l-4.6,13H62z M64.5,12l0.4-2H65l0.4,2l1,2.9h-2.8L64.5,12z"/>
	<polygon fill="#FFFFFF" points="80,12.7 80.9,11 81,11 80.8,12.6 80.8,19.8 83.4,19.8 83.4,6.9 81.5,6.9 76.7,13.8 75.8,15.6
		75.7,15.6 75.8,13.9 75.8,6.9 73.3,6.9 73.3,19.8 75.2,19.8 	"/>
	<polygon fill="#FFFFFF" points="89.8,14.3 90.4,14.3 94.2,19.8 97.3,19.8 93,13.7 92,13 93,12.3 96.8,6.9 93.9,6.9 90.3,12.3
		89.8,12.6 89.8,6.9 87.2,6.9 87.2,19.8 89.8,19.8 	"/>
	<path fill="#FFFFFF" d="M35.3,0h-1H0v26.9h34.3h1h65.6V0H35.3z M34.3,1v21.7h-14V18h-4.6v4.7H1V1H34.3z M1,26v-1.8h16.2v-4.7h1.6
		v4.7h15.5V26H1z M99.9,26H35.3V1h64.7V26z"/>
</g>
</svg>
