<!-- Generator: Adobe Illustrator 17.1.0, SVG Export Plug-In  -->
<svg version="1.1"
	 xmlns="http://www.w3.org/2000/svg" xmlns:xlink="http://www.w3.org/1999/xlink" xmlns:a="http://ns.adobe.com/AdobeSVGViewerExtensions/3.0/"
	 x="0px" y="0px" width="98.1px" height="26.8px" viewBox="0 0 98.1 26.8" enable-background="new 0 0 98.1 26.8"
	 xml:space="preserve">
<defs>
</defs>
<g>
	<path fill="#FFFFFF" d="M29,8.9h-0.3v17.9h7.2c3.3,0,5.5-2,5.5-5.1c0-1.6-0.5-2.7-1.6-3.6c-0.4-0.3-0.9-0.6-1.3-0.8
		c0.4-0.2,0.7-0.4,1-0.7c0.8-0.8,1.3-1.8,1.3-3.1c0-1.3-0.5-2.4-1.5-3.3c-1.2-1.1-2.6-1.3-4.5-1.3H29z M34.4,12.4
		c0.3,0,0.9,0,1.3,0.2c0.5,0.2,0.8,0.8,0.8,1.5c0,0.5-0.2,0.9-0.4,1.2c-0.4,0.4-0.9,0.5-1.4,0.5c0,0-1.6,0-2,0c0-0.4,0-2.9,0-3.4
		C33.1,12.4,34.4,12.4,34.4,12.4z M34.9,19.3c0.5,0,1.1,0.1,1.5,0.4c0.3,0.3,0.6,0.9,0.6,1.5c0,0.5-0.2,1-0.4,1.4
		c-0.4,0.6-0.9,0.7-1.6,0.7c0,0-1.7,0-2.2,0c0-0.5,0-3.7,0-4.1C33.2,19.3,34.9,19.3,34.9,19.3z"/>
	<path fill="#FFFFFF" d="M55.8,8.9H41.6v3.4c0,0,4.5,0,5,0c0,0.5,0,14.4,0,14.4h4c0,0,0-13.9,0-14.5c0.5,0,4.4,0,4.4,0l1.2-3.4H55.8
		z"/>
	<path fill="#FFFFFF" d="M68.9,8.9H57.2v17.9h6.7c1.5,0,2.9-0.4,3.9-1c1-0.7,2.2-2,2.2-4.6c0-2.4-1.1-3.7-1.8-4.2
		c-0.7-0.6-2.1-1.3-4.4-1.3c0,0-2.1,0-2.5,0c0-0.4,0-2.9,0-3.3c0.5,0,6.8,0,6.8,0l1.2-3.4H68.9z M63.2,19.1c0.6,0,1.1,0.1,1.4,0.4
		c0.5,0.4,0.8,0.9,0.8,1.7c0,0.8-0.2,1.3-0.4,1.5c-0.4,0.4-0.9,0.7-1.7,0.7c0,0-1.7,0-2.1,0c0-0.5,0-3.8,0-4.3
		C61.6,19.1,63.2,19.1,63.2,19.1z"/>
	<path fill="#FFFFFF" d="M72.5,9.7c0,0-0.1,0-0.1,0.1c0,0.1,0,3.4,0,3.8c0.2-0.1,0.5-0.2,0.5-0.2c0.4-0.2,2.3-1.3,4-1.4
		c0.7,0,1.3,0.2,1.8,0.6c0.4,0.3,0.6,0.8,0.6,1.3c0,1.6-1.1,2.5-2.5,3.3c-3.4,2-5.5,4.1-5.5,8.4c0,0,0,1,0,1.2c0.3,0,10.9,0,11.2,0
		c0-0.2,0-3.2,0-3.4c-0.3,0-6.9,0-6.9,0l0-0.2c0.3-1.1,1-2,2.4-2.9c0,0,1.7-1.1,1.7-1.1c2-1.3,3.3-3.3,3.4-5.4v-0.1
		c0-1.4-0.5-2.6-1.3-3.5c-1-1.1-2.5-1.6-4.3-1.6C75.9,8.5,73.9,9,72.5,9.7z"/>
	<path fill="#FFFFFF" d="M90.6,8.9c-0.1,0.1-7.1,11.2-7.2,11.3c0,0.1,0,2.9,0,3.1c0.3,0,8,0,8,0s0,3.2,0,3.5c0.2,0,3.1,0,3.3,0
		c0-0.2,0-3.5,0-3.5h2.2l1.2-3.4h-3.4v-3.5h-3.3v3.5h-3.9c0.3-0.5,6-9.5,7-11C94,8.9,90.7,8.9,90.6,8.9z"/>
	<path fill="#FFFFFF" d="M16.6,8.9H3c0,0,0.4,1.3,0.9,2c0.1,0,12.1,0,12.1,0s2.3,1.8,3.4,5H6.7c-2.2-1.8-3.8-4.2-4.7-7
		c0.1-0.3,0.2-0.7,0.4-1h14.2c1.1-0.8,2.2-2,2.2-2H3.3C3.5,5.6,3.8,5.3,4,5h15.6c0.4-0.5,1.2-2,1.2-2H5.7c0.4-0.4,0.7-0.7,1.1-1
		h14.4C21.7,1,22,0,22,0H6.3C3.3,2.1,1,5.3,0,8.9c1,3.6,3.3,6.8,6.3,8.9h15.7C21.9,17.9,21.6,13.1,16.6,8.9z"/>
</g>
</svg>
