<?xml version="1.0" encoding="utf-8"?>
<!-- Generator: Adobe Illustrator 17.1.0, SVG Export Plug-In . SVG Version: 6.00 Build 0)  -->
<!DOCTYPE svg PUBLIC "-//W3C//DTD SVG 1.1//EN" "http://www.w3.org/Graphics/SVG/1.1/DTD/svg11.dtd">
<svg version="1.1" id="Layer_1" xmlns="http://www.w3.org/2000/svg" xmlns:xlink="http://www.w3.org/1999/xlink" x="0px" y="0px"
	 viewBox="0 0 1920 1080" enable-background="new 0 0 1920 1080" xml:space="preserve">
<g>
	<defs>
		<rect id="SVGID_3_" x="0" y="0" width="1920" height="1080"/>
	</defs>
	<clipPath id="SVGID_1_">
		<use xlink:href="#SVGID_3_"  overflow="visible"/>
	</clipPath>
</g>
<polygon opacity="0.38" fill="#E2E3E4" points="1100.4,892.8 824.4,892.8 824.4,919.2 1100.4,919.2 1100.4,908 "/>
<polygon opacity="0.38" fill="#E2E3E4" points="1100.4,859.8 824.4,859.8 824.4,892.4 1100.4,892.4 1100.4,879 "/>
<polygon opacity="0.38" fill="#E2E3E4" points="1100.4,827.2 824.4,827.2 824.4,859.8 1100.4,859.8 1100.4,844 "/>
<polygon opacity="0.38" fill="#E2E3E4" points="1100.6,793.7 824.4,793.7 824.4,826.3 1100.6,826.3 1100.6,813 "/>
<polygon opacity="0.38" fill="#E2E3E4" points="1100.6,760.9 824.4,760.9 824.4,793.5 1100.6,793.5 1100.6,779 "/>
<polygon opacity="0.38" fill="#E2E3E4" points="1100.6,728.3 824.4,728.3 824.4,760.9 1100.6,760.9 1100.6,744 "/>
<polygon opacity="0.38" fill="#E2E3E4" points="1100.6,695.4 824.4,695.4 824.4,728 1100.6,728 1100.6,711.5 "/>
<polygon opacity="0.38" fill="#E2E3E4" points="1100.6,660.8 824.4,660.8 824.4,695.4 1100.6,695.4 1100.6,678.5 "/>
<polygon opacity="0.38" fill="#E2E3E4" points="1100.6,627.1 824.4,627.1 824.4,660.8 1100.6,660.8 1100.6,642 "/>
<polygon opacity="0.38" fill="#E2E3E4" points="1100.6,593 824.4,593 824.4,626.7 1100.6,626.7 1100.6,610.5 "/>
<polygon opacity="0.38" fill="#E2E3E4" points="1100.6,560.1 824.4,560.1 824.4,592.6 1100.6,592.6 1100.6,580 "/>
<polygon opacity="0.38" fill="#E2E3E4" points="1100.6,527.2 824.4,527.2 824.4,559.7 1100.6,559.7 1100.6,547 "/>
<polygon opacity="0.38" fill="#E2E3E4" points="1100.6,494.6 824.4,494.6 824.4,527.1 1100.6,527.1 1100.6,510 "/>
<polygon opacity="0.38" fill="#E2E3E4" points="1100.6,462.3 824.4,462.3 824.4,494.8 1100.6,494.8 1100.6,478.5 "/>
<polygon opacity="0.38" fill="#E2E3E4" points="1100.6,429.7 824.4,429.7 824.4,462.3 1100.6,462.3 1100.6,449 "/>
<polygon opacity="0.38" fill="#E2E3E4" points="1100.6,394.8 824.4,394.8 824.4,429.7 1100.6,429.7 1100.6,415 "/>
<polygon opacity="0.38" fill="#E2E3E4" points="1100.6,361.6 824.4,361.6 824.4,394.4 1100.6,394.4 1100.6,380 "/>
<polygon opacity="0.38" fill="#E2E3E4" points="1100.6,327.8 824.4,327.8 824.4,361.5 1100.6,361.5 1100.6,344.5 "/>
<polygon opacity="0.38" fill="#E2E3E4" points="1100.6,294.4 824.4,294.4 824.4,328.1 1100.6,328.1 1100.6,311.5 "/>
<polygon opacity="0.38" fill="#E2E3E4" points="1100.6,260.6 824.4,260.6 824.4,294.3 1100.6,294.3 1100.6,274 "/>
<polygon opacity="0.38" fill="#E2E3E4" points="1099.8,226.8 824.4,226.8 824.4,260.5 1099.8,260.5 1099.8,245 "/>
<polygon opacity="0.38" fill="#E2E3E4" points="1099.8,193.4 824.4,193.4 824.4,227 1099.8,227 1099.8,213.5 "/>
</svg>
