<!-- Generator: Adobe Illustrator 17.1.0, SVG Export Plug-In  -->
<svg version="1.1"
	 xmlns="http://www.w3.org/2000/svg" xmlns:xlink="http://www.w3.org/1999/xlink" xmlns:a="http://ns.adobe.com/AdobeSVGViewerExtensions/3.0/"
	 x="0px" y="0px" width="229.1px" height="95.9px" viewBox="0 0 229.1 95.9" enable-background="new 0 0 229.1 95.9"
	 xml:space="preserve">
<defs>
</defs>
<g>
	<linearGradient id="SVGID_1_" gradientUnits="userSpaceOnUse" x1="0" y1="47.966" x2="229.068" y2="47.966">
		<stop  offset="0" style="stop-color:#26335D"/>
		<stop  offset="0.9286" style="stop-color:#1B294C"/>
	</linearGradient>
	<rect x="0" y="0" fill="url(#SVGID_1_)" width="229.1" height="95.9"/>

		<rect x="9.3" y="7.4" fill="none" stroke="#80C328" stroke-width="3" stroke-linecap="round" stroke-linejoin="round" stroke-miterlimit="10" width="210.4" height="81.1"/>
	<g>
		<g>
			<path fill="#FFFFFF" d="M202,70.3H158c-0.8,0-1.5-0.7-1.5-1.5V24.8c0-0.8,0.7-1.5,1.5-1.5H202c0.8,0,1.5,0.7,1.5,1.5v44.1
				C203.5,69.7,202.9,70.3,202,70.3z M159.5,67.3h41.1V26.3h-41.1V67.3z"/>
		</g>
		<circle fill="#FFFFFF" cx="169.1" cy="48.8" r="3.2"/>
		<g>
			<path fill="#FFFFFF" d="M170.6,48.6v-15c0-0.8-0.7-1.5-1.5-1.5s-1.5,0.7-1.5,1.5v15H170.6z"/>
			<path fill="#FFFFFF" d="M169.1,52.8c-0.5,0-1-0.1-1.5-0.3V60c0,0.8,0.7,1.5,1.5,1.5s1.5-0.7,1.5-1.5v-7.5
				C170.1,52.7,169.6,52.8,169.1,52.8z"/>
		</g>
		<circle fill="#FFFFFF" cx="180.3" cy="40.8" r="3.2"/>
		<g>
			<path fill="#FFFFFF" d="M181.8,40.6v-7c0-0.8-0.7-1.5-1.5-1.5s-1.5,0.7-1.5,1.5v7H181.8z"/>
			<path fill="#FFFFFF" d="M180.3,44.8c-0.5,0-1-0.1-1.5-0.3V60c0,0.8,0.7,1.5,1.5,1.5s1.5-0.7,1.5-1.5V44.5
				C181.4,44.7,180.8,44.8,180.3,44.8z"/>
		</g>
		<circle fill="#FFFFFF" cx="191.6" cy="52.8" r="3.2"/>
		<g>
			<path fill="#FFFFFF" d="M193.1,52.6v-19c0-0.8-0.7-1.5-1.5-1.5s-1.5,0.7-1.5,1.5v19H193.1z"/>
			<path fill="#FFFFFF" d="M191.6,56.8c-0.5,0-1-0.1-1.5-0.3V60c0,0.8,0.7,1.5,1.5,1.5s1.5-0.7,1.5-1.5v-3.5
				C192.6,56.7,192.1,56.8,191.6,56.8z"/>
		</g>
	</g>
	<g>
		<path fill="#E5E6E7" d="M44.3,40.6h-3.7v-0.4c0.2-0.1,0.4-0.2,0.6-0.3c0.2-0.1,0.4-0.1,0.5-0.1V33c-0.2-0.1-0.5-0.1-0.6-0.2
			s-0.4-0.1-0.5-0.2v-0.4h9.1v0.4c-0.1,0.1-0.3,0.2-0.5,0.3S48.8,33,48.6,33v6.8c0.4,0.1,0.8,0.2,1.1,0.4v0.4h-3.7v-0.4
			c0.1-0.1,0.2-0.2,0.4-0.2c0.2-0.1,0.4-0.1,0.6-0.2v-6.9h-3.8v6.9c0.2,0.1,0.4,0.1,0.6,0.2s0.3,0.1,0.4,0.2V40.6z"/>
		<path fill="#E5E6E7" d="M51.5,36.4c0-0.7,0.1-1.3,0.3-1.9c0.2-0.5,0.5-1,0.8-1.4s0.8-0.7,1.3-0.9c0.5-0.2,1-0.3,1.6-0.3
			c0.7,0,1.3,0.1,1.8,0.3s0.9,0.5,1.3,0.9c0.3,0.4,0.6,0.9,0.7,1.4c0.2,0.5,0.2,1.2,0.2,1.8c0,1.4-0.4,2.5-1.1,3.3
			c-0.7,0.8-1.7,1.2-2.9,1.2c-0.7,0-1.3-0.1-1.8-0.3c-0.5-0.2-0.9-0.5-1.2-0.9c-0.3-0.4-0.6-0.9-0.7-1.4
			C51.6,37.7,51.5,37.1,51.5,36.4z M53.1,36.4c0,0.5,0,1,0.1,1.4c0.1,0.5,0.2,0.8,0.5,1.2c0.2,0.3,0.5,0.6,0.8,0.8s0.7,0.3,1.2,0.3
			c0.6,0,1.1-0.3,1.5-0.9c0.4-0.6,0.6-1.5,0.6-2.8c0-0.5,0-1-0.1-1.5c-0.1-0.4-0.2-0.8-0.5-1.2c-0.2-0.3-0.5-0.6-0.8-0.8
			s-0.7-0.3-1.1-0.3c-0.7,0-1.2,0.3-1.6,0.9S53.1,35.1,53.1,36.4z"/>
		<path fill="#E5E6E7" d="M61.7,40.6L61,43.1h-0.4c-0.1-0.6-0.1-1.1-0.1-1.7s0-1.1,0-1.7h1.2c0.1-0.2,0.3-0.4,0.5-0.7
			c0.2-0.3,0.3-0.8,0.5-1.3c0.2-0.5,0.3-1.2,0.4-1.9C63,35,63,34.2,63,33.2c-0.2-0.1-0.5-0.2-0.6-0.3c-0.2-0.1-0.4-0.2-0.5-0.3v-0.4
			h7.2v0.4c-0.3,0.2-0.7,0.3-1.1,0.4v6.8h1.5c0,0.5,0,1.1,0,1.7s-0.1,1.1-0.2,1.7h-0.4l-0.8-2.5H61.7z M64,33c0,1-0.1,1.9-0.2,2.7
			c-0.1,0.8-0.2,1.4-0.4,1.9c-0.1,0.5-0.3,1-0.5,1.3c-0.2,0.4-0.3,0.6-0.4,0.9h3.9V33H64z"/>
		<path fill="#E5E6E7" d="M71.1,36.2c0-1.5,0.1-2.7,0.4-3.6s0.6-1.8,1.1-2.4c0.5-0.6,1.1-1,1.8-1.3c0.7-0.2,1.6-0.4,2.6-0.4l1.1-0.9
			h0.4c0,0.2,0,0.4-0.1,0.7c0,0.2-0.1,0.5-0.1,0.7c-0.1,0.2-0.1,0.4-0.2,0.6c-0.1,0.2-0.1,0.3-0.1,0.3c-1,0-1.9,0.1-2.7,0.2
			c-0.7,0.1-1.3,0.3-1.8,0.6c-0.5,0.3-0.8,0.8-1.1,1.4c-0.2,0.6-0.4,1.4-0.5,2.4h0.1c0.1-0.3,0.3-0.6,0.6-0.8
			c0.2-0.3,0.5-0.5,0.8-0.7c0.3-0.2,0.6-0.4,1-0.5c0.3-0.1,0.7-0.2,1-0.2c2.3,0,3.5,1.4,3.5,4.2c0,0.7-0.1,1.3-0.3,1.8
			s-0.4,1-0.8,1.4s-0.8,0.7-1.3,0.9c-0.5,0.2-1.1,0.3-1.7,0.3c-0.6,0-1.1-0.1-1.6-0.3c-0.5-0.2-0.9-0.5-1.2-0.9
			c-0.3-0.4-0.6-0.9-0.8-1.5S71.1,36.9,71.1,36.2z M72.7,36.2c0,0.7,0.1,1.3,0.2,1.8c0.1,0.5,0.3,0.9,0.5,1.2
			c0.2,0.3,0.5,0.5,0.8,0.7c0.3,0.1,0.6,0.2,0.9,0.2c0.7,0,1.2-0.3,1.5-0.9s0.5-1.5,0.5-2.6c0-1.2-0.2-2-0.7-2.5
			c-0.4-0.5-1.1-0.8-1.8-0.8c-0.3,0-0.6,0.1-1,0.3c-0.3,0.2-0.6,0.4-0.9,0.7c-0.1,0.3-0.1,0.6-0.1,0.9
			C72.7,35.4,72.7,35.8,72.7,36.2z"/>
		<path fill="#E5E6E7" d="M80.7,36.4c0-0.7,0.1-1.3,0.3-1.9s0.5-1,0.8-1.4c0.3-0.4,0.8-0.7,1.3-0.9c0.5-0.2,1-0.3,1.6-0.3
			c0.7,0,1.3,0.1,1.8,0.3c0.5,0.2,0.9,0.5,1.3,0.9c0.3,0.4,0.6,0.9,0.7,1.4c0.2,0.5,0.2,1.2,0.2,1.8c0,1.4-0.4,2.5-1.1,3.3
			s-1.7,1.2-2.9,1.2c-0.7,0-1.3-0.1-1.8-0.3c-0.5-0.2-0.9-0.5-1.2-0.9c-0.3-0.4-0.6-0.9-0.7-1.4C80.8,37.7,80.7,37.1,80.7,36.4z
			 M82.3,36.4c0,0.5,0,1,0.1,1.4s0.3,0.8,0.5,1.2c0.2,0.3,0.5,0.6,0.8,0.8s0.7,0.3,1.2,0.3c0.6,0,1.1-0.3,1.5-0.9
			c0.4-0.6,0.6-1.5,0.6-2.8c0-0.5,0-1-0.1-1.5c-0.1-0.4-0.2-0.8-0.5-1.2c-0.2-0.3-0.5-0.6-0.8-0.8c-0.3-0.2-0.7-0.3-1.1-0.3
			c-0.7,0-1.2,0.3-1.6,0.9C82.5,34.2,82.3,35.1,82.3,36.4z"/>
		<path fill="#E5E6E7" d="M94.1,44h-3.8v-0.4c0.4-0.2,0.8-0.3,1.1-0.4V33.1L90.4,33v-0.4c0.4-0.2,0.7-0.3,1.1-0.4
			c0.4-0.1,0.8-0.2,1.1-0.2H93v1.9h0c0.2-0.6,0.5-1,1-1.4c0.4-0.3,0.9-0.5,1.6-0.5c1,0,1.8,0.3,2.3,1c0.6,0.7,0.8,1.8,0.8,3.3
			c0,0.7-0.1,1.4-0.3,1.9c-0.2,0.6-0.5,1.1-0.8,1.5s-0.8,0.7-1.3,0.9c-0.5,0.2-1,0.3-1.6,0.3c-0.4,0-0.7,0-1-0.1
			c-0.2-0.1-0.5-0.1-0.8-0.3v2.7c0.2,0,0.4,0.1,0.5,0.1s0.4,0.2,0.6,0.3V44z M95,33c-0.6,0-1,0.2-1.3,0.5S93.1,34.3,93,35v4.8
			c0.2,0.1,0.4,0.2,0.7,0.3c0.3,0.1,0.6,0.1,1,0.1c0.4,0,0.7-0.1,1-0.3s0.6-0.5,0.8-0.8c0.2-0.4,0.4-0.8,0.5-1.2
			c0.1-0.5,0.2-1,0.2-1.6c0-0.5,0-0.9-0.1-1.3c-0.1-0.4-0.2-0.7-0.4-1s-0.4-0.5-0.6-0.7C95.7,33.1,95.4,33,95,33z"/>
		<path fill="#E5E6E7" d="M108.8,40.6h-3.7v-0.4c0.2-0.1,0.4-0.2,0.6-0.3c0.2-0.1,0.4-0.1,0.5-0.1V33c-0.2-0.1-0.5-0.1-0.6-0.2
			c-0.2-0.1-0.4-0.1-0.5-0.2v-0.4h9.1v0.4c-0.1,0.1-0.3,0.2-0.5,0.3c-0.2,0.1-0.4,0.1-0.6,0.2v6.8c0.4,0.1,0.8,0.2,1.1,0.4v0.4h-3.7
			v-0.4c0.1-0.1,0.2-0.2,0.4-0.2c0.2-0.1,0.4-0.1,0.6-0.2v-6.9h-3.8v6.9c0.2,0.1,0.4,0.1,0.6,0.2c0.2,0.1,0.3,0.1,0.4,0.2V40.6z"/>
		<path fill="#E5E6E7" d="M115.9,36.4c0-0.7,0.1-1.3,0.3-1.9c0.2-0.5,0.5-1,0.8-1.4s0.8-0.7,1.3-0.9c0.5-0.2,1-0.3,1.6-0.3
			c0.7,0,1.3,0.1,1.8,0.3s0.9,0.5,1.3,0.9c0.3,0.4,0.6,0.9,0.7,1.4c0.2,0.5,0.2,1.2,0.2,1.8c0,1.4-0.4,2.5-1.1,3.3
			c-0.7,0.8-1.7,1.2-2.9,1.2c-0.7,0-1.3-0.1-1.8-0.3c-0.5-0.2-0.9-0.5-1.2-0.9c-0.3-0.4-0.6-0.9-0.7-1.4
			C116,37.7,115.9,37.1,115.9,36.4z M117.6,36.4c0,0.5,0,1,0.1,1.4c0.1,0.5,0.2,0.8,0.5,1.2c0.2,0.3,0.5,0.6,0.8,0.8
			s0.7,0.3,1.2,0.3c0.6,0,1.1-0.3,1.5-0.9c0.4-0.6,0.6-1.5,0.6-2.8c0-0.5,0-1-0.1-1.5c-0.1-0.4-0.2-0.8-0.5-1.2
			c-0.2-0.3-0.5-0.6-0.8-0.8s-0.7-0.3-1.1-0.3c-0.7,0-1.2,0.3-1.6,0.9S117.6,35.1,117.6,36.4z"/>
		<path fill="#E5E6E7" d="M36.1,62.1h-3.7v-0.4c0.2-0.1,0.4-0.2,0.6-0.3c0.2-0.1,0.4-0.1,0.5-0.1v-6.8c-0.2-0.1-0.5-0.1-0.6-0.2
			s-0.4-0.1-0.5-0.2v-0.4h9.1V54c-0.1,0.1-0.3,0.2-0.5,0.3s-0.4,0.1-0.6,0.2v6.8c0.4,0.1,0.8,0.2,1.1,0.4v0.4h-3.7v-0.4
			c0.1-0.1,0.2-0.2,0.4-0.2c0.2-0.1,0.4-0.1,0.6-0.2v-6.9h-3.8v6.9c0.2,0.1,0.4,0.1,0.6,0.2s0.3,0.1,0.4,0.2V62.1z"/>
		<path fill="#E5E6E7" d="M49.5,59.8c0,0.2,0,0.5,0,0.6c0,0.2,0,0.4,0,0.6l1.2,0.2v0.4c-0.3,0.1-0.6,0.3-0.9,0.4
			c-0.3,0.1-0.7,0.2-1,0.3h-0.4c-0.1-0.3-0.2-0.5-0.2-0.9c0-0.3,0-0.7-0.1-1H48c0,0.2-0.1,0.5-0.3,0.7c-0.1,0.2-0.3,0.4-0.5,0.6
			c-0.2,0.2-0.5,0.3-0.7,0.4s-0.6,0.2-1,0.2c-0.7,0-1.3-0.2-1.7-0.6c-0.4-0.4-0.7-1-0.7-1.6c0-0.5,0.1-0.9,0.3-1.3
			c0.2-0.3,0.5-0.6,0.9-0.8c0.4-0.2,0.9-0.3,1.5-0.4c0.6-0.1,1.3-0.2,2.1-0.2c0-0.5,0.1-0.9,0-1.3c0-0.4-0.1-0.7-0.2-1
			c-0.1-0.3-0.3-0.5-0.5-0.6c-0.2-0.2-0.5-0.2-0.8-0.2c-0.2,0-0.3,0-0.5,0c-0.2,0-0.4,0.1-0.6,0.1l-0.8,2h-0.4
			C44.1,56,44,55.6,44,55.3c-0.1-0.4-0.1-0.7-0.2-1.1c0.4-0.3,0.9-0.5,1.4-0.6c0.5-0.1,1.1-0.2,1.8-0.2c0.6,0,1,0.1,1.4,0.2
			c0.3,0.2,0.6,0.4,0.8,0.6s0.3,0.5,0.4,0.9s0.1,0.6,0.1,1c0,0.7,0,1.3,0,2C49.5,58.6,49.5,59.2,49.5,59.8z M46.2,61.2
			c0.3,0,0.5-0.1,0.7-0.2s0.4-0.3,0.5-0.4c0.1-0.2,0.3-0.3,0.4-0.5c0.1-0.2,0.2-0.3,0.2-0.4v-1.8c-0.7,0-1.2,0-1.6,0.1
			c-0.4,0.1-0.7,0.2-1,0.3c-0.2,0.1-0.4,0.3-0.5,0.6c-0.1,0.2-0.1,0.5-0.1,0.8c0,0.5,0.1,0.9,0.4,1.1C45.5,61.1,45.8,61.2,46.2,61.2
			z"/>
		<path fill="#E5E6E7" d="M55.9,65.5h-3.8V65c0.4-0.2,0.8-0.3,1.1-0.4V54.5l-1.1-0.1V54c0.4-0.2,0.7-0.3,1.1-0.4
			c0.4-0.1,0.8-0.2,1.1-0.2h0.4v1.9h0c0.2-0.6,0.5-1,1-1.4s0.9-0.5,1.6-0.5c1,0,1.8,0.3,2.3,1c0.6,0.7,0.8,1.8,0.8,3.3
			c0,0.7-0.1,1.4-0.3,1.9s-0.5,1.1-0.8,1.5s-0.8,0.7-1.3,0.9s-1,0.3-1.6,0.3c-0.4,0-0.7,0-1-0.1c-0.2-0.1-0.5-0.1-0.8-0.3v2.7
			c0.2,0,0.4,0.1,0.5,0.1c0.2,0.1,0.4,0.2,0.6,0.3V65.5z M56.8,54.4c-0.6,0-1,0.2-1.3,0.5c-0.3,0.4-0.6,0.8-0.7,1.4v4.8
			c0.2,0.1,0.4,0.2,0.7,0.3c0.3,0.1,0.6,0.1,1,0.1c0.4,0,0.7-0.1,1-0.3c0.3-0.2,0.6-0.5,0.8-0.8c0.2-0.4,0.4-0.8,0.5-1.2
			c0.1-0.5,0.2-1,0.2-1.6c0-0.5,0-0.9-0.1-1.3c-0.1-0.4-0.2-0.7-0.4-1s-0.4-0.5-0.6-0.7C57.5,54.5,57.2,54.4,56.8,54.4z"/>
		<path fill="#E5E6E7" d="M68.6,59.8c0,0.2,0,0.5,0,0.6c0,0.2,0,0.4,0,0.6l1.2,0.2v0.4c-0.3,0.1-0.6,0.3-0.9,0.4s-0.7,0.2-1,0.3
			h-0.4c-0.1-0.3-0.2-0.5-0.2-0.9c0-0.3,0-0.7-0.1-1h-0.1c0,0.2-0.1,0.5-0.3,0.7s-0.3,0.4-0.5,0.6c-0.2,0.2-0.5,0.3-0.7,0.4
			s-0.6,0.2-1,0.2c-0.7,0-1.3-0.2-1.7-0.6c-0.4-0.4-0.7-1-0.7-1.6c0-0.5,0.1-0.9,0.3-1.3c0.2-0.3,0.5-0.6,0.9-0.8
			c0.4-0.2,0.9-0.3,1.5-0.4c0.6-0.1,1.3-0.2,2.1-0.2c0-0.5,0.1-0.9,0-1.3c0-0.4-0.1-0.7-0.2-1c-0.1-0.3-0.3-0.5-0.5-0.6
			s-0.5-0.2-0.8-0.2c-0.2,0-0.3,0-0.5,0c-0.2,0-0.4,0.1-0.6,0.1l-0.8,2h-0.4c-0.1-0.3-0.2-0.7-0.3-1.1c-0.1-0.4-0.1-0.7-0.2-1.1
			c0.4-0.3,0.9-0.5,1.4-0.6c0.5-0.1,1.1-0.2,1.8-0.2c0.6,0,1,0.1,1.4,0.2c0.3,0.2,0.6,0.4,0.8,0.6c0.2,0.3,0.3,0.5,0.4,0.9
			s0.1,0.6,0.1,1c0,0.7,0,1.3,0,2C68.6,58.6,68.6,59.2,68.6,59.8z M65.3,61.2c0.3,0,0.5-0.1,0.7-0.2c0.2-0.1,0.4-0.3,0.5-0.4
			c0.1-0.2,0.3-0.3,0.4-0.5c0.1-0.2,0.2-0.3,0.2-0.4v-1.8c-0.7,0-1.2,0-1.6,0.1c-0.4,0.1-0.7,0.2-1,0.3c-0.2,0.1-0.4,0.3-0.5,0.6
			c-0.1,0.2-0.1,0.5-0.1,0.8c0,0.5,0.1,0.9,0.4,1.1C64.5,61.1,64.9,61.2,65.3,61.2z"/>
		<path fill="#E5E6E7" d="M74.1,62.1h-3v-0.4c0.4-0.2,0.7-0.3,1.1-0.4l0.3-6.6c-0.2-0.1-0.4-0.2-0.6-0.3c-0.2-0.1-0.3-0.2-0.5-0.3
			v-0.4h3.3l1.8,5l0.3,1.2h0.1l0.4-1.2l1.8-4.9h3.2V54c-0.1,0.1-0.3,0.2-0.5,0.2c-0.2,0.1-0.4,0.1-0.6,0.2l0.3,6.8
			c0.4,0.1,0.7,0.2,1.1,0.4v0.4H79v-0.4c0.1-0.1,0.3-0.1,0.4-0.2c0.2-0.1,0.4-0.1,0.6-0.2l-0.3-6.9h-0.1l-2.8,7.7h-0.5l-2.8-7.7
			h-0.1l-0.3,6.9c0.4,0.1,0.7,0.3,1,0.4V62.1z"/>
		<path fill="#E5E6E7" d="M91.1,60.9c-0.1,0.2-0.2,0.4-0.4,0.5c-0.2,0.2-0.4,0.3-0.7,0.4c-0.3,0.1-0.5,0.2-0.8,0.3
			c-0.3,0.1-0.6,0.1-0.9,0.1c-0.7,0-1.3-0.1-1.8-0.3c-0.5-0.2-0.9-0.5-1.3-0.9c-0.3-0.4-0.6-0.9-0.8-1.4c-0.2-0.5-0.3-1.2-0.3-1.8
			c0-1.5,0.3-2.6,1-3.3c0.7-0.8,1.6-1.1,2.8-1.1c0.4,0,0.8,0.1,1.2,0.2c0.4,0.1,0.7,0.3,1,0.5s0.5,0.6,0.7,1
			c0.2,0.4,0.3,0.9,0.3,1.5c0,0.2,0,0.4,0,0.6c0,0.2,0,0.4-0.1,0.6h-5.3c0,0.5,0.1,0.9,0.2,1.3c0.1,0.4,0.3,0.8,0.5,1.1
			s0.5,0.5,0.9,0.7s0.8,0.3,1.3,0.3c0.4,0,0.8-0.1,1.2-0.2s0.7-0.3,0.9-0.4L91.1,60.9z M88,54.1c-0.6,0-1.1,0.2-1.5,0.7
			c-0.3,0.4-0.5,1.2-0.6,2.3h3.7c0-0.1,0-0.2,0-0.3c0-0.1,0-0.2,0-0.3c0-0.7-0.1-1.3-0.4-1.7C89,54.3,88.6,54.1,88,54.1z"/>
		<path fill="#E5E6E7" d="M98.6,62.1h-3.8v-0.4c0.3-0.2,0.7-0.3,1.1-0.4v-6.9h-1.6l-0.7,2h-0.4c-0.1-0.5-0.1-1-0.1-1.4
			S93,54,93,53.6h7.5c0,0.4,0,0.9-0.1,1.3c0,0.5-0.1,1-0.1,1.5h-0.4l-0.7-2h-1.6v6.9c0.5,0.1,0.9,0.3,1.1,0.4V62.1z"/>
		<path fill="#E5E6E7" d="M105.7,65.5h-3.8V65c0.4-0.2,0.8-0.3,1.1-0.4V54.5l-1.1-0.1V54c0.4-0.2,0.7-0.3,1.1-0.4
			c0.4-0.1,0.8-0.2,1.1-0.2h0.4v1.9h0c0.2-0.6,0.5-1,1-1.4c0.4-0.3,0.9-0.5,1.6-0.5c1,0,1.8,0.3,2.3,1c0.6,0.7,0.8,1.8,0.8,3.3
			c0,0.7-0.1,1.4-0.3,1.9c-0.2,0.6-0.5,1.1-0.8,1.5s-0.8,0.7-1.3,0.9c-0.5,0.2-1,0.3-1.6,0.3c-0.4,0-0.7,0-1-0.1
			c-0.2-0.1-0.5-0.1-0.8-0.3v2.7c0.2,0,0.4,0.1,0.5,0.1s0.4,0.2,0.6,0.3V65.5z M106.6,54.4c-0.6,0-1,0.2-1.3,0.5s-0.6,0.8-0.7,1.4
			v4.8c0.2,0.1,0.4,0.2,0.7,0.3c0.3,0.1,0.6,0.1,1,0.1c0.4,0,0.7-0.1,1-0.3s0.6-0.5,0.8-0.8c0.2-0.4,0.4-0.8,0.5-1.2
			c0.1-0.5,0.2-1,0.2-1.6c0-0.5,0-0.9-0.1-1.3c-0.1-0.4-0.2-0.7-0.4-1s-0.4-0.5-0.6-0.7C107.3,54.5,106.9,54.4,106.6,54.4z"/>
		<path fill="#E5E6E7" d="M118.4,59.8c0,0.2,0,0.5,0,0.6c0,0.2,0,0.4,0,0.6l1.2,0.2v0.4c-0.3,0.1-0.6,0.3-0.9,0.4
			c-0.3,0.1-0.7,0.2-1,0.3h-0.4c-0.1-0.3-0.2-0.5-0.2-0.9c0-0.3,0-0.7-0.1-1h-0.1c0,0.2-0.1,0.5-0.3,0.7c-0.1,0.2-0.3,0.4-0.5,0.6
			c-0.2,0.2-0.5,0.3-0.7,0.4s-0.6,0.2-1,0.2c-0.7,0-1.3-0.2-1.7-0.6c-0.4-0.4-0.7-1-0.7-1.6c0-0.5,0.1-0.9,0.3-1.3
			c0.2-0.3,0.5-0.6,0.9-0.8c0.4-0.2,0.9-0.3,1.5-0.4c0.6-0.1,1.3-0.2,2.1-0.2c0-0.5,0.1-0.9,0-1.3c0-0.4-0.1-0.7-0.2-1
			c-0.1-0.3-0.3-0.5-0.5-0.6c-0.2-0.2-0.5-0.2-0.8-0.2c-0.2,0-0.3,0-0.5,0c-0.2,0-0.4,0.1-0.6,0.1l-0.8,2h-0.4
			c-0.1-0.3-0.2-0.7-0.3-1.1c-0.1-0.4-0.1-0.7-0.2-1.1c0.4-0.3,0.9-0.5,1.4-0.6c0.5-0.1,1.1-0.2,1.8-0.2c0.6,0,1,0.1,1.4,0.2
			c0.3,0.2,0.6,0.4,0.8,0.6s0.3,0.5,0.4,0.9s0.1,0.6,0.1,1c0,0.7,0,1.3,0,2C118.4,58.6,118.4,59.2,118.4,59.8z M115.1,61.2
			c0.3,0,0.5-0.1,0.7-0.2s0.4-0.3,0.5-0.4c0.1-0.2,0.3-0.3,0.4-0.5c0.1-0.2,0.2-0.3,0.2-0.4v-1.8c-0.7,0-1.2,0-1.6,0.1
			c-0.4,0.1-0.7,0.2-1,0.3c-0.2,0.1-0.4,0.3-0.5,0.6c-0.1,0.2-0.1,0.5-0.1,0.8c0,0.5,0.1,0.9,0.4,1.1
			C114.3,61.1,114.7,61.2,115.1,61.2z"/>
		<path fill="#E5E6E7" d="M123.9,62.1h-3v-0.4c0.4-0.2,0.7-0.3,1.1-0.4l0.3-6.6c-0.2-0.1-0.4-0.2-0.6-0.3c-0.2-0.1-0.3-0.2-0.5-0.3
			v-0.4h3.3l1.8,5l0.3,1.2h0.1l0.4-1.2l1.8-4.9h3.2V54c-0.1,0.1-0.3,0.2-0.5,0.2c-0.2,0.1-0.4,0.1-0.6,0.2l0.3,6.8
			c0.4,0.1,0.7,0.2,1.1,0.4v0.4h-3.6v-0.4c0.1-0.1,0.2-0.1,0.4-0.2c0.2-0.1,0.4-0.1,0.6-0.2l-0.3-6.9h-0.1l-2.8,7.7h-0.5l-2.8-7.7
			h-0.1l-0.3,6.9c0.4,0.1,0.7,0.3,1,0.4V62.1z"/>
	</g>
</g>
</svg>
