<!-- Generator: Adobe Illustrator 17.1.0, SVG Export Plug-In  -->
<svg version="1.1"
	 xmlns="http://www.w3.org/2000/svg" xmlns:xlink="http://www.w3.org/1999/xlink" xmlns:a="http://ns.adobe.com/AdobeSVGViewerExtensions/3.0/"
	 x="0px" y="0px" width="229.1px" height="95.9px" viewBox="0 0 229.1 95.9" enable-background="new 0 0 229.1 95.9"
	 xml:space="preserve">
<defs>
</defs>
<g>
	<linearGradient id="SVGID_1_" gradientUnits="userSpaceOnUse" x1="0" y1="47.966" x2="229.068" y2="47.966">
		<stop  offset="0" style="stop-color:#26335D"/>
		<stop  offset="0.9286" style="stop-color:#1B294C"/>
	</linearGradient>
	<rect x="0" y="0" fill="url(#SVGID_1_)" width="229.1" height="95.9"/>

		<rect x="9.3" y="7.4" fill="none" stroke="#80C328" stroke-width="3" stroke-linecap="round" stroke-linejoin="round" stroke-miterlimit="10" width="210.4" height="81.1"/>
	<g>
		<g>
			<path fill="#FFFFFF" d="M202.2,70.8h-44.1c-0.8,0-1.5-0.7-1.5-1.5V25.2c0-0.8,0.7-1.5,1.5-1.5h44.1c0.8,0,1.5,0.7,1.5,1.5v44.1
				C203.7,70.1,203.1,70.8,202.2,70.8z M159.7,67.8h41.1V26.7h-41.1V67.8z"/>
		</g>
		<g>

				<line fill="none" stroke="#FFFFFF" stroke-width="3" stroke-linecap="round" stroke-linejoin="round" stroke-miterlimit="10" x1="170.6" y1="47.4" x2="186.6" y2="63.4"/>

				<line fill="none" stroke="#FFFFFF" stroke-width="3" stroke-linecap="round" stroke-linejoin="round" stroke-miterlimit="10" x1="170.6" y1="47.2" x2="186.6" y2="31.1"/>
		</g>
	</g>
	<g>
		<path fill="#E5E6E7" d="M37.4,30.6v-0.5c0.5-0.2,0.9-0.4,1.4-0.4V19.6c-0.2,0-0.5-0.1-0.7-0.2c-0.2-0.1-0.5-0.2-0.7-0.2v-0.5h1.8
			c0.2,0,0.4,0,0.6,0c0.2,0,0.4,0,0.6,0c0.2,0,0.4,0,0.7,0c0.2,0,0.5,0,0.8,0c0.5,0,0.9,0,1.4,0.1c0.5,0.1,0.9,0.2,1.3,0.4
			c0.4,0.2,0.7,0.5,0.9,0.9s0.4,0.8,0.4,1.4c0,0.3,0,0.6-0.1,0.9s-0.2,0.6-0.4,0.8c-0.2,0.3-0.4,0.5-0.7,0.7s-0.6,0.3-1,0.4v0.1
			c0.3,0.1,0.7,0.2,1,0.3c0.3,0.1,0.6,0.3,0.9,0.6c0.3,0.2,0.5,0.5,0.6,0.9c0.2,0.3,0.2,0.7,0.2,1.2c0,0.6-0.1,1.1-0.4,1.6
			c-0.3,0.4-0.6,0.8-1.1,1.1c-0.4,0.3-0.9,0.5-1.5,0.6c-0.6,0.1-1.1,0.2-1.7,0.2c-0.4,0-0.8,0-1.3-0.1c-0.5,0-1-0.1-1.4-0.1H37.4z
			 M41.2,24.1c0.2,0,0.4,0,0.7,0c0.3,0,0.5,0,0.7-0.1c0.5-0.2,0.9-0.5,1.3-0.9c0.3-0.4,0.5-0.9,0.5-1.4c0-0.7-0.2-1.3-0.7-1.7
			c-0.4-0.4-1-0.6-1.8-0.6c-0.4,0-0.7,0-0.9,0c-0.3,0-0.5,0-0.6,0.1v4.6H41.2z M41.9,29.8c0.4,0,0.8-0.1,1.1-0.2
			c0.4-0.1,0.7-0.3,0.9-0.5c0.3-0.2,0.5-0.5,0.6-0.8s0.2-0.6,0.2-1c0-0.5-0.1-0.8-0.3-1.1c-0.2-0.3-0.4-0.5-0.7-0.7
			c-0.3-0.2-0.6-0.3-1-0.4C42.4,25.1,42,25,41.6,25h-1.3v4.7c0.2,0,0.3,0.1,0.6,0.1C41.1,29.8,41.4,29.8,41.9,29.8z"/>
		<path fill="#E5E6E7" d="M55.3,29.4c-0.1,0.2-0.2,0.4-0.4,0.5c-0.2,0.2-0.4,0.3-0.7,0.4c-0.3,0.1-0.5,0.2-0.8,0.3
			c-0.3,0.1-0.6,0.1-0.9,0.1c-0.7,0-1.3-0.1-1.8-0.3c-0.5-0.2-0.9-0.5-1.3-0.9c-0.3-0.4-0.6-0.9-0.8-1.4c-0.2-0.5-0.3-1.2-0.3-1.8
			c0-1.5,0.3-2.6,1-3.3c0.7-0.8,1.6-1.1,2.8-1.1c0.4,0,0.8,0.1,1.2,0.2c0.4,0.1,0.7,0.3,1,0.5c0.3,0.2,0.5,0.6,0.7,1
			c0.2,0.4,0.3,0.9,0.3,1.5c0,0.2,0,0.4,0,0.6s0,0.4-0.1,0.6h-5.3c0,0.5,0.1,0.9,0.2,1.3c0.1,0.4,0.3,0.8,0.5,1.1s0.5,0.5,0.9,0.7
			c0.4,0.2,0.8,0.3,1.3,0.3c0.4,0,0.8-0.1,1.2-0.2s0.7-0.3,0.9-0.4L55.3,29.4z M52.2,22.7c-0.6,0-1.1,0.2-1.5,0.7
			c-0.3,0.4-0.5,1.2-0.6,2.3h3.7c0-0.1,0-0.2,0-0.3c0-0.1,0-0.2,0-0.3c0-0.7-0.1-1.3-0.4-1.7C53.2,22.9,52.8,22.7,52.2,22.7z"/>
		<path fill="#E5E6E7" d="M61,34h-3.8v-0.4c0.4-0.2,0.8-0.3,1.1-0.4V23.1L57.3,23v-0.4c0.4-0.2,0.7-0.3,1.1-0.4
			c0.4-0.1,0.8-0.2,1.1-0.2h0.4v1.9h0c0.2-0.6,0.5-1,1-1.4c0.4-0.3,0.9-0.5,1.6-0.5c1,0,1.8,0.3,2.3,1c0.6,0.7,0.8,1.8,0.8,3.3
			c0,0.7-0.1,1.4-0.3,1.9c-0.2,0.6-0.5,1.1-0.8,1.5s-0.8,0.7-1.3,0.9c-0.5,0.2-1,0.3-1.6,0.3c-0.4,0-0.7,0-1-0.1
			c-0.2-0.1-0.5-0.1-0.8-0.3v2.7c0.2,0,0.4,0.1,0.5,0.1c0.2,0.1,0.4,0.2,0.6,0.3V34z M61.9,23c-0.6,0-1,0.2-1.3,0.5
			c-0.3,0.4-0.6,0.8-0.7,1.4v4.8c0.2,0.1,0.4,0.2,0.7,0.3c0.3,0.1,0.6,0.1,1,0.1c0.4,0,0.7-0.1,1-0.3c0.3-0.2,0.6-0.5,0.8-0.8
			c0.2-0.4,0.4-0.8,0.5-1.2c0.1-0.5,0.2-1,0.2-1.6c0-0.5,0-0.9-0.1-1.3c-0.1-0.4-0.2-0.7-0.4-1s-0.4-0.5-0.6-0.7
			C62.7,23.1,62.3,23,61.9,23z"/>
		<path fill="#E5E6E7" d="M71.1,30.6h-3.7v-0.4c0.2-0.1,0.3-0.2,0.5-0.2c0.2-0.1,0.4-0.1,0.6-0.2V23c-0.2-0.1-0.4-0.1-0.6-0.2
			c-0.2-0.1-0.4-0.1-0.5-0.2v-0.4h3.7v0.4c-0.3,0.2-0.6,0.3-1,0.4v3h3.8v-3c-0.4-0.1-0.7-0.2-1-0.4v-0.4h3.7v0.4
			c-0.3,0.2-0.7,0.3-1.1,0.4v6.8c0.2,0,0.4,0.1,0.6,0.2s0.4,0.1,0.5,0.3v0.4h-3.7v-0.4c0.3-0.2,0.6-0.3,1-0.4v-3.1h-3.8v3.1
			c0.2,0,0.4,0.1,0.6,0.2c0.2,0.1,0.3,0.1,0.4,0.2V30.6z"/>
		<path fill="#E5E6E7" d="M78.3,23c-0.2,0-0.3-0.1-0.5-0.2c-0.1-0.1-0.3-0.1-0.4-0.2v-0.4H81v0.4c-0.2,0.2-0.6,0.3-1,0.4l2.2,5
			l0.3,1.1h0l0.3-1.1l1.6-5c-0.3-0.1-0.7-0.2-0.9-0.4v-0.4h2.9v0.4c-0.2,0.2-0.6,0.3-1,0.4l-2.7,7.7c-0.3,0.7-0.5,1.3-0.8,1.8
			c-0.2,0.4-0.5,0.8-0.7,1.1c-0.2,0.3-0.5,0.5-0.7,0.6s-0.5,0.2-0.8,0.3c-0.1-0.2-0.2-0.5-0.3-0.7c-0.1-0.3-0.2-0.5-0.2-0.7l0.2-0.4
			h1.8c0.1-0.1,0.1-0.2,0.2-0.3c0.1-0.1,0.1-0.2,0.2-0.3s0.1-0.3,0.2-0.5c0.1-0.2,0.1-0.4,0.2-0.7L78.3,23z"/>
		<path fill="#E5E6E7" d="M92.8,30.6H89v-0.4c0.4-0.2,0.7-0.3,1.1-0.4v-6.9h-1.6l-0.7,2h-0.4c-0.1-0.5-0.1-1-0.1-1.4
			s-0.1-0.9-0.1-1.4h7.5c0,0.4,0,0.9-0.1,1.3c0,0.5-0.1,1-0.1,1.5H94l-0.7-2h-1.6v6.9c0.5,0.1,0.9,0.3,1.1,0.4V30.6z"/>
		<path fill="#E5E6E7" d="M98.8,25.6c0.2,0,0.4-0.1,0.6-0.1c0.2,0,0.6-0.1,1-0.1c0.9,0,1.7,0.2,2.2,0.6c0.5,0.4,0.8,1,0.8,1.9
			c0,0.5-0.1,0.9-0.3,1.2c-0.2,0.3-0.4,0.6-0.7,0.9c-0.3,0.2-0.7,0.4-1.1,0.5s-0.9,0.2-1.4,0.2c-0.3,0-0.7,0-1,0c-0.4,0-0.8,0-1.2,0
			h-1.6v-0.4c0.2-0.1,0.4-0.2,0.5-0.2c0.2-0.1,0.4-0.1,0.6-0.2V23c-0.2,0-0.4-0.1-0.6-0.2c-0.2-0.1-0.4-0.1-0.5-0.2v-0.4h3.7v0.4
			c-0.3,0.2-0.6,0.3-1,0.4V25.6z M98.8,29.9c0.1,0,0.3,0,0.4,0c0.1,0,0.3,0,0.5,0c0.7,0,1.2-0.2,1.5-0.5c0.4-0.3,0.6-0.8,0.6-1.5
			c0-0.3-0.1-0.6-0.2-0.8c-0.1-0.2-0.2-0.4-0.4-0.5c-0.2-0.1-0.4-0.2-0.6-0.3s-0.5-0.1-0.7-0.1c-0.2,0-0.4,0-0.6,0
			c-0.2,0-0.4,0-0.5,0.1V29.9z"/>
		<path fill="#E5E6E7" d="M111.7,29.4c-0.2,0.4-0.5,0.7-1,1c-0.5,0.3-1,0.4-1.6,0.4c-0.7,0-1.3-0.1-1.7-0.3
			c-0.5-0.2-0.9-0.5-1.2-0.9c-0.3-0.4-0.6-0.9-0.7-1.4c-0.2-0.5-0.2-1.2-0.2-1.8c0-1.4,0.4-2.5,1.1-3.3c0.7-0.8,1.7-1.1,2.9-1.1
			c0.6,0,1.1,0,1.5,0.1c0.4,0.1,0.8,0.2,1.1,0.4c0,0.4-0.1,0.8-0.2,1.3s-0.2,0.8-0.3,1.2h-0.5l-0.7-2c-0.1-0.1-0.2-0.1-0.3-0.1
			c-0.1,0-0.3,0-0.5,0c-0.8,0-1.4,0.3-1.8,0.8c-0.4,0.6-0.6,1.5-0.6,2.8c0,0.4,0.1,0.8,0.2,1.3s0.3,0.8,0.5,1.1
			c0.2,0.3,0.5,0.6,0.9,0.8c0.4,0.2,0.8,0.3,1.3,0.3c0.4,0,0.7-0.1,1-0.2s0.5-0.3,0.7-0.4L111.7,29.4z"/>
		<path fill="#E5E6E7" d="M113.8,24.6c0-0.4,0.1-0.7,0.2-1.1c0.1-0.3,0.3-0.6,0.6-0.8s0.6-0.4,1-0.5c0.4-0.1,0.9-0.2,1.5-0.2
			c0.1,0,0.3,0,0.6,0c0.2,0,0.5,0,0.8,0c0.3,0,0.5,0,0.8,0c0.3,0,0.5,0,0.6,0h1.2v0.4c-0.1,0.1-0.2,0.2-0.4,0.2
			c-0.2,0.1-0.4,0.1-0.7,0.2v6.8c0.4,0.1,0.8,0.3,1.1,0.4v0.4h-3.7v-0.4c0.1-0.1,0.3-0.2,0.5-0.2s0.3-0.1,0.5-0.2v-2.9l-1.2,0.2
			c-0.2,0.4-0.5,0.9-0.8,1.4c-0.3,0.6-0.7,1.1-1.2,1.7l-0.5,0.4h-1.9v-0.4l1-0.4c0.5-0.5,0.9-1.1,1.3-1.6c0.4-0.5,0.7-1,1-1.3
			c-0.3,0-0.5-0.1-0.8-0.2c-0.2-0.1-0.5-0.3-0.7-0.4c-0.2-0.2-0.4-0.4-0.5-0.7C113.9,25.3,113.8,25,113.8,24.6z M118.4,22.9
			c-0.1,0-0.3,0-0.6-0.1c-0.2,0-0.4,0-0.6,0c-0.7,0-1.2,0.1-1.5,0.5c-0.3,0.3-0.4,0.8-0.4,1.3c0,0.6,0.2,1,0.6,1.4
			c0.4,0.4,1.1,0.5,1.9,0.5h0.5V22.9z"/>
		<path fill="#E5E6E7" d="M51.5,52.1h-3.7v-0.4c0.2-0.1,0.3-0.2,0.5-0.2c0.2-0.1,0.4-0.1,0.6-0.2v-6.8c-0.2-0.1-0.4-0.1-0.6-0.2
			c-0.2-0.1-0.4-0.1-0.5-0.2v-0.4h3.7V44c-0.3,0.2-0.6,0.3-1,0.4v3h3.8v-3c-0.4-0.1-0.7-0.2-1-0.4v-0.4h3.7V44
			c-0.3,0.2-0.7,0.3-1.1,0.4v6.8c0.2,0,0.4,0.1,0.6,0.2s0.4,0.1,0.5,0.3v0.4h-3.7v-0.4c0.3-0.2,0.6-0.3,1-0.4v-3.1h-3.8v3.1
			c0.2,0,0.4,0.1,0.6,0.2c0.2,0.1,0.3,0.1,0.4,0.2V52.1z"/>
		<path fill="#E5E6E7" d="M65,49.8c0,0.2,0,0.5,0,0.6c0,0.2,0,0.4,0,0.6l1.2,0.2v0.4c-0.3,0.1-0.6,0.3-0.9,0.4
			c-0.3,0.1-0.7,0.2-1,0.3h-0.4c-0.1-0.3-0.2-0.5-0.2-0.9s0-0.7-0.1-1h-0.1c0,0.2-0.1,0.5-0.3,0.7c-0.1,0.2-0.3,0.4-0.5,0.6
			c-0.2,0.2-0.5,0.3-0.7,0.4s-0.6,0.2-1,0.2c-0.7,0-1.3-0.2-1.7-0.6s-0.7-1-0.7-1.6c0-0.5,0.1-0.9,0.3-1.3s0.5-0.6,0.9-0.8
			c0.4-0.2,0.9-0.3,1.5-0.4s1.3-0.2,2.1-0.2c0-0.5,0.1-0.9,0-1.3c0-0.4-0.1-0.7-0.2-1c-0.1-0.3-0.3-0.5-0.5-0.6
			c-0.2-0.2-0.5-0.2-0.8-0.2c-0.2,0-0.3,0-0.5,0c-0.2,0-0.4,0.1-0.6,0.1l-0.8,2h-0.4c-0.1-0.3-0.2-0.7-0.3-1.1s-0.1-0.7-0.2-1.1
			c0.4-0.3,0.9-0.5,1.4-0.6c0.5-0.1,1.1-0.2,1.8-0.2c0.6,0,1,0.1,1.4,0.2c0.3,0.2,0.6,0.4,0.8,0.6c0.2,0.3,0.3,0.5,0.4,0.9
			s0.1,0.6,0.1,1c0,0.7,0,1.3,0,2S65,49.2,65,49.8z M61.7,51.2c0.3,0,0.5-0.1,0.7-0.2c0.2-0.1,0.4-0.3,0.5-0.4
			c0.1-0.2,0.3-0.3,0.4-0.5s0.2-0.3,0.2-0.4v-1.8c-0.7,0-1.2,0-1.6,0.1c-0.4,0.1-0.7,0.2-1,0.3c-0.2,0.1-0.4,0.3-0.5,0.6
			c-0.1,0.2-0.1,0.5-0.1,0.8c0,0.5,0.1,0.9,0.4,1.1C60.9,51.1,61.3,51.2,61.7,51.2z"/>
		<path fill="#E5E6E7" d="M75.9,52.1h-3.7v-0.4c0.2-0.1,0.4-0.2,0.6-0.3c0.2-0.1,0.4-0.1,0.5-0.1v-6.8c-0.2-0.1-0.5-0.1-0.6-0.2
			c-0.2-0.1-0.4-0.1-0.5-0.2v-0.4h9.1V44c-0.1,0.1-0.3,0.2-0.5,0.3c-0.2,0.1-0.4,0.1-0.6,0.2v6.8c0.4,0.1,0.8,0.2,1.1,0.4v0.4h-3.7
			v-0.4c0.1-0.1,0.2-0.2,0.4-0.2c0.2-0.1,0.4-0.1,0.6-0.2v-6.9h-3.8v6.9c0.2,0.1,0.4,0.1,0.6,0.2c0.2,0.1,0.3,0.1,0.4,0.2V52.1z"/>
		<path fill="#E5E6E7" d="M84.1,50.6c0.2-0.3,0.3-0.6,0.4-1.1s0.2-1,0.3-1.5s0.2-1.1,0.2-1.7c0-0.6,0.1-1.2,0.1-1.7
			c-0.2-0.1-0.4-0.2-0.6-0.3c-0.2-0.1-0.4-0.2-0.5-0.3v-0.4h7V44c-0.4,0.2-0.7,0.3-1.1,0.4v6.8c0.2,0.1,0.4,0.1,0.6,0.2
			c0.2,0.1,0.3,0.1,0.5,0.2v0.4h-3.7v-0.4c0.3-0.2,0.6-0.3,1-0.4v-6.9h-2.2c0,0.6,0,1.2-0.1,1.9c-0.1,0.7-0.1,1.3-0.3,2
			c-0.1,0.7-0.3,1.3-0.4,1.8c-0.2,0.6-0.4,1.1-0.7,1.4c-0.2,0.3-0.4,0.6-0.7,0.7s-0.5,0.2-0.7,0.1c-0.2-0.2-0.3-0.4-0.5-0.8
			c-0.2-0.3-0.2-0.6-0.3-0.9l0.2-0.4L84.1,50.6z"/>
		<path fill="#E5E6E7" d="M99,49.8c0,0.2,0,0.5,0,0.6c0,0.2,0,0.4,0,0.6l1.2,0.2v0.4c-0.3,0.1-0.6,0.3-0.9,0.4
			c-0.3,0.1-0.7,0.2-1,0.3h-0.4c-0.1-0.3-0.2-0.5-0.2-0.9s0-0.7-0.1-1h-0.1c0,0.2-0.1,0.5-0.3,0.7c-0.1,0.2-0.3,0.4-0.5,0.6
			c-0.2,0.2-0.5,0.3-0.7,0.4s-0.6,0.2-1,0.2c-0.7,0-1.3-0.2-1.7-0.6s-0.7-1-0.7-1.6c0-0.5,0.1-0.9,0.3-1.3s0.5-0.6,0.9-0.8
			c0.4-0.2,0.9-0.3,1.5-0.4s1.3-0.2,2.1-0.2c0-0.5,0.1-0.9,0-1.3c0-0.4-0.1-0.7-0.2-1c-0.1-0.3-0.3-0.5-0.5-0.6
			c-0.2-0.2-0.5-0.2-0.8-0.2c-0.2,0-0.3,0-0.5,0c-0.2,0-0.4,0.1-0.6,0.1l-0.8,2h-0.4c-0.1-0.3-0.2-0.7-0.3-1.1s-0.1-0.7-0.2-1.1
			c0.4-0.3,0.9-0.5,1.4-0.6c0.5-0.1,1.1-0.2,1.8-0.2c0.6,0,1,0.1,1.4,0.2c0.3,0.2,0.6,0.4,0.8,0.6c0.2,0.3,0.3,0.5,0.4,0.9
			s0.1,0.6,0.1,1c0,0.7,0,1.3,0,2S99,49.2,99,49.8z M95.7,51.2c0.3,0,0.5-0.1,0.7-0.2c0.2-0.1,0.4-0.3,0.5-0.4
			c0.1-0.2,0.3-0.3,0.4-0.5s0.2-0.3,0.2-0.4v-1.8c-0.7,0-1.2,0-1.6,0.1c-0.4,0.1-0.7,0.2-1,0.3c-0.2,0.1-0.4,0.3-0.5,0.6
			c-0.1,0.2-0.1,0.5-0.1,0.8c0,0.5,0.1,0.9,0.4,1.1C95,51.1,95.3,51.2,95.7,51.2z"/>
		<path fill="#E5E6E7" d="M105.4,52.1h-3.7v-0.4c0.2-0.1,0.3-0.2,0.5-0.2c0.2-0.1,0.4-0.1,0.6-0.2v-6.8c-0.2-0.1-0.4-0.1-0.6-0.2
			c-0.2-0.1-0.4-0.1-0.5-0.2v-0.4h3.7V44c-0.3,0.2-0.6,0.3-1,0.4v3h3.8v-3c-0.4-0.1-0.7-0.2-1-0.4v-0.4h3.7V44
			c-0.3,0.2-0.7,0.3-1.1,0.4v6.8c0.2,0,0.4,0.1,0.6,0.2s0.4,0.1,0.5,0.3v0.4h-3.7v-0.4c0.3-0.2,0.6-0.3,1-0.4v-3.1h-3.8v3.1
			c0.2,0,0.4,0.1,0.6,0.2c0.2,0.1,0.3,0.1,0.4,0.2V52.1z"/>
		<path fill="#E5E6E7" d="M40.9,65h3.3v0.4c-0.1,0.1-0.3,0.2-0.5,0.2c-0.2,0.1-0.4,0.1-0.7,0.2c-0.4,0.5-0.8,0.9-1.2,1.4
			c-0.4,0.5-0.9,1-1.4,1.4c0.2,0.3,0.5,0.6,0.8,0.9c0.3,0.3,0.6,0.7,0.8,1c0.3,0.4,0.6,0.7,0.9,1c0.3,0.3,0.6,0.7,0.8,1l0.8,0.4v0.4
			h-2L42,73.1c-0.5-0.6-1-1.2-1.4-1.8c-0.4-0.6-0.8-1.2-1.3-1.8h-0.7v3.2c0.2,0.1,0.4,0.1,0.6,0.2c0.2,0.1,0.3,0.1,0.5,0.2v0.4H36
			V73c0.3-0.2,0.7-0.3,1.1-0.4v-6.8c-0.4-0.1-0.8-0.2-1.1-0.4V65h3.5v0.4c-0.1,0.1-0.2,0.2-0.4,0.2c-0.1,0.1-0.3,0.1-0.5,0.2V69
			l0.8-0.2c0.5-0.5,0.9-1,1.3-1.5c0.4-0.5,0.8-0.9,1.1-1.5c-0.2-0.1-0.4-0.2-0.5-0.2c-0.2-0.1-0.3-0.2-0.5-0.2V65z"/>
		<path fill="#E5E6E7" d="M45.5,69.2c0-0.7,0.1-1.3,0.3-1.9c0.2-0.5,0.5-1,0.8-1.4c0.4-0.4,0.8-0.7,1.3-0.9s1-0.3,1.6-0.3
			c0.7,0,1.3,0.1,1.8,0.3c0.5,0.2,0.9,0.5,1.3,0.9c0.3,0.4,0.6,0.9,0.7,1.4s0.2,1.2,0.2,1.8c0,1.4-0.4,2.5-1.1,3.3
			c-0.7,0.8-1.7,1.2-2.9,1.2c-0.7,0-1.3-0.1-1.8-0.3c-0.5-0.2-0.9-0.5-1.2-0.9c-0.3-0.4-0.6-0.9-0.7-1.4
			C45.5,70.5,45.5,69.9,45.5,69.2z M47.1,69.2c0,0.5,0,1,0.1,1.4c0.1,0.5,0.2,0.8,0.5,1.2c0.2,0.3,0.5,0.6,0.8,0.8s0.7,0.3,1.2,0.3
			c0.6,0,1.1-0.3,1.5-0.9c0.4-0.6,0.6-1.5,0.6-2.8c0-0.5,0-1-0.1-1.5c-0.1-0.4-0.2-0.8-0.5-1.2c-0.2-0.3-0.5-0.6-0.8-0.8
			c-0.3-0.2-0.7-0.3-1.1-0.3c-0.7,0-1.2,0.3-1.6,0.9C47.3,67,47.1,68,47.1,69.2z"/>
		<path fill="#E5E6E7" d="M58.1,73.5h-3V73c0.4-0.2,0.7-0.3,1.1-0.4l0.3-6.6c-0.2-0.1-0.4-0.2-0.6-0.3c-0.2-0.1-0.3-0.2-0.5-0.3V65
			h3.3l1.8,5l0.3,1.2h0.1l0.4-1.2L63,65h3.2v0.4c-0.1,0.1-0.3,0.2-0.5,0.2c-0.2,0.1-0.4,0.1-0.6,0.2l0.3,6.8
			c0.4,0.1,0.7,0.2,1.1,0.4v0.4h-3.6V73c0.1-0.1,0.2-0.1,0.4-0.2c0.2-0.1,0.4-0.1,0.6-0.2l-0.3-6.9h-0.1l-2.8,7.7h-0.5l-2.8-7.7
			h-0.1l-0.3,6.9c0.4,0.1,0.7,0.3,1,0.4V73.5z"/>
		<path fill="#E5E6E7" d="M71.8,73.5h-3.7V73c0.2-0.1,0.4-0.2,0.6-0.3c0.2-0.1,0.4-0.1,0.5-0.1v-6.8c-0.2-0.1-0.5-0.1-0.6-0.2
			c-0.2-0.1-0.4-0.1-0.5-0.2V65h9.1v0.4c-0.1,0.1-0.3,0.2-0.5,0.3c-0.2,0.1-0.4,0.1-0.6,0.2v6.8c0.4,0.1,0.8,0.2,1.1,0.4v0.4h-3.7
			V73c0.1-0.1,0.2-0.2,0.4-0.2c0.2-0.1,0.4-0.1,0.6-0.2v-6.9h-3.8v6.9c0.2,0.1,0.4,0.1,0.6,0.2c0.2,0.1,0.3,0.1,0.4,0.2V73.5z"/>
		<path fill="#E5E6E7" d="M80.1,72c0.2-0.3,0.3-0.6,0.4-1.1s0.2-1,0.3-1.5s0.2-1.1,0.2-1.7c0-0.6,0.1-1.2,0.1-1.7
			c-0.2-0.1-0.4-0.2-0.6-0.3c-0.2-0.1-0.4-0.2-0.5-0.3V65h7v0.4c-0.4,0.2-0.7,0.3-1.1,0.4v6.8c0.2,0.1,0.4,0.1,0.6,0.2
			c0.2,0.1,0.3,0.1,0.5,0.2v0.4h-3.7V73c0.3-0.2,0.6-0.3,1-0.4v-6.9H82c0,0.6,0,1.2-0.1,1.9c-0.1,0.7-0.1,1.3-0.3,2
			c-0.1,0.7-0.3,1.3-0.4,1.8c-0.2,0.6-0.4,1.1-0.7,1.4c-0.2,0.3-0.4,0.6-0.7,0.7s-0.5,0.2-0.7,0.1c-0.2-0.2-0.3-0.4-0.5-0.8
			c-0.2-0.3-0.2-0.6-0.3-0.9l0.2-0.4L80.1,72z"/>
		<path fill="#E5E6E7" d="M95.5,72.3c-0.1,0.2-0.2,0.4-0.4,0.5c-0.2,0.2-0.4,0.3-0.7,0.4c-0.3,0.1-0.5,0.2-0.8,0.3
			c-0.3,0.1-0.6,0.1-0.9,0.1c-0.7,0-1.3-0.1-1.8-0.3c-0.5-0.2-0.9-0.5-1.3-0.9c-0.3-0.4-0.6-0.9-0.8-1.4c-0.2-0.5-0.3-1.2-0.3-1.8
			c0-1.5,0.3-2.6,1-3.3c0.7-0.8,1.6-1.1,2.8-1.1c0.4,0,0.8,0.1,1.2,0.2c0.4,0.1,0.7,0.3,1,0.5c0.3,0.2,0.5,0.6,0.7,1
			c0.2,0.4,0.3,0.9,0.3,1.5c0,0.2,0,0.4,0,0.6s0,0.4-0.1,0.6h-5.3c0,0.5,0.1,0.9,0.2,1.3c0.1,0.4,0.3,0.8,0.5,1.1s0.5,0.5,0.9,0.7
			c0.4,0.2,0.8,0.3,1.3,0.3c0.4,0,0.8-0.1,1.2-0.2s0.7-0.3,0.9-0.4L95.5,72.3z M92.4,65.5c-0.6,0-1.1,0.2-1.5,0.7
			c-0.3,0.4-0.5,1.2-0.6,2.3h3.7c0-0.1,0-0.2,0-0.3c0-0.1,0-0.2,0-0.3c0-0.7-0.1-1.3-0.4-1.7C93.4,65.7,93,65.5,92.4,65.5z"/>
		<path fill="#E5E6E7" d="M102.5,65h3.3v0.4c-0.1,0.1-0.3,0.2-0.5,0.2c-0.2,0.1-0.4,0.1-0.7,0.2c-0.4,0.5-0.8,0.9-1.2,1.4
			c-0.4,0.5-0.9,1-1.4,1.4c0.2,0.3,0.5,0.6,0.8,0.9c0.3,0.3,0.6,0.7,0.8,1c0.3,0.4,0.6,0.7,0.9,1c0.3,0.3,0.6,0.7,0.8,1l0.8,0.4v0.4
			h-2l-0.5-0.4c-0.5-0.6-1-1.2-1.4-1.8c-0.4-0.6-0.8-1.2-1.3-1.8h-0.7v3.2c0.2,0.1,0.4,0.1,0.6,0.2c0.2,0.1,0.3,0.1,0.5,0.2v0.4
			h-3.8V73c0.3-0.2,0.7-0.3,1.1-0.4v-6.8c-0.4-0.1-0.8-0.2-1.1-0.4V65h3.5v0.4c-0.1,0.1-0.2,0.2-0.4,0.2c-0.1,0.1-0.3,0.1-0.5,0.2
			V69l0.8-0.2c0.5-0.5,0.9-1,1.3-1.5c0.4-0.5,0.8-0.9,1.1-1.5c-0.2-0.1-0.4-0.2-0.5-0.2c-0.2-0.1-0.3-0.2-0.5-0.2V65z"/>
		<path fill="#E5E6E7" d="M113.6,72.3c-0.2,0.4-0.5,0.7-1,1c-0.5,0.3-1,0.4-1.6,0.4c-0.7,0-1.3-0.1-1.7-0.3
			c-0.5-0.2-0.9-0.5-1.2-0.9c-0.3-0.4-0.6-0.9-0.7-1.4c-0.2-0.5-0.2-1.2-0.2-1.8c0-1.4,0.4-2.5,1.1-3.3c0.7-0.8,1.7-1.1,2.9-1.1
			c0.6,0,1.1,0,1.5,0.1c0.4,0.1,0.8,0.2,1.1,0.4c0,0.4-0.1,0.8-0.2,1.3s-0.2,0.8-0.3,1.2h-0.5l-0.7-2c-0.1-0.1-0.2-0.1-0.3-0.1
			c-0.1,0-0.3,0-0.5,0c-0.8,0-1.4,0.3-1.8,0.8c-0.4,0.6-0.6,1.5-0.6,2.8c0,0.4,0.1,0.8,0.2,1.3s0.3,0.8,0.5,1.1
			c0.2,0.3,0.5,0.6,0.9,0.8c0.4,0.2,0.8,0.3,1.3,0.3c0.4,0,0.7-0.1,1-0.2s0.5-0.3,0.7-0.4L113.6,72.3z"/>
		<path fill="#E5E6E7" d="M121.7,71.2c0,0.2,0,0.5,0,0.6c0,0.2,0,0.4,0,0.6l1.2,0.2V73c-0.3,0.1-0.6,0.3-0.9,0.4
			c-0.3,0.1-0.7,0.2-1,0.3h-0.4c-0.1-0.3-0.2-0.5-0.2-0.9s0-0.7-0.1-1h-0.1c0,0.2-0.1,0.5-0.3,0.7c-0.1,0.2-0.3,0.4-0.5,0.6
			c-0.2,0.2-0.5,0.3-0.7,0.4s-0.6,0.2-1,0.2c-0.7,0-1.3-0.2-1.7-0.6s-0.7-1-0.7-1.6c0-0.5,0.1-0.9,0.3-1.3s0.5-0.6,0.9-0.8
			c0.4-0.2,0.9-0.3,1.5-0.4s1.3-0.2,2.1-0.2c0-0.5,0.1-0.9,0-1.3c0-0.4-0.1-0.7-0.2-1c-0.1-0.3-0.3-0.5-0.5-0.6
			c-0.2-0.2-0.5-0.2-0.8-0.2c-0.2,0-0.3,0-0.5,0c-0.2,0-0.4,0.1-0.6,0.1l-0.8,2h-0.4c-0.1-0.3-0.2-0.7-0.3-1.1s-0.1-0.7-0.2-1.1
			c0.4-0.3,0.9-0.5,1.4-0.6c0.5-0.1,1.1-0.2,1.8-0.2c0.6,0,1,0.1,1.4,0.2c0.3,0.2,0.6,0.4,0.8,0.6c0.2,0.3,0.3,0.5,0.4,0.9
			s0.1,0.6,0.1,1c0,0.7,0,1.3,0,2S121.7,70.7,121.7,71.2z M118.4,72.6c0.3,0,0.5-0.1,0.7-0.2c0.2-0.1,0.4-0.3,0.5-0.4
			c0.1-0.2,0.3-0.3,0.4-0.5s0.2-0.3,0.2-0.4v-1.8c-0.7,0-1.2,0-1.6,0.1c-0.4,0.1-0.7,0.2-1,0.3c-0.2,0.1-0.4,0.3-0.5,0.6
			c-0.1,0.2-0.1,0.5-0.1,0.8c0,0.5,0.1,0.9,0.4,1.1C117.6,72.5,118,72.6,118.4,72.6z"/>
	</g>
</g>
</svg>
