<?xml version="1.0" encoding="utf-8"?>
<!-- Generator: Adobe Illustrator 17.1.0, SVG Export Plug-In . SVG Version: 6.00 Build 0)  -->
<!DOCTYPE svg PUBLIC "-//W3C//DTD SVG 1.1//EN" "http://www.w3.org/Graphics/SVG/1.1/DTD/svg11.dtd">
<svg version="1.1" id="Layer_1" xmlns="http://www.w3.org/2000/svg" xmlns:xlink="http://www.w3.org/1999/xlink" x="0px" y="0px"
	 viewBox="0 0 1920 1080" enable-background="new 0 0 1920 1080" xml:space="preserve">
<image overflow="visible" width="1920" height="1080" xlink:href="../apartments__storey/section__1__background.jpg" >
</image>
<polygon opacity="0.38" fill="#E2E3E4" points="1092,892.3 815.4,892.3 815.4,919 1092,919 1092,910.7 "/>
<polygon opacity="0.38" fill="#E2E3E4" points="1092,858.9 815.4,858.9 815.4,891.9 1092,891.9 1092,870 "/>
<polygon opacity="0.38" fill="#E2E3E4" points="1092,826 815.4,826 815.4,858.9 1092,858.9 1092,844 "/>
<polygon opacity="0.38" fill="#E2E3E4" points="1092.2,792.1 815.4,792.1 815.4,825.1 1092.2,825.1 1092.2,810 "/>
<polygon opacity="0.38" fill="#E2E3E4" points="1092.2,758.9 815.4,758.9 815.4,791.9 1092.2,791.9 1092.2,772.7 "/>
<polygon opacity="0.38" fill="#E2E3E4" points="1092.2,726 815.4,726 815.4,758.9 1092.2,758.9 1092.2,742 "/>
<polygon opacity="0.38" fill="#E2E3E4" points="1092.2,692.7 815.4,692.7 815.4,725.7 1092.2,725.7 1092.2,710 "/>
<polygon opacity="0.38" fill="#E2E3E4" points="1092.2,657.8 815.4,657.8 815.4,692.7 1092.2,692.7 1092.2,677.3 "/>
<polygon opacity="0.38" fill="#E2E3E4" points="1092.2,623.6 815.4,623.6 815.4,657.7 1092.2,657.7 1092.2,642.7 "/>
<polygon opacity="0.38" fill="#E2E3E4" points="1092.2,589.2 815.4,589.2 815.4,623.3 1092.2,623.3 1092.2,604.7 "/>
<polygon opacity="0.38" fill="#E2E3E4" points="1092.2,555.9 815.4,555.9 815.4,588.8 1092.2,588.8 1092.2,573.3 "/>
<polygon opacity="0.38" fill="#E2E3E4" points="1092.2,522.7 815.4,522.7 815.4,555.6 1092.2,555.6 1092.2,541.3 "/>
<polygon opacity="0.38" fill="#E2E3E4" points="1092.2,489.7 815.4,489.7 815.4,522.6 1092.2,522.6 1092.2,507.3 "/>
<polygon opacity="0.38" fill="#E2E3E4" points="1092.2,457.1 815.4,457.1 815.4,490 1092.2,490 1092.2,473.3 "/>
<polygon opacity="0.38" fill="#E2E3E4" points="1092.2,424.1 815.4,424.1 815.4,457 1092.2,457 1092.2,442 "/>
<polygon opacity="0.38" fill="#E2E3E4" points="1092.2,388.8 815.4,388.8 815.4,424.1 1092.2,424.1 1092.2,403.3 "/>
<polygon opacity="0.38" fill="#E2E3E4" points="1092.2,355.3 815.4,355.3 815.4,388.4 1092.2,388.4 1092.2,372 "/>
<polygon opacity="0.38" fill="#E2E3E4" points="1092.2,321.1 815.4,321.1 815.4,355.2 1092.2,355.2 1092.2,338 "/>
<polygon opacity="0.38" fill="#E2E3E4" points="1092.2,283.9 815.4,283.9 815.4,321.3 1092.2,321.3 1092.2,298.7 "/>
<polygon opacity="0.38" fill="#E2E3E4" points="1092.2,246.4 815.4,246.4 815.4,283.8 1092.2,283.8 1092.2,266 "/>
<polygon opacity="0.38" fill="#E2E3E4" points="1092.2,210.6 815.4,210.6 815.4,246.3 1092.2,246.3 1092.2,230 "/>
<polygon opacity="0.38" fill="#E2E3E4" points="1092.2,175.3 815.4,175.3 815.4,210.9 1092.2,210.9 1092.2,194 "/>
</svg>
