<?xml version="1.0" encoding="utf-8"?>
<!-- Generator: Adobe Illustrator 17.1.0, SVG Export Plug-In . SVG Version: 6.00 Build 0)  -->
<!DOCTYPE svg PUBLIC "-//W3C//DTD SVG 1.1//EN" "http://www.w3.org/Graphics/SVG/1.1/DTD/svg11.dtd">
<svg version="1.1" id="Layer_1" xmlns="http://www.w3.org/2000/svg" xmlns:xlink="http://www.w3.org/1999/xlink" x="0px" y="0px"
	 viewBox="0 0 1920 1080" enable-background="new 0 0 1920 1080" xml:space="preserve">
<image overflow="visible" width="1920" height="1080" xlink:href="../apartments__storey/section__3__background.jpg" >
</image>
<polygon opacity="0.38" fill="#DBDCDD" points="1105,888.4 828.7,888.4 828.7,917 1105,917 1105,902.5 "/>
<polygon opacity="0.38" fill="#DBDCDD" points="1105,852 828.7,852 828.7,888.1 1105,888.1 1105,867.5 "/>
<polygon opacity="0.38" fill="#DBDCDD" points="1105,815.5 828.7,815.5 828.7,851.7 1105,851.7 1105,832.5 "/>
<polygon opacity="0.38" fill="#DBDCDD" points="1105,778.7 828.7,778.7 828.7,814.8 1105,814.8 1105,794 "/>
<polygon opacity="0.38" fill="#DBDCDD" points="1105,741.8 828.7,741.8 828.7,777.9 1105,777.9 1105,761 "/>
<polygon opacity="0.38" fill="#DBDCDD" points="1105,708.9 828.7,708.9 828.7,741.1 1105,741.1 1105,722.5 "/>
<polygon opacity="0.38" fill="#DBDCDD" points="1105,676 828.7,676 828.7,708.1 1105,708.1 1105,692.5 "/>
<polygon opacity="0.38" fill="#DBDCDD" points="1105,643.9 828.7,643.9 828.7,676.1 1105,676.1 1105,661 "/>
<polygon opacity="0.38" fill="#DBDCDD" points="1105,611 828.7,611 828.7,643.2 1105,643.2 1105,626.5 "/>
<polygon opacity="0.38" fill="#DBDCDD" points="1105,577.7 828.7,577.7 828.7,611.2 1105,611.2 1105,597 "/>
<polygon opacity="0.38" fill="#DBDCDD" points="1105,545.2 828.7,545.2 828.7,577.4 1105,577.4 1105,561.5 "/>
<polygon opacity="0.38" fill="#DBDCDD" points="1105,513.2 828.7,513.2 828.7,545.3 1105,545.3 1105,529.5 "/>
<polygon opacity="0.38" fill="#DBDCDD" points="1105,480.7 828.7,480.7 828.7,512.9 1105,512.9 1105,495.5 "/>
<polygon opacity="0.38" fill="#DBDCDD" points="1105,448.2 828.7,448.2 828.7,480.4 1105,480.4 1105,465 "/>
<polygon opacity="0.38" fill="#DBDCDD" points="1105,414.4 828.7,414.4 828.7,447.9 1105,447.9 1105,433 "/>
<polygon opacity="0.38" fill="#DBDCDD" points="1105,380.6 828.7,380.6 828.7,414.1 1105,414.1 1105,398.5 "/>
<polygon opacity="0.38" fill="#DBDCDD" points="1105,346.8 828.7,346.8 828.7,380.3 1105,380.3 1105,363 "/>
<polygon opacity="0.38" fill="#DBDCDD" points="1105,312.6 828.7,312.6 828.7,346.1 1105,346.1 1105,331 "/>
<polygon opacity="0.38" fill="#DBDCDD" points="1105,279.3 828.7,279.3 828.7,312.7 1105,312.7 1105,294.5 "/>
<polygon opacity="0.38" fill="#DBDCDD" points="1105,245.5 828.7,245.5 828.7,278.9 1105,278.9 1105,261.5 "/>
<polygon opacity="0.38" fill="#DBDCDD" points="1105,211.2 828.7,211.2 828.7,244.7 1105,244.7 1105,226.5 "/>
</svg>
