<!-- Generator: Adobe Illustrator 17.1.0, SVG Export Plug-In  -->
<svg version="1.1"
	 xmlns="http://www.w3.org/2000/svg" xmlns:xlink="http://www.w3.org/1999/xlink" xmlns:a="http://ns.adobe.com/AdobeSVGViewerExtensions/3.0/"
	 x="0px" y="0px" width="115.4px" height="132.8px" viewBox="0 0 115.4 132.8" enable-background="new 0 0 115.4 132.8"
	 xml:space="preserve">
<defs>
</defs>
<path fill="#FFFFFF" d="M115.4,57.7c0,43.4-57.7,75.1-57.7,75.1S0,104.3,0,57.7C0,25.8,25.8,0,57.7,0S115.4,25.8,115.4,57.7z"/>
<g>
	<path fill="#F5AB00" stroke="#F5AB00" stroke-width="7.030000e-002" stroke-miterlimit="22.9256" d="M13.5,74V43.7h6.2V74H13.5z"/>
	<path fill="#D61D00" stroke="#D61D00" stroke-width="7.030000e-002" stroke-miterlimit="22.9256" d="M35.7,74H26V43.7h9.7
		c8.7,0,14.5,6.1,14.5,14.9V59C50.2,67.9,44.4,74,35.7,74z M43.7,58.7c0-6-3.2-9.3-7.8-9.3h-3.7v19h3.7c4.5,0,7.8-3.2,7.8-9.3V58.7z
		"/>
	<path fill="#24A700" stroke="#24A700" stroke-width="7.030000e-002" stroke-miterlimit="22.9256" d="M55.1,74V43.7h19.5v5.6H61.3
		v6.6H73v5.6H61.3v6.8h13.5V74H55.1z"/>
	<path fill="#000A8F" stroke="#000A8F" stroke-width="7.030000e-002" stroke-miterlimit="22.9256" d="M100.7,74h-6.3V64h-3.9
		l-5.6,10h-7.1l6.4-11.2c-3.3-1.4-5.6-4.3-5.6-9.1c0-6,3.8-9.5,9.9-9.8c1.9-0.1,3.8-0.1,5.8-0.1h6.5V74z M94.4,58.5v-9.1h-1.2
		c-4.7,0-8.4,0-8.4,4.6c0,2.9,1.8,4.5,4.8,4.5H94.4z"/>

		<rect x="13.5" y="43.7" fill="#E66F00" stroke="#E66F00" stroke-width="7.030000e-002" stroke-miterlimit="22.9256" width="6.2" height="6.2"/>

		<rect x="94.4" y="43.7" fill="#0047B2" stroke="#0047B2" stroke-width="7.030000e-002" stroke-miterlimit="22.9256" width="6.3" height="5.7"/>

		<rect x="94.4" y="68.3" fill="#0047B2" stroke="#0047B2" stroke-width="7.030000e-002" stroke-miterlimit="22.9256" width="6.3" height="5.7"/>

		<rect x="55.1" y="43.7" fill="#00805C" stroke="#00805C" stroke-width="7.030000e-002" stroke-miterlimit="22.9256" width="6.2" height="5.6"/>

		<rect x="68.6" y="68.2" fill="#00805C" stroke="#00805C" stroke-width="7.030000e-002" stroke-miterlimit="22.9256" width="6.2" height="5.6"/>

		<rect x="26" y="68.3" fill="#6F0087" stroke="#6F0087" stroke-width="7.030000e-002" stroke-miterlimit="22.9256" width="6.2" height="5.7"/>
</g>
</svg>


