<!-- Generator: Adobe Illustrator 17.1.0, SVG Export Plug-In  -->
<svg version="1.1"
	 xmlns="http://www.w3.org/2000/svg" xmlns:xlink="http://www.w3.org/1999/xlink" xmlns:a="http://ns.adobe.com/AdobeSVGViewerExtensions/3.0/"
	 x="0px" y="0px" width="115.4px" height="132.8px" viewBox="0 0 115.4 132.8" enable-background="new 0 0 115.4 132.8"
	 xml:space="preserve">
<defs>
</defs>
<path fill="#FFFFFF" d="M115.4,57.7c0,43.4-57.7,75.1-57.7,75.1S0,104.3,0,57.7C0,25.8,25.8,0,57.7,0S115.4,25.8,115.4,57.7z"/>
<g>
	<path fill="#BFBFBF" d="M36.8,87.2H32v8.7h-1.3v-9.8h6V87.2z"/>
	<path fill="#BFBFBF" d="M36.6,92.2c0-0.5,0.1-1,0.2-1.5c0.2-0.5,0.4-0.8,0.7-1.2c0.3-0.3,0.6-0.6,1-0.8c0.4-0.2,0.9-0.3,1.4-0.3
		c0.5,0,1,0.1,1.4,0.3c0.4,0.2,0.8,0.4,1,0.8c0.3,0.3,0.5,0.7,0.7,1.2c0.2,0.5,0.2,0.9,0.2,1.5v0.1c0,0.5-0.1,1-0.2,1.5
		c-0.2,0.5-0.4,0.8-0.7,1.2c-0.3,0.3-0.6,0.6-1,0.8c-0.4,0.2-0.9,0.3-1.4,0.3c-0.5,0-1-0.1-1.4-0.3c-0.4-0.2-0.8-0.4-1-0.8
		c-0.3-0.3-0.5-0.7-0.7-1.2c-0.2-0.5-0.2-0.9-0.2-1.5V92.2z M37.8,92.4c0,0.4,0,0.7,0.1,1c0.1,0.3,0.2,0.6,0.4,0.9s0.4,0.4,0.6,0.6
		c0.3,0.1,0.6,0.2,0.9,0.2c0.3,0,0.6-0.1,0.9-0.2s0.5-0.3,0.6-0.6s0.3-0.5,0.4-0.9c0.1-0.3,0.1-0.7,0.1-1v-0.1c0-0.4,0-0.7-0.1-1
		c-0.1-0.3-0.2-0.6-0.4-0.9s-0.4-0.4-0.7-0.6c-0.3-0.1-0.6-0.2-0.9-0.2c-0.3,0-0.6,0.1-0.9,0.2c-0.3,0.1-0.5,0.3-0.6,0.6
		s-0.3,0.5-0.4,0.9c-0.1,0.3-0.1,0.7-0.1,1V92.4z"/>
	<path fill="#BFBFBF" d="M50.9,92.4c0,0.5-0.1,1-0.2,1.5c-0.1,0.5-0.3,0.8-0.5,1.2s-0.5,0.6-0.9,0.8c-0.3,0.2-0.8,0.3-1.2,0.3
		c-0.5,0-0.9-0.1-1.2-0.2s-0.6-0.4-0.9-0.6v3.5h-1.2V88.6h1.1l0.1,0.8c0.2-0.3,0.5-0.5,0.9-0.7c0.4-0.2,0.8-0.2,1.2-0.2
		c0.5,0,0.9,0.1,1.2,0.3s0.7,0.4,0.9,0.8c0.2,0.3,0.4,0.7,0.5,1.2s0.2,1,0.2,1.5V92.4z M49.7,92.2c0-0.4,0-0.7-0.1-1
		c-0.1-0.3-0.2-0.6-0.4-0.8c-0.2-0.2-0.4-0.4-0.6-0.6s-0.5-0.2-0.9-0.2c-0.2,0-0.4,0-0.6,0.1c-0.2,0-0.3,0.1-0.5,0.2
		c-0.1,0.1-0.3,0.2-0.4,0.3c-0.1,0.1-0.2,0.3-0.3,0.4V94c0.1,0.1,0.2,0.3,0.3,0.4c0.1,0.1,0.2,0.2,0.4,0.3c0.1,0.1,0.3,0.2,0.5,0.2
		c0.2,0,0.4,0.1,0.6,0.1c0.3,0,0.6-0.1,0.9-0.2s0.4-0.3,0.6-0.6c0.2-0.2,0.3-0.5,0.4-0.9c0.1-0.3,0.1-0.7,0.1-1V92.2z"/>
	<path fill="#BFBFBF" d="M55.4,95c0.2,0,0.4,0,0.6-0.1c0.2-0.1,0.4-0.2,0.5-0.3c0.2-0.1,0.3-0.3,0.4-0.4s0.2-0.4,0.2-0.6h1.2
		c0,0.3-0.1,0.6-0.3,0.9c-0.2,0.3-0.4,0.6-0.6,0.8s-0.6,0.4-0.9,0.5c-0.3,0.1-0.7,0.2-1.1,0.2c-0.5,0-1-0.1-1.4-0.3
		c-0.4-0.2-0.7-0.5-1-0.8c-0.3-0.3-0.5-0.7-0.6-1.2c-0.1-0.4-0.2-0.9-0.2-1.4v-0.3c0-0.5,0.1-1,0.2-1.4c0.1-0.4,0.3-0.8,0.6-1.2
		c0.3-0.3,0.6-0.6,1-0.8s0.9-0.3,1.4-0.3c0.4,0,0.8,0.1,1.2,0.2c0.3,0.1,0.6,0.3,0.9,0.6c0.3,0.2,0.5,0.5,0.6,0.8
		c0.1,0.3,0.2,0.7,0.2,1h-1.2c0-0.2-0.1-0.4-0.2-0.6c-0.1-0.2-0.2-0.4-0.4-0.5c-0.1-0.1-0.3-0.3-0.5-0.3c-0.2-0.1-0.4-0.1-0.7-0.1
		c-0.4,0-0.7,0.1-1,0.2c-0.3,0.2-0.5,0.4-0.6,0.6c-0.2,0.3-0.3,0.5-0.3,0.8c-0.1,0.3-0.1,0.6-0.1,0.9v0.3c0,0.3,0,0.6,0.1,1
		c0.1,0.3,0.2,0.6,0.3,0.8c0.2,0.2,0.4,0.4,0.6,0.6C54.7,95,55,95,55.4,95z"/>
	<path fill="#BFBFBF" d="M59.4,92.2c0-0.5,0.1-1,0.2-1.5c0.2-0.5,0.4-0.8,0.7-1.2c0.3-0.3,0.6-0.6,1-0.8c0.4-0.2,0.9-0.3,1.4-0.3
		c0.5,0,1,0.1,1.4,0.3c0.4,0.2,0.8,0.4,1,0.8c0.3,0.3,0.5,0.7,0.7,1.2c0.2,0.5,0.2,0.9,0.2,1.5v0.1c0,0.5-0.1,1-0.2,1.5
		c-0.2,0.5-0.4,0.8-0.7,1.2c-0.3,0.3-0.6,0.6-1,0.8c-0.4,0.2-0.9,0.3-1.4,0.3c-0.5,0-1-0.1-1.4-0.3c-0.4-0.2-0.8-0.4-1-0.8
		c-0.3-0.3-0.5-0.7-0.7-1.2c-0.2-0.5-0.2-0.9-0.2-1.5V92.2z M60.7,92.4c0,0.4,0,0.7,0.1,1c0.1,0.3,0.2,0.6,0.4,0.9s0.4,0.4,0.6,0.6
		c0.3,0.1,0.6,0.2,0.9,0.2c0.3,0,0.6-0.1,0.9-0.2s0.5-0.3,0.6-0.6s0.3-0.5,0.4-0.9c0.1-0.3,0.1-0.7,0.1-1v-0.1c0-0.4,0-0.7-0.1-1
		c-0.1-0.3-0.2-0.6-0.4-0.9s-0.4-0.4-0.7-0.6c-0.3-0.1-0.6-0.2-0.9-0.2c-0.3,0-0.6,0.1-0.9,0.2c-0.3,0.1-0.5,0.3-0.6,0.6
		s-0.3,0.5-0.4,0.9c-0.1,0.3-0.1,0.7-0.1,1V92.4z"/>
	<path fill="#BFBFBF" d="M67.7,95.9v-7.3h2.8c0.5,0,0.9,0,1.3,0.1s0.7,0.2,1,0.4s0.5,0.4,0.6,0.6c0.1,0.3,0.2,0.5,0.2,0.9
		c0,0.3-0.1,0.6-0.3,0.9c-0.2,0.3-0.5,0.5-0.9,0.6c0.2,0.1,0.4,0.1,0.6,0.2c0.2,0.1,0.3,0.2,0.5,0.4s0.2,0.3,0.3,0.5
		c0.1,0.2,0.1,0.4,0.1,0.6c0,0.3-0.1,0.6-0.2,0.9c-0.1,0.3-0.3,0.5-0.6,0.6c-0.2,0.2-0.5,0.3-0.9,0.4c-0.3,0.1-0.7,0.1-1.2,0.1H67.7
		z M69,91.7h1.6c1.2,0,1.8-0.3,1.8-1c0-0.7-0.6-1.1-1.8-1.1H69V91.7z M69,92.7v2.2H71c0.5,0,0.9-0.1,1.2-0.3s0.4-0.5,0.4-0.8
		c0-0.3-0.1-0.6-0.4-0.8c-0.3-0.2-0.6-0.3-1.2-0.3H69z"/>
	<path fill="#BFBFBF" d="M78.5,96.1c-0.5,0-1-0.1-1.4-0.3c-0.4-0.2-0.8-0.4-1.1-0.7s-0.5-0.7-0.7-1.1c-0.2-0.4-0.2-0.9-0.2-1.4v-0.3
		c0-0.6,0.1-1.1,0.3-1.6c0.2-0.5,0.4-0.9,0.7-1.2c0.3-0.3,0.6-0.6,1-0.7c0.4-0.2,0.8-0.3,1.2-0.3c0.5,0,1,0.1,1.3,0.3
		c0.4,0.2,0.7,0.4,0.9,0.8s0.4,0.7,0.5,1.1c0.1,0.4,0.2,0.9,0.2,1.4v0.6h-4.9c0,0.3,0.1,0.7,0.2,0.9c0.1,0.3,0.2,0.5,0.4,0.8
		s0.4,0.4,0.7,0.5C78,95,78.3,95,78.6,95c0.4,0,0.8-0.1,1.1-0.3s0.6-0.4,0.8-0.7l0.8,0.6c-0.1,0.2-0.3,0.4-0.4,0.5
		c-0.2,0.2-0.4,0.3-0.6,0.5c-0.2,0.1-0.5,0.2-0.8,0.3C79.2,96,78.9,96.1,78.5,96.1z M78.4,89.5c-0.3,0-0.5,0-0.7,0.1
		c-0.2,0.1-0.4,0.2-0.6,0.4c-0.2,0.2-0.3,0.4-0.4,0.7c-0.1,0.3-0.2,0.6-0.2,0.9h3.7v-0.1c0-0.2-0.1-0.5-0.1-0.7
		c-0.1-0.2-0.2-0.5-0.3-0.6c-0.1-0.2-0.3-0.3-0.5-0.5C79,89.6,78.7,89.5,78.4,89.5z"/>
	<path fill="#BFBFBF" d="M88.2,89.6h-2.4v6.3h-1.2v-6.3h-2.4v-1h6.1V89.6z"/>
</g>
<g>
	<path fill="#969695" d="M18.6,75.3h2.4c0.2,1,1,1.6,2.1,1.6c1.1,0,2-0.8,2.1-2.2h-3.6v-1.9h3.6c-0.1-1.3-1-2.1-2.1-2.1
		c-1,0-1.8,0.7-2.1,1.7h-2.4c0.2-2.2,2.1-3.8,4.5-3.8c2.9,0,4.7,2,4.7,5.2c0,3.2-1.8,5.2-4.7,5.2C20.7,79.1,18.9,77.6,18.6,75.3z"/>
	<path fill="#969695" d="M33.9,69c2.1,0,3.5,1.4,3.5,3.5c0,2.1-1.5,3.5-3.7,3.5H32v2.9h-2.5V69H33.9z M32,74.1h1.1
		c1.1,0,1.7-0.6,1.7-1.6c0-1-0.6-1.6-1.7-1.6H32V74.1z"/>
	<path fill="#969695" d="M49.8,78.8h-2.2v-6.1h0l-2.4,6h-1.4l-2.4-6h-0.1v6.1H39V69h2.9l2.5,6.3h0.1l2.5-6.3h2.9V78.8z"/>
	<path fill="#969695" d="M58.6,72.8L58.6,72.8l-4.1,6h-2.4V69h2.5v6h0.1l4-6h2.4v9.8h-2.5V72.8z"/>
	<path fill="#969695" d="M65.4,78.8V71h-2.7v-2h8v2h-2.7v7.8H65.4z"/>
	<path fill="#969695" d="M77.1,76.7h-3.2l-0.6,2.2h-2.6L74,69h3.1l3.3,9.8h-2.7L77.1,76.7z M74.3,74.9h2.2l-1.1-3.8h-0.1L74.3,74.9z
		"/>
	<path fill="#969695" d="M95.2,78.8h-3l-2.9-4.1h-0.1v4.1h-2.4v-4.1h-0.1L84,78.8H81l3.7-5.2L81.2,69h2.7l2.9,4h0.1v-4h2.4v4h0.1
		l2.9-4H95l-3.5,4.7L95.2,78.8z"/>
</g>
<path fill="#BFBFBF" d="M40.3,19.3v39.9h33.3V19.3H40.3z M42.8,21.9h9.4v9.4v3.2h3.2h3.2V44H42.8V21.9z M71.1,56.5H42.8v-9.3h19
	v-2.1V44v-9.5v-3.1v-0.1h-6.5v-9.4h15.7V56.5z"/>
</svg>
