<?xml version="1.0" encoding="utf-8"?>
<!-- Generator: Adobe Illustrator 17.1.0, SVG Export Plug-In . SVG Version: 6.00 Build 0)  -->
<!DOCTYPE svg PUBLIC "-//W3C//DTD SVG 1.1//EN" "http://www.w3.org/Graphics/SVG/1.1/DTD/svg11.dtd">
<svg version="1.1" id="Layer_1" xmlns="http://www.w3.org/2000/svg" xmlns:xlink="http://www.w3.org/1999/xlink" x="0px" y="0px"
	 viewBox="0 0 564 470.8" enable-background="new 0 0 564 470.8" xml:space="preserve">
<g>
	
		<linearGradient id="SVGID_1_" gradientUnits="userSpaceOnUse" x1="-11645.0898" y1="1610.2754" x2="-11174.2832" y2="1610.2754" gradientTransform="matrix(4.489700e-011 -1 -1 -4.489700e-011 1892.2754 -11174.2832)">
		<stop  offset="0" style="stop-color:#26335D"/>
		<stop  offset="0.9286" style="stop-color:#1B294C"/>
	</linearGradient>
	<path opacity="0.9" fill="url(#SVGID_1_)" enable-background="new    " d="M11.9,15.8c4,10.8,6.9,22.2,8.8,34.3
		c1.9,12,3,23.6,3.2,34.7s0.3,19.4,0.3,24.9v41.2l0,0v0.6c0,5.4,0.1,11.7,0.3,18.6c0.2,6.9,1.3,13.9,3.2,20.8
		c1.9,6.9,4.8,13.7,8.8,20.3c4,6.5,9.5,12,16.5,16.4V243c-7,4.4-12.6,9.9-16.5,16.4c-4,6.5-6.9,13.3-8.8,20.3
		c-1.9,6.9-3,13.9-3.2,20.8c-0.2,6.9-0.3,13.1-0.3,18.6v0.6l0,0v41.2c0,5.5-0.1,13.8-0.3,24.9s-1.3,22.7-3.2,34.7
		c-1.9,12-4.8,23.5-8.8,34.3c-1.8,5-5.4,11-11.9,16h564c-6.5-5-10.2-11-11.9-15.8c-4-10.8-6.9-22.2-8.8-34.3
		c-1.9-12-3-23.6-3.2-34.7c-0.2-11.1-0.3-19.4-0.3-24.9v-41.2l0,0v-0.6c0-5.4-0.1-11.7-0.3-18.6c-0.2-6.9-1.3-13.9-3.2-20.8
		c-1.9-6.9-4.8-13.7-8.8-20.3c-4-6.5-9.5-12-16.5-16.4v-15.3c7-4.4,12.6-9.9,16.5-16.4c4-6.5,6.9-13.3,8.8-20.3
		c1.9-6.9,3-13.9,3.2-20.8c0.2-6.9,0.3-13.1,0.3-18.6V151l0,0v-41.2c0-5.5,0.1-13.8,0.3-24.9s1.3-22.7,3.2-34.7
		c1.9-12,4.8-23.5,8.8-34.3c1.8-4.9,5.4-10.8,11.9-15.8L0,0C6.5,5,10.2,11,11.9,15.8z"/>
</g>
</svg>
