<!-- Generator: Adobe Illustrator 17.1.0, SVG Export Plug-In  -->
<svg version="1.1"
	 xmlns="http://www.w3.org/2000/svg" xmlns:xlink="http://www.w3.org/1999/xlink" xmlns:a="http://ns.adobe.com/AdobeSVGViewerExtensions/3.0/"
	 x="0px" y="0px" width="1407.6px" height="612.5px" viewBox="0 0 1407.6 612.5" enable-background="new 0 0 1407.6 612.5"
	 xml:space="preserve">
<defs>
</defs>
<g>
	
		<linearGradient id="SVGID_1_" gradientUnits="userSpaceOnUse" x1="1725.1465" y1="995.3657" x2="2337.6538" y2="995.3657" gradientTransform="matrix(4.489700e-011 -1 1 4.489700e-011 -291.5581 2337.6538)">
		<stop  offset="0" style="stop-color:#26335D"/>
		<stop  offset="0.9286" style="stop-color:#1B294C"/>
	</linearGradient>
	<path fill="url(#SVGID_1_)" d="M16.5,20.6c5.5,14,9.6,28.9,12.1,44.6c2.7,15.7,4.1,30.7,4.4,45.3c0.3,14.5,0.5,25.3,0.5,32.4v53.6
		h0v0.8c0,7.1,0.2,15.2,0.5,24.2c0.3,9.1,1.7,18.1,4.4,27.1c2.5,9.1,6.7,17.9,12.1,26.4c5.5,8.5,13.2,15.7,22.9,21.4v20
		c-9.8,5.7-17.5,12.9-22.9,21.4c-5.5,8.5-9.6,17.3-12.1,26.4c-2.7,9-4.1,18-4.4,27.1c-0.3,9-0.5,17.1-0.5,24.2v0.8h0v53.6
		c0,7.1-0.2,17.9-0.5,32.4c-0.3,14.5-1.8,29.6-4.4,45.3c-2.5,15.7-6.7,30.5-12.1,44.6C14.1,598.3,9.1,606,0,612.5h1407.6
		c-9.1-6.5-14.1-14.2-16.5-20.6c-5.5-14-9.6-28.9-12.1-44.6c-2.7-15.7-4.1-30.7-4.4-45.3c-0.3-14.5-0.5-25.3-0.5-32.4v-53.6h0v-0.8
		c0-7.1-0.2-15.2-0.5-24.2c-0.3-9.1-1.7-18.1-4.4-27.1c-2.5-9.1-6.7-17.9-12.1-26.4c-5.5-8.5-13.2-15.7-22.9-21.4v-20
		c9.8-5.7,17.5-12.9,22.9-21.4c5.5-8.5,9.6-17.3,12.1-26.4c2.7-9,4.1-18,4.4-27.1c0.3-9,0.5-17.1,0.5-24.2v-0.8h0v-53.6
		c0-7.1,0.2-17.9,0.5-32.4c0.3-14.5,1.7-29.6,4.4-45.3c2.5-15.7,6.7-30.5,12.1-44.6c2.5-6.4,7.5-14.1,16.5-20.6L0,0
		C9.1,6.5,14.1,14.2,16.5,20.6z"/>
</g>
</svg>
