<!-- Generator: Adobe Illustrator 17.1.0, SVG Export Plug-In  -->
<svg version="1.1"
	 xmlns="http://www.w3.org/2000/svg" xmlns:xlink="http://www.w3.org/1999/xlink" xmlns:a="http://ns.adobe.com/AdobeSVGViewerExtensions/3.0/"
	 x="0px" y="0px" width="272.3px" height="56.7px" viewBox="0 0 272.3 56.7" enable-background="new 0 0 272.3 56.7"
	 xml:space="preserve">
<defs>
</defs>
<g>
	<polygon fill="#FFFFFF" points="77.2,36.5 77.2,23.8 85.5,16.2 95.7,16.2 95.7,23 84.6,23 84.6,36.5 	"/>
	<path fill="#FFFFFF" d="M112,23h-7.4v6.7h7.4V23z M97.2,23.8l8.4-7.6h13.9v12.7l-8.3,7.6h-14V23.8z"/>
	<polygon fill="#FFFFFF" points="121.5,23.8 129.9,16.2 141.1,16.2 141.1,23 129,23 129,29.7 141.1,29.7 141.1,36.5 121.5,36.5 	"/>
	<polygon fill="#FFFFFF" points="143.1,23.8 151.5,16.2 162.7,16.2 162.7,23 150.6,23 150.6,29.7 162.7,29.7 162.7,36.5 143.1,36.5
			"/>
	<polygon fill="#FFFFFF" points="172.2,16.2 172.2,21 177.4,16.2 185.7,16.2 185.7,21 190.9,16.2 199.1,16.2 199.1,36.5 191.7,36.5
		191.7,23 185.7,23 185.7,36.5 178.2,36.5 178.2,23 172.2,23 172.2,36.5 164.8,36.5 164.8,16.2 	"/>
	<path fill="#FFFFFF" d="M216.1,23h-7.4v6.7h7.4V23z M208.7,43.2h-7.5V23.8l8.4-7.6h13.9v12.7l-8.3,7.6h-6.5V43.2z"/>
	<path fill="#FFFFFF" d="M240.5,23h-7.4v6.7h7.4V23z M225.6,23.8l8.4-7.6h13.9v12.7l-8.3,7.6h-14V23.8z"/>
	<polygon fill="#FFFFFF" points="272.3,36.5 264.8,36.5 264.8,31.8 259.6,36.5 250,36.5 250,16.2 257.5,16.2 257.5,29.7 264.8,29.7
		264.8,16.2 272.3,16.2 	"/>
	<rect x="257.4" y="9.5" fill="#00ADEE" width="7.5" height="6.8"/>
	<polygon fill="#FFFFFF" points="78.4,46.6 78.4,53.4 77.1,53.4 77.1,45.4 82.6,45.4 82.6,46.6 	"/>
	<path fill="#FFFFFF" d="M84.9,49.4c0,1.9,1,3.1,2.5,3.1c1.5,0,2.4-1.2,2.4-3.1c0-1.9-0.9-3.1-2.5-3.1
		C85.8,46.3,84.9,47.5,84.9,49.4 M84.9,46.6c0.6-1,1.5-1.4,2.7-1.4c2.2,0,3.7,1.6,3.7,4.2c0,2.6-1.4,4.3-3.6,4.3
		c-1.2,0-2-0.4-2.7-1.3v4.2h-1.3V45.4h1.2V46.6z"/>
	<path fill="#FFFFFF" d="M95.9,54.5c-0.4,1.1-0.9,2.2-2.3,2.2c-0.3,0-0.7-0.1-1-0.1v-1.2c0.4,0.1,0.6,0.2,0.9,0.2
		c0.4,0,0.8-0.3,0.9-0.7l0.6-1.5l-3.2-8h1.5l2.4,6.4l2.3-6.4h1.4L95.9,54.5z"/>
	<polygon fill="#FFFFFF" points="100.4,53.4 100.4,45.4 107.1,45.4 107.1,53.4 105.8,53.4 105.8,46.6 101.8,46.6 101.8,53.4 	"/>
	<polygon fill="#FFFFFF" points="109.1,53.4 109.1,45.4 115.7,45.4 115.7,53.4 114.4,53.4 114.4,46.6 110.4,46.6 110.4,53.4 	"/>
	<path fill="#FFFFFF" d="M120.9,49.8c-1,0.1-2.3,0.2-2.3,1.5c0,0.8,0.6,1.3,1.6,1.3c1.2,0,2.4-0.9,2.4-1.9v-1.5
		C122.2,49.7,121.5,49.7,120.9,49.8 M124.8,53.4c-0.3,0.1-0.6,0.2-0.9,0.2c-0.7,0-1.2-0.4-1.2-1.2c-0.8,0.9-1.7,1.3-2.9,1.3
		c-1.6,0-2.6-0.9-2.6-2.3c0-1.4,0.9-2.3,2.8-2.5c1.9-0.2,2.6-0.2,2.6-1.3c0-0.9-0.6-1.3-1.8-1.3c-1.2,0-1.9,0.5-2,1.6h-1.3
		c0-1.7,1.3-2.7,3.4-2.7c1.1,0,2,0.3,2.5,0.8c0.6,0.5,0.5,1.4,0.5,2.1c0,1.2-0.1,2.4-0.1,3.6c0,0.6,0.1,0.8,0.5,0.8
		c0.1,0,0.2,0,0.3,0V53.4z"/>
	<polygon fill="#FFFFFF" points="135.9,53.4 133,49.5 131.7,50.7 131.7,53.4 130.4,53.4 130.4,45.4 131.7,45.4 131.7,49.2
		135.4,45.4 137.2,45.4 133.9,48.6 137.6,53.4 	"/>
	<path fill="#FFFFFF" d="M139.4,49.4c0,2,0.9,3.1,2.6,3.1c1.6,0,2.5-1.2,2.5-3.2c0-1.9-1-3.1-2.5-3.1
		C140.4,46.3,139.4,47.5,139.4,49.4 M145.8,49.4c0,2.7-1.4,4.3-3.9,4.3c-2.5,0-3.9-1.6-3.9-4.2c0-2.6,1.5-4.3,3.9-4.3
		C144.4,45.2,145.8,46.7,145.8,49.4"/>
	<polygon fill="#FFFFFF" points="154.8,53.4 154.8,47.1 154.7,47.1 152.4,53.4 151.1,53.4 148.8,47.1 148.7,47.1 148.7,53.4
		147.4,53.4 147.4,45.4 149.3,45.4 151.7,51.9 151.8,51.9 154.2,45.4 156.1,45.4 156.1,53.4 	"/>
	<polygon fill="#FFFFFF" points="158.1,53.4 158.1,45.4 164.7,45.4 164.7,53.4 163.4,53.4 163.4,46.6 159.4,46.6 159.4,53.4 	"/>
	<path fill="#FFFFFF" d="M169.9,49.8c-1,0.1-2.3,0.2-2.3,1.5c0,0.8,0.6,1.3,1.6,1.3c1.2,0,2.4-0.9,2.4-1.9v-1.5
		C171.2,49.7,170.5,49.7,169.9,49.8 M173.8,53.4c-0.3,0.1-0.6,0.2-0.9,0.2c-0.7,0-1.2-0.4-1.2-1.2c-0.8,0.9-1.7,1.3-2.9,1.3
		c-1.6,0-2.6-0.9-2.6-2.3c0-1.4,0.9-2.3,2.8-2.5c1.9-0.2,2.6-0.2,2.6-1.3c0-0.9-0.6-1.3-1.8-1.3c-1.2,0-1.9,0.5-2,1.6h-1.3
		c0-1.7,1.3-2.7,3.4-2.7c1.1,0,2,0.3,2.5,0.8c0.6,0.5,0.5,1.4,0.5,2.1c0,1.2-0.1,2.4-0.1,3.6c0,0.6,0.1,0.8,0.5,0.8
		c0.1,0,0.2,0,0.3,0V53.4z"/>
	<polygon fill="#FFFFFF" points="175.1,53.4 175.1,45.4 176.4,45.4 176.4,48.6 180.4,48.6 180.4,45.4 181.7,45.4 181.7,53.4
		180.4,53.4 180.4,49.8 176.4,49.8 176.4,53.4 	"/>
	<polygon fill="#FFFFFF" points="183.7,53.4 183.7,45.4 185,45.4 185,52 185.1,52 188.7,45.4 190.4,45.4 190.4,53.4 189.1,53.4
		189.1,46.9 189,46.9 185.4,53.4 	"/>
	<path fill="#FFFFFF" d="M195.7,44.5c-1.3,0-2.2-0.9-2.4-2.1h0.8c0.2,0.7,0.8,1.2,1.6,1.2c0.8,0,1.3-0.5,1.6-1.2h0.8
		C197.8,43.6,197.1,44.5,195.7,44.5 M192.4,53.4v-8h1.3V52h0l3.6-6.6h1.7v8h-1.3v-6.5h0l-3.6,6.5H192.4z"/>
	<polygon fill="#D81278" points="8,54.7 19.3,43.4 30.7,54.7 	"/>
	<polygon fill="#00ADEE" points="8,32.1 19.3,43.4 8,54.7 	"/>
	<polygon fill="#D81278" points="53.3,32.1 53.3,54.7 30.7,54.7 	"/>
	<polygon fill="#FFFFFF" points="30.7,54.7 30.7,54.7 53.3,32.1 8,32.1 	"/>
	<polygon fill="#D81278" points="32,16 16,32 0,32 16,16 	"/>
	<polygon fill="#00ADEE" points="38.7,9.4 16,32 61.3,32 	"/>
	<rect x="16" y="0" fill="#00ADEE" width="16" height="16"/>
</g>
</svg>
